<svg xmlns="http://www.w3.org/2000/svg" width="303" height="361.825" viewBox="0 0 303 361.825"><path fill="#FCC236" d="M81.969 105.135c3.589 3.266 8.993 3.117 12.349 6.674-.238-.25.023-2.119.023-2.503 0-.445.293-2.164-.023-2.503-3.355-3.557-8.76-3.408-12.349-6.673.222.199-.025 2.158-.025 2.502-.001.401-.282 2.223.025 2.503z"/><path fill="#BF2561" d="M38.669 114.979c2.067.021 4.263.357 6.007-1.001.247-.191.026-2.167.026-2.503 0-.331-.271-2.312-.026-2.503-1.744 1.359-3.939 1.022-6.007 1.001v5.006z"/><path fill="#FCC236" d="M49.512 144.681c-.148-.946-.168-.372-.055 1.729-.135 2.033-.129 2.671.018 1.908.076-.131.082-.33.15-.475.131-.272.323-.507.567-.687.544-.401 1.271-.478 1.926-.423 1.447.121 2.936.911 3.651 2.202l.018-.733c.008-.591.008-1.181.008-1.77 0-.591 0-1.181-.008-1.77-.002-.182.068-.581-.018-.733-.891-1.604-3.322-2.743-5.105-2.033-.912.363-1.207 1.147-1.25 2.068-.086 1.846-.225 3.888.098 5.722-.283-1.611.287-3.38 0-5.005z"/><path fill="#A9C03A" d="M213.051 109.553c4.561 2.102 7.747 7.796 9.345 12.346-.518-1.473.524-3.508 0-5.006-1.596-4.548-4.782-10.242-9.345-12.346.604.277-.664 4.698 0 5.006z"/><path fill="#1E74A3" d="M208.341 47.733c-1.791-.025-3.729.375-4.083 2.396-.279 1.588-.15 3.605-.018 5.205.361 4.351 5.694 4.982 7.104 8.752-.543-1.453.552-3.533 0-5.006-1.388-3.713-6.573-4.339-7.094-8.537l.012 4.664c.041-2.093 2.478-2.489 4.079-2.468v-5.006z"/><path fill="#AF0D1B" d="M162.267 49.739c1.481.505 2.894 1.299 4.196 2.159 1.165.772 2.688 1.777 3.146 3.182-.213-.653.025-1.812.025-2.503 0-.741.208-1.791-.025-2.503-.459-1.408-1.979-2.407-3.146-3.182-1.303-.858-2.715-1.654-4.196-2.159.09.029-.025 2.292-.025 2.503-.001.23-.15 2.443.025 2.503z"/><path fill="#FCC236" d="M154.03 6.948c3.588 3.266 8.993 3.117 12.347 6.674-.237-.252.025-2.12.025-2.503 0-.446.293-2.165-.025-2.503-3.354-3.557-8.759-3.408-12.347-6.674.221.199-.025 2.159-.025 2.503 0 .402-.281 2.224.025 2.503z"/><path fill="#BF2561" d="M122.676 13.569c2.067.02 4.263.355 6.007-1.001.247-.194.025-2.169.025-2.503 0-.333-.27-2.313-.025-2.503-1.744 1.356-3.939 1.021-6.007 1.001v5.006z"/><path fill="#28ADC7" d="M128.435 46.095c-.15-.946-.168-.369-.055 1.729-.135 2.033-.131 2.671.016 1.908.076-.131.082-.328.152-.475.129-.271.322-.507.565-.685.543-.403 1.271-.479 1.926-.423 1.447.122 2.935.91 3.652 2.2l.018-.733a173.795 173.795 0 0 0 0-3.54c-.002-.18.066-.581-.018-.733-.892-1.604-3.324-2.741-5.107-2.031-.909.363-1.206 1.147-1.247 2.066-.086 1.846-.228 3.888.098 5.722-.286-1.611.285-3.382 0-5.005z"/><path fill="#A9C03A" d="M198.036 34.063c.342-.927.837-2.192 1.871-2.542 1.11-.374 2.162.581 2.884 1.29l.018-.732a174.253 174.253 0 0 0 0-3.541c-.002-.131.064-.652-.018-.732-.722-.71-1.775-1.664-2.884-1.291-1.036.35-1.529 1.615-1.871 2.542-.061.166-.016.603-.018.733a174.056 174.056 0 0 0 0 3.54c.003.193.083.562.018.733zM43.745 43.119c5.794-2.345 13.676-.384 19.167 2.047-1.777-.788-2.735-3.467-4.54-4.267-5.489-2.431-13.371-4.392-19.169-2.047.769-.311 3.695 4.609 4.542 4.267z"/><path fill="#AF0D1B" d="M24.8 106.654c1.721-.915 3.645-1.52 5.536-1.965 1.693-.401 3.9-.927 5.564-.145-.772-.364-1.619-1.566-2.248-2.157-.671-.63-1.447-1.713-2.292-2.109-1.668-.784-3.87-.259-5.567.145-1.889.445-3.814 1.052-5.535 1.965.104-.055 2.059 1.978 2.248 2.155.21.195 2.091 2.219 2.294 2.111z"/><path fill="#28ADC7" d="M59.24 82.046c2.193-3.934 6.259-9.216 11.167-9.46-.394.02-1.927-1.852-2.251-2.156-.377-.356-1.754-2.138-2.292-2.11-4.905.246-8.973 5.526-11.167 9.46-.265.479 4.766 3.866 4.543 4.266z"/><g fill="#BF2561"><path d="M12.45 60.416c-2.538-.225-5.345.332-7.885-.084.053.944.233 1.588.837 2.558L1.39 59.11c1.128 1.609 2.769 2.982 4.31 4.05 4.027 2.792 9.031.913 13.484 2.037-.288-.828-.653-1.632-1.176-2.389-1.632-1.346-3.154-2.181-5.558-2.392z"/><path d="M18.779 63.468a33.95 33.95 0 0 0-.632-.543l-.162-.158c.008.014.014.029.023.041.522.757.888 1.561 1.176 2.389 1.122 3.215.789 6.872 1.138 10.259.164 1.591 4.386 2.737 4.542 4.267-.377-3.683.31-8.377-1.652-11.705-1.042-1.769-2.925-3.21-4.433-4.55zM0 55.225c.006 1.239.434 2.39 1.093 3.447.016.025.033.049.049.076H1.14s1.191 2.102 4.459 4.341c-.604-.97-.98-1.813-1.033-2.757-.016-.257-.021-.53-.023-.841C4.534 58.028.008 56.618 0 55.225z"/></g><g fill="#AF0D1B"><path d="M92.431 28.547a32.407 32.407 0 0 0-.694-.574c.455.566.763 1.128.938 1.682.772 2.407-.837 4.679-2.815 6.793l4.542 4.267c3.145-3.361 3.915-5.983 1.214-9.118a14.225 14.225 0 0 0-.297-.328c-.137-.147-.27-.292-.42-.442a47.473 47.473 0 0 0-2.468-2.28zM51.519 8.548c-2.643 3.408 2.673 9.028 6.78 12.708.026-.049.046-.096.089-.143.061-.064.438.447.504.416-.357-.473-.999-1.5-1.28-1.881-1.438-1.945-3.309-4.567-1.553-6.834.148-.191-4.633-4.147-4.54-4.266z"/><path d="M84.902 24.073c-7.425-2.667-14.556.415-21.846-1.165a4.273 4.273 0 0 0-.354-.082c-.284-.084-.862-.286-1.477-.485-1.809-.751-3.974-2.043-3.974-2.043l.419.375c-.01 0-.002.016.051.066.359.335 1.689 1.5 1.689 1.5l.006-.002.186.158.035.031.002.002c.716.612 1.354 1.143 1.834 1.547 4.707 3.937 9.2 3.418 15.018 2.988 5.459-.403 11.302.09 16.183 2.69-.176-.554-.483-1.115-.938-1.682-2.01-1.623-4.153-2.936-6.834-3.898z"/></g><path fill="#FCC236" d="M14.575 147.705c-.373 2.752.853 5.376-.634 7.955-.072.125 2.062 1.98 2.249 2.156.178.168 2.341 2.026 2.292 2.11 1.485-2.577.262-5.205.633-7.955.049-.355-1.961-1.885-2.248-2.154a141.952 141.952 0 0 0-1.613-1.502c-.086-.082-.689-.538-.679-.61z"/><path fill="#28ADC7" d="M6.37 133.365c-.549-1.102-1.276-2.629-.709-3.864.605-1.326 2.369-1.469 3.627-1.518l-.649-.642a164.187 164.187 0 0 0-1.6-1.515 207.372 207.372 0 0 0-1.611-1.502c-.119-.109-.537-.614-.68-.608-1.258.049-3.023.191-3.63 1.518-.564 1.237.163 2.763.71 3.864.1.197.534.527.651.641a255.254 255.254 0 0 0 3.211 3.018c.178.162.579.402.68.608z"/><path fill="#AF0D1B" d="M240.788 114.14c2.81 1.054 5.638 2.601 8.689 1.615.431-.139 1.108-2.943 1.277-3.4.164-.452.778-3.287 1.206-3.426-3.053.985-5.88-.562-8.688-1.615l-2.484 6.826z"/><path fill="#28ADC7" d="M254.349 145.469c2.577.978 4.782 3.84 4.528 6.674.023-.253.321-.813.388-.992.303-.801.596-1.604.89-2.41.381-1.051 1.106-2.302 1.208-3.424.254-2.834-1.953-5.696-4.53-6.674l-2.484 6.826z"/><path fill="#A9C03A" d="M279.373 123.445c-5.725 2.503-13.66.763-19.215-1.514 1.799.737 2.831 3.391 4.657 4.138 5.554 2.276 13.488 4.019 19.218 1.514-.759.332-3.823-4.506-4.66-4.138z"/><path fill="#AF0D1B" d="M117.439 94.199c-1.697.962-3.602 1.618-5.479 2.119-1.684.448-3.876 1.032-5.562.299.782.341 1.664 1.52 2.31 2.093.688.612 1.494 1.672 2.348 2.045 1.689.737 3.876.148 5.562-.299 1.877-.499 3.783-1.157 5.479-2.118-.102.057-2.111-1.918-2.309-2.092-.214-.189-2.149-2.161-2.349-2.047z"/><path fill="#28ADC7" d="M142.553 57.314c-3.583 7.027-10.392 16.475-19.124 16.984.698-.041 3.59 3.262 4.192 3.798.706.627 3.307 3.773 4.265 3.719 8.732-.515 15.541-9.961 19.125-16.986.436-.856-8.823-6.799-8.458-7.515z"/><path fill="#1E74A3" d="M175.367 90.828c1.005.643.483.15-1.564-1.48-1.781-1.807-2.378-2.329-1.789-1.563.059.18.238.348.316.534.146.346.204.72.171 1.093-.076.839-.606 1.58-1.199 2.143-1.31 1.246-3.275 1.979-5.068 1.578l.669.622c.544.495 1.091.983 1.641 1.471.55.488 1.099.976 1.652 1.456.17.149.484.542.698.591 2.227.497 5.301-.825 6.112-3.071.414-1.148-.07-2.073-.892-2.873-1.648-1.605-3.432-3.424-5.404-4.638 1.734 1.067 2.909 3.061 4.657 4.137z"/><g fill="#1E74A3"><path d="M77.677 127.727c1.502-1.647 2.731-3.779 1.146-5.779-.513-.645-1.16-1.277-1.841-1.892-.053.039-.105.084-.162.107.54.478 1.082.954 1.621 1.434-1.169-.806-2.378-1.072-3.609-1.08-.291 1.146-1.087 2.274-1.814 3.072l4.659 4.138z"/><path d="M64.635 121.141c3.359 1.297 6.863-.642 10.197-.624 1.231.008 2.44.274 3.609 1.08l-.08-.072c.209.168.344.279.344.279-2.209-2.677-4.815-4.253-4.815-4.253a.966.966 0 0 1 .059.047c-4.339-3.198-9.315 1.202-13.974-.595 1.799.694 2.83 3.432 4.66 4.138z"/></g><path fill="#FCC236" d="M241.953 47.681c6.021-.472 10.493-5.503 16.58-5.515-.433 0-1.9-1.83-2.249-2.156-.404-.38-1.715-2.112-2.292-2.11-6.087.012-10.559 5.043-16.579 5.515.369-.029 1.938 1.863 2.249 2.154.363.342 1.777 2.151 2.291 2.112z"/><path fill="#AF0D1B" d="M229.306 69.234c1.782-1.857 3.956-3.564 4.212-6.304.035-.388-1.945-1.869-2.248-2.157-.302-.281-2.329-1.725-2.294-2.109-.254 2.739-2.431 4.446-4.212 6.304l4.542 4.266z"/><path fill="#28ADC7" d="M250.995 75.441c1.643-1.701 4.646-2.474 6.791-1.314-.189-.104-.532-.528-.649-.642a177.338 177.338 0 0 0-1.6-1.516c-.698-.656-1.438-1.649-2.291-2.109-2.147-1.159-5.148-.388-6.793 1.313l4.542 4.268z"/><path fill="#BF2561" d="M225.36 23.706c1.645-1.701 4.646-2.472 6.793-1.314-.189-.102-.532-.527-.649-.64-.53-.508-1.065-1.013-1.6-1.515-.7-.657-1.441-1.65-2.294-2.112-2.145-1.157-5.148-.387-6.791 1.314l4.541 4.267z"/><path fill="#1E74A3" d="M265.879 102.382c-.987-.671-.479-.164 1.521 1.523 1.73 1.855 2.312 2.394 1.746 1.611-.055-.18-.23-.354-.303-.542a2.283 2.283 0 0 1-.139-1.097c.1-.837.648-1.563 1.257-2.11 1.346-1.208 3.328-1.887 5.109-1.437l-.649-.64a152.365 152.365 0 0 0-1.599-1.516c-.536-.502-1.072-1.005-1.613-1.502-.165-.152-.47-.555-.679-.609-2.214-.558-5.322.679-6.196 2.901-.446 1.136.014 2.073.812 2.895 1.601 1.651 3.335 3.52 5.273 4.788-1.702-1.113-2.823-3.141-4.54-4.265z"/><g fill="#BF2561"><path d="M290.585 67.985c-2.538-.226-5.344.332-7.884-.084.053.946.232 1.59.837 2.56a3530.62 3530.62 0 0 0-4.013-3.78c1.129 1.609 2.771 2.982 4.313 4.05 4.025 2.792 9.029.913 13.483 2.037-.289-.829-.654-1.633-1.177-2.389-1.63-1.346-3.154-2.181-5.559-2.394z"/><path d="M296.915 71.039a26.537 26.537 0 0 0-.632-.545c-.055-.051-.107-.104-.162-.156.01.014.014.027.023.041.522.756.888 1.56 1.177 2.389 1.121 3.215.79 6.869 1.139 10.258.162 1.59 4.384 2.738 4.54 4.267-.377-3.682.311-8.378-1.652-11.706-1.042-1.769-2.925-3.208-4.433-4.548zm-18.777-8.245c.004 1.239.432 2.391 1.091 3.447l.049.076s1.191 2.104 4.458 4.343c-.604-.97-.981-1.813-1.034-2.759a15.162 15.162 0 0 1-.023-.841c-.007-1.46-4.535-2.872-4.541-4.266z"/></g><path fill="#FCC236" d="M175.59 46.183c-1.705 5.004.792 10.34-1.304 15.24.148-.348 2.129-.897 2.513-1.063.445-.193 2.291-.647 2.489-1.113 2.098-4.897-.401-10.234 1.304-15.237-.104.307-2.168.913-2.511 1.062-.4.172-2.345.683-2.491 1.111zm-34.668-3.762c.799 1.908.381 4.591-1.293 5.915.146-.117.608-.245.739-.302.593-.248 1.183-.504 1.771-.761.771-.334 1.826-.586 2.491-1.112 1.674-1.325 2.092-4.007 1.292-5.917l-5 2.177z"/><path fill="#BF2561" d="M204.113 87.354c.8 1.91.381 4.591-1.295 5.916.148-.117.61-.246.741-.301.593-.25 1.182-.506 1.771-.763.771-.334 1.826-.586 2.489-1.112 1.676-1.324 2.095-4.005 1.295-5.915l-5.001 2.175z"/><g fill="#BF2561"><path d="M101.384 74.753c1.06-1.964 1.584-4.411 2.796-6.311-.778-.285-1.356-.363-2.346-.213l4.427-1.918c-1.684.35-3.355 1.196-4.748 2.064-3.639 2.272-3.859 6.945-6.304 10.137.767.055 1.539.039 2.329-.119 1.647-.846 2.843-1.781 3.846-3.64z"/><path d="M96.738 78.784c.229-.105.445-.211.656-.318l.183-.076c-.014.004-.025.002-.039.004-.79.158-1.563.174-2.329.119-2.973-.211-5.798-1.742-8.643-2.634-1.336-.42-3.718 2.577-5.002 2.175 3.091.97 6.631 3.149 9.984 2.722 1.782-.225 3.593-1.243 5.19-1.992zm13.128-12.244c-.999-.426-2.072-.479-3.15-.314-.025.004-.051.008-.076.014v-.002s-2.104.229-5.035 2.082c.99-.15 1.797-.162 2.575.123.212.076.433.164.685.272 1.177.5 3.879-2.652 5.001-2.175z"/></g><g fill="#1E74A3"><path d="M156.234 91.354c-.755-1.801-1.997-3.563-4.169-3.038-.698.168-1.441.449-2.179.765.012.057.029.115.025.168.579-.255 1.158-.507 1.734-.761-1.069.632-1.727 1.494-2.184 2.47.802.653 1.403 1.701 1.77 2.573l5.003-2.177z"/><path d="M146.201 99.287c2.268-2.192 2.018-5.688 3.262-8.33.457-.976 1.114-1.838 2.184-2.47l-.086.039c.209-.105.348-.172.348-.172-2.938.771-5.15 2.26-5.15 2.26a.497.497 0 0 1 .059-.031c-4.137 2.269-2.475 7.842-5.617 10.878 1.212-1.173 3.766-.982 5-2.174z"/></g><path fill="#9A70DB" d="M281.407 235.682c0 2.538-2.073 4.999-2.223 7.499-.15 2.531 1.614 5.22 1.315 7.708-.303 2.517-2.657 4.711-3.106 7.18-.453 2.49.975 5.373.375 7.811-.604 2.458-3.206 4.352-3.952 6.75-.752 2.414.315 5.448-.577 7.798-.896 2.363-3.709 3.926-4.742 6.219-1.039 2.303-.348 5.444-1.52 7.671-1.175 2.234-4.156 3.447-5.46 5.6-1.308 2.158-1.001 5.361-2.433 7.432-1.436 2.074-4.541 2.918-6.096 4.898-1.557 1.984-1.637 5.201-3.309 7.086-1.672 1.887-4.855 2.352-6.639 4.133-1.781 1.782-2.247 4.966-4.134 6.639-1.885 1.671-5.102 1.752-7.085 3.309-1.982 1.555-2.826 4.66-4.901 6.094-2.07 1.432-5.273 1.125-7.432 2.434-2.152 1.305-3.362 4.285-5.599 5.461-2.225 1.17-5.368.479-7.671 1.518-2.292 1.033-3.855 3.846-6.218 4.742-2.35.891-5.384-.177-7.798.574-2.397.746-4.291 3.35-6.748 3.953-2.438.598-5.319-.83-7.812-.377-2.467.451-4.661 2.805-7.177 3.107-2.488.299-5.178-1.467-7.709-1.315-2.5.149-4.96 2.223-7.498 2.223s-4.998-2.073-7.498-2.224c-2.531-.15-5.222 1.615-7.71 1.314-2.516-.303-4.71-2.656-7.177-3.105-2.492-.453-5.374.975-7.812.375-2.459-.604-4.352-3.205-6.75-3.951-2.414-.752-5.449.314-7.799-.576-2.362-.896-3.926-3.711-6.218-4.744-2.303-1.037-5.445-.346-7.672-1.518-2.234-1.174-3.446-4.156-5.599-5.459-2.158-1.309-5.361-1.002-7.432-2.434-2.074-1.436-2.918-4.541-4.899-6.094-1.983-1.557-5.2-1.638-7.085-3.309-1.887-1.673-2.352-4.856-4.134-6.639s-4.965-2.246-6.638-4.133c-1.671-1.885-1.751-5.103-3.307-7.087-1.555-1.981-4.66-2.825-6.096-4.899-1.432-2.07-1.125-5.273-2.433-7.432-1.304-2.154-4.286-3.365-5.46-5.6-1.172-2.227-.48-5.369-1.518-7.672-1.033-2.292-3.848-3.854-4.744-6.218-.891-2.349.177-5.384-.574-7.798-.747-2.396-3.35-4.291-3.953-6.748-.598-2.436.83-5.32.375-7.811-.449-2.467-2.803-4.66-3.104-7.176-.299-2.488 1.466-5.179 1.315-7.71-.149-2.5-2.223-4.961-2.223-7.499s2.074-5 2.223-7.5c.15-2.531-1.614-5.219-1.315-7.707.303-2.516 2.657-4.711 3.106-7.178.453-2.492-.975-5.375-.375-7.813.604-2.457 3.205-4.352 3.951-6.75.752-2.414-.315-5.449.577-7.799.896-2.363 3.708-3.925 4.741-6.218 1.039-2.303.348-5.444 1.519-7.671 1.176-2.236 4.157-3.447 5.461-5.6 1.308-2.158 1.001-5.361 2.433-7.432 1.436-2.074 4.541-2.918 6.095-4.899 1.557-1.983 1.638-5.2 3.309-7.086 1.673-1.887 4.856-2.352 6.638-4.134 1.783-1.782 2.248-4.967 4.135-6.639 1.885-1.67 5.101-1.75 7.085-3.307 1.981-1.555 2.825-4.66 4.901-6.096 2.07-1.432 5.271-1.125 7.43-2.433 2.152-1.304 3.365-4.284 5.6-5.458 2.227-1.172 5.368-.48 7.671-1.52 2.292-1.033 3.855-3.846 6.219-4.742 2.349-.891 5.383.176 7.797-.575 2.397-.746 4.29-3.349 6.747-3.952 2.438-.6 5.321.828 7.812.375 2.468-.449 4.662-2.803 7.178-3.105 2.488-.299 5.178 1.466 7.709 1.314 2.5-.148 4.96-2.222 7.498-2.222s4.998 2.073 7.499 2.223c2.531.151 5.221-1.614 7.709-1.313 2.516.301 4.711 2.654 7.178 3.104 2.49.455 5.374-.973 7.812-.375 2.458.604 4.352 3.207 6.749 3.953 2.415.752 5.45-.316 7.799.576 2.363.896 3.927 3.709 6.219 4.742 2.303 1.039 5.446.348 7.672 1.52 2.235 1.174 3.445 4.156 5.6 5.461 2.158 1.307 5.359 1 7.43 2.432 2.076 1.436 2.92 4.541 4.9 6.096 1.984 1.557 5.201 1.637 7.086 3.309 1.887 1.672 2.352 4.855 4.135 6.637 1.781 1.783 4.965 2.248 6.638 4.133 1.671 1.887 1.751 5.104 3.308 7.088 1.555 1.981 4.66 2.824 6.096 4.9 1.432 2.07 1.125 5.273 2.433 7.432 1.304 2.152 4.285 3.365 5.46 5.6 1.171 2.227.48 5.367 1.518 7.67 1.033 2.293 3.848 3.856 4.744 6.219.891 2.349-.178 5.383.574 7.797.746 2.398 3.348 4.291 3.951 6.748.6 2.438-.828 5.32-.373 7.811.447 2.469 2.802 4.662 3.104 7.178.299 2.488-1.466 5.178-1.315 7.709.149 2.499 2.223 4.96 2.223 7.497z"/><path d="M88.213 157.325c3.697-2.948 9.308-4.129 13.8.089l-4.487 3.581c-2.081-1.302-4.084-1.039-5.996.487-2.678 2.136-2.829 5.554-.469 8.512 2.096 2.626 5.66 3.536 8.383 1.406 1.938-1.547 2.721-3.757 1.679-6.056 1.53-1.22 2.933-2.339 4.486-3.581 3.366 5.578.95 10.761-2.849 13.792-4.519 3.646-11.549 4.249-16.415-1.798-4.818-6.089-2.669-12.81 1.868-16.432zm26.263 9.7l-8.84-21.043 5.472-2.299 3.348 7.967.389-.164c5.383-2.261 3.42-6.176 1.766-10.114l5.532-2.323c1.805 4.3 3.592 8.217.538 12.647l9.602 6.861.353.842-5.982 2.513-8.052-6.203c-.671.424-1.333.701-2.024.992l3.372 8.026-5.474 2.298zm22.807-8.347l-2.072.254-2.777-22.691 5.924-.726 1.359 11.103 10.088-12.603 2.104-.258 2.786 22.757-5.988.732-1.363-11.136-10.061 12.568zm24.048.893l-4.772-.727 1.148-7.543 2.289.348 10.455-16.683 2.482.377 5.278 19.077 2.353.357-1.146 7.546-4.74-.722.378-2.482-13.348-2.031-.377 2.483zm4.511-7.097l6.383.971-2.015-8.652-4.368 7.681zm16.009 8.302l9.194-20.898c1.792.787 3.583 1.576 5.434 2.391l-3.48 7.911.388.171c5.344 2.352 6.836-1.768 8.557-5.679 1.821.801 3.644 1.602 5.494 2.417-1.878 4.269-3.492 8.262-8.812 9.094l1.626 11.691-.368.836-5.939-2.614-1.039-10.113c-.77-.196-1.427-.484-2.113-.787l-3.506 7.972c-1.853-.814-3.645-1.603-5.436-2.392zm32.948 16.249l-6.956-5.711-2.855 1.369-4.41-3.621.537-.655 22.075-10.696 1.94 1.594-6.171 23.754-.537.655-4.411-3.622.788-3.067zm3.47-11.37l-5.799 3.003 4.033 3.312 1.766-6.315zM77.088 301.005l-3.187-5.138 7.89-4.893-3.761-6.064-7.89 4.893c-1.062-1.713-2.142-3.453-3.186-5.139l19.653-12.187 3.186 5.138-7.131 4.422 3.76 6.064 7.132-4.422 3.186 5.138-19.652 12.188zm19.116 14.867l-6.861-6.009-2.935 1.294-4.351-3.811.566-.646 22.702-10.118 1.914 1.676-7.018 23.858-.566.646-4.35-3.81.899-3.08zm3.883-11.402l-5.971 2.853 3.978 3.484 1.993-6.337zm16.727 27.404l7.178-21.981 5.715 1.866-2.717 8.321.408.134c5.621 1.835 6.713-2.465 8.056-6.579l5.778 1.887c-1.467 4.49-2.694 8.677-7.972 10.047l2.808 11.62-.287.879-6.249-2.04-2.057-10.09c-.795-.12-1.485-.346-2.208-.582l-2.738 8.385c-1.946-.637-3.831-1.252-5.715-1.867zm27.136 7.22l.737-23.114 10.17.324c11.061.386 10.514 17.557-.548 17.204l-4.26-.137-.188 5.911-5.911-.188zm10.706-17.508c-1.386-.077-2.873-.092-4.227-.135l-.211 6.604 4.227.135c3.237.103 3.644-6.461.211-6.604zm26.631-3.816l-8.335 1.944.743 3.186 7.659-1.787 1.193 5.117-7.658 1.787.923 3.958 8.625-2.012 1.193 5.116-14.353 3.349-5.255-22.526 14.063-3.281c.392 1.673.797 3.41 1.202 5.149zm16.445 15.334l-4.297 2.333-3.688-6.795 2.062-1.119-1.764-19.87 2.236-1.214 15.934 12.178 2.119-1.15 3.688 6.795-4.269 2.317-1.214-2.236-12.021 6.525 1.214 2.236zm-.7-8.492l5.75-3.121-6.921-5.754 1.171 8.875zm23.535-9.234l-1.477 1.514-16.579-16.173c1.407-1.443 2.814-2.886 4.223-4.328l8.112 7.913-.017-16.355 1.5-1.537 16.627 16.22-4.269 4.375-8.136-7.937.016 16.308zm1.537-28.078l-4.634-2.541 8.26-15.06 4.634 2.541-2.716 4.952 15.639 8.578-2.812 5.126-15.639-8.577-2.732 4.981zm23.367-25.346l-3.531-4.388-.07-.017-.606 5.433-2.367-.585 1.93-5.105-.07-.018-5.006 2.308-.712-2.503 5.393-.882.018-.07-4.349-3.479 1.746-1.678 3.431 4.364.07.016.613-5.318 2.37.584-1.932 4.957.07.018 5.059-2.221.694 2.426-5.376.961-.018.07 4.349 3.332-1.706 1.795zM63.275 255l5.197 2.169.069-.018-2.056-5.059 2.36-.614.737 5.405.068-.02 3.303-4.413 1.814 1.861-4.317 3.346.02.068 5.48.987-.737 2.302-5.092-2.198-.07.018 1.995 4.967-2.36.614-.665-5.274-.07.018-3.387 4.364-1.766-1.805 4.267-3.406-.02-.068-5.408-.853.638-2.391zm-1.849-24.786l4.442 3.461.07.004-.648-5.43 2.438.031-.712 5.408.072.002 4.347-3.391 1.265 2.276-5.051 2.091v.074l5.027 2.394-1.313 2.027-4.337-3.461h-.07l.613 5.314-2.439-.029.748-5.266h-.072l-4.417 3.318-1.229-2.204 5.016-2.162v-.075l-4.996-2.246 1.246-2.136zm4.72-24.371l3.383 4.503.068.02.788-5.408 2.346.666-2.098 5.035.07.02 5.078-2.139.628 2.526-5.421.7-.02.07 4.233 3.621-1.803 1.615-3.281-4.472-.068-.018-.79 5.291-2.348-.665 2.092-4.887-.066-.02-5.131 2.052-.61-2.448 5.405-.78.018-.07-4.235-3.473 1.762-1.739zm10.947-22.378l2.084 5.235.061.033 2.181-5.01 2.09 1.259-3.35 4.308.064.037 5.464-.729-.061 2.605-5.413-.749-.037.061 3.129 4.608-2.161 1.087-1.992-5.178-.061-.039-2.155 4.9-2.09-1.259 3.307-4.165-.063-.037-5.489.631.051-2.524 5.421.667.039-.061-3.172-4.464 2.153-1.216zm163.576 13.008l-5.548-.968-.063.033 3.123 4.481-2.169 1.12-1.912-5.107-.061.033-2.247 5.035-2.184-1.415 3.475-4.218-.031-.063-5.565.251.208-2.411 5.453 1.021.063-.033-3.041-4.401 2.165-1.122 1.816 4.997.063-.033 2.341-5.005 2.119 1.368-3.408 4.265.033.064 5.466-.361-.096 2.469zm-108.478 67.408c-.689 0-1.284-.25-1.785-.752-.503-.501-.752-1.096-.752-1.786v-11.372h-29.136c-.69 0-1.285-.249-1.786-.752-.502-.501-.752-1.096-.752-1.785v-6.674c0-.876.203-1.645.611-2.302a28.58 28.58 0 0 1 1.457-2.115l28.76-35.902c1.252-1.565 2.537-2.35 3.854-2.35h7.143c.688 0 1.283.251 1.786.752.5.502.751 1.097.751 1.785v37.595h8.083c.689 0 1.284.251 1.786.752.501.502.752 1.097.752 1.785v6.674c0 .689-.251 1.284-.752 1.785-.502.503-1.097.752-1.786.752h-8.083v11.372c0 .69-.251 1.285-.751 1.786-.503.502-1.098.752-1.786.752h-7.614zm-2.537-25.658V218.11l-16.072 20.113h16.072zm78.478-15.602c.062 1.19.094 2.507.094 3.947v8.835a76.27 76.27 0 0 1-.094 3.947c-.188 3.635-.737 7.002-1.645 10.104-.909 3.102-2.35 5.796-4.323 8.083-1.974 2.288-4.544 4.073-7.707 5.356-3.165 1.284-7.034 1.927-11.607 1.927-4.638 0-8.522-.643-11.654-1.927-3.134-1.283-5.687-3.068-7.66-5.356-1.974-2.287-3.416-4.981-4.323-8.083-.909-3.102-1.457-6.469-1.645-10.104-.127-2.381-.188-5.09-.188-8.13 0-3.038.062-5.748.188-8.13.188-3.633.735-7.033 1.645-10.197.907-3.163 2.35-5.905 4.323-8.224 1.974-2.317 4.526-4.15 7.66-5.499 3.132-1.347 7.017-2.021 11.654-2.021 4.573 0 8.442.644 11.607 1.927 3.163 1.285 5.733 3.071 7.707 5.357 1.974 2.288 3.414 4.981 4.323 8.083.908 3.103 1.456 6.471 1.645 10.105zm-37.877 16.26c.313 4.511 1.395 8.005 3.243 10.479 1.848 2.476 4.965 3.712 9.352 3.712 4.385 0 7.503-1.236 9.352-3.712 1.848-2.475 2.928-5.969 3.242-10.479.125-2.381.188-5.013.188-7.896 0-2.881-.063-5.513-.188-7.895-.314-4.512-1.395-8.004-3.242-10.479-1.849-2.475-4.967-3.713-9.352-3.713-4.387 0-7.504 1.238-9.352 3.713-1.849 2.476-2.93 5.968-3.243 10.479a150.506 150.506 0 0 0-.188 7.895c0 2.883.062 5.515.188 7.896zm67.549-18.468v3.26c0 1.573-.581 2.764-1.745 3.573-1.163.81-2.715 1.214-4.653 1.214-1.939 0-3.496-.404-4.672-1.214s-1.763-2.012-1.763-3.607v-3.191c0-1.595.6-2.798 1.8-3.607 1.199-.809 2.738-1.214 4.617-1.214 1.878 0 3.417.411 4.616 1.231 1.2.821 1.8 2.005 1.8 3.555zm9.525-4.75h3.054c.582 0 .873.268.873.802a.618.618 0 0 1-.146.398l-17.597 23.56c-.339.459-.775.688-1.309.688h-3.054c-.582 0-.872-.262-.872-.784 0-.145.048-.277.146-.398l17.596-23.577c.339-.459.776-.689 1.309-.689zm-17.123 4.817v3.057c0 .303.114.563.345.78s.515.325.854.325c.339 0 .624-.108.854-.325s.346-.478.346-.78v-3.057a.985.985 0 0 0-.346-.765 1.24 1.24 0 0 0-.854-.309c-.34 0-.624.108-.854.325-.231.219-.345.467-.345.749zm24.321 12.233v3.418c0 1.648-.582 2.896-1.745 3.744-1.163.849-2.715 1.272-4.653 1.272-1.939 0-3.496-.424-4.672-1.272-1.176-.848-1.763-2.108-1.763-3.78v-3.345c0-1.673.6-2.933 1.799-3.781 1.2-.849 2.739-1.272 4.617-1.272s3.418.431 4.617 1.291c1.201.86 1.8 2.102 1.8 3.725zm-7.598-.036v3.418c0 .339.115.63.346.872s.515.363.854.363c.339 0 .624-.121.854-.363.229-.242.345-.533.345-.872v-3.418a1.16 1.16 0 0 0-.345-.854 1.166 1.166 0 0 0-.854-.345c-.34 0-.624.121-.854.363s-.346.521-.346.836z" fill="#FFF"/><path fill="#FCC236" d="M14.963 240.483c1.481.505 2.894 1.299 4.193 2.159 1.168.772 2.689 1.775 3.148 3.18-.213-.651.023-1.809.023-2.503 0-.739.209-1.789-.023-2.503-.459-1.408-1.979-2.405-3.148-3.18-1.3-.86-2.712-1.654-4.193-2.158.09.029-.025 2.291-.025 2.502 0 .23-.15 2.443.025 2.503z"/><path fill="#28ADC7" d="M59.941 158.313c3.511-.88 8.839-1.404 11.68 1.333-.227-.219.025-2.145.025-2.502 0-.417.287-2.202-.025-2.503-2.841-2.738-8.169-2.214-11.68-1.334-.427.106.359 4.917 0 5.006z"/><path fill="#7DBE3C" d="M24.008 185.845c5.796-2.343 13.678-.383 19.169 2.048-1.777-.786-2.735-3.467-4.543-4.267-5.486-2.429-13.37-4.393-19.166-2.048.766-.31 3.695 4.61 4.54 4.267z"/><path fill="#AF0D1B" d="M5.063 215.68c1.723-.913 3.645-1.518 5.535-1.965 1.695-.4 3.903-.925 5.567-.145-.772-.362-1.621-1.564-2.251-2.155-.67-.631-1.444-1.715-2.291-2.111-1.668-.782-3.87-.257-5.567.145-1.889.448-3.813 1.052-5.533 1.965.104-.055 2.057 1.978 2.248 2.157.208.195 2.088 2.216 2.292 2.109z"/><linearGradient id="a" gradientUnits="userSpaceOnUse" x1="-152.543" y1="-1216.023" x2="-160.472" y2="-1212.868" gradientTransform="rotate(-27.646 2793.204 -960.276)"><stop offset=".128" stop-color="#97003b"/><stop offset=".883" stop-color="#da003b"/></linearGradient><path fill="url(#a)" d="M63.28 177.22a27.694 27.694 0 0 0-.466-.772c.243.688.349 1.316.336 1.896-.061 2.529-2.327 4.146-4.89 5.496l2.893 5.521c4.072-2.145 5.659-4.37 4.137-8.216a10.335 10.335 0 0 0-.173-.408c-.081-.183-.158-.364-.252-.554a45.888 45.888 0 0 0-1.585-2.963z"/><path fill="#AF0D1B" d="M31.188 144.911c-3.612 2.354-.434 9.405 2.24 14.229.04-.037.074-.076.13-.105.079-.041.267.565.342.557-.184-.563-.455-1.743-.596-2.195-.72-2.31-1.627-5.4.775-6.965.202-.134-3.016-5.439-2.891-5.521z"/><linearGradient id="b" gradientUnits="userSpaceOnUse" x1="-170.985" y1="-1234.546" x2="-152.805" y2="-1234.546" gradientTransform="rotate(-27.646 2793.204 -960.276)"><stop offset=".221" stop-color="#97003b"/><stop offset=".883" stop-color="#da003b"/></linearGradient><path fill="url(#b)" d="M57.636 170.524c-6.14-4.953-13.887-4.38-20.256-8.263a3.585 3.585 0 0 0-.307-.194c-.24-.174-.72-.554-1.236-.942-1.462-1.302-3.084-3.233-3.084-3.233l.273.492c-.01-.003-.009.014.026.08a127.21 127.21 0 0 0 1.104 1.969h.005c.042.072.082.144.123.213l.023.041.001.002c.476.813.904 1.521 1.228 2.062 3.153 5.263 7.57 6.247 13.205 7.747 5.29 1.41 10.65 3.79 14.408 7.847.013-.58-.093-1.208-.336-1.896-1.365-2.193-2.959-4.136-5.177-5.925z"/><path fill="#28ADC7" d="M284.952 194.572c5.223.543 12.749 2.471 15.266 7.615-.202-.41 1.099-2.913 1.276-3.4.207-.568 1.484-2.86 1.209-3.426-2.519-5.145-10.045-7.074-15.268-7.616-.635-.066-1.952 6.882-2.483 6.827z"/><g fill="#BF2561"><path d="M274.049 178.176c-.927-2.823-2.812-5.574-3.533-8.488-.989.493-1.596.979-2.358 2.073.735-2.013 1.473-4.024 2.206-6.034-1.205 1.947-1.921 4.337-2.358 6.478-1.14 5.599 3.174 10.096 4.015 15.383.754-.688 1.448-1.45 2.02-2.356.69-2.369.884-4.383.008-7.056z"/><path d="M273.686 186.359c.105-.317.201-.624.293-.927l.094-.247c-.01.016-.023.029-.033.045-.571.906-1.266 1.668-2.02 2.356-2.93 2.679-6.997 4.005-10.468 5.935-1.629.905-.919 5.956-2.485 6.826 3.772-2.096 9.122-3.518 11.783-7.148 1.416-1.929 2.092-4.609 2.836-6.84zm.203-23.908c-1.326.576-2.362 1.563-3.191 2.755-.02.029-.037.059-.059.086v-.002s-1.707 2.243-2.604 6.773c.763-1.093 1.492-1.883 2.481-2.376.266-.133.555-.266.89-.41 1.562-.678.992-6.179 2.483-6.826z"/></g><path fill="#AF0D1B" d="M155.263 18.514c-22.871 0-41.412 18.54-41.412 41.414v32.938h82.824V59.928c0-22.874-18.541-41.414-41.412-41.414z"/><path fill="#05293D" d="M113.851 71.891h82.824v20.975h-82.824z"/><path fill="#920B16" d="M155.263 18.514c-2.695 0-5.328.266-7.879.758 19.1 3.682 33.531 20.479 33.531 40.656v32.938h15.76V59.928c0-22.874-18.541-41.414-41.412-41.414z"/><path fill="#042233" d="M180.915 71.891h15.76v20.975h-15.76z"/><circle fill="#FFF" cx="155.263" cy="11.482" r="11.482"/><path fill="#D5D5D5" d="M156.839.121a11.407 11.407 0 0 1 2.33 6.91c0 6.342-5.143 11.482-11.484 11.482-.535 0-1.061-.051-1.576-.121 2.094 2.771 5.41 4.571 9.152 4.571 6.344 0 11.484-5.142 11.484-11.481 0-5.805-4.31-10.591-9.906-11.361z"/><path fill="#FF910B" d="M168.466 99.431h-26.408c-6.623 0-12.014-5.388-12.014-12.014V77.51c0-6.626 5.391-12.016 12.014-12.016h26.408c6.623 0 12.014 5.39 12.014 12.016v9.907c-.001 6.626-5.391 12.014-12.014 12.014zm-26.408-26.852a4.935 4.935 0 0 0-4.93 4.931v9.907a4.935 4.935 0 0 0 4.93 4.931h26.408a4.935 4.935 0 0 0 4.93-4.931V77.51a4.935 4.935 0 0 0-4.93-4.931h-26.408z"/><path fill="#FFF" d="M204.136 116.566a6.62 6.62 0 0 1-6.621 6.618h-84.504a6.619 6.619 0 0 1-6.619-6.618V89.504a6.62 6.62 0 0 1 6.619-6.619h84.504a6.62 6.62 0 0 1 6.621 6.619v27.062z"/><path fill="#D5D5D5" d="M197.515 82.885h-16.529c-1.701 7.344-12.592 38.404-74.504 34.727a6.612 6.612 0 0 0 6.529 5.573h84.504a6.62 6.62 0 0 0 6.621-6.618V89.504a6.62 6.62 0 0 0-6.621-6.619z"/></svg>