<svg xmlns="http://www.w3.org/2000/svg" width="302.652" height="359.471" viewBox="0 0 302.652 359.471"><path fill="#FCC236" d="M81.875 103.074c3.584 3.262 8.982 3.113 12.334 6.666-.238-.25.023-2.117.023-2.5 0-.445.293-2.162-.023-2.5-3.352-3.553-8.75-3.404-12.334-6.666.221.199-.025 2.156-.025 2.5-.001.401-.282 2.221.025 2.5z"/><path fill="#BF2561" d="M38.625 112.906c2.064.021 4.258.357 6-1 .246-.191.025-2.164.025-2.5 0-.33-.27-2.309-.025-2.5-1.742 1.357-3.936 1.021-6 1v5z"/><path fill="#FCC236" d="M49.455 142.574c-.148-.945-.168-.371-.055 1.727-.135 2.031-.129 2.668.018 1.906.076-.131.082-.33.15-.475.131-.271.322-.506.566-.686.543-.4 1.27-.477 1.924-.422 1.445.121 2.932.91 3.646 2.199l.018-.732c.008-.59.008-1.18.008-1.768 0-.59 0-1.18-.008-1.768-.002-.182.068-.58-.018-.732-.889-1.602-3.318-2.74-5.1-2.031-.91.363-1.205 1.146-1.248 2.066-.086 1.844-.225 3.883.098 5.715-.283-1.608.288-3.376.001-4.999z"/><path fill="#A9C03A" d="M212.806 107.486c4.555 2.1 7.738 7.787 9.334 12.332-.518-1.471.523-3.504 0-5-1.594-4.543-4.777-10.23-9.334-12.332.604.278-.664 4.694 0 5z"/><path fill="#1E74A3" d="M208.101 45.738c-1.789-.025-3.725.375-4.078 2.393-.279 1.586-.15 3.602-.018 5.199.361 4.346 5.688 4.977 7.096 8.742-.543-1.451.551-3.529 0-5-1.387-3.709-6.566-4.334-7.086-8.527l.012 4.658c.041-2.09 2.475-2.486 4.074-2.465v-5z"/><path fill="#AF0D1B" d="M162.08 47.742c1.48.504 2.891 1.297 4.191 2.156 1.164.771 2.686 1.775 3.143 3.178-.213-.652.025-1.809.025-2.5 0-.74.207-1.789-.025-2.5-.459-1.406-1.977-2.404-3.143-3.178-1.301-.857-2.711-1.652-4.191-2.156.09.029-.025 2.289-.025 2.5-.001.229-.149 2.44.025 2.5z"/><path fill="#FCC236" d="M153.853 5c3.584 3.262 8.982 3.113 12.332 6.666-.236-.252.025-2.117.025-2.5 0-.445.293-2.162-.025-2.5-3.35-3.553-8.748-3.404-12.332-6.666.221.199-.025 2.156-.025 2.5 0 .4-.282 2.221.025 2.5z"/><path fill="#BF2561" d="M122.535 11.613c2.064.02 4.258.355 6-1 .246-.193.025-2.166.025-2.5 0-.332-.27-2.311-.025-2.5-1.742 1.355-3.936 1.02-6 1v5z"/><path fill="#28ADC7" d="M128.287 44.102c-.15-.945-.168-.369-.055 1.727-.135 2.031-.131 2.668.016 1.906.076-.131.082-.328.152-.475.129-.27.322-.506.564-.684.543-.402 1.27-.479 1.924-.422 1.445.121 2.932.908 3.648 2.197l.018-.732a173.402 173.402 0 0 0 0-3.536c-.002-.18.066-.58-.018-.732-.891-1.602-3.32-2.738-5.102-2.029-.908.363-1.205 1.146-1.246 2.064-.086 1.844-.227 3.883.098 5.715-.285-1.609.286-3.378.001-4.999z"/><path fill="#A9C03A" d="M197.808 32.084c.342-.926.836-2.189 1.869-2.539 1.109-.373 2.16.58 2.881 1.289l.018-.732a173.663 173.663 0 0 0 0-3.536c-.002-.131.064-.652-.018-.732-.721-.709-1.773-1.662-2.881-1.289-1.035.35-1.527 1.613-1.869 2.539-.061.166-.016.602-.018.732a173.663 173.663 0 0 0 0 3.536c.002.193.083.56.018.732zM43.695 41.129c5.787-2.342 13.66-.383 19.145 2.045-1.775-.787-2.732-3.463-4.535-4.262-5.482-2.428-13.355-4.387-19.146-2.045.766-.31 3.69 4.604 4.536 4.262z"/><path fill="#AF0D1B" d="M24.771 104.592c1.719-.914 3.641-1.518 5.529-1.963 1.691-.4 3.896-.926 5.559-.145-.771-.363-1.617-1.564-2.246-2.154-.67-.629-1.445-1.711-2.289-2.107-1.666-.783-3.865-.258-5.561.145-1.887.445-3.811 1.051-5.529 1.963.104-.055 2.057 1.975 2.246 2.152.209.195 2.088 2.216 2.291 2.109z"/><path fill="#28ADC7" d="M59.171 80.012c2.191-3.93 6.252-9.205 11.154-9.449-.393.02-1.924-1.85-2.248-2.154-.377-.355-1.752-2.135-2.289-2.107-4.9.246-8.963 5.52-11.154 9.449-.265.478 4.76 3.86 4.537 4.261z"/><g fill="#BF2561"><path d="M12.435 58.406c-2.535-.224-5.338.332-7.875-.084.053.943.232 1.586.836 2.555l-4.008-3.775c1.127 1.607 2.766 2.979 4.305 4.045 4.023 2.789 9.021.912 13.469 2.035-.287-.828-.652-1.631-1.174-2.387-1.631-1.344-3.151-2.178-5.553-2.389z"/><path d="M18.757 61.455a37.546 37.546 0 0 0-.631-.543l-.162-.158c.008.014.014.029.023.041.521.756.887 1.559 1.174 2.387 1.121 3.211.789 6.863 1.137 10.246.164 1.59 4.381 2.734 4.537 4.262-.377-3.678.309-8.367-1.65-11.691-1.041-1.767-2.922-3.206-4.428-4.544zM0 53.221c.006 1.238.434 2.387 1.092 3.443.016.025.033.049.049.076h-.003s1.189 2.1 4.453 4.336c-.604-.969-.979-1.811-1.031-2.754a15.152 15.152 0 0 1-.023-.84C4.529 56.021.007 54.613 0 53.221z"/></g><g fill="#AF0D1B"><path d="M92.324 26.574c-.23-.197-.461-.387-.693-.574.455.566.762 1.127.938 1.68.771 2.404-.836 4.674-2.813 6.785l4.537 4.262c3.141-3.357 3.91-5.977 1.213-9.107a14.225 14.225 0 0 0-.297-.328c-.137-.146-.27-.291-.42-.441a47.351 47.351 0 0 0-2.465-2.277zM51.458 6.598c-2.639 3.404 2.67 9.018 6.773 12.693.025-.049.045-.096.088-.143.061-.064.438.447.504.416-.357-.473-.998-1.498-1.279-1.879-1.436-1.943-3.305-4.563-1.551-6.826.149-.191-4.626-4.142-4.535-4.261z"/><path d="M84.804 22.105c-7.416-2.664-14.539.414-21.82-1.164a4.273 4.273 0 0 0-.354-.082c-.283-.084-.861-.285-1.475-.484-1.807-.75-3.969-2.041-3.969-2.041l.418.375c-.01 0-.002.016.051.066.359.334 1.688 1.498 1.688 1.498l.006-.002.186.158.035.031.002.002c.715.611 1.352 1.141 1.832 1.545 4.701 3.932 9.189 3.414 15 2.984 5.453-.402 11.289.09 16.164 2.688-.176-.553-.482-1.113-.938-1.68-2.007-1.622-4.148-2.933-6.826-3.894z"/></g><path fill="#FCC236" d="M14.558 145.596c-.373 2.748.852 5.369-.633 7.945-.072.125 2.059 1.979 2.246 2.154.178.168 2.338 2.023 2.289 2.107 1.484-2.574.262-5.199.633-7.945.049-.355-1.959-1.883-2.246-2.152-.535-.504-1.07-1.006-1.611-1.5-.086-.082-.688-.537-.678-.609z"/><path fill="#28ADC7" d="M6.363 131.271c-.549-1.1-1.275-2.625-.709-3.859.605-1.324 2.367-1.467 3.623-1.516l-.648-.641c-.529-.508-1.063-1.012-1.598-1.514s-1.07-1.004-1.609-1.5c-.119-.109-.537-.613-.68-.607-1.256.049-3.02.191-3.625 1.516-.564 1.236.162 2.76.709 3.859.1.197.533.527.65.641.529.508 1.063 1.01 1.598 1.514.535.502 1.07 1.002 1.609 1.5.178.162.578.402.68.607z"/><path fill="#AF0D1B" d="M240.511 112.068c2.807 1.053 5.631 2.598 8.68 1.613.43-.139 1.107-2.939 1.275-3.396.164-.451.777-3.283 1.205-3.422-3.049.984-5.873-.561-8.678-1.613l-2.482 6.818z"/><path fill="#28ADC7" d="M254.056 143.361c2.574.977 4.777 3.836 4.523 6.666.023-.252.32-.813.387-.99.303-.801.596-1.604.889-2.408.381-1.049 1.105-2.299 1.207-3.42.254-2.83-1.951-5.689-4.525-6.666l-2.481 6.818z"/><path fill="#A9C03A" d="M279.052 121.363c-5.719 2.5-13.645.762-19.193-1.512 1.797.736 2.828 3.387 4.652 4.133 5.547 2.273 13.473 4.014 19.195 1.512-.757.332-3.818-4.5-4.654-4.133z"/><path fill="#AF0D1B" d="M117.304 92.15c-1.695.961-3.598 1.617-5.473 2.117-1.682.447-3.871 1.031-5.555.299.781.34 1.662 1.518 2.307 2.09.688.611 1.492 1.67 2.346 2.043 1.688.736 3.871.148 5.555-.299 1.875-.498 3.779-1.156 5.473-2.115-.102.057-2.109-1.916-2.307-2.09-.213-.189-2.147-2.158-2.346-2.045z"/><path fill="#28ADC7" d="M142.388 55.309c-3.578 7.02-10.379 16.455-19.102 16.965.697-.041 3.586 3.258 4.188 3.793.705.627 3.303 3.77 4.26 3.715 8.723-.514 15.523-9.949 19.104-16.967.435-.856-8.813-6.792-8.45-7.506z"/><path fill="#1E74A3" d="M175.166 88.783c1.004.643.482.15-1.563-1.479-1.779-1.805-2.375-2.326-1.787-1.561.059.18.238.348.316.533.145.346.203.719.17 1.092-.076.838-.605 1.578-1.197 2.141-1.309 1.244-3.271 1.977-5.063 1.576l.668.621c.543.494 1.09.982 1.639 1.469.549.488 1.098.975 1.65 1.455.17.148.484.541.697.59 2.225.496 5.295-.824 6.105-3.068.414-1.146-.07-2.07-.891-2.869-1.646-1.604-3.428-3.42-5.398-4.633 1.734 1.067 2.907 3.059 4.654 4.133z"/><g fill="#1E74A3"><path d="M77.587 125.64c1.5-1.646 2.729-3.775 1.145-5.772-.512-.644-1.158-1.276-1.838-1.89-.053.039-.105.084-.162.107.539.477 1.08.953 1.619 1.432-1.168-.805-2.375-1.07-3.605-1.078-.291 1.145-1.086 2.271-1.813 3.068l4.654 4.133z"/><path d="M64.56 119.062c3.355 1.295 6.855-.641 10.186-.623 1.23.008 2.438.273 3.605 1.078l-.08-.072c.209.168.344.279.344.279-2.207-2.674-4.811-4.248-4.811-4.248a.966.966 0 0 1 .059.047c-4.334-3.194-9.305 1.201-13.957-.594 1.797.693 2.826 3.427 4.654 4.133z"/></g><path fill="#FCC236" d="M241.675 45.686c6.014-.471 10.48-5.496 16.561-5.508-.432 0-1.898-1.828-2.246-2.154-.404-.379-1.713-2.109-2.289-2.107-6.08.012-10.547 5.037-16.561 5.508.369-.029 1.936 1.861 2.246 2.152.364.341 1.776 2.148 2.289 2.109z"/><path fill="#AF0D1B" d="M229.042 67.215c1.779-1.855 3.951-3.561 4.207-6.297.035-.387-1.943-1.867-2.246-2.154-.301-.281-2.326-1.723-2.291-2.107-.254 2.736-2.428 4.441-4.207 6.297l4.537 4.261z"/><path fill="#28ADC7" d="M250.707 73.414c1.641-1.699 4.641-2.471 6.783-1.313-.189-.104-.531-.527-.648-.641a190.432 190.432 0 0 0-1.598-1.514c-.697-.656-1.438-1.648-2.289-2.107-2.145-1.158-5.143-.387-6.785 1.313l4.537 4.262z"/><path fill="#BF2561" d="M225.101 21.738c1.643-1.699 4.641-2.469 6.785-1.313-.189-.102-.531-.527-.648-.639a207.235 207.235 0 0 0-1.598-1.514c-.699-.656-1.439-1.648-2.291-2.109-2.143-1.156-5.143-.387-6.783 1.313l4.535 4.262z"/><path fill="#1E74A3" d="M265.574 100.324c-.986-.67-.479-.164 1.52 1.521 1.729 1.854 2.309 2.391 1.744 1.609-.055-.18-.23-.354-.303-.541a2.28 2.28 0 0 1-.139-1.096c.1-.836.648-1.561 1.256-2.107 1.344-1.207 3.324-1.885 5.104-1.436l-.648-.639c-.529-.51-1.063-1.012-1.598-1.514s-1.07-1.004-1.611-1.5c-.164-.152-.469-.555-.678-.609-2.211-.557-5.316.678-6.189 2.898-.445 1.135.014 2.07.811 2.891 1.6 1.65 3.332 3.516 5.268 4.783-1.703-1.111-2.822-3.137-4.537-4.26z"/><g fill="#BF2561"><path d="M290.251 65.967c-2.535-.225-5.338.332-7.875-.084.053.945.232 1.588.836 2.557-1.336-1.26-2.672-2.518-4.008-3.775 1.127 1.607 2.768 2.979 4.307 4.045 4.021 2.789 9.02.912 13.469 2.035-.289-.828-.654-1.631-1.176-2.387-1.629-1.344-3.15-2.178-5.553-2.391z"/><path d="M296.574 69.018a26.52 26.52 0 0 0-.631-.545c-.055-.051-.107-.104-.162-.156.01.014.014.027.023.041.521.756.887 1.559 1.176 2.387 1.119 3.211.789 6.861 1.137 10.246.162 1.588 4.379 2.734 4.535 4.262-.377-3.678.311-8.369-1.65-11.693-1.042-1.767-2.922-3.205-4.428-4.542zm-18.756-8.237c.004 1.238.432 2.389 1.09 3.443l.049.076s1.189 2.102 4.453 4.338c-.604-.969-.98-1.811-1.033-2.756a15.096 15.096 0 0 1-.023-.84c-.007-1.458-4.53-2.868-4.536-4.261z"/></g><path fill="#FCC236" d="M175.388 44.189c-1.703 4.998.791 10.328-1.303 15.223.148-.348 2.127-.896 2.51-1.063.445-.193 2.289-.646 2.486-1.111 2.096-4.893-.4-10.223 1.303-15.221-.104.307-2.166.912-2.508 1.061-.4.174-2.341.684-2.488 1.111zm-34.629-3.757c.799 1.906.381 4.586-1.291 5.908.146-.117.607-.244.738-.301.592-.248 1.182-.504 1.77-.76.77-.334 1.824-.586 2.488-1.111 1.672-1.324 2.09-4.002 1.291-5.91l-4.996 2.174z"/><path fill="#BF2561" d="M203.878 85.313c.799 1.908.381 4.586-1.293 5.91.148-.117.609-.246.74-.301.592-.25 1.18-.506 1.77-.762.77-.334 1.824-.586 2.486-1.111 1.674-1.322 2.092-4 1.293-5.908l-4.996 2.172z"/><g fill="#BF2561"><path d="M101.267 72.727c1.059-1.961 1.582-4.406 2.793-6.303-.777-.285-1.355-.363-2.344-.213l4.422-1.916c-1.682.35-3.352 1.195-4.742 2.063-3.635 2.27-3.855 6.938-6.297 10.125.766.055 1.537.039 2.326-.119 1.645-.846 2.84-1.78 3.842-3.637z"/><path d="M96.626 76.754c.229-.105.445-.211.656-.318l.182-.076c-.014.004-.025.002-.039.004-.789.158-1.561.174-2.326.119-2.969-.211-5.791-1.74-8.633-2.631-1.334-.42-3.713 2.574-4.996 2.172 3.088.969 6.623 3.146 9.973 2.719 1.779-.225 3.588-1.241 5.183-1.989zm13.114-12.231c-.998-.426-2.07-.479-3.146-.314-.025.004-.051.008-.076.014v-.002s-2.102.229-5.029 2.08c.988-.15 1.795-.162 2.572.123.211.076.432.164.684.271 1.174.5 3.874-2.648 4.995-2.172z"/></g><g fill="#1E74A3"><path d="M156.054 89.309c-.754-1.799-1.994-3.559-4.164-3.035-.697.168-1.439.449-2.176.764.012.057.029.115.025.168.578-.254 1.156-.506 1.732-.76-1.068.631-1.725 1.492-2.182 2.467.801.652 1.402 1.699 1.768 2.57l4.997-2.174z"/><path d="M146.033 97.232c2.266-2.189 2.016-5.682 3.258-8.32.457-.975 1.113-1.836 2.182-2.467l-.086.039c.209-.105.348-.172.348-.172-2.936.77-5.145 2.258-5.145 2.258a.497.497 0 0 1 .059-.031c-4.133 2.266-2.473 7.832-5.611 10.865 1.212-1.172 3.762-.98 4.995-2.172z"/></g><path fill="#9A70DB" d="M281.085 233.471c0 2.535-2.074 4.992-2.223 7.489-.15 2.528 1.615 5.216 1.316 7.7-.303 2.514-2.656 4.705-3.105 7.17-.453 2.488.976 5.368.377 7.803-.603 2.455-3.205 4.346-3.949 6.74-.752 2.412.316 5.444-.574 7.791-.896 2.36-3.707 3.921-4.739 6.21-1.037 2.3-.345 5.44-1.515 7.663-1.174 2.232-4.154 3.441-5.455 5.592-1.307 2.156-.998 5.355-2.43 7.424-1.432 2.072-4.537 2.914-6.09 4.893-1.555 1.982-1.633 5.196-3.303 7.079-1.67 1.886-4.852 2.348-6.632 4.128-1.78 1.779-2.243 4.961-4.127 6.633-1.883 1.669-5.097 1.747-7.079 3.302-1.979 1.553-2.82 4.657-4.893 6.09-2.068 1.431-5.27 1.122-7.426 2.428-2.149 1.303-3.358 4.282-5.59 5.456-2.225 1.169-5.363.477-7.664 1.514-2.289 1.033-3.85 3.844-6.211 4.74-2.346.891-5.379-.178-7.789.572-2.395.746-4.285 3.348-6.74 3.951-2.434.598-5.314-.83-7.803-.377-2.465.449-4.656 2.802-7.168 3.104-2.486.299-5.173-1.468-7.701-1.317-2.498.149-4.955 2.223-7.49 2.223s-4.992-2.073-7.49-2.223c-2.527-.15-5.215 1.615-7.699 1.316-2.514-.302-4.705-2.656-7.17-3.105-2.488-.453-5.369.977-7.803.377-2.455-.602-4.346-3.204-6.74-3.949-2.412-.751-5.444.317-7.791-.573-2.359-.896-3.92-3.708-6.209-4.739-2.301-1.037-5.441-.346-7.664-1.516-2.232-1.174-3.441-4.153-5.591-5.455-2.156-1.307-5.356-.998-7.425-2.429-2.072-1.433-2.914-4.537-4.893-6.09-1.982-1.555-5.195-1.633-7.08-3.303-1.883-1.67-2.346-4.852-4.127-6.632-1.779-1.78-4.961-2.242-6.633-4.128-1.668-1.883-1.746-5.097-3.301-7.079-1.553-1.979-4.656-2.82-6.09-4.893-1.432-2.068-1.123-5.268-2.428-7.424-1.303-2.15-4.283-3.359-5.457-5.592-1.168-2.225-.477-5.363-1.514-7.664-1.031-2.289-3.844-3.85-4.738-6.21-.891-2.347.178-5.378-.572-7.789-.746-2.396-3.348-4.286-3.951-6.739-.598-2.436.83-5.314.377-7.803-.448-2.465-2.801-4.656-3.104-7.169-.299-2.485 1.467-5.172 1.316-7.701-.148-2.497-2.223-4.954-2.223-7.489s2.072-4.992 2.223-7.489c.15-2.528-1.615-5.215-1.316-7.7.301-2.514 2.654-4.705 3.104-7.17.453-2.488-.975-5.367-.377-7.803.604-2.455 3.205-4.346 3.949-6.741.752-2.411-.316-5.443.573-7.79.896-2.36 3.708-3.921 4.739-6.21 1.037-2.301.346-5.44 1.516-7.665 1.174-2.232 4.152-3.441 5.455-5.592 1.307-2.156.998-5.355 2.43-7.424 1.434-2.072 4.537-2.914 6.09-4.893 1.555-1.982 1.633-5.196 3.303-7.079 1.67-1.885 4.852-2.348 6.632-4.128 1.78-1.779 2.243-4.961 4.127-6.632 1.884-1.67 5.098-1.747 7.079-3.303 1.979-1.552 2.82-4.656 4.895-6.089 2.068-1.431 5.268-1.122 7.424-2.428 2.15-1.303 3.358-4.282 5.591-5.456 2.224-1.169 5.362-.478 7.663-1.515 2.289-1.031 3.85-3.844 6.211-4.738 2.346-.891 5.377.178 7.789-.572 2.395-.746 4.285-3.348 6.74-3.951 2.434-.598 5.314.83 7.803.377 2.463-.447 4.656-2.802 7.168-3.104 2.486-.299 5.172 1.467 7.701 1.316 2.496-.149 4.954-2.223 7.488-2.223 2.535 0 4.992 2.074 7.49 2.223 2.527.15 5.215-1.615 7.699-1.316 2.514.302 4.705 2.656 7.17 3.104 2.488.453 5.369-.975 7.803-.377 2.455.604 4.346 3.205 6.74 3.951 2.412.751 5.445-.317 7.791.573 2.361.896 3.922 3.708 6.211 4.739 2.301 1.037 5.439.345 7.664 1.515 2.232 1.174 3.439 4.153 5.59 5.456 2.156 1.307 5.355.998 7.424 2.429 2.074 1.433 2.915 4.536 4.895 6.089 1.982 1.555 5.195 1.633 7.078 3.303 1.885 1.67 2.348 4.852 4.129 6.632 1.779 1.78 4.961 2.245 6.633 4.128 1.668 1.883 1.746 5.098 3.301 7.079 1.553 1.979 4.656 2.821 6.09 4.894 1.432 2.068 1.123 5.268 2.43 7.424 1.303 2.15 4.281 3.359 5.455 5.592 1.17 2.223.478 5.362 1.514 7.663 1.032 2.289 3.844 3.85 4.74 6.21.89 2.347-.178 5.379.572 7.79.746 2.396 3.347 4.286 3.949 6.74.599 2.435-.83 5.315-.377 7.804.449 2.465 2.803 4.655 3.104 7.168.299 2.485-1.465 5.172-1.314 7.7.148 2.497 2.222 4.954 2.222 7.489z"/><path d="M88.117 155.209c3.691-2.945 9.295-4.123 13.78.091-1.554 1.238-2.928 2.336-4.481 3.574-2.078-1.3-4.079-1.038-5.989.485-2.673 2.134-2.825 5.547-.47 8.501 2.093 2.623 5.653 3.534 8.373 1.405 1.935-1.544 2.717-3.75 1.676-6.046l4.482-3.575c3.361 5.57.947 10.745-2.848 13.772-4.512 3.642-11.534 4.242-16.394-1.799-4.809-6.08-2.663-12.793 1.871-16.408zm26.228 9.685l-8.828-21.023c1.802-.758 3.604-1.515 5.466-2.296l3.343 7.959.39-.164c5.376-2.258 3.417-6.169 1.764-10.104l5.526-2.321c1.804 4.296 3.589 8.21.536 12.636l9.592 6.854.353.842-5.977 2.51-8.042-6.197c-.671.423-1.332.7-2.022.991l3.366 8.019c-1.862.78-3.664 1.537-5.467 2.294zm22.781-8.341l-2.069.253-2.778-22.658 5.915-.726 1.359 11.087 10.073-12.587 2.101-.258 2.785 22.726-5.98.732-1.362-11.12-10.044 12.551zm24.021.894l-4.767-.723 1.145-7.537 2.285.347 10.44-16.67 2.48.377 5.277 19.058 2.352.356-1.145 7.536-4.733-.719.376-2.48-13.335-2.025-.375 2.48zm4.504-7.092l6.378.969-2.017-8.644-4.361 7.675zm15.989 8.295l9.184-20.867 5.427 2.388-3.478 7.899.387.171c5.336 2.349 6.826-1.765 8.545-5.669l5.484 2.413c-1.875 4.264-3.487 8.251-8.8 9.081l1.623 11.674-.367.834-5.933-2.609-1.034-10.1c-.768-.195-1.425-.483-2.109-.786l-3.503 7.959c-1.849-.812-3.638-1.6-5.426-2.388zm32.91 16.228l-6.949-5.703-2.85 1.368-4.405-3.616.537-.655 22.045-10.684 1.938 1.591-6.161 23.724-.537.655-4.404-3.616.786-3.064zm3.465-11.355l-5.791 2.998 4.028 3.307 1.763-6.305zM77 298.72l-3.184-5.133 7.881-4.888-3.757-6.058-7.881 4.888-3.184-5.132 19.632-12.177 3.184 5.132-7.124 4.419 3.758 6.058 7.123-4.418 3.184 5.132L77 298.72zm19.06 14.828l-6.848-6.006-2.932 1.291-4.343-3.808.566-.645 22.677-10.092 1.91 1.675-7.021 23.822-.565.645-4.342-3.808.898-3.074zm3.884-11.386l-5.964 2.846 3.971 3.481 1.993-6.327zm16.737 27.391l7.167-21.961 5.71 1.863-2.713 8.313.407.134c5.616 1.832 6.705-2.464 8.047-6.573l5.772 1.884c-1.464 4.486-2.69 8.668-7.962 10.037l2.807 11.608-.286.878-6.243-2.037-2.057-10.079c-.794-.12-1.484-.345-2.206-.581l-2.733 8.377-5.71-1.863zm27.105 7.211l.726-23.093 10.161.319c11.051.381 10.511 17.535-.541 17.188l-4.255-.134-.187 5.905-5.904-.185zm10.687-17.496c-1.385-.077-2.87-.091-4.223-.133l-.207 6.598 4.223.133c3.233.101 3.637-6.458.207-6.598zm26.603-3.796l-8.323 1.94.742 3.182 7.647-1.783 1.191 5.109-7.648 1.783.922 3.953 8.612-2.009 1.191 5.11-14.332 3.341-5.245-22.494 14.043-3.274 1.2 5.142zm16.429 15.31l-4.293 2.33-3.685-6.787 2.06-1.118-1.763-19.85 2.234-1.212 15.917 12.164 2.118-1.149 3.685 6.788-4.265 2.314-1.212-2.233-12.009 6.52 1.213 2.233zm-.699-8.483l5.743-3.118-6.913-5.748 1.17 8.866zm23.536-9.249l-1.475 1.513-16.569-16.151 4.217-4.325 8.107 7.903-.022-16.34 1.498-1.536 16.616 16.197-4.263 4.373-8.131-7.926.022 16.292zm1.527-28.053l-4.629-2.539 8.252-15.043 4.629 2.539-2.713 4.946 15.622 8.569-2.809 5.121-15.622-8.569-2.73 4.976zm23.32-25.284l-3.527-4.383-.07-.016-.605 5.426-2.365-.584 1.928-5.1-.07-.018-5 2.305-.711-2.5 5.387-.881.018-.07-4.344-3.475 1.744-1.676L241 253.1l.07.016.613-5.313 2.367.584-1.93 4.951.07.018 5.053-2.219.693 2.424-5.369.959-.018.07 4.344 3.328-1.704 1.795zm-181.986-6.945l5.191 2.166.068-.018-2.053-5.053 2.357-.613.736 5.398.068-.02 3.299-4.408 1.813 1.859-4.313 3.342.02.068 5.475.986-.736 2.299-5.086-2.195-.07.018 1.992 4.961-2.357.613-.664-5.268-.07.018-3.383 4.359-1.764-1.803 4.262-3.402-.02-.068-5.402-.852.637-2.387zm-1.848-24.758l4.438 3.457.07.004-.648-5.424 2.436.031-.711 5.402.072.002 4.342-3.387 1.264 2.273-5.045 2.088v.074l5.021 2.391-1.313 2.025-4.332-3.457h-.07l.613 5.309-2.438-.029.748-5.26h-.072l-4.412 3.314-1.229-2.201 5.01-2.16v-.074l-4.99-2.244 1.246-2.134zm4.715-24.344l3.379 4.498.068.02.787-5.402 2.344.666-2.096 5.029.07.02 5.072-2.137.627 2.523-5.414.699-.02.07 4.229 3.617-1.801 1.613-3.277-4.467-.068-.018-.789 5.285-2.346-.664 2.09-4.881-.066-.02-5.125 2.049-.609-2.445 5.398-.779.018-.07-4.23-3.469 1.759-1.737zm10.933-22.352l2.082 5.229.061.033 2.178-5.004 2.088 1.258-3.346 4.303.064.037 5.457-.729-.061 2.602-5.406-.748-.037.061 3.125 4.604-2.158 1.086-1.99-5.172-.06-.04-2.152 4.895-2.088-1.258 3.303-4.16-.063-.038-5.482.631.051-2.521 5.414.666.039-.061-3.168-4.459 2.149-1.215zm163.389 12.993l-5.541-.967-.063.033 3.119 4.477-2.166 1.119-1.91-5.102-.061.033-2.244 5.029-2.182-1.414 3.471-4.213-.031-.063-5.559.25.207-2.408 5.447 1.02.063-.033-3.037-4.396 2.162-1.121 1.814 4.992.063-.033 2.338-5 2.117 1.367-3.404 4.26.033.064 5.459-.361-.095 2.467zm-134.311 4.149c0-.688.249-1.281.751-1.783.5-.5 1.095-.751 1.784-.751h35.298c.688 0 1.282.251 1.784.751.5.502.751 1.096.751 1.783v6.666c0 .689-.251 1.283-.751 1.783-.502.502-1.097.751-1.784.751h-26.38l-1.032 12.017c1.689-.688 3.363-1.094 5.022-1.22 1.657-.125 3.019-.188 4.083-.188 3.505 0 6.76.47 9.764 1.408 3.004.939 5.601 2.332 7.792 4.178 2.19 1.847 3.91 4.116 5.163 6.807 1.251 2.691 1.878 5.789 1.878 9.294 0 4.006-.643 7.433-1.925 10.279-1.283 2.849-3.036 5.195-5.257 7.041-2.223 1.847-4.835 3.191-7.839 4.037-3.004.845-6.196 1.267-9.576 1.267-4.318 0-8.026-.501-11.124-1.502-3.099-1-5.665-2.361-7.698-4.084-2.034-1.72-3.567-3.691-4.6-5.914a18.704 18.704 0 0 1-1.737-6.994c-.063-.751.172-1.36.704-1.83a2.682 2.682 0 0 1 1.831-.704h7.604a2.62 2.62 0 0 1 1.69.61c.5.407.845.955 1.032 1.643.376 1.44.97 2.614 1.784 3.521a9.36 9.36 0 0 0 2.816 2.159c1.063.532 2.253.892 3.567 1.079 1.313.188 2.689.282 4.13.282 3.567 0 6.445-.97 8.637-2.91 2.19-1.939 3.286-4.601 3.286-7.979 0-2.816-1.096-5.164-3.286-7.041-2.191-1.878-5.069-2.848-8.637-2.91-1.877 0-3.364.141-4.459.422-1.096.282-1.987.61-2.676.986-.689.375-1.313.704-1.877.985s-1.284.423-2.159.423h-8.637c-.689 0-1.284-.25-1.784-.751-.502-.501-.751-1.095-.751-1.784l2.818-31.827zm100.073 21.968c.062 1.189.094 2.504.094 3.943v8.824c0 1.44-.032 2.755-.094 3.943-.188 3.63-.736 6.993-1.643 10.092-.908 3.098-2.347 5.789-4.318 8.073-1.972 2.285-4.538 4.069-7.698 5.352-3.161 1.281-7.026 1.924-11.594 1.924-4.633 0-8.513-.643-11.641-1.924-3.131-1.282-5.68-3.066-7.651-5.352-1.972-2.284-3.412-4.976-4.318-8.073-.908-3.099-1.455-6.462-1.644-10.092-.126-2.378-.188-5.084-.188-8.121 0-3.034.062-5.741.188-8.12.188-3.629.735-7.024 1.644-10.186.906-3.16 2.347-5.898 4.318-8.215 1.972-2.314 4.521-4.146 7.651-5.492 3.128-1.345 7.008-2.018 11.641-2.018 4.567 0 8.433.643 11.594 1.924 3.16 1.284 5.727 3.067 7.698 5.352 1.972 2.285 3.41 4.976 4.318 8.073.906 3.099 1.455 6.464 1.643 10.093zm-37.833 16.241c.313 4.506 1.393 7.996 3.239 10.468 1.845 2.473 4.959 3.708 9.341 3.708 4.38 0 7.494-1.235 9.341-3.708 1.846-2.472 2.925-5.962 3.238-10.468.125-2.378.188-5.006.188-7.886 0-2.878-.063-5.507-.188-7.886-.313-4.506-1.393-7.994-3.238-10.468-1.847-2.472-4.961-3.708-9.341-3.708-4.382 0-7.496 1.236-9.341 3.708-1.847 2.474-2.927 5.962-3.239 10.468a150.148 150.148 0 0 0-.188 7.886c0 2.88.062 5.508.188 7.886zm69.209-18.445v3.257c0 1.57-.58 2.761-1.742 3.568-1.162.809-2.712 1.213-4.648 1.213-1.938 0-3.492-.404-4.666-1.213-1.175-.808-1.762-2.009-1.762-3.603v-3.188c0-1.593.6-2.794 1.798-3.603 1.198-.808 2.735-1.213 4.611-1.213s3.414.41 4.612 1.23c1.198.82 1.797 2.004 1.797 3.552zm9.514-4.745h3.05c.581 0 .872.268.872.802a.618.618 0 0 1-.146.398l-17.575 23.532c-.34.458-.775.688-1.308.688h-3.051c-.581 0-.871-.261-.871-.783 0-.145.048-.277.146-.398l17.575-23.55c.34-.459.775-.689 1.308-.689zm-17.103 4.812v3.054c0 .303.114.563.345.779.229.217.514.324.854.324.339 0 .623-.107.854-.324.229-.217.345-.477.345-.779v-3.054a.983.983 0 0 0-.345-.763 1.234 1.234 0 0 0-.854-.309c-.34 0-.624.107-.854.324-.231.218-.345.467-.345.748zm24.294 12.219v3.414c0 1.646-.581 2.893-1.743 3.74s-2.712 1.271-4.648 1.271c-1.938 0-3.492-.423-4.666-1.271-1.175-.848-1.762-2.106-1.762-3.777v-3.341c0-1.67.6-2.929 1.798-3.776s2.735-1.271 4.611-1.271 3.414.43 4.612 1.289 1.798 2.101 1.798 3.722zm-7.59-.036v3.413c0 .34.114.63.345.872.229.242.515.363.854.363s.623-.121.854-.363c.229-.242.345-.532.345-.872v-3.413c0-.339-.115-.623-.345-.854-.23-.229-.515-.345-.854-.345s-.624.121-.854.363a1.176 1.176 0 0 0-.345.836z" fill="#FFF"/><path fill="#7C0913" d="M101.193 108.012v2.879c0 3.695 24.129 6.691 53.893 6.691s53.893-2.996 53.893-6.691v-2.879H101.193z"/><ellipse fill="#AF0D1B" cx="155.085" cy="108.012" rx="53.893" ry="6.691"/><path fill="#AF0D1B" d="M114.574 21.021s10.479 53.184 10.363 84.434c0 2.283 13.498 4.133 30.146 4.133 16.652 0 30.148-1.85 30.148-4.133h.002c-.117-31.25 10.363-84.434 10.363-84.434h-81.022z"/><path fill="#920B16" d="M185.232 105.455h.002c-.117-31.25 10.363-84.434 10.363-84.434h-22.01c-.217 19.455-3.328 61.805-24.744 88.479 2.014.057 4.1.088 6.24.088 16.653 0 30.149-1.85 30.149-4.133z"/><path fill="#05293D" d="M155.083 92.254c-14.113 0-26.146-1.219-30.801-2.932.426 5.725.672 11.203.654 16.133 0 2.283 13.498 4.133 30.146 4.133 16.652 0 30.148-1.85 30.148-4.133h.002c-.018-4.93.229-10.408.652-16.135-4.65 1.715-16.683 2.934-30.801 2.934z"/><path fill="#042233" d="M185.244 103.279c.004-.461.012-.926.02-1.395.006-.145.006-.291.01-.436.014-.525.025-1.053.043-1.586l.006-.234a202.056 202.056 0 0 1 .178-4.166c.029-.559.061-1.127.092-1.695l.023-.377c.035-.59.072-1.186.111-1.781.006-.068.008-.137.014-.205a251.9 251.9 0 0 1 .147-2.084c-4.158 1.533-14.234 2.67-26.412 2.891-2.916 6.174-6.414 12.037-10.631 17.289h.014c.996.029 2.008.051 3.037.064h.033c1.037.016 2.092.023 3.156.023 16.652 0 30.148-1.85 30.148-4.133h.002c-.004-.572 0-1.152.006-1.736l.003-.439z"/><ellipse fill="#7C0913" cx="155.084" cy="21.021" rx="40.511" ry="4.135"/><path fill="#FF910B" d="M164.531 112.961h-18.895c-4.738 0-8.594-3.855-8.594-8.596v-7.086c0-4.742 3.855-8.598 8.594-8.598h18.895c4.74 0 8.598 3.855 8.598 8.598v7.086c-.001 4.74-3.858 8.596-8.598 8.596zM145.636 93.75a3.53 3.53 0 0 0-3.525 3.529v7.086a3.532 3.532 0 0 0 3.525 3.529h18.895a3.533 3.533 0 0 0 3.529-3.529v-7.086a3.532 3.532 0 0 0-3.529-3.529h-18.895z"/><path d="M116.363 30.68a829.223 829.223 0 0 1 2.063 12.104c9.141 1.283 22.178 2.086 36.658 2.086 14.484 0 27.525-.803 36.66-2.086a834.517 834.517 0 0 1 2.064-12.104c-9.467 1.398-23.297 2.281-38.725 2.281-15.419 0-29.251-.883-38.72-2.281zm38.72 35.439c12.863 0 24.588-.635 33.451-1.676a682.084 682.084 0 0 1 1.705-12.039c-9.225 1.117-21.566 1.805-35.156 1.805-13.58 0-25.93-.684-35.152-1.803a664.234 664.234 0 0 1 1.703 12.039c8.867 1.039 20.59 1.674 33.449 1.674zm0 21.248c11.744 0 22.537-.529 31.072-1.412.334-3.934.744-7.957 1.203-11.977-8.844.926-20.057 1.48-32.275 1.48-12.211 0-23.43-.553-32.271-1.479.459 4.02.867 8.041 1.203 11.973 8.537.886 19.328 1.415 31.068 1.415z" fill="#FFF"/><path fill="#D5D5D5" d="M186.156 85.955c.334-3.934.744-7.957 1.203-11.977-6.156.643-13.461 1.107-21.451 1.33a129.42 129.42 0 0 1-4.254 12.002c9.187-.156 17.586-.638 24.502-1.355zm2.379-21.512a682.084 682.084 0 0 1 1.705-12.039c-5.504.668-12.123 1.18-19.447 1.484a181.464 181.464 0 0 1-2.371 11.994c7.576-.273 14.433-.771 20.113-1.439zm3.209-21.66a834.517 834.517 0 0 1 2.064-12.104c-5.563.82-12.635 1.463-20.646 1.854a223.243 223.243 0 0 1-1.059 11.945c7.559-.357 14.277-.943 19.641-1.695z"/><path fill="#FCC236" d="M14.945 238.268c1.48.504 2.891 1.297 4.189 2.156 1.166.771 2.686 1.773 3.145 3.176-.213-.65.023-1.807.023-2.5 0-.738.209-1.787-.023-2.5-.459-1.406-1.977-2.402-3.145-3.176-1.299-.859-2.709-1.652-4.189-2.156.09.029-.025 2.289-.025 2.5-.001.228-.149 2.439.025 2.5z"/><path fill="#28ADC7" d="M59.873 156.191c3.506-.879 8.828-1.402 11.666 1.332-.227-.219.025-2.143.025-2.5 0-.416.287-2.199-.025-2.5-2.838-2.734-8.16-2.211-11.666-1.332-.428.106.357 4.911 0 5z"/><path fill="#7DBE3C" d="M23.98 183.691c5.789-2.34 13.662-.383 19.146 2.045-1.775-.785-2.732-3.463-4.537-4.262-5.48-2.426-13.355-4.387-19.145-2.045.766-.31 3.692 4.604 4.536 4.262z"/><path fill="#AF0D1B" d="M5.056 213.492c1.721-.912 3.641-1.516 5.529-1.963 1.693-.4 3.898-.924 5.561-.145-.771-.361-1.619-1.563-2.248-2.152-.67-.631-1.443-1.713-2.289-2.109-1.666-.781-3.865-.256-5.561.145-1.887.447-3.809 1.051-5.527 1.963.104-.055 2.055 1.975 2.246 2.154.207.195 2.086 2.215 2.289 2.107z"/><linearGradient id="a" gradientUnits="userSpaceOnUse" x1="-152.077" y1="-1218.373" x2="-159.997" y2="-1215.221" gradientTransform="rotate(-27.646 2793.811 -961.425)"><stop offset=".128" stop-color="#97003b"/><stop offset=".883" stop-color="#da003b"/></linearGradient><path fill="url(#a)" d="M63.208 175.076a27.634 27.634 0 0 0-.466-.771c.243.688.349 1.314.336 1.895-.061 2.526-2.324 4.141-4.884 5.489l2.889 5.515c4.067-2.143 5.653-4.365 4.132-8.207-.053-.132-.111-.27-.173-.407-.08-.183-.157-.364-.251-.554a47.602 47.602 0 0 0-1.583-2.96z"/><path fill="#AF0D1B" d="M31.151 142.805c-3.607 2.352-.433 9.395 2.238 14.213.04-.037.074-.076.13-.105.078-.041.266.565.341.557-.184-.563-.454-1.741-.595-2.193-.719-2.307-1.625-5.394.774-6.957.203-.134-3.013-5.433-2.888-5.515z"/><linearGradient id="b" gradientUnits="userSpaceOnUse" x1="-170.498" y1="-1236.873" x2="-152.339" y2="-1236.873" gradientTransform="rotate(-27.646 2793.811 -961.425)"><stop offset=".221" stop-color="#97003b"/><stop offset=".883" stop-color="#da003b"/></linearGradient><path fill="url(#b)" d="M57.569 168.389c-6.133-4.947-13.87-4.375-20.232-8.254a3.91 3.91 0 0 0-.307-.193c-.239-.174-.719-.554-1.234-.941-1.46-1.301-3.08-3.229-3.08-3.229l.272.491c-.01-.003-.009.014.026.08.229.434 1.104 1.967 1.104 1.967h.005l.123.212.023.041.001.002c.475.813.903 1.521 1.226 2.06 3.15 5.257 7.562 6.24 13.19 7.738 5.284 1.408 10.638 3.785 14.392 7.838.013-.58-.093-1.207-.336-1.895-1.365-2.191-2.957-4.13-5.173-5.917z"/><path fill="#28ADC7" d="M284.625 192.408c5.217.543 12.734 2.469 15.248 7.607-.201-.41 1.098-2.91 1.275-3.396.207-.568 1.482-2.857 1.207-3.422-2.516-5.139-10.033-7.066-15.25-7.607-.635-.067-1.949 6.873-2.48 6.818z"/><g fill="#BF2561"><path d="M273.734 176.031c-.926-2.82-2.809-5.568-3.529-8.479-.988.492-1.594.979-2.355 2.07.734-2.01 1.471-4.02 2.203-6.027-1.203 1.945-1.918 4.332-2.355 6.471-1.139 5.592 3.17 10.084 4.01 15.365.754-.688 1.447-1.449 2.018-2.354.69-2.364.883-4.376.008-7.046z"/><path d="M273.371 184.205c.105-.316.201-.623.293-.926l.094-.246c-.01.016-.023.029-.033.045-.57.904-1.264 1.666-2.018 2.354-2.926 2.676-6.988 4-10.455 5.928-1.627.904-.918 5.949-2.482 6.818 3.768-2.094 9.111-3.514 11.77-7.141 1.413-1.928 2.088-4.603 2.831-6.832zm.203-23.881c-1.324.576-2.359 1.561-3.188 2.752-.02.029-.037.059-.059.086v-.002s-1.705 2.24-2.602 6.766c.762-1.092 1.49-1.881 2.479-2.373.266-.133.555-.266.889-.41 1.561-.678.992-6.172 2.481-6.819z"/></g></svg>