<svg xmlns="http://www.w3.org/2000/svg" width="126.001" height="153.195" viewBox="0 0 126.001 153.195"><path fill="#E07C1D" d="M106.985 60.755s7.462 12.122 1.269 16.088c-6.192 3.961-11.1-3.12-11.1-3.12l9.831-12.968z"/><path fill="#E07C1D" d="M106.07 72.183s7.354 1.927 8.621 4.062c1.264 2.13-.845 9.393-2.546 9.843-1.704.448-7.22-3.308-8.211-4.078-.989-.767 2.136-9.827 2.136-9.827z"/><path fill="#E07C1D" d="M110.441 81.965s5.906 1.553 6.922 3.265c1.018 1.714-.68 7.547-2.046 7.905-1.364.359-5.796-2.66-6.591-3.275-.799-.616 1.715-7.895 1.715-7.895z"/><path fill="#E07C1D" d="M125.965 96.688c.728-1.653-9.772-7.865-12.188-6.474-2.408 1.396-2.076 12.902-.418 13.379 1.654.478 2.596-5.294 2.596-5.294s.764 2.869 3.309 2.879c2.537.011-.219-5.298-.219-5.298s6.074 2.741 6.92.808z"/><path fill="#E7B99B" d="M115.094 51.641c1.855 1.044-.076 6.435-1.227 8.221-1.154 1.794-3.027 2.997-4.955 3.896-1.37.637-3.067 1.117-4.324.278-2.805-1.872-2.516-5.501-.888-8.114 2.199-3.516 8.353-5.989 11.394-4.281z"/><path fill="#E07C1D" d="M43.298 60.755s-7.462 12.122-1.271 16.088c6.192 3.961 11.102-3.12 11.102-3.12l-9.831-12.968z"/><path fill="#E07C1D" d="M44.213 72.183s-7.35 1.927-8.617 4.062c-1.268 2.13.839 9.393 2.543 9.843 1.701.448 7.225-3.308 8.211-4.078.993-.767-2.137-9.827-2.137-9.827z"/><path fill="#E07C1D" d="M39.846 81.965s-5.903 1.553-6.92 3.265c-1.018 1.714.674 7.547 2.044 7.905 1.364.359 5.796-2.66 6.594-3.275.79-.616-1.718-7.895-1.718-7.895z"/><path fill="#E07C1D" d="M24.319 96.688c-.729-1.653 9.772-7.865 12.187-6.474 2.412 1.396 2.076 12.902.423 13.379-1.659.478-2.601-5.294-2.601-5.294s-.767 2.869-3.303 2.879c-2.542.011.214-5.298.214-5.298s-6.075 2.741-6.92.808z"/><path fill="#E7B99B" d="M48.981 74.932c2.456 2.896 5.886 4.893 9.548 5.893 2.595.714 5.34.959 7.77 2.126 2.426 1.166 4.528 3.649 4.122 6.305 2.339.632 4.704.802 7.103.434 1.064-4.116 3.216-4.625 7.787-5.636 4.223-.938 8.664-1.15 12.662-2.916 3.693-1.629 6.301-5.412 7.953-8.961 6.429-13.802 5.973-32.603-4.992-44.036-5.699-5.94-13.938-8.91-22.121-9.762-6.801-.707-13.991.007-19.846 3.543-5.168 3.132-8.906 8.231-11.436 13.723-2.917 6.325-4.342 13.327-4.225 20.291.114 6.966 1.024 13.526 5.675 18.996z"/><path fill="#FFF" d="M82.891 56.464c0 4.254-2.697 7.7-6.025 7.7-3.335 0-6.038-3.446-6.038-7.7 0-4.25 2.703-7.696 6.038-7.696 3.327 0 6.025 3.446 6.025 7.696zm19.449 0c0 4.254-2.697 7.7-6.031 7.7-3.328 0-6.031-3.446-6.031-7.7 0-4.25 2.703-7.696 6.031-7.696 3.334 0 6.031 3.446 6.031 7.696z"/><path fill="#54250E" d="M74.616 51.009c-.89 0-1.728.253-2.487.696-.809 1.306-1.302 2.959-1.302 4.759 0 4.254 2.703 7.7 6.038 7.7.888 0 1.723-.251 2.482-.69.814-1.31 1.301-2.965 1.301-4.763 0-4.254-2.703-7.702-6.032-7.702zm19.45 0c-.89 0-1.734.253-2.494.696-.809 1.306-1.295 2.959-1.295 4.759 0 4.254 2.703 7.7 6.031 7.7.888 0 1.729-.251 2.488-.69.814-1.31 1.3-2.965 1.3-4.763.001-4.254-2.7-7.702-6.03-7.702z"/><path fill="#D98869" d="M88.414 70.485c-1.22 0-2.542-.59-3.831-1.724a.882.882 0 1 1 1.159-1.327c.707.621 2.072 1.601 3.26 1.188 1.014-.348 1.488-1.697 1.307-2.734-.193-1.076-.915-2.151-2.152-3.202a.88.88 0 0 1-.1-1.24.886.886 0 0 1 1.247-.103c1.55 1.322 2.478 2.745 2.739 4.232.32 1.789-.513 4.037-2.463 4.717-.373.129-.76.193-1.166.193zM68.762 65.48c0 1.563-1.484 2.833-3.318 2.833-1.832 0-3.313-1.271-3.313-2.833 0-1.562 1.48-2.825 3.313-2.825 1.833 0 3.318 1.264 3.318 2.825zm38.813 0c0 1.563-1.489 2.833-3.319 2.833s-3.314-1.271-3.314-2.833c0-1.562 1.484-2.825 3.314-2.825s3.319 1.264 3.319 2.825z"/><path fill="#FFF" d="M85.191 73.584c-3.071.327-6.225-1.799-7.074-4.764 0 0-3.811 4.229-.525 7.193 3.105 2.804 7.599-2.429 7.599-2.429z"/><path fill="#BC1506" d="M62.356 105.386l.796-.803 2.163.979-1.873 6.123h-2.077l-1.461-.2.553-.993z"/><path fill="#6A924B" d="M77.523 89.688s4.779-1.965 6.555-1.611c1.773.357 11.074 9.606 11.428 11.368.357 1.754-5.314 11.146-7.311 11.047l-1.9-5.106 2.559-4.181-5.775-5.957-5.556-5.56z"/><path fill="#BC1506" d="M85.876 104.074l3.223 7.156-3.025.455-1.053.481-1.943-7.209z"/><path fill="#54250E" d="M66.299 122.26c-1.754 6.401-.945 23.735-.945 23.735s-5.491 5.765-13.279 2.769c-7.787-3.003-1.285-10.534 1.511-7.6 0 0-1.494-4.57-6.294-.928-4.803 3.642-4.759 9.266 2.055 12.959h21.828s-3.082-21.295-.196-29.244l-4.68-1.691zm16.288 0c1.749 6.401.941 23.735.941 23.735s5.491 5.765 13.278 2.769c7.793-3.003 1.283-10.534-1.51-7.6 0 0 1.494-4.57 6.294-.928 4.8 3.642 4.759 9.266-2.055 12.959h-21.83s3.082-21.295.199-29.244l4.683-1.691z"/><path fill="#6A924B" d="M87.848 125.905H60.279l7.016-31.915 3.126-4.735 7.102.433 5.555 5.56z"/><path fill="#54250E" d="M62.248 111.685h9.543l-1.16 5.923h-9.844zm17.828 0h5.998l1.272 5.923h-6.607z"/><path fill="#E07C1D" d="M71.695 109.801h9.044l.722 8.895H70.576z"/><path fill="#54250E" d="M74.307 112.488h3.58l.285 3.522h-4.305z"/><path fill="#FFF" d="M70.421 89.255s1.37 8.232 3.842 2.917c0 0 3.261 5.047 3.261-2.483l-7.103-.434z"/><path fill="#6A924B" d="M70.421 89.255s-4.071-1.531-5.845-1.178c-1.771.357-11.079 9.606-11.431 11.368-.354 1.754 5.319 11.146 7.312 11.047l1.899-5.106-2.553-4.181 7.491-7.215 3.127-4.735zm22.392-74.141C91.41 8.552 85.92 3.291 79.54 1.199 73.162-.894 66.086-.09 59.85 2.397c-6.233 2.488-11.714 6.563-16.719 11.03-5.432 4.85-10.504 10.286-16.945 13.695-6.437 3.41-14.813 4.384-20.749.156 1.029 6.897 6.596 12.807 13.187 15.092 6.59 2.291 13.809 1.874 20.687.707 12.369-2.104 24.239-6.519 35.656-11.721 4.018-1.837 8.054-3.813 11.329-6.771 3.28-2.953 7.437-5.146 6.517-9.471z"/><path fill="#E07C1D" d="M49.981 57.87s-.841 6.702 3.693 9.403v-16.44s25.56-.985 33.767-15.173c0 0 8.996 15.578 22.553 17.623 0 0 3.992-21.091-10.031-32.074 0 0-26.176-13.021-44.801.787-18.631 13.815-13.56 32.733-13.56 32.733l8.379 3.141z"/><path fill="#FFF" d="M39.107 55.896l-6.059-6.541s-.061-19.945 22.113-31.961c22.172-12.021 44.398-4.025 49.276-1.961l-.835 9.85s-21.088-6.562-40.996 4.233c-7.766 4.207-23.499 26.38-23.499 26.38z"/><path fill="#E7B99B" d="M37.699 51.641c-1.856 1.044.074 6.435 1.226 8.221 1.151 1.794 3.023 2.997 4.955 3.896 1.37.637 3.067 1.117 4.319.278 2.81-1.872 2.521-5.501.889-8.114-2.195-3.516-8.35-5.989-11.389-4.281z"/><path fill="#FFF" d="M9.806 26.283a4.903 4.903 0 1 1-9.805 0 4.903 4.903 0 0 1 9.805 0z"/></svg>