<svg xmlns="http://www.w3.org/2000/svg" xmlns:xlink="http://www.w3.org/1999/xlink" width="198" height="197.918" viewBox="0 0 198 197.918"><defs><path id="a" d="M114.359 113.917c9.495-7.512 39.431 2.563 45.872-3.664-21.412 20.334.407 14.906 16.819 17.217-6.443 8.911-18.298 15.611-14.081 17.177 4.623 1.727 25.776 6.614 31.207 1.448-3.331 8.203-11.003 8.847-11.29 17.1-.476 13.754 8.866 17.846 15.114 27.844-11.794-2.957-20.189-10.764-34.68-7.942-5.785 1.125-7.552 11.58-12.852 14.822 2.644-6.43-5.829-19.768-4.406-28.771 0 0-9.601 7.656-16.453 18.771 2.134-6.081-14.532-21.734-13.487-29.963l-8.328 16.365c-10.177-15.087-13.041-26.493-7.005-45.501 2.272-7.154 1.535-5.384 13.57-14.903z"/></defs><clipPath id="b"><use xlink:href="#a" overflow="visible"/></clipPath><g clip-path="url(#b)"><path fill="#7C9E29" d="M141.481 198.06c1.886-4.289 7.5-8.283 12.69-10.841 5.191-2.563 10.549-4.345 15.566-7.457 5.017-3.117 9.788-8.327 9.064-11.76-.229-1.086-.986-1.947-.617-3.262.772-2.743 5.377-4.977 7.959-7.688 3.425-3.595 2.692-7.345 5.087-11.141.676-1.073 1.612-2.162 2.042-3.218.456-1.122.293-2.08.123-2.994-1.043-5.629-2.089-11.25-3.134-16.879-.358-1.93-.759-3.932-2.346-5.037-1.062-.737-2.604-1.033-3.599-1.828-3.621-2.902 1.265-10.396 1.016-15.399-.245-4.856-5.91-6.923-12.641-5.172-6.73 1.745-14.008 6.861-18.452 12.476-3.682-.286-9.211.33-12.019 3.976-1.094 1.42-1.319 2.841-2.062 4.276-2.03 3.928-8.474 7.531-12.029 6.736l-3.232 5.09c-8.915 2.978-18.013 7.288-26.624 12.623 1.114 3.61 1 9.271-4.562 12.629-1.74 1.048-3.636 1.564-5.341 2.679-3.108 2.043-4.362 5.18-5.205 7.816-1.159 3.634-2.318 7.274-3.48 10.91-1.228 3.841-2.463 7.823-1.569 10.852 1.087 3.688 5.161 5.38 9.354 6.578 11.311 3.241 24.708 4.063 39.258 2.412 5.856-.659 12.548-1.56 14.941 1.686"/><path fill="#769125" d="M108.606 158.422a172.233 172.233 0 0 1 21.545-17.354c1.979-1.346 4.049-2.706 5.553-4.612.817-1.034 1.569-2.304 2.713-2.771.636-.264 1.256-.202 1.859-.185 4.355.143 9.407-2.029 13.231-5.683-2.838-.605-1.033-5.686 1.91-7.837 2.946-2.148 6.458-2.896 9.29-5.235 4.909-4.058 5.466-11.31 2.51-14.984-2.957-3.674-8.254-4.642-13.384-5.205a151.561 151.561 0 0 0-19.044-.841c-8.399.153-17.411 1.111-25.85 5.951-7.304 4.187-13.496 10.954-18.103 18.175-5.099 7.994-8.542 17.268-6.951 24.747 2.41 11.331 14.823 14.733 23.546 21.017"/><path fill="#668221" d="M94.737 157.98a211.556 211.556 0 0 1 24.992-19.58c2.292-1.529 4.687-3.075 6.447-5.192.957-1.146 6.165-6.771 7.485-7.322.733-.31-.688.004 0 0 4.973-.04 8.597 1.363 13.046-2.726-3.232-.529-1.06-6.063 2.352-8.502 3.413-2.438 7.443-3.393 10.729-6.03 5.694-4.567 6.488-12.384 3.188-16.208-3.296-3.82-9.33-4.639-15.178-5.017-7.079-.461-14.342-.492-21.744-.092-9.602.524-19.918 1.945-29.666 7.505-8.437 4.812-15.659 12.351-21.08 20.31-5.998 8.809-10.131 18.923-8.476 26.89 2.508 12.074 16.62 15.204 26.452 21.584"/><g fill="#7BA52A"><path d="M165.161 198.09c9.008-2.909 18.18-6.442 26.586-11.48 14.309-8.567 25.156-20.867 31.181-32.657 6.021-11.793 7.665-23.164 7.639-33.809-.009-3.542-.256-7.166-2.747-9.439-2.489-2.267-6.905-2.892-11.307-3.225-9.816-.741-21.285-.109-32.386 5.315-11.1 5.424-20.413 17.02-16.114 22.917 1.342 1.838 3.835 3.181 5.812 4.687-.521.646-1.034 1.296-1.555 1.938-.73.904-1.632 1.876-2.638 2.052-.827.15-1.465-.295-2.236-.373-1.757-.177-3.729 1.554-5.085 3.255-1.355 1.708-2.603 3.672-4.438 4.729-1.875 1.077-4.314 1.21-5.493 3.07-1.217 1.915.091 4.05-1.175 5.94-.944 1.417-2.708 1.82-4.176 2.562-3.121 1.577-5.295 5.533-4.75 8.369.738.814 1.699 1.32 2.798 1.592.006 1.444-.256 2.927-1.389 4.5-4.032 5.615-13.552 6.374-20.777 9.751-6.284 2.94-11.044 8.738-11.405 13.237 11.805 6.959 33.709 3.514 53.655-2.931zm-53.282 5.567c-.345-.795-.454-1.688-.375-2.638a18.432 18.432 0 0 1-2.125-1.443l2.5 4.081z"/><path d="M142.371 172.455c-.053-.162-.059-.345-.093-.516-.054-.062-.123-.097-.174-.154l.267.67z"/></g><g fill="#82B52E"><path d="M169.161 215.478c8.831-4.407 17.721-9.424 25.535-15.688 13.299-10.668 22.313-24.135 26.401-36.21 4.087-12.081 3.694-22.951 1.701-32.81-.663-3.287-1.589-6.604-4.601-8.235-3.008-1.639-7.715-1.38-12.357-.856-10.347 1.175-22.16 3.936-32.705 11.071-10.546 7.139-18.085 19.665-12.527 24.314 1.737 1.45 4.574 2.227 6.911 3.256-.425.688-.838 1.395-1.263 2.084-.592.979-1.346 2.056-2.362 2.409-.833.296-1.577 0-2.396.075-1.859.171-3.593 2.141-4.687 3.983-1.099 1.845-2.029 3.901-3.744 5.227-1.752 1.359-4.264 1.94-5.147 3.888-.911 2.008.842 3.742-.125 5.737-.722 1.492-2.482 2.203-3.873 3.168-2.953 2.052-4.486 6.138-3.392 8.666.916.615 2.009.897 3.205.945.273 1.346.272 2.76-.615 4.438-3.158 5.973-12.918 8.483-19.811 12.99-5.995 3.916-9.873 10.196-9.421 14.438 13.57 4.223 35.717-3.125 55.273-12.89zm-54.39 15.269c-.506-.672-.782-1.484-.881-2.378a22.014 22.014 0 0 1-2.474-.935l3.355 3.313z"/><path d="M140.723 196.014c-.085-.136-.126-.306-.19-.455-.068-.044-.148-.065-.212-.115l.402.57z"/></g><path fill="#668221" d="M209.939 149.364c-.193-2.858-.402-5.771-1.573-8.115-1.173-2.339-3.507-4.031-6.488-3.626-1.382.183-2.807.805-4.197 1.035-1.391.242-2.861-.027-3.268-1.198-.406-1.174.172-3.187-1.075-3.41-.396-.071-.879.088-1.241-.047-.584-.211-.571-1.033-.655-1.693-.221-1.713-1.625-2.881-3.413-2.831-.543.018-1.144.125-1.571-.105-.457-.24-.604-.809-.732-1.338a46.588 46.588 0 0 0-1.887-5.962c-.974-2.481-2.585-5.061-5.554-4.738-1.893.208-3.793 1.563-5.686 2.502-1.893.938-4.259 1.375-5.121-.034-.451-.735-.398-1.863-1.08-2.374-.772-.584-2.088-.112-3.23.17-4.428 1.084-8.387-1.496-8.541-5.733-.15-4.239 3.678-9.503 8.113-10.989 4.558-1.522 8.297.742 11.465 2.942 4.601 3.207 9.203 6.408 13.803 9.605 3.157 2.199 6.336 4.419 8.79 7.369 2.72 3.274 9.397 5.907 11.08 9.985 1.229 2.973-2.43 7.505.09 9.318 1.263.916 2.877 1.561 3.391 3.114.676 2.056 4.945 1.723 3.519 4.068"/><path fill="#476D1F" d="M120.255 116.486c-2.632.741-5.273 2.033-7.701 3.759-.611.434-1.233.924-1.651 1.553-.381.575-3.598 2.729-3.779 3.347-1.859 6.364-2.201 11.077-5.548 17.235-1.042-2.444-.682-5.621.047-8.69.729-3.068-.573-6.321-.186-9.349.48-3.75 2.322-7.352 4.257-11.052.486-.928 1.144-1.846 2.008-2.475.988-.717 2.115-.972 3.187-1.2 2.378-.509 4.755-1.02 7.134-1.528 3.078-.656 7.511-3.638 10.344-3.304 2.364.278 3.581 1.874 6.126 1.506 1.961-.29 4.087-1.587 6.067-2.016 1.309-.286 2.083 1.649 3.338 1.652 4.971.017 13.759-1.631 18.039-.055-6.481.167-16.765 2.086-23.491 3.699-3.214.767-8.215 1.212-11.06.625-3.423-.707-5.849 3.065-8.031 3.797-1.342.445-2.855.482-4.042 1.454"/><path fill="#476D1F" d="M201.913 133.486c-.385-2.121-1.456-3.923-3.039-5.112-1.017-.769-2.223-1.278-3.324-1.934-2.933-1.743-5.061-4.435-7.522-6.74-.98-.91-2.022-1.771-3.204-2.448-1.345-.76-2.859-1.276-4.368-1.794-2.01-.686-4.02-1.373-6.029-2.063-1.902-.646-3.829-1.302-5.995-1.353-2.137-.05-4.498.482-6.396-.122-1.436-.452-2.473-1.52-3.859-2.063-4.258-1.659-10.478 1.974-15.125 1.036-2.498-.506-4.316-2.402-4.751-4.961 7.811-5.343 16.79-7.62 24.566-6.937 7.775.686 14.372 4.181 19.311 9.237 2.601 2.657 4.759 5.734 7.165 8.578a61.724 61.724 0 0 0 9.466 9.048c.788.604 1.606 1.21 2.042 2.133.438.925.411 2.25-.387 3.329"/><path opacity=".66" fill="#94C442" d="M110.404 168.07c2.373 5.095 5.201 9.932 9.301 13.252 12.283 20.517 39.999 19.45 66.522 11.385 5.828-.962 11.768-2.946 17.7-6.393 1.689-.985 2.447-2.376 2.5-3.592.517 0 1.031.016 1.536.063 4.028.388 5.931-6.474 1.942-6.861-7.053-.681-14.244 2.567-21.564 5.913-9.651 4.409-17.24 6.78-22.643-.417-1.699-2.257-3.054-4.596-5.73-5.833-2.844-1.311-5.27.123-8.157-.067-3.871-.265-1.353-5.394-1.026-8.856.269-2.846.129-5.562-1.217-7.664-2.046-3.198-6.515-4.266-9.909.584-1.587 2.273-.912 4.115-1.894 6.27-.048.459-.099.912-.146 1.367-1.62.085-2.586-.503-2.902-1.761-.804-.922-1.011-2.396-1.872-3.33a6.23 6.23 0 0 0-2.669-1.74c-1.859-1.387-4.129-1.665-6.938-1-1.207.289-2.15 1.099-2.739 2.073-1.872-.101-3.262-.856-4.634-2.365-1.333-1.464-2.445-3.208-3.385-5.114a124.462 124.462 0 0 1-2.161-5.774c-.033-.088-.081-.225-.135-.377-1.545-5.633-2.056-11.953-2.002-17.629.02-2.399-2.763-3.463-5.029-1.436-1.068.959-1.825 1.917-2.356 2.883-2.086.337-4.612 2.685-4.105 5.184 2.4 11.822 7.104 22.358 13.712 31.235zm48.258 22.826c.474.114.95.227 1.428.34-.549.022-1.093.036-1.636.046.071-.129.142-.257.208-.386zm-14.503-25.632c.397 1.6.118 3.776-.25 6.073-.019-.085-.046-.152-.063-.238a1.915 1.915 0 0 0-.643-1.077c.041-.085.091-.17.129-.258.463-1.028.596-2.846.827-4.5z"/></g><g opacity=".43" clip-path="url(#b)" fill="#476D1F"><path d="M104.449 121.074c3.806.408 7.717.849 10.74 2.805 2.828 1.827 5.336 4.532 7.897 6.711 12.95 11.013 27.59 25.51 43.293 34.693 3.851 2.257 4.383 5.762 7.569 8.87 1.887-3.527.521-7.311-1.846-9.325-2.363-2.015-5.554-2.882-8.16-4.578-4.541-2.963-7.045-8.27-10.811-12.18-4.84-5.027-11.658-7.658-16.754-12.4-2.377-2.212-4.355-4.862-6.706-7.109-6.289-6.005-15.295-8.894-24.941-8.013"/><path d="M158.861 157.524c-1.594 7.338-2.685 14.672-3.257 21.908-1.372-1.485-1.338-4.079-.741-6.475.593-2.399.62-4.575 1.184-6.975.894-3.8 1.455-7.762-.294-10.508-4.817 2.933-6.16 9.406-7.678 14.773-1.177 4.156-2.896 8.283-5.092 12.211-.101-4.479.858-9.257 2.772-13.825 2.537-6.05 6.856-12.734 5.083-17.952-.823-2.426-2.871-3.936-5.051-4.996-.761-.374-1.618-.706-2.561-.422-1.1.334-2.011 1.401-2.727 2.448-6.014 8.778-4.854 19.13-6.879 28.899-1.544-.59-2.022-2.533-2.086-4.385-.357-10.248 7.673-21.572 7.372-31.839-2.896.628-5.7-.173-7.399-2.124-5.624 8.83-14.353 21.411-12.194 32.488-3.361-4.667.793-17.312 3.793-23.891 1.833-4.02 3.676-8.196 3.902-12.248.226-4.058-1.613-7.969-5.254-8.446-1.938 6.25-7.901 18.948-8.233 27.763-2.527-5.506 5.74-23.083 3.912-29.031 5.582.354 11.646.959 14.645 5.319 1.167 1.703 1.761 3.843 2.71 5.72 5.084 10.029 19.342 10.917 24.62 20.807"/><path d="M166.52 163.244c3.713-2.161 7.809-3.113 11.441-2.664.509-1.18-.119-2.341-1.091-2.688-.971-.35-2.169-.092-3.306.238-2.618.751-5.268 1.842-7.842 2.025-2.573.179-5.154-.799-5.802-3.226 4.913-1.291 9.827-3.223 14.589-5.727-.521-1.476-2.711-.918-4.344-.194a16453.5 16453.5 0 0 0-12.291 5.433c-1.941-1.941-3.45-4.344-4.439-7.077 4.984-3.345 10.418-5.271 15.759-7.15 2.917-1.026 6.635-1.781 7.675.74.611-2.08-1.336-3.46-3.286-3.231-1.948.228-3.894 1.455-5.854 2.185-3.933 1.465-7.956.929-11.814 2.849-1.301.653-2.559 1.57-3.892 1.953-3.644 1.048-6.035-2.144-7.673-5.039 6.701-4.629 14.089-7.711 21.305-8.905-.198-1.957-2.931-1.536-4.891-.727a326.253 326.253 0 0 0-19.167 8.673 18.687 18.687 0 0 1-3.851-5.458c4.726-3.038 12.425-8.55 21.437-9.605.424-1.08-8.081.069-9.11.446-5.717 2.083-11.378 4.72-16.884 7.853-1.193-1.861-2.383-3.724-3.576-5.586 4.992-2.491 10.135-4.337 15.25-5.479.696-.747-.486-1.345-1.369-1.172a169.1 169.1 0 0 0-20.291 5.279c.452 3.024 2.542 5.07 4.549 6.959 2.609 2.454 5.215 4.913 7.822 7.365 3.334 3.138 6.675 6.281 10.464 8.848 6.553 4.438 14.597 7.32 18.717 14.315"/></g><defs><path id="c" d="M97.935 130.738c4.461 11.254-13.801 37.024-9.694 44.99-13.311-26.364-14.396-3.906-21.328 11.143-6.68-8.73-9.681-22.009-12.4-18.423-2.981 3.931-13.753 22.782-10.368 29.47-6.898-5.553-5.306-13.085-13.123-15.729-13.037-4.422-19.647 3.351-31.022 6.455 6.229-10.445 16.124-16.239 17.591-30.925.586-5.867-8.918-10.566-10.492-16.575 5.391 4.381 20.604.107 28.814 4.054 0 0-4.568-11.393-13.238-21.149 5.207 3.789 24.999-7.667 32.574-4.299l-13.276-12.685c17.384-5.403 29.126-4.866 45.597 6.386 6.199 4.237 4.709 3.021 10.365 17.287z"/></defs><clipPath id="d"><use xlink:href="#c" overflow="visible"/></clipPath><g clip-path="url(#d)"><path fill="#7C9E29" d="M9.545 132.493c3.564 3.046 5.769 9.568 6.731 15.274.958 5.709 1.122 11.355 2.661 17.055 1.54 5.702 5.159 11.769 8.655 12.064 1.106.096 2.149-.381 3.301.35 2.402 1.53 3.219 6.581 5.073 9.836 2.456 4.31 6.258 4.694 9.205 8.072.834.958 1.601 2.168 2.494 2.888.943.759 1.908.878 2.833.977 5.686.622 11.375 1.236 17.061 1.858 1.957.211 3.987.409 5.499-.795 1.016-.806 1.74-2.199 2.79-2.927 3.821-2.63 9.591 4.208 14.455 5.408 4.724 1.169 8.33-3.667 8.593-10.615.263-6.949-2.541-15.389-6.639-21.261 1.335-3.447 2.335-8.919-.35-12.657-1.047-1.454-2.338-2.08-3.5-3.205-3.177-3.075-4.776-10.284-2.985-13.459-1.317-1.519-2.634-3.044-3.953-4.563-.279-9.391-1.791-19.345-4.421-29.129-3.782.026-9.168-1.709-10.779-8.001-.505-1.967-.451-3.932-1.032-5.886-1.062-3.566-3.707-5.67-5.987-7.234-3.148-2.16-6.298-4.316-9.446-6.474-3.329-2.281-6.787-4.612-9.942-4.626-3.844-.021-6.636 3.396-8.991 7.062-6.361 9.905-11.005 22.494-13.612 36.903-1.049 5.802-2.117 12.47-5.916 13.827"/><path fill="#769125" d="M56.968 112.418a172.211 172.211 0 0 1 10.42 25.629c.716 2.284 1.422 4.656 2.813 6.647.755 1.081 1.757 2.162 1.876 3.396.066.684-.166 1.261-.356 1.832-1.389 4.133-.762 9.591 1.634 14.309 1.393-2.546 5.741.646 6.954 4.085 1.21 3.439.913 7.018 2.338 10.406 2.475 5.862 9.262 8.483 13.629 6.713 4.369-1.774 6.823-6.57 8.836-11.317a151.629 151.629 0 0 0 6.286-17.996c2.272-8.089 3.948-17 1.744-26.472-1.909-8.198-6.609-16.079-12.198-22.568C94.757 99.9 86.867 93.934 79.25 93.304c-11.549-.955-18.38 9.955-26.91 16.5"/><path fill="#668221" d="M61.383 99.265a211.507 211.507 0 0 1 11.555 29.568c.809 2.637 1.601 5.373 3.116 7.671.824 1.243 4.714 7.851 4.863 9.277.083.789.194-.662 0 0-1.396 4.773-3.781 7.839-1.145 13.275 1.436-2.943 6.114.732 7.465 4.698 1.352 3.973 1.103 8.103 2.683 12.01 2.739 6.771 9.999 9.781 14.607 7.723 4.608-2.061 7.127-7.6 9.174-13.092 2.481-6.648 4.601-13.595 6.345-20.801 2.26-9.346 3.872-19.632 1.353-30.566-2.182-9.469-7.325-18.554-13.386-26.035-6.709-8.282-15.208-15.152-23.313-15.858-12.289-1.073-19.341 11.542-28.284 19.118"/><g fill="#7BA52A"><path d="M2.702 155.166c.194 9.465.938 19.261 3.341 28.763 4.092 16.166 12.747 30.101 22.303 39.262 9.555 9.162 19.981 14.009 30.175 17.044 3.399 1.014 6.94 1.822 9.833.088 2.888-1.729 4.761-5.781 6.345-9.903 3.534-9.188 6.23-20.352 4.231-32.542-2-12.194-10.429-24.451-17.31-22.027-2.148.755-4.151 2.758-6.164 4.219-.466-.687-.939-1.367-1.405-2.047-.656-.966-1.331-2.106-1.212-3.119.097-.839.709-1.319 1.004-2.037.676-1.634-.411-4.018-1.655-5.8-1.244-1.795-2.765-3.553-3.249-5.615-.493-2.107.084-4.483-1.357-6.144-1.485-1.722-3.908-1.079-5.356-2.836-1.081-1.312-.962-3.12-1.247-4.738-.608-3.441-3.776-6.664-6.647-6.958-.993.475-1.752 1.249-2.332 2.229-1.388-.415-2.726-1.088-3.912-2.632-4.218-5.476-2.202-14.814-3.358-22.703-1.005-6.865-5.189-13.09-9.392-14.733-10.063 9.301-13.067 31.269-12.636 52.229zm10.002-52.631c.859-.103 1.749.05 2.636.4a18.86 18.86 0 0 1 1.994-1.621l-4.63 1.221z"/><path d="M33.813 140.719c.17-.008.347.04.521.056.071-.036.125-.09.199-.124l-.72.068z"/></g><g fill="#82B52E"><path d="M-15.104 153.987c1.679 9.732 3.925 19.684 7.678 28.972 6.384 15.809 16.688 28.315 27.078 35.707 10.392 7.389 20.914 10.138 30.933 11.073 3.339.309 6.781.378 9.212-2.036 2.43-2.412 3.54-6.99 4.373-11.589 1.854-10.246 2.609-22.357-1.191-34.511-3.8-12.147-13.625-22.979-19.68-18.995-1.89 1.248-3.449 3.742-5.102 5.687a492.49 492.49 0 0 0-1.638-1.808c-.765-.851-1.577-1.884-1.626-2.961-.041-.884.454-1.51.619-2.313.372-1.833-1.021-4.06-2.47-5.635-1.446-1.578-3.147-3.066-3.925-5.092-.797-2.066-.632-4.644-2.243-6.047-1.66-1.454-3.825-.268-5.46-1.77-1.218-1.119-1.392-3.013-1.917-4.62-1.115-3.423-4.587-6.063-7.323-5.747-.853.708-1.44 1.672-1.828 2.797-1.363-.119-2.723-.529-4.074-1.862-4.812-4.74-4.406-14.814-6.734-22.712-2.03-6.865-6.929-12.391-11.121-13.177-7.945 11.776-7.279 35.103-3.561 56.639zm1.034-56.479c.789-.292 1.645-.324 2.528-.161a20.747 20.747 0 0 1 1.609-2.1l-4.137 2.261z"/><path d="M11.722 132.354c.157-.036.329-.03.492-.051.063-.047.105-.114.17-.167l-.662.218z"/></g><path fill="#668221" d="M36.474 212.069c2.794.64 5.65 1.278 8.228.833 2.576-.453 4.87-2.199 5.343-5.17.215-1.381.034-2.923.211-4.319.173-1.399.853-2.735 2.093-2.784 1.239-.05 2.995 1.081 3.576-.05.181-.354.168-.864.397-1.173.374-.502 1.156-.252 1.811-.143 1.708.282 3.228-.729 3.696-2.447.143-.53.208-1.135.547-1.482.367-.367.955-.344 1.501-.318 2.116.111 4.206.081 6.255-.089 2.651-.217 5.589-1.016 6.131-3.949.347-1.875-.408-4.086-.759-6.169-.352-2.08-.09-4.475 1.504-4.897.834-.217 1.903.16 2.59-.346.778-.578.703-1.973.765-3.146.234-4.55 3.844-7.602 7.946-6.528 4.106 1.074 8.045 6.257 8.189 10.93.151 4.807-3.098 7.736-6.123 10.137-4.389 3.483-8.778 6.969-13.168 10.45-3.013 2.394-6.051 4.802-9.586 6.301-3.915 1.662-8.36 7.297-12.75 7.736-3.204.322-6.487-4.49-8.954-2.599-1.235.949-2.318 2.308-3.955 2.351-2.163.061-3.076 4.244-4.907 2.205"/><path fill="#476D1F" d="M93.779 135.647c.044-2.735-.432-5.641-1.387-8.455-.241-.718-.529-1.453-1.009-2.033-.442-.531-1.581-4.227-2.121-4.581-5.557-3.61-9.976-5.296-14.903-10.276 2.633-.298 5.574.962 8.303 2.547 2.732 1.583 6.223 1.27 9.01 2.515 3.449 1.532 6.375 4.336 9.36 7.259.751.729 1.439 1.625 1.792 2.638.402 1.148.319 2.297.232 3.391a4544.09 4544.09 0 0 0-.591 7.273c-.257 3.137 1.323 8.242.188 10.859-.946 2.179-2.828 2.889-3.203 5.43-.291 1.963.343 4.368.182 6.392-.109 1.335-2.178 1.519-2.545 2.721-1.444 4.759-2.394 13.646-5.139 17.289 1.706-6.25 2.829-16.653 3.222-23.563.188-3.295 1.204-8.21 2.587-10.766 1.662-3.073-1.254-6.485-1.326-8.782-.043-1.417.357-2.873-.231-4.292"/><path fill="#476D1F" d="M53.994 208.956c2.141.238 4.173-.269 5.771-1.44 1.023-.751 1.864-1.758 2.807-2.627 2.512-2.306 5.705-3.572 8.618-5.269 1.16-.67 2.282-1.421 3.266-2.359 1.122-1.069 2.055-2.371 2.981-3.671l3.706-5.175c1.169-1.635 2.35-3.294 3.023-5.356.664-2.03.833-4.442 1.956-6.09.848-1.24 2.172-1.927 3.088-3.1 2.815-3.603 1.126-10.604 3.361-14.781 1.201-2.25 3.542-3.445 6.12-3.123 2.868 9.017 2.464 18.271-.428 25.523-2.892 7.245-8.142 12.562-14.404 15.831-3.29 1.728-6.86 2.912-10.276 4.398a61.298 61.298 0 0 0-11.387 6.457c-.809.581-1.626 1.186-2.634 1.343-1.009.152-2.274-.256-3.078-1.332"/><path opacity=".66" fill="#94C442" d="M47.21 111.367c-5.563.803-11.009 2.122-15.372 5.091-23.178 5.859-30.132 32.709-30.047 60.425-.753 5.863-.56 12.127 1.033 18.799.454 1.896 1.563 3.024 2.719 3.426-.15.492-.312.985-.504 1.45-1.535 3.749 4.493 7.542 6.01 3.838 2.682-6.56 1.642-14.376.543-22.356-1.444-10.509-1.529-18.459 6.913-21.561 2.655-.979 5.289-1.599 7.239-3.807 2.077-2.353 1.397-5.085 2.415-7.793 1.364-3.634 5.551.254 8.773 1.566 2.647 1.07 5.291 1.72 7.693 1.04 3.65-1.04 5.959-5.017 2.289-9.663-1.719-2.175-3.681-2.056-5.459-3.613-.42-.179-.841-.359-1.263-.536.384-1.576 1.225-2.335 2.52-2.277 1.114-.5 2.583-.275 3.727-.825a6.333 6.333 0 0 0 2.437-2.056c1.863-1.388 2.78-3.481 2.953-6.364.073-1.236-.432-2.371-1.196-3.214.638-1.764 1.761-2.879 3.599-3.759 1.788-.856 3.772-1.42 5.87-1.768 2.039-.181 4.085-.33 6.152-.408.099-.007.237-.014.401-.024 5.839.143 12.038 1.472 17.462 3.157 2.291.715 4.111-1.651 2.818-4.403-.612-1.299-1.309-2.299-2.08-3.087.279-2.093-1.246-5.186-3.782-5.42-12.012-1.108-23.461.367-33.863 4.142zm-35.75 39.642c-.245.422-.491.843-.734 1.271.136-.53.278-1.057.423-1.583.104.108.206.213.311.312zm28.722-6.511c-1.644-.078-3.647-.974-5.744-1.989.085.011.163.004.247.011.457.041.865-.082 1.215-.309.072.07.14.139.212.204.855.733 2.554 1.383 4.07 2.083z"/></g><g opacity=".43" clip-path="url(#d)" fill="#476D1F"><path d="M93.933 119.184c-1.485 3.535-3.033 7.147-5.778 9.482-2.564 2.18-5.879 3.803-8.699 5.629-14.275 9.237-32.372 19.083-45.691 31.479-3.267 3.038-6.774 2.542-10.669 4.697 2.835 2.82 6.852 2.6 9.462.917 2.613-1.686 4.355-4.493 6.736-6.498 4.143-3.497 9.944-4.371 14.772-6.849 6.208-3.188 10.687-8.962 16.696-12.48 2.806-1.639 5.914-2.764 8.738-4.373 7.559-4.296 12.922-12.086 14.855-21.578"/><path d="M43.367 160.805c-6.573-3.638-13.278-6.79-20.046-9.421 1.815-.892 4.29-.106 6.414 1.148 2.124 1.265 4.204 1.914 6.335 3.143 3.383 1.948 7.02 3.63 10.152 2.747-1.421-5.462-7.236-8.609-11.941-11.605-3.642-2.325-7.099-5.16-10.229-8.396 4.316 1.192 8.619 3.486 12.442 6.634 5.067 4.174 10.227 10.236 15.733 10.036 2.558-.092 4.592-1.62 6.238-3.402.572-.618 1.139-1.345 1.139-2.327.001-1.145-.761-2.328-1.557-3.317-6.677-8.29-16.927-10.154-25.699-14.906 1.006-1.306 3.008-1.206 4.801-.733 9.919 2.606 18.449 13.56 28.369 16.221.229-2.956 1.806-5.407 4.165-6.471-6.834-7.93-16.375-19.909-27.605-21.032 5.441-1.875 16.349 5.741 21.787 10.506 3.324 2.913 6.792 5.88 10.611 7.263 3.816 1.386 8.094.751 9.6-2.597-5.431-3.656-15.875-13.024-24.223-15.878 6.003-.84 20.455 12.14 26.677 12.099-1.946 5.247-4.269 10.875-9.309 12.494-1.964.632-4.187.58-6.257.954-11.069 1.98-16.021 15.379-27.009 17.588"/><path d="M35.679 166.491c1.002 4.183.739 8.377-.736 11.728.98.827 2.274.558 2.887-.272.613-.825.707-2.052.722-3.232.036-2.729-.25-5.576.318-8.095.568-2.511 2.25-4.707 4.762-4.626-.179 5.078.255 10.34 1.285 15.621 1.557-.082 1.655-2.335 1.434-4.106-.554-4.445-1.109-8.891-1.666-13.333 2.414-1.3 5.154-2.055 8.052-2.212 1.774 5.733 2.053 11.493 2.314 17.149.143 3.082-.203 6.862-2.917 7.134 1.817 1.186 3.696-.281 4.039-2.212.344-1.935-.271-4.154-.404-6.241-.27-4.19 1.396-7.884.666-12.132-.244-1.435-.761-2.903-.744-4.29.044-3.79 3.788-5.158 7.032-5.893 2.503 7.741 3.334 15.708 2.396 22.961 1.936.375 2.319-2.361 2.107-4.473a329.217 329.217 0 0 0-2.79-20.854 18.789 18.789 0 0 1 6.331-2.114c1.551 5.4 4.612 14.355 3.03 23.295.914.716 2.258-7.761 2.197-8.857-.354-6.074-1.246-12.257-2.664-18.427l6.378-1.816c.949 5.496 1.241 10.95.863 16.182.51.88 1.426-.078 1.516-.976.687-6.845.948-13.846.785-20.952-3.027-.436-5.59.976-7.979 2.354-3.101 1.792-6.2 3.579-9.303 5.37-3.961 2.291-7.937 4.585-11.484 7.478-6.14 4.995-11.212 11.874-19.099 13.802"/></g><defs><path id="e" d="M86.518 111.163c-11.282-4.387-17.739-35.306-26.365-37.716 28.373 8.181 12.653-7.895 6.342-23.212 10.947 1.047 22.72 7.885 21.942 3.453-.853-4.856-7.331-25.578-14.538-27.649 8.762-1.28 13.195 5.015 20.458 1.088C106.463 20.579 105.269 10.448 110.733 0c3.414 11.671.925 22.863 10.69 33.935 3.898 4.422 13.811.66 19.288 3.593-6.883.968-14.103 15.021-22.586 18.352 0 0 11.459 4.405 24.511 4.695-6.323 1.233-11.396 23.534-19.021 26.791l18.331-1.094c-7.87 16.411-16.258 24.649-35.708 29.06-7.32 1.663-5.418 1.398-19.72-4.169z"/></defs><clipPath id="f"><use xlink:href="#e" overflow="visible"/></clipPath><g clip-path="url(#f)"><path fill="#7C9E29" d="M145.381 45.205c-4.653.542-10.936-2.284-15.773-5.465-4.836-3.181-9.082-6.902-14.305-9.656-5.226-2.748-12.135-4.227-14.732-1.866-.821.745-1.182 1.84-2.503 2.178-2.755.725-7.011-2.117-10.658-2.973-4.833-1.135-7.695 1.397-12.181 1.248-1.271-.041-2.679-.298-3.81-.135-1.2.176-1.94.801-2.644 1.411-4.323 3.748-8.648 7.493-12.973 11.242-1.485 1.288-3.008 2.64-3.159 4.571-.1 1.288.426 2.766.244 4.031-.67 4.591-9.608 4.167-13.796 6.913-4.068 2.667-2.98 8.599 1.931 13.523 4.911 4.918 13.003 8.609 20.096 9.601 1.616 3.324 4.945 7.779 9.513 8.357 1.778.224 3.116-.296 4.729-.384 4.414-.238 10.786 3.497 11.893 6.97 2.011.071 4.021.141 6.033.207 7.069 6.187 15.396 11.855 24.354 16.586 2.552-2.792 7.491-5.558 13.197-2.454 1.786.968 3.188 2.345 5.017 3.249 3.334 1.652 6.675 1.141 9.374.533 3.725-.835 7.449-1.674 11.171-2.511 3.936-.889 7.997-1.838 10.155-4.139 2.631-2.804 2.029-7.171.945-11.396-2.928-11.4-8.995-23.369-17.78-35.083-3.536-4.717-7.692-10.038-6.103-13.745"/><path fill="#769125" d="M127.82 93.612a171.637 171.637 0 0 1-25.871-9.802c-2.161-1.027-4.381-2.127-6.786-2.464-1.303-.177-2.782-.183-3.764-.934-.547-.415-.813-.979-1.102-1.509-2.083-3.828-6.51-7.09-11.596-8.538.915 2.754-4.379 3.767-7.723 2.311-3.346-1.451-5.766-4.103-9.217-5.363-5.983-2.178-12.522 1.009-14.194 5.418-1.672 4.407.17 9.468 2.285 14.175a149.88 149.88 0 0 0 8.907 16.854c4.379 7.171 9.766 14.458 18.208 19.289 7.307 4.183 16.278 6.1 24.837 6.424 9.474.352 19.213-1.371 24.859-6.523 8.558-7.814 5.21-20.243 6.223-30.949"/><path fill="#668221" d="M134.454 105.8a211.288 211.288 0 0 1-29.531-11.651c-2.481-1.202-5.027-2.488-7.739-2.937-1.475-.247-8.962-1.892-10.109-2.749-.634-.479.354.591 0 0-2.545-4.273-3.17-8.106-8.949-9.877 1.179 3.056-4.695 3.984-8.524 2.273-3.828-1.713-6.687-4.707-10.625-6.206-6.825-2.604-13.971.669-15.597 5.444-1.627 4.781.719 10.393 3.352 15.634a182.45 182.45 0 0 0 10.921 18.802c5.307 8.018 11.751 16.201 21.481 21.792 8.419 4.847 18.578 7.259 28.182 7.911 10.634.717 21.448-.835 27.485-6.295 9.149-8.271 4.706-22.023 5.239-33.73"/><g fill="#7BA52A"><path d="M133.428 24.763c-7.069-6.294-14.755-12.426-23.352-17.125C95.445-.37 79.347-3.507 66.131-2.739 52.916-1.971 42.27 2.368 33.107 7.776c-3.056 1.802-6.057 3.843-6.757 7.144-.696 3.294.998 7.419 2.938 11.386 4.325 8.842 10.675 18.417 20.968 25.249 10.294 6.831 25.01 8.993 27.918 2.307.909-2.09.808-4.918 1.107-7.384.818.125 1.637.237 2.456.362 1.149.169 2.444.452 3.107 1.23.547.64.482 1.415.805 2.122.739 1.604 3.226 2.434 5.384 2.739 2.158.306 4.482.389 6.321 1.434 1.881 1.075 3.228 3.114 5.428 3.189 2.267.082 3.446-2.128 5.722-1.995 1.697.102 2.938 1.419 4.319 2.31 2.934 1.895 7.451 1.768 9.621-.138.329-1.047.277-2.135-.042-3.219 1.246-.741 2.651-1.258 4.585-1.079 6.884.64 12.354 8.463 18.924 12.991 5.712 3.936 13.125 5.104 17.187 3.141.03-13.705-14.02-30.858-29.67-44.802z"/><path d="M165.185 67.905c-.514.7-1.23 1.246-2.087 1.659a18.976 18.976 0 0 1-.17 2.562l2.257-4.221zm-42.344-10.516c-.112.129-.265.226-.396.341-.024.077-.019.157-.047.23l.443-.571z"/></g><g fill="#82B52E"><path d="M146.403 12.514c-8.27-5.391-17.095-10.515-26.451-14.087-15.926-6.077-32.103-7.038-44.59-4.455-12.487 2.582-21.663 8.42-29.163 15.129-2.502 2.237-4.891 4.712-4.779 8.134.112 3.422 2.716 7.354 5.518 11.089 6.249 8.333 14.606 17.127 26.097 22.615 11.491 5.482 26.109 5.652 27.311-1.496.372-2.233-.396-5.071-.693-7.606.814.018 1.628.018 2.44.031 1.142.018 2.451.124 3.273.819.674.571.798 1.363 1.275 2.029 1.086 1.52 3.667 2.015 5.81 2.029 2.142.014 4.389-.225 6.401.585 2.057.821 3.831 2.697 5.958 2.474 2.195-.232 2.801-2.625 5.013-2.797 1.65-.133 3.153 1.031 4.69 1.736 3.263 1.51 7.563.768 9.19-1.454.068-1.103-.24-2.189-.806-3.243 1.019-.918 2.243-1.631 4.14-1.717 6.751-.298 13.854 6.853 21.224 10.519 6.413 3.191 13.794 3.358 17.222.822-3.224-13.838-20.766-29.227-39.08-41.156z"/><path d="M187.089 51.711c-.323.771-.884 1.423-1.607 1.959.204.874.36 1.747.446 2.607l1.161-4.566zm-43.088-4.816c-.078.142-.2.261-.299.394-.005.081.019.159.01.237l.289-.631z"/></g><path fill="#668221" d="M68.747 10.788c-2.369 1.61-4.78 3.265-6.206 5.457-1.425 2.195-1.707 5.071.151 7.437.862 1.095 2.118 2.013 3.022 3.092.908 1.081 1.421 2.485.615 3.431-.806.94-2.832 1.461-2.398 2.653.137.375.518.711.59 1.091.112.608-.604 1.016-1.129 1.418-1.369 1.06-1.665 2.861-.719 4.376.288.466.688.925.709 1.412.022.513-.395.934-.789 1.312a47.222 47.222 0 0 0-4.189 4.646c-1.647 2.09-3.057 4.786-1.274 7.185 1.137 1.523 3.267 2.478 5.033 3.636 1.766 1.16 3.34 2.978 2.565 4.433-.408.764-1.409 1.292-1.506 2.135-.11.963.963 1.854 1.782 2.701 3.176 3.273 2.954 7.99-.625 10.268-3.579 2.275-10.055 1.633-13.579-1.443-3.624-3.153-3.559-7.532-3.261-11.379l1.303-16.762c.296-3.84.602-7.701 1.907-11.311 1.446-4.004.34-11.096 3.008-14.608 1.944-2.568 7.701-1.698 7.994-4.795.146-1.552-.113-3.269.97-4.496 1.429-1.624-1.014-5.139 1.728-5.095"/><path fill="#476D1F" d="M85.751 104.779c1.971 1.897 4.421 3.522 7.139 4.742.688.309 1.42.595 2.173.642.689.035 4.177 1.72 4.802 1.564 6.427-1.614 10.668-3.704 17.669-3.93-1.575 2.129-4.5 3.427-7.516 4.351-3.021.924-5.166 3.694-7.974 4.892-3.474 1.483-7.516 1.715-11.689 1.92-1.045.05-2.17-.056-3.147-.483-1.118-.489-1.907-1.333-2.649-2.142-1.64-1.794-3.282-3.589-4.923-5.379-2.126-2.321-6.942-4.639-8.085-7.25-.955-2.178-.195-4.041-1.801-6.05-1.241-1.542-3.436-2.718-4.806-4.21-.908-.989.367-2.635-.265-3.714-2.5-4.295-8.368-11.046-9.17-15.533 3.419 5.503 10.278 13.406 15.072 18.391 2.291 2.383 5.199 6.474 6.132 9.227 1.122 3.307 5.603 3.491 7.338 5.006 1.065.932 1.862 2.217 3.297 2.751"/><path fill="#476D1F" d="M59.106 25.742c-1.632 1.407-2.644 3.241-2.87 5.21-.147 1.26.02 2.562.014 3.844-.019 3.408-1.265 6.605-2.005 9.896-.293 1.312-.508 2.643-.491 4.004.021 1.55.34 3.113.657 4.677l1.273 6.239c.405 1.971.815 3.964 1.866 5.86 1.036 1.868 2.691 3.637 3.132 5.577.334 1.472-.063 2.905.172 4.374.723 4.514 7 8.041 8.544 12.525.829 2.409.112 4.934-1.876 6.61-8.559-4.039-15.066-10.631-18.41-17.685-3.344-7.052-3.664-14.515-1.801-21.333.979-3.582 2.537-7.004 3.775-10.519a61.566 61.566 0 0 0 3.013-12.741c.125-.987.237-1.999.811-2.843.574-.843 1.733-1.496 3.067-1.349"/><path opacity=".66" fill="#94C442" d="M135.233 87.181c3.194-4.621 5.937-9.508 6.729-14.726 11.479-20.973-3.462-44.341-23.834-63.143-3.78-4.541-8.501-8.657-14.473-12.031-1.701-.959-3.283-.912-4.36-.34a15.705 15.705 0 0 1-.721-1.359c-1.702-3.672-8.584-1.842-6.9 1.797 2.979 6.424 9.419 10.989 16.01 15.611 8.685 6.09 14.566 11.439 11.096 19.738-1.091 2.607-2.426 4.963-2.138 7.892.31 3.12 2.773 4.485 4.067 7.076 1.735 3.473-3.965 3.895-7.117 5.364-2.588 1.206-4.864 2.701-5.997 4.928-1.724 3.382-.384 7.779 5.519 8.25 2.763.218 4.014-1.298 6.365-1.542.418-.183.836-.37 1.252-.558.893 1.353.876 2.481-.049 3.392-.391 1.16-1.556 2.084-1.927 3.298a6.276 6.276 0 0 0-.153 3.188c-.255 2.305.656 4.397 2.65 6.487.856.894 2.035 1.299 3.171 1.315.86 1.665.913 3.244.304 5.19-.589 1.895-1.527 3.735-2.698 5.506a124.32 124.32 0 0 1-3.887 4.789l-.259.306c-4.077 4.182-9.268 7.821-14.195 10.646-2.081 1.196-1.59 4.139 1.307 5.06 1.37.439 2.578.605 3.677.576 1.346 1.631 4.651 2.623 6.55.92 8.985-8.049 15.698-17.439 20.011-27.63zm-4.723-53.175c-.142-.465-.283-.934-.429-1.399.297.458.584.917.87 1.383-.146.004-.294.01-.441.016zm-14.772 25.477c1.176-1.148 3.195-2.009 5.363-2.855-.061.055-.111.115-.173.177-.34.306-.53.686-.602 1.095-.097.012-.197.012-.292.02-1.121.126-2.756.931-4.296 1.563z"/></g><g opacity=".43" clip-path="url(#f)" fill="#476D1F"><path d="M97.705 116.095c-1.574-3.492-3.171-7.087-3.015-10.686.148-3.362 1.213-6.896 1.798-10.204 2.946-16.745 8.044-36.7 8.027-54.898-.003-4.462 2.748-6.694 3.817-11.018-3.994.16-6.566 3.255-7.11 6.315-.544 3.056.326 6.243.179 9.353-.26 5.418-3.565 10.261-5.035 15.484-1.89 6.719-.707 13.928-2.219 20.729-.709 3.17-1.995 6.216-2.742 9.377-1.994 8.462.064 17.693 5.705 25.571"/><path d="M101.62 50.717c7.14-2.341 14.016-5.107 20.544-8.271-.584 1.935-2.838 3.216-5.207 3.916-2.369.697-4.26 1.778-6.614 2.505-3.729 1.148-7.436 2.671-8.919 5.57 4.966 2.674 11.23.554 16.631-.85 4.182-1.091 8.612-1.691 13.109-1.788-3.81 2.356-8.419 3.942-13.327 4.607-6.505.873-14.456.529-18.06 4.696-1.674 1.938-1.939 4.466-1.752 6.886.064.842.211 1.75.93 2.418.841.783 2.226 1.027 3.49 1.116 10.616.747 18.961-5.492 28.411-8.688.275 1.629-1.163 3.024-2.728 4.021-8.66 5.488-22.489 4.293-31.191 9.744 2.01 2.182 2.731 5.006 1.906 7.46 10.461.384 25.733 1.55 34.195-5.917-2.328 5.26-15.331 8.072-22.524 8.812-4.396.452-8.93.976-12.543 2.834-3.611 1.853-6.055 5.422-4.629 8.802 6.376-1.491 20.344-2.77 28.119-6.943-3.472 4.965-22.815 6.726-27.021 11.315-2.518-4.997-5.064-10.533-2.821-15.325.875-1.87 2.425-3.467 3.562-5.235 6.078-9.455-.368-22.203 5.49-31.756"/><path d="M102.684 41.219c-3.746-2.11-6.641-5.159-8.091-8.524-1.272.163-1.957 1.289-1.766 2.301.19 1.016 1.019 1.917 1.878 2.73 1.973 1.882 4.256 3.616 5.713 5.743 1.458 2.128 1.918 4.85.152 6.638-3.6-3.586-7.749-6.849-12.319-9.689-1.004 1.196.581 2.8 2.031 3.843 3.633 2.621 7.27 5.237 10.903 7.854-.69 2.654-2.002 5.175-3.856 7.409-5.41-2.607-9.818-6.322-14.14-9.98-2.359-1.991-4.893-4.818-3.246-6.989-2.101.525-2.307 2.897-1.125 4.467 1.183 1.563 3.226 2.625 4.843 3.943 3.256 2.655 4.829 6.396 8.439 8.749 1.218.795 2.645 1.413 3.649 2.371 2.746 2.61 1.205 6.288-.465 9.167-7.378-3.437-13.782-8.249-18.457-13.873-1.593 1.165.155 3.309 1.843 4.588a332.267 332.267 0 0 0 17.179 12.149c-.53 2.135-1.463 4.188-2.758 6.077-5.013-2.539-13.659-6.396-19.131-13.631-1.149.178 4.148 6.936 4.995 7.635 4.69 3.876 9.825 7.427 15.315 10.588-1.002 1.97-2.005 3.938-3.011 5.911-4.673-3.043-8.87-6.544-12.442-10.377-.993-.228-.915 1.099-.319 1.771C83.045 87.25 88 92.204 93.315 96.923c2.381-1.921 3.09-4.759 3.705-7.447.798-3.491 1.598-6.98 2.394-10.471 1.021-4.463 2.042-8.936 2.34-13.5.515-7.902-1.07-16.299 2.882-23.389"/></g><path fill="#BF2C54" d="M140.567 84.002v45.497l-38.953 21.341v-49.763z"/><path d="M108.493 98.143l-1.058 2.435-2.539 1.302 1.899.861-.363 2.392 2.219-1.944 2.242.154-.487-2.017 1.716-2.225-2.455.62zm15.895-5.957l-.917 2.241-2.198 1.15 1.644.849-.315 2.217 1.923-1.753 1.945.199-.422-1.89 1.492-2.034-2.133.519zm16.179-3.582l-.874 1.252.37 1.782-1.704-.236-1.68 1.587.277-2.068-1.444-.83 1.923-1.016.806-2.083.89 1.429 1.436-.337zm-37.323 28.422l.713 2.536-2.343-.495v-4.694l.848 1.049 2.269-.362zm14.843-10.393l-.972 2.369-2.329 1.337 1.742.759-.334 2.304 2.038-1.937 2.06.069-.446-1.917 1.577-2.194-2.257.682zm14.647-6.287l-.849 2.187-2.029 1.183 1.519.758-.292 2.14 1.777-1.751 1.799.121-.39-1.802 1.378-2.01-1.972.577zm-23.457 22.901l-1.051 2.542-2.521 1.571 1.885.653-.361 2.424 2.204-2.177 2.227-.09-.483-1.957 1.704-2.404-2.438.883zm15.791-7.658l-.912 2.334-2.184 1.385 1.634.668-.313 2.244 1.911-1.956 1.934-.012-.42-1.839 1.482-2.188-2.12.749zm15.499-4.417l-.286.436.286 1.337v.393l-1.612-.041-1.672 1.763.269-2.091-1.427-.671 1.915-1.227.797-2.157.883 1.326.847-.295zm-36.501 31.463l.513 1.98-2.369-.382-.596.614v-4.086l.437-1.051 1.234 1.403 2.596-1.092zm14.743-11.964l-.967 2.468-2.314 1.584 1.73.567-.332 2.334 2.026-2.15 2.046-.155-.445-1.862 1.569-2.359-2.243.923zm14.553-7.849l-.843 2.272-2.017 1.4 1.507.59-.287 2.166 1.766-1.939 1.788-.073-.389-1.754 1.371-2.153-1.96.789z" fill="#ECD052"/><path fill="#A7284A" d="M101.614 101.077v49.763l-52.493-10.75V90.326z"/><path fill="#BF2C54" d="M45.551 89.592l56.063 11.485V85.686L45.551 74.2z"/><path fill="#D9A138" d="M68.228 94.238v49.763l11.549 2.365V96.604z"/><path fill="#EDBC42" d="M68.228 78.847v15.391l11.549 2.366V81.213z"/><path fill="#CC4469" d="M142.977 82.943l-41.363 18.134V85.686l41.363-16.735z"/><path fill="#EDBC42" d="M127.187 89.867v46.964l-8.515 4.665V93.599z"/><path fill="#ECD052" d="M127.187 75.339v14.528l-8.515 3.732V78.784z"/><path fill="#DF6386" d="M142.977 68.951l-15.789 6.392h-.008l-8.508 3.444h-.009l-17.049 6.895-21.829-4.468h-.008l-11.549-2.369L45.551 74.2l21.829-7.08 8.667-2.813 16.748-5.435 11.582 2.327 12.339 2.478z"/><path fill="#F0D652" d="M127.18 75.343l-8.508 3.444h-.009l-22.827-5.201h-.009l-11.481-2.611L67.38 67.12l8.667-2.813 15.227 3.283 11.826 2.555z"/><path fill="#F0D652" d="M116.716 63.677L103.1 70.145l-7.264 3.441-16.051 7.628h-.008l-11.549-2.369 16.118-7.87 6.928-3.385 13.103-6.391z"/><path d="M94.061 102.218l1.012 2.163 2.268.74-1.642 1.233.387 2.248-2.025-1.408-2.021.644.385-2.095-1.632-1.84 2.257.102zm-15.306-2.822l.993 2.139 2.222.727-1.609 1.223.379 2.225-1.985-1.389-1.98.641.378-2.075-1.598-1.818 2.209.098zM63.759 96.63l.973 2.117 2.178.715-1.576 1.215.372 2.199-1.947-1.37-1.939.639.371-2.056-1.566-1.796 2.165.092zm-13.151 1.297l.361 2.176-1.848-1.311v-4.746l.899 1.966 2.133.705zm34.787 14.901l1.001 2.158 2.243.751-1.624 1.215.383 2.236-2.003-1.413-1.997.627.381-2.082-1.613-1.841 2.23.119zm-15.129-2.915l.981 2.134 2.196.739-1.589 1.207.374 2.212-1.962-1.394-1.957.624.373-2.062-1.58-1.819 2.185.114zm-14.825-2.854l.962 2.11 2.152.727-1.558 1.197.367 2.19-1.923-1.378-1.918.622.367-2.041-1.55-1.797 2.141.108zm38.62 19.978l1.012 2.18 2.268.777-1.642 1.206.387 2.253-2.025-1.44-2.021.612.385-2.091-1.632-1.867 2.257.141zm-15.306-3.077l.993 2.157 2.222.763-1.609 1.198.379 2.23-1.985-1.421-1.98.607.378-2.069-1.598-1.843 2.209.134zm-14.996-3.014l.973 2.132 2.178.752-1.576 1.189.372 2.206-1.947-1.404-1.939.608.371-2.05-1.566-1.822 2.165.13zm-13.151 1.078l.361 2.183-1.848-1.344v-4.746l.899 1.984 2.133.738zm34.787 15.478l1.001 2.176 2.243.787-1.624 1.187.383 2.244-2.003-1.446-1.997.593.381-2.075-1.613-1.867 2.23.156zm-15.129-3.164l.981 2.15 2.196.775-1.589 1.179.374 2.22-1.962-1.427-1.957.591.373-2.055-1.58-1.845 2.185.149zm-14.825-3.103l.962 2.128 2.152.762-1.558 1.172.367 2.195-1.923-1.408-1.918.59.367-2.035-1.55-1.824 2.141.143zm46.173-16.862l-.701 1.216-2.363.092 1.533 1.444-.43 2.75 1.961-.808zm.437 25.337l-.666 1.786-1.995-.518 1.33 1.891-.333 3.497 1.209-1.554.682-.916z" fill="#ECD052"/><path fill="#DCDCDC" d="M140.57 84.001v6.542l-38.954 17.075v-6.542z"/><path fill="#DCDCDC" d="M101.616 101.076v6.458l-52.493-10.75v-6.458z"/><path fill="#D9A138" d="M95.691 69.762s1.994-18.373 10.918-16.063 0 11.443 0 11.443 1.575-7.138-1.575-7.453c-3.15-.316-7.769 6.192-9.343 12.073z"/><path fill="#D9A138" d="M113.433 71.336l-5.359 3.78s-7.975-1.576-12.383-5.354l4.935-2.273c-.001 0 6.608 3.569 12.807 3.847z"/><path fill="#EDBC42" d="M95.691 69.762s19.526-12.599 23.097-6.09c3.568 6.509.63 8.819-1.47 9.554-2.101.735-9.244 1.891-9.244 1.891s3.338-7.217-.388-8.969c-.84-.395-1.822-.348-2.686-.012l-9.309 3.626z"/><g fill="#EDBC42"><path d="M77.949 71.336l5.357 3.78s7.975-1.576 12.385-5.354l-4.935-2.273s-6.609 3.569-12.807 3.847z"/><path d="M95.691 69.762s-1.994-18.373-10.919-16.063c-8.924 2.31 0 11.443 0 11.443s-1.575-7.138 1.575-7.453c3.149-.316 7.769 6.192 9.344 12.073z"/></g><path fill="#D9A138" d="M95.691 69.762s-19.528-12.599-23.097-6.09c-3.569 6.509-.63 8.819 1.47 9.554 2.099.735 9.242 1.891 9.242 1.891s-3.338-7.217.389-8.969c.839-.395 1.822-.348 2.686-.012l9.31 3.626z"/></svg>