<svg xmlns="http://www.w3.org/2000/svg" width="162" height="187.153" viewBox="0 0 162 187.153"><g fill-rule="evenodd" clip-rule="evenodd"><path fill="#9F3632" d="M92.569 117.706l21.25-10.004c4.871 2.896 6.823 7.286 6.134 13.029l-21.078 9.92c-9.914 4.508-16.486-8.158-6.306-12.945z"/><path fill="#4E4E4E" d="M121.404 103.694c4.086-3.373 7.888-3.635 6.45 1.303 1.93-1.208 6.793-2.428 8.239.794 2.857 6.372-4.274 10.81-12.273 11.518-4.682.415-9.56-7.718-2.416-13.615z"/><path fill="#FFF" d="M119.331 120.913c-.737-4.348-3.747-10.303-6.061-12.857-.713-.786.029-1.544.618-1.844 1.768-.899 3.673-1.697 4.872-.459 3.124 3.23 5.459 8.244 5.853 12.511.149 1.624-1.784 2.625-3.466 3.368-.78.344-1.672.133-1.816-.719z"/></g><g fill-rule="evenodd" clip-rule="evenodd"><path fill="#4E4E4E" d="M30.331 158.571c-1.3.734-4.419-.879-6.881 1.296-2.461 2.175-3.995 5.47 2.982 11.797 6.476 5.872 10.942 3.192 13.942-1.376 3.001-4.571-5.798-14.117-10.043-11.717z"/><path fill="#9F3632" d="M33.324 155.308l30.71-25.853 10.139 12.043-30.71 25.853z"/><path fill="#FFF" d="M45.462 165.531c-3.982-2.717-8.523-8.429-10.002-11.894-.456-1.068-1.548-.677-2.116-.228-.354.279-.707.567-1.036.862-1.689 1.356-3.247 2.875-2.625 4.592 1.657 4.571 5.589 9.159 9.754 11.527 1.538.875 3.449-.598 4.997-1.959.314-.249.62-.51.91-.768.699-.616.898-1.599.118-2.132z"/></g><g fill-rule="evenodd" clip-rule="evenodd"><path fill="#4E4E4E" d="M78.9 176.434c-.15 1.486 2.58 3.691 1.579 6.82-1 3.128-3.4 5.857-11.998 2.015-7.98-3.568-7.324-8.735-4.348-13.32 2.979-4.584 15.256-.366 14.767 4.485z"/><path fill="#9F3632" d="M65.58 167.949l11.325-38.515 15.101 4.44-11.324 38.515z"/><path fill="#FFF" d="M66.442 165.379c4.091 2.554 11.146 4.413 14.914 4.375 1.16-.013 1.24 1.146 1.058 1.846-.113.436-.235.874-.373 1.296-.563 2.09-1.325 4.128-3.147 4.248-4.854.32-10.634-1.435-14.477-4.295-1.42-1.058-.841-3.397-.217-5.364.102-.387.219-.771.337-1.14.285-.889 1.104-1.467 1.905-.966z"/></g><g fill-rule="evenodd" clip-rule="evenodd"><path fill="#9F3632" d="M42.371 117.829L22.855 104.76c-5.247 2.134-7.834 6.184-8.012 11.964l19.355 12.963c9.128 5.938 17.52-5.603 8.173-11.858z"/><path fill="#4E4E4E" d="M15.956 99.662c-3.536-3.945-7.255-4.774-6.573.323-1.728-1.483-6.353-3.418-8.265-.447-3.778 5.872 2.609 11.327 10.413 13.224 4.565 1.111 10.605-6.201 4.425-13.1z"/><path fill="#FFF" d="M15.43 116.998c1.378-4.19 5.245-9.629 7.915-11.808.824-.671.202-1.53-.336-1.916-1.612-1.153-3.377-2.226-4.747-1.181-3.573 2.727-6.632 7.334-7.657 11.493-.391 1.584 1.369 2.863 2.92 3.849.722.458 1.636.384 1.905-.437z"/></g><path fill-rule="evenodd" clip-rule="evenodd" fill="#BE4945" d="M72.9 160.376c20.411 0 37.058-14.37 37.058-31.989 0-17.621-16.646-31.991-37.058-31.991-20.41 0-37.058 14.37-37.058 31.991 0 17.619 16.648 31.989 37.058 31.989z"/><path fill-rule="evenodd" clip-rule="evenodd" fill="#4E4E4E" d="M99.651 150.523c-15.91 6.982-37.455 6.96-53.673-.154-3.048-2.783-5.524-6.035-7.267-9.62 19.229 12.219 49.148 12.219 68.376 0-1.773 3.652-4.308 6.959-7.436 9.774z"/><path fill="#E49234" d="M72.9 147.248h3.656c.893 0 1.704.365 2.293.954l.005.005c.588.589.953 1.4.953 2.292v4.593c0 .891-.365 1.702-.953 2.291l-.005.005c-.589.589-1.4.955-2.293.955H72.9v-2.786h3.656c.13 0 .247-.051.331-.134l.003-.003a.47.47 0 0 0 .133-.328v-4.593a.472.472 0 0 0-.133-.33l-.003-.001a.465.465 0 0 0-.331-.135H72.9v-2.785zm-3.657 0H72.9v2.785h-3.657a.462.462 0 0 0-.328.135l-.003.001a.468.468 0 0 0-.134.33v4.593c0 .128.051.243.134.328l.003.003c.084.083.2.134.328.134H72.9v2.786h-3.657a3.231 3.231 0 0 1-2.29-.955l-.007-.005a3.238 3.238 0 0 1-.954-2.291v-4.593c0-.892.366-1.703.954-2.292l.007-.005a3.23 3.23 0 0 1 2.29-.954z"/><ellipse transform="rotate(-105.29 65.878 94.932)" fill-rule="evenodd" clip-rule="evenodd" fill="#FFF" cx="65.879" cy="94.932" rx="25.584" ry="42.449"/><ellipse transform="rotate(-105.29 41.198 102.261)" fill-rule="evenodd" clip-rule="evenodd" fill="#FFF" cx="41.198" cy="102.261" rx="15.443" ry="16.693"/><ellipse transform="rotate(-105.29 64.944 91.517)" fill-rule="evenodd" clip-rule="evenodd" fill="#EAC7B3" cx="64.947" cy="91.517" rx="25.961" ry="29.95"/><g fill-rule="evenodd" clip-rule="evenodd" fill="#FFF"><ellipse transform="rotate(-105.29 54.946 107.535)" cx="54.948" cy="107.535" rx="15.442" ry="17.709"/><ellipse transform="rotate(-105.284 81.709 100.225)" cx="81.703" cy="100.222" rx="15.442" ry="17.709"/></g><ellipse transform="rotate(-105.29 46.456 119.26)" fill-rule="evenodd" clip-rule="evenodd" fill="#FFF" cx="46.455" cy="119.259" rx="16.779" ry="16.693"/><ellipse transform="rotate(-105.29 94.257 110.903)" fill-rule="evenodd" clip-rule="evenodd" fill="#FFF" cx="94.257" cy="110.902" rx="16.778" ry="16.693"/><ellipse transform="rotate(-105.29 74.725 127.364)" fill-rule="evenodd" clip-rule="evenodd" fill="#FFF" cx="74.729" cy="127.364" rx="16.778" ry="16.694"/><path fill="#4E4E4E" d="M47.312 88.521a.636.636 0 1 1-1.262-.156c.072-.563.346-1.106.769-1.606.738-.874 1.961-1.647 3.313-2.155 1.346-.506 2.841-.759 4.136-.594.863.109 1.645.397 2.254.916a.635.635 0 1 1-.818.973c-.412-.349-.966-.548-1.591-.627-1.088-.137-2.367.085-3.534.522-1.16.436-2.188 1.077-2.786 1.784-.269.319-.441.64-.481.943z"/><circle fill-rule="evenodd" clip-rule="evenodd" fill="#DFA9A0" cx="64.796" cy="90.966" r="8.16"/><path fill-rule="evenodd" clip-rule="evenodd" fill="#FFF" d="M73.432 71.916c-4.264-.072-7.749 1.506-7.782 3.526-.034 2.021 3.708.032 7.972.105 4.264.072 7.435 2.179 7.468.158.035-2.019-3.393-3.716-7.658-3.789zm-25.3 6.916c3.634-2.23 7.437-2.645 8.495-.923 1.057 1.722-3.177 1.913-6.811 4.146-3.635 2.23-5.293 5.655-6.35 3.936-1.055-1.723 1.034-4.927 4.666-7.159z"/><path fill="#DFA9A0" d="M59.871 102.243a.635.635 0 1 1 .86-.936c.431.396 1.029.686 1.733.876 1.526.412 3.5.35 5.378-.118 1.869-.466 3.623-1.327 4.717-2.52.475-.517.822-1.095.993-1.725a.634.634 0 1 1 1.226.331c-.227.839-.675 1.593-1.282 2.255-1.271 1.382-3.253 2.37-5.343 2.891-2.08.519-4.288.579-6.021.113-.895-.243-1.675-.628-2.261-1.167z"/><path fill-rule="evenodd" clip-rule="evenodd" fill="#BE4945" d="M80.323 56.027c-7.945-18.628-22.17-31.868-41.825-14.26-19.656 17.607-26.178 25.937-3.623 21.525 22.36-4.373 30.373-2.738 45.448-7.265z"/><path fill-rule="evenodd" clip-rule="evenodd" fill="#9F3632" d="M40.118 61.79c-1.387-4.083 3.01-15.692 11.665-17.652 8.657-1.962-9.009 1.651-11.665 17.652z"/><circle fill-rule="evenodd" clip-rule="evenodd" fill="#FFF" cx="19.912" cy="60.305" r="12.195"/><path fill-rule="evenodd" clip-rule="evenodd" fill="#FFF" d="M53.854 50.935c17.865-4.885 35.781 3.71 40.015 19.196a25.635 25.635 0 0 1 .589 10.747c-7.555-9.187-21.318-13.399-35.055-9.645-13.737 3.754-23.444 14.383-25.273 26.135a25.635 25.635 0 0 1-4.962-9.551c-4.232-15.485 6.821-31.999 24.686-36.882z"/><circle fill-rule="evenodd" clip-rule="evenodd" fill="#EBC1B8" cx="61.134" cy="88.143" r="2.215"/><path fill="#4E4E4E" d="M80.074 79.065a.637.637 0 0 1-1.008.777c-.187-.241-.498-.432-.892-.568-.875-.305-2.086-.335-3.306-.119-1.229.216-2.443.677-3.31 1.348-.498.386-.873.839-1.052 1.35a.637.637 0 0 1-1.201-.421c.265-.756.789-1.404 1.476-1.936 1.032-.801 2.448-1.343 3.862-1.592 1.425-.252 2.87-.207 3.95.169.619.216 1.134.544 1.481.992z"/><g fill-rule="evenodd" clip-rule="evenodd"><path fill="#BE4945" d="M148.747 78.039c1.043-.805 5.939-1.7 6.793-1.283.854.418.313 5.401-.694 5.792-1.01.391-5.69-1.401-6.52-2.192-.827-.793-.468-1.635.421-2.317z"/><path fill="#9F3632" d="M148.194 79c.206-.956 2.997-1.591 3.061-.778.063.814-2.486-.001-2.549.761-.064.765 1.656.72 1.244 1.469-.377.684-1.963-.498-1.756-1.452z"/><path fill="#BE4945" d="M145.702 76.182c.173-1.284-1.556-5.832-2.362-6.33s-4.921 2.517-4.747 3.56 4.162 4.028 5.285 4.312c1.124.283 1.678-.449 1.824-1.542z"/><path fill="#9F3632" d="M145.139 77.138c.735-.663-.14-3.32-.889-2.954-.75.365 1.279 2.073.64 2.519s-1.485-1.013-1.935-.283c-.409.666 1.45 1.382 2.184.718z"/><path fill="#9F3632" d="M147.52 77.151c1.11.729 1.68.958 1.007 2.041-.669 1.083-.532 1.474-2.573.434-2.041-1.043-2.181-1.514-1.382-2.367.802-.855 1.174-1.272 2.948-.108z"/><path fill="#BE4945" d="M147.422 77.248c1 .643 1.508.85.945 1.745-.563.894-.432 1.228-2.264.299-1.832-.93-1.969-1.33-1.285-2.028.684-.701 1.003-1.042 2.604-.016z"/><path fill="#ECB368" d="M131.771 72.607l27.131 15.317-14.646 25.944-27.132-15.317z"/><path fill="#D69544" d="M130.15 75.488l27.129 15.316-.862 1.526-27.13-15.316z"/><path fill="#ECB368" d="M130.79 69.594l31.2 17.614-2.68 4.748-31.2-17.614z"/><path fill="#BE4945" d="M144.752 77.463l3.32 1.876-15.713 27.804-3.32-1.876z"/></g><g fill-rule="evenodd" clip-rule="evenodd"><path fill="#BE4945" d="M126.54 39.665c.142-1.31 2.881-5.466 3.773-5.793.891-.327 4.117 3.51 3.701 4.509-.415.999-4.948 3.14-6.092 3.19-1.144.05-1.503-.791-1.382-1.906z"/><path fill="#9F3632" d="M126.853 40.73c-.548-.81.923-3.265 1.556-2.748.631.518-1.722 1.793-1.215 2.367.508.572 1.665-.699 1.922.117.234.746-1.718 1.073-2.263.264z"/><path fill="#BE4945" d="M123.094 40.58c-.809-1.013-5.287-2.91-6.206-2.673-.917.239-1.587 5.295-.712 5.892.872.596 5.787-.221 6.77-.836.982-.615.836-1.521.148-2.383z"/><path fill="#9F3632" d="M123.395 41.647c.03-.989-2.494-2.194-2.748-1.401-.255.796 2.383.511 2.262 1.281-.121.769-1.759.37-1.542 1.199.198.757 1.999-.09 2.028-1.079z"/><path fill="#9F3632" d="M125.05 39.937c1.295-.298 1.854-.549 2.172.685.319 1.233.696 1.405-1.468 2.158-2.165.753-2.602.529-2.665-.64-.062-1.169-.106-1.726 1.961-2.203z"/><path fill="#BE4945" d="M125.053 40.075c1.154-.278 1.658-.501 1.914.524s.588 1.161-1.351 1.841c-1.938.68-2.321.503-2.354-.476-.03-.976-.056-1.443 1.791-1.889z"/><path fill="#D2E9F4" d="M110.886 48.165l29.83-9.001 8.607 28.524-29.83 9z"/><path fill="#C0DCEA" d="M111.842 51.333l29.831-9.002.507 1.679-29.831 9.001z"/><path fill="#D2E9F4" d="M108.03 46.784l34.302-10.35 1.576 5.22-34.302 10.351z"/><path fill="#BE4945" d="M123.356 42.161l3.65-1.102 9.227 30.576-3.65 1.102z"/></g><g fill-rule="evenodd" clip-rule="evenodd"><path fill="#BE4945" d="M143.275 5.585c.667-1.134 4.878-3.791 5.825-3.721.948.069 2.305 4.895 1.514 5.634-.791.738-5.803.82-6.866.394s-1.043-1.341-.473-2.307z"/><path fill="#9F3632" d="M143.12 6.685c-.165-.962 2.188-2.593 2.55-1.861.363.731-2.307.924-2.081 1.656.226.731 1.805.05 1.701.898-.094.777-2.008.269-2.17-.693z"/><path fill="#BE4945" d="M139.757 4.999c-.318-1.256-3.617-4.832-4.552-4.994-.935-.16-3.628 4.17-3.078 5.072.551.903 5.363 2.188 6.512 2.032s1.391-1.043 1.118-2.11z"/><path fill="#9F3632" d="M139.592 6.096c.434-.89-1.366-3.029-1.926-2.411-.561.619 1.959 1.448 1.532 2.099-.427.651-1.757-.387-1.901.457-.13.772 1.861.744 2.295-.145z"/><path fill="#9F3632" d="M141.806 5.22c1.302.261 1.914.264 1.695 1.519-.22 1.256.055 1.568-2.228 1.361-2.283-.207-2.588-.593-2.164-1.683.426-1.09.616-1.616 2.697-1.197z"/><path fill="#BE4945" d="M141.75 5.347c1.168.222 1.717.227 1.528 1.267-.189 1.041.056 1.3-1.99 1.12-2.046-.181-2.323-.5-1.947-1.403.374-.905.543-1.34 2.409-.984z"/><path fill="#ECB368" d="M125.507 6.87l30.885 4.104-3.924 29.533-30.885-4.103z"/><path fill="#D69544" d="M125.07 10.151l30.886 4.104-.231 1.737-30.885-4.103z"/><path fill="#ECB368" d="M123.472 4.432l35.518 4.715-.718 5.404-35.517-4.715z"/><path fill="#BE4945" d="M139.334 6.543l3.779.5-4.196 31.657-3.78-.501z"/></g></svg>