<?xml version="1.0" encoding="utf-8"?>
<!-- Generator: Adobe Illustrator 16.0.0, SVG Export Plug-In . SVG Version: 6.00 Build 0)  -->
<!DOCTYPE svg PUBLIC "-//W3C//DTD SVG 1.1//EN" "http://www.w3.org/Graphics/SVG/1.1/DTD/svg11.dtd">
<svg version="1.1" id="Слой_1" xmlns="http://www.w3.org/2000/svg" xmlns:xlink="http://www.w3.org/1999/xlink" x="0px" y="0px"
	 width="303px" height="359.883px" viewBox="0 0 303 359.883" enable-background="new 0 0 303 359.883" xml:space="preserve">
<g>
	<path fill="#FCC236" d="M81.969,103.192c3.589,3.266,8.993,3.117,12.349,6.674c-0.238-0.25,0.023-2.119,0.023-2.503
		c0-0.445,0.293-2.164-0.023-2.503c-3.355-3.557-8.76-3.408-12.349-6.673c0.222,0.199-0.025,2.158-0.025,2.502
		C81.943,101.091,81.662,102.913,81.969,103.192z"/>
	<path fill="#BF2561" d="M38.669,113.036c2.067,0.021,4.263,0.357,6.007-1.001c0.247-0.191,0.026-2.167,0.026-2.503
		c0-0.331-0.271-2.312-0.026-2.503c-1.744,1.359-3.939,1.022-6.007,1.001V113.036z"/>
	<path fill="#FCC236" d="M49.512,142.738c-0.148-0.946-0.168-0.372-0.055,1.729c-0.135,2.033-0.129,2.671,0.018,1.908
		c0.076-0.131,0.082-0.33,0.15-0.475c0.131-0.272,0.323-0.507,0.567-0.687c0.544-0.401,1.271-0.478,1.926-0.423
		c1.447,0.121,2.936,0.911,3.651,2.202l0.018-0.733c0.008-0.591,0.008-1.181,0.008-1.77c0-0.591,0-1.181-0.008-1.77
		c-0.002-0.182,0.068-0.581-0.018-0.733c-0.891-1.604-3.322-2.743-5.105-2.033c-0.912,0.363-1.207,1.147-1.25,2.068
		c-0.086,1.846-0.225,3.888,0.098,5.722C49.229,146.133,49.799,144.363,49.512,142.738z"/>
	<path fill="#A9C03A" d="M213.051,107.61c4.561,2.102,7.747,7.796,9.345,12.346c-0.518-1.473,0.524-3.508,0-5.006
		c-1.596-4.548-4.782-10.242-9.345-12.346C213.655,102.882,212.387,107.303,213.051,107.61z"/>
	<path fill="#1E74A3" d="M208.341,45.791c-1.791-0.025-3.729,0.375-4.083,2.396c-0.279,1.588-0.15,3.605-0.018,5.205
		c0.361,4.351,5.694,4.982,7.104,8.752c-0.543-1.453,0.552-3.533,0-5.006c-1.388-3.713-6.573-4.339-7.094-8.537
		c0.004,1.555,0.008,3.109,0.012,4.664c0.041-2.093,2.478-2.489,4.079-2.468V45.791z"/>
	<path fill="#AF0D1B" d="M162.267,47.797c1.481,0.505,2.894,1.299,4.196,2.159c1.165,0.772,2.688,1.777,3.146,3.182
		c-0.213-0.653,0.025-1.812,0.025-2.503c0-0.741,0.208-1.791-0.025-2.503c-0.459-1.408-1.979-2.407-3.146-3.182
		c-1.303-0.858-2.715-1.654-4.196-2.159c0.09,0.029-0.025,2.292-0.025,2.503C162.241,45.523,162.092,47.736,162.267,47.797z"/>
	<path fill="#FCC236" d="M154.03,5.006c3.588,3.266,8.993,3.117,12.347,6.674c-0.237-0.252,0.025-2.12,0.025-2.503
		c0-0.446,0.293-2.165-0.025-2.503C163.023,3.117,157.618,3.266,154.03,0c0.221,0.199-0.025,2.159-0.025,2.503
		C154.005,2.904,153.724,4.727,154.03,5.006z"/>
	<path fill="#BF2561" d="M122.676,11.627c2.067,0.02,4.263,0.355,6.007-1.001c0.247-0.194,0.025-2.169,0.025-2.503
		c0-0.333-0.27-2.313-0.025-2.503c-1.744,1.356-3.939,1.021-6.007,1.001V11.627z"/>
	<path fill="#28ADC7" d="M128.435,44.152c-0.15-0.946-0.168-0.369-0.055,1.729c-0.135,2.033-0.131,2.671,0.016,1.908
		c0.076-0.131,0.082-0.328,0.152-0.475c0.129-0.271,0.322-0.507,0.565-0.685c0.543-0.403,1.271-0.479,1.926-0.423
		c1.447,0.122,2.935,0.91,3.652,2.2l0.018-0.733c0.006-0.589,0.008-1.179,0.008-1.77s-0.002-1.181-0.008-1.77
		c-0.002-0.18,0.066-0.581-0.018-0.733c-0.892-1.604-3.324-2.741-5.107-2.031c-0.909,0.363-1.206,1.147-1.247,2.066
		c-0.086,1.846-0.228,3.888,0.098,5.722C128.149,47.547,128.72,45.775,128.435,44.152z"/>
	<path fill="#A9C03A" d="M198.036,32.121c0.342-0.927,0.837-2.192,1.871-2.542c1.11-0.374,2.162,0.581,2.884,1.29l0.018-0.732
		c0.006-0.591,0.008-1.18,0.008-1.771c0-0.59-0.002-1.179-0.008-1.77c-0.002-0.131,0.064-0.652-0.018-0.732
		c-0.722-0.71-1.775-1.664-2.884-1.291c-1.036,0.35-1.529,1.615-1.871,2.542c-0.061,0.166-0.016,0.603-0.018,0.733
		c-0.006,0.591-0.008,1.179-0.008,1.77s0.002,1.179,0.008,1.77C198.021,31.581,198.101,31.949,198.036,32.121z"/>
	<path fill="#A9C03A" d="M43.745,41.177c5.794-2.345,13.676-0.384,19.167,2.047c-1.777-0.788-2.735-3.467-4.54-4.267
		c-5.489-2.431-13.371-4.392-19.169-2.047C39.972,36.599,42.898,41.519,43.745,41.177z"/>
	<path fill="#AF0D1B" d="M24.8,104.712c1.721-0.915,3.645-1.52,5.536-1.965c1.693-0.401,3.9-0.927,5.564-0.145
		c-0.772-0.364-1.619-1.566-2.248-2.157c-0.671-0.63-1.447-1.713-2.292-2.109c-1.668-0.784-3.87-0.259-5.567,0.145
		c-1.889,0.445-3.814,1.052-5.535,1.965c0.104-0.055,2.059,1.978,2.248,2.155C22.716,102.796,24.597,104.819,24.8,104.712z"/>
	<path fill="#28ADC7" d="M59.24,80.104c2.193-3.934,6.259-9.216,11.167-9.46c-0.394,0.02-1.927-1.852-2.251-2.156
		c-0.377-0.356-1.754-2.138-2.292-2.11c-4.905,0.246-8.973,5.526-11.167,9.46C54.432,76.316,59.463,79.703,59.24,80.104z"/>
	<g>
		<path fill="#BF2561" d="M12.45,58.474c-2.538-0.225-5.345,0.332-7.885-0.084c0.053,0.944,0.233,1.588,0.837,2.558
			c-1.337-1.26-2.675-2.521-4.012-3.78c1.128,1.609,2.769,2.982,4.31,4.05c4.027,2.792,9.031,0.913,13.484,2.037
			c-0.288-0.828-0.653-1.632-1.176-2.389C16.376,59.52,14.854,58.685,12.45,58.474z"/>
		<path fill="#BF2561" d="M18.779,61.525c-0.215-0.189-0.424-0.369-0.632-0.543c-0.055-0.053-0.109-0.105-0.162-0.158
			c0.008,0.014,0.014,0.029,0.023,0.041c0.522,0.757,0.888,1.561,1.176,2.389c1.122,3.215,0.789,6.872,1.138,10.259
			c0.164,1.591,4.386,2.737,4.542,4.267c-0.377-3.683,0.31-8.377-1.652-11.705C22.17,64.307,20.287,62.865,18.779,61.525z"/>
		<path fill="#BF2561" d="M0,53.282c0.006,1.239,0.434,2.39,1.093,3.447c0.016,0.025,0.033,0.049,0.049,0.076H1.14
			c0,0,1.191,2.102,4.459,4.341c-0.604-0.97-0.98-1.813-1.033-2.757c-0.016-0.257-0.021-0.53-0.023-0.841
			C4.534,56.086,0.008,54.676,0,53.282z"/>
	</g>
	<g>
		<path fill="#AF0D1B" d="M92.431,26.604c-0.231-0.197-0.462-0.387-0.694-0.574c0.455,0.566,0.763,1.128,0.938,1.682
			c0.772,2.407-0.837,4.679-2.815,6.793l4.542,4.267c3.145-3.361,3.915-5.983,1.214-9.118c-0.094-0.107-0.195-0.219-0.297-0.328
			c-0.137-0.147-0.27-0.292-0.42-0.442C94.073,28.069,93.258,27.313,92.431,26.604z"/>
		<path fill="#AF0D1B" d="M51.519,6.605c-2.643,3.408,2.673,9.028,6.78,12.708c0.026-0.049,0.046-0.096,0.089-0.143
			c0.061-0.064,0.438,0.447,0.504,0.416c-0.357-0.473-0.999-1.5-1.28-1.881c-1.438-1.945-3.309-4.567-1.553-6.834
			C56.207,10.681,51.426,6.725,51.519,6.605z"/>
		<path fill="#AF0D1B" d="M84.902,22.131c-7.425-2.667-14.556,0.415-21.846-1.165c-0.082-0.023-0.193-0.051-0.354-0.082
			c-0.284-0.084-0.862-0.286-1.477-0.485c-1.809-0.751-3.974-2.043-3.974-2.043l0.419,0.375c-0.01,0-0.002,0.016,0.051,0.066
			c0.359,0.335,1.689,1.5,1.689,1.5l0.006-0.002c0.063,0.053,0.123,0.105,0.186,0.158l0.035,0.031l0.002,0.002
			c0.716,0.612,1.354,1.143,1.834,1.547c4.707,3.937,9.2,3.418,15.018,2.988c5.459-0.403,11.302,0.09,16.183,2.69
			c-0.176-0.554-0.483-1.115-0.938-1.682C89.726,24.405,87.583,23.093,84.902,22.131z"/>
	</g>
	<path fill="#FCC236" d="M14.575,145.763c-0.373,2.752,0.853,5.376-0.634,7.955c-0.072,0.125,2.062,1.98,2.249,2.156
		c0.178,0.168,2.341,2.026,2.292,2.11c1.485-2.577,0.262-5.205,0.633-7.955c0.049-0.355-1.961-1.885-2.248-2.154
		c-0.536-0.505-1.071-1.007-1.613-1.502C15.168,146.291,14.565,145.835,14.575,145.763z"/>
	<path fill="#28ADC7" d="M6.37,131.423c-0.549-1.102-1.276-2.629-0.709-3.864c0.605-1.326,2.369-1.469,3.627-1.518l-0.649-0.642
		c-0.529-0.508-1.063-1.013-1.6-1.515c-0.535-0.503-1.071-1.005-1.611-1.502c-0.119-0.109-0.537-0.614-0.68-0.608
		c-1.258,0.049-3.023,0.191-3.63,1.518c-0.564,1.237,0.163,2.763,0.71,3.864c0.1,0.197,0.534,0.527,0.651,0.641
		c0.53,0.509,1.063,1.011,1.6,1.516c0.535,0.503,1.071,1.003,1.611,1.502C5.868,130.977,6.269,131.217,6.37,131.423z"/>
	<path fill="#AF0D1B" d="M240.788,112.197c2.81,1.054,5.638,2.601,8.689,1.615c0.431-0.139,1.108-2.943,1.277-3.4
		c0.164-0.452,0.778-3.287,1.206-3.426c-3.053,0.985-5.88-0.562-8.688-1.615L240.788,112.197z"/>
	<path fill="#28ADC7" d="M254.349,143.526c2.577,0.978,4.782,3.84,4.528,6.674c0.023-0.253,0.321-0.813,0.388-0.992
		c0.303-0.801,0.596-1.604,0.89-2.41c0.381-1.051,1.106-2.302,1.208-3.424c0.254-2.834-1.953-5.696-4.53-6.674L254.349,143.526z"/>
	<path fill="#A9C03A" d="M279.373,121.503c-5.725,2.503-13.66,0.763-19.215-1.514c1.799,0.737,2.831,3.391,4.657,4.138
		c5.554,2.276,13.488,4.019,19.218,1.514C283.274,125.973,280.21,121.135,279.373,121.503z"/>
	<path fill="#AF0D1B" d="M117.439,92.257c-1.697,0.962-3.602,1.618-5.479,2.119c-1.684,0.448-3.876,1.032-5.562,0.299
		c0.782,0.341,1.664,1.52,2.31,2.093c0.688,0.612,1.494,1.672,2.348,2.045c1.689,0.737,3.876,0.148,5.562-0.299
		c1.877-0.499,3.783-1.157,5.479-2.118c-0.102,0.057-2.111-1.918-2.309-2.092C119.574,94.114,117.639,92.143,117.439,92.257z"/>
	<path fill="#28ADC7" d="M142.553,55.372c-3.583,7.027-10.392,16.475-19.124,16.984c0.698-0.041,3.59,3.262,4.192,3.798
		c0.706,0.627,3.307,3.773,4.265,3.719c8.732-0.515,15.541-9.961,19.125-16.986C151.447,62.03,142.188,56.088,142.553,55.372z"/>
	<path fill="#1E74A3" d="M175.367,88.886c1.005,0.643,0.483,0.15-1.564-1.48c-1.781-1.807-2.378-2.329-1.789-1.563
		c0.059,0.18,0.238,0.348,0.316,0.534c0.146,0.346,0.204,0.72,0.171,1.093c-0.076,0.839-0.606,1.58-1.199,2.143
		c-1.31,1.246-3.275,1.979-5.068,1.578l0.669,0.622c0.544,0.495,1.091,0.983,1.641,1.471c0.55,0.488,1.099,0.976,1.652,1.456
		c0.17,0.149,0.484,0.542,0.698,0.591c2.227,0.497,5.301-0.825,6.112-3.071c0.414-1.148-0.07-2.073-0.892-2.873
		c-1.648-1.605-3.432-3.424-5.404-4.638C172.444,85.815,173.619,87.81,175.367,88.886z"/>
	<g>
		<path fill="#1E74A3" d="M77.677,125.784c1.502-1.647,2.731-3.779,1.146-5.779c-0.513-0.645-1.16-1.277-1.841-1.892
			c-0.053,0.039-0.105,0.084-0.162,0.107c0.54,0.478,1.082,0.954,1.621,1.434c-1.169-0.806-2.378-1.072-3.609-1.08
			c-0.291,1.146-1.087,2.274-1.814,3.072L77.677,125.784z"/>
		<path fill="#1E74A3" d="M64.635,119.198c3.359,1.297,6.863-0.642,10.197-0.624c1.231,0.008,2.44,0.274,3.609,1.08
			c-0.027-0.024-0.053-0.049-0.08-0.072c0.209,0.168,0.344,0.279,0.344,0.279c-2.209-2.677-4.815-4.253-4.815-4.253
			c0.012,0.008,0.035,0.027,0.059,0.047c-4.339-3.198-9.315,1.202-13.974-0.595C61.774,115.755,62.805,118.492,64.635,119.198z"/>
	</g>
	<path fill="#FCC236" d="M241.953,45.738c6.021-0.472,10.493-5.503,16.58-5.515c-0.433,0-1.9-1.83-2.249-2.156
		c-0.404-0.38-1.715-2.112-2.292-2.11c-6.087,0.012-10.559,5.043-16.579,5.515c0.369-0.029,1.938,1.863,2.249,2.154
		C240.025,43.969,241.439,45.777,241.953,45.738z"/>
	<path fill="#AF0D1B" d="M229.306,67.292c1.782-1.857,3.956-3.564,4.212-6.304c0.035-0.388-1.945-1.869-2.248-2.157
		c-0.302-0.281-2.329-1.725-2.294-2.109c-0.254,2.739-2.431,4.446-4.212,6.304L229.306,67.292z"/>
	<path fill="#28ADC7" d="M250.995,73.499c1.643-1.701,4.646-2.474,6.791-1.314c-0.189-0.104-0.532-0.528-0.649-0.642
		c-0.529-0.508-1.063-1.013-1.6-1.516c-0.698-0.656-1.438-1.649-2.291-2.109c-2.147-1.159-5.148-0.388-6.793,1.313L250.995,73.499z"
		/>
	<path fill="#BF2561" d="M225.36,21.764c1.645-1.701,4.646-2.472,6.793-1.314c-0.189-0.102-0.532-0.527-0.649-0.64
		c-0.53-0.508-1.065-1.013-1.6-1.515c-0.7-0.657-1.441-1.65-2.294-2.112c-2.145-1.157-5.148-0.387-6.791,1.314L225.36,21.764z"/>
	<path fill="#1E74A3" d="M265.879,100.439c-0.987-0.671-0.479-0.164,1.521,1.523c1.73,1.855,2.312,2.394,1.746,1.611
		c-0.055-0.18-0.23-0.354-0.303-0.542c-0.135-0.35-0.184-0.726-0.139-1.097c0.1-0.837,0.648-1.563,1.257-2.11
		c1.346-1.208,3.328-1.887,5.109-1.437l-0.649-0.64c-0.529-0.511-1.063-1.013-1.599-1.516c-0.536-0.502-1.072-1.005-1.613-1.502
		c-0.165-0.152-0.47-0.555-0.679-0.609c-2.214-0.558-5.322,0.679-6.196,2.901c-0.446,1.136,0.014,2.073,0.812,2.895
		c1.601,1.651,3.335,3.52,5.273,4.788C268.717,103.592,267.596,101.563,265.879,100.439z"/>
	<g>
		<path fill="#BF2561" d="M290.585,66.043c-2.538-0.226-5.344,0.332-7.884-0.084c0.053,0.946,0.232,1.59,0.837,2.56
			c-1.337-1.262-2.675-2.521-4.013-3.78c1.129,1.609,2.771,2.982,4.313,4.05c4.025,2.792,9.029,0.913,13.483,2.037
			c-0.289-0.829-0.654-1.633-1.177-2.389C294.514,67.091,292.99,66.256,290.585,66.043z"/>
		<path fill="#BF2561" d="M296.915,69.097c-0.213-0.191-0.423-0.369-0.632-0.545c-0.055-0.051-0.107-0.104-0.162-0.156
			c0.01,0.014,0.014,0.027,0.023,0.041c0.522,0.756,0.888,1.56,1.177,2.389c1.121,3.215,0.79,6.869,1.139,10.258
			c0.162,1.59,4.384,2.738,4.54,4.267c-0.377-3.682,0.311-8.378-1.652-11.706C300.306,71.876,298.423,70.437,296.915,69.097z"/>
		<path fill="#BF2561" d="M278.138,60.852c0.004,1.239,0.432,2.391,1.091,3.447c0.016,0.025,0.033,0.051,0.049,0.076l0,0
			c0,0,1.191,2.104,4.458,4.343c-0.604-0.97-0.981-1.813-1.034-2.759c-0.016-0.257-0.021-0.528-0.023-0.841
			C282.672,63.657,278.144,62.245,278.138,60.852z"/>
	</g>
	<path fill="#FCC236" d="M175.59,44.24c-1.705,5.004,0.792,10.34-1.304,15.24c0.148-0.348,2.129-0.897,2.513-1.063
		c0.445-0.193,2.291-0.647,2.489-1.113c2.098-4.897-0.401-10.234,1.304-15.237c-0.104,0.307-2.168,0.913-2.511,1.062
		C177.681,43.302,175.736,43.813,175.59,44.24z"/>
	<path fill="#FCC236" d="M140.922,40.479c0.799,1.908,0.381,4.591-1.293,5.915c0.146-0.117,0.608-0.245,0.739-0.302
		c0.593-0.248,1.183-0.504,1.771-0.761c0.771-0.334,1.826-0.586,2.491-1.112c1.674-1.325,2.092-4.007,1.292-5.917L140.922,40.479z"
		/>
	<path fill="#BF2561" d="M204.113,85.411c0.8,1.91,0.381,4.591-1.295,5.916c0.148-0.117,0.61-0.246,0.741-0.301
		c0.593-0.25,1.182-0.506,1.771-0.763c0.771-0.334,1.826-0.586,2.489-1.112c1.676-1.324,2.095-4.005,1.295-5.915L204.113,85.411z"/>
	<g>
		<path fill="#BF2561" d="M101.384,72.811c1.06-1.964,1.584-4.411,2.796-6.311c-0.778-0.285-1.356-0.363-2.346-0.213
			c1.476-0.64,2.95-1.278,4.427-1.918c-1.684,0.35-3.355,1.196-4.748,2.064c-3.639,2.272-3.859,6.945-6.304,10.137
			c0.767,0.055,1.539,0.039,2.329-0.119C99.185,75.604,100.381,74.67,101.384,72.811z"/>
		<path fill="#BF2561" d="M96.738,76.842c0.229-0.105,0.445-0.211,0.656-0.318c0.061-0.025,0.122-0.051,0.183-0.076
			c-0.014,0.004-0.025,0.002-0.039,0.004c-0.79,0.158-1.563,0.174-2.329,0.119c-2.973-0.211-5.798-1.742-8.643-2.634
			c-1.336-0.42-3.718,2.577-5.002,2.175c3.091,0.97,6.631,3.149,9.984,2.722C93.33,78.608,95.141,77.591,96.738,76.842z"/>
		<path fill="#BF2561" d="M109.866,64.598c-0.999-0.426-2.072-0.479-3.15-0.314c-0.025,0.004-0.051,0.008-0.076,0.014v-0.002
			c0,0-2.104,0.229-5.035,2.082c0.99-0.15,1.797-0.162,2.575,0.123c0.212,0.076,0.433,0.164,0.685,0.272
			C106.042,67.272,108.744,64.12,109.866,64.598z"/>
	</g>
	<g>
		<path fill="#1E74A3" d="M156.234,89.411c-0.755-1.801-1.997-3.563-4.169-3.038c-0.698,0.168-1.441,0.449-2.179,0.765
			c0.012,0.057,0.029,0.115,0.025,0.168c0.579-0.255,1.158-0.507,1.734-0.761c-1.069,0.632-1.727,1.494-2.184,2.47
			c0.802,0.653,1.403,1.701,1.77,2.573L156.234,89.411z"/>
		<path fill="#1E74A3" d="M146.201,97.345c2.268-2.192,2.018-5.688,3.262-8.33c0.457-0.976,1.114-1.838,2.184-2.47
			c-0.029,0.014-0.057,0.025-0.086,0.039c0.209-0.105,0.348-0.172,0.348-0.172c-2.938,0.771-5.15,2.26-5.15,2.26
			c0.012-0.008,0.035-0.02,0.059-0.031c-4.137,2.269-2.475,7.842-5.617,10.878C142.413,98.346,144.967,98.537,146.201,97.345z"/>
	</g>
	<g>
		<path fill="#9A70DB" d="M281.407,233.739c0,2.538-2.073,4.999-2.223,7.499c-0.15,2.531,1.615,5.222,1.315,7.71
			c-0.302,2.516-2.656,4.709-3.105,7.178c-0.453,2.49,0.973,5.373,0.375,7.811c-0.604,2.457-3.207,4.352-3.953,6.748
			c-0.752,2.416,0.315,5.451-0.577,7.801c-0.896,2.363-3.708,3.927-4.741,6.219c-1.039,2.304-0.349,5.445-1.52,7.672
			c-1.176,2.234-4.156,3.445-5.461,5.6c-1.308,2.158-1.001,5.359-2.433,7.43c-1.436,2.076-4.54,2.919-6.095,4.9
			c-1.557,1.983-1.638,5.199-3.31,7.086c-1.673,1.887-4.856,2.351-6.638,4.133c-1.782,1.782-2.248,4.966-4.133,6.639
			c-1.885,1.671-5.103,1.752-7.087,3.309c-1.981,1.553-2.825,4.658-4.899,6.094c-2.072,1.432-5.273,1.125-7.432,2.433
			c-2.152,1.304-3.364,4.285-5.599,5.46c-2.226,1.172-5.369,0.48-7.672,1.52c-2.291,1.031-3.854,3.846-6.218,4.742
			c-2.35,0.891-5.384-0.176-7.798,0.575c-2.397,0.746-4.291,3.349-6.748,3.952c-2.438,0.598-5.32-0.83-7.811-0.377
			c-2.468,0.449-4.663,2.803-7.179,3.105c-2.488,0.299-5.177-1.466-7.708-1.314c-2.501,0.148-4.962,2.222-7.499,2.222
			c-2.537,0.001-4.998-2.073-7.498-2.222c-2.531-0.15-5.221,1.613-7.709,1.314c-2.516-0.303-4.71-2.656-7.178-3.105
			c-2.491-0.453-5.375,0.975-7.813,0.377c-2.457-0.605-4.35-3.207-6.748-3.953c-2.414-0.752-5.449,0.314-7.799-0.578
			c-2.363-0.896-3.926-3.709-6.218-4.742c-2.304-1.039-5.446-0.348-7.673-1.518c-2.234-1.176-3.445-4.157-5.598-5.461
			c-2.16-1.308-5.361-1.001-7.432-2.433c-2.076-1.436-2.92-4.54-4.9-6.095c-1.984-1.557-5.201-1.638-7.086-3.309
			c-1.886-1.673-2.352-4.857-4.133-6.639c-1.782-1.781-4.966-2.247-6.638-4.134c-1.671-1.885-1.751-5.101-3.308-7.085
			c-1.555-1.98-4.659-2.824-6.095-4.9c-1.432-2.07-1.125-5.271-2.433-7.432c-1.304-2.152-4.284-3.363-5.46-5.598
			c-1.171-2.227-0.479-5.367-1.518-7.672c-1.032-2.291-3.847-3.854-4.743-6.218c-0.891-2.35,0.177-5.384-0.575-7.798
			c-0.746-2.398-3.348-4.291-3.952-6.748c-0.599-2.438,0.828-5.32,0.375-7.813c-0.449-2.467-2.804-4.662-3.105-7.178
			c-0.299-2.488,1.466-5.178,1.315-7.709c-0.149-2.501-2.223-4.961-2.223-7.498s2.073-4.998,2.223-7.499
			c0.151-2.53-1.614-5.22-1.315-7.708c0.303-2.516,2.656-4.709,3.105-7.178c0.454-2.49-0.973-5.374-0.375-7.812
			c0.604-2.458,3.207-4.351,3.953-6.749c0.752-2.414-0.315-5.451,0.576-7.801c0.897-2.363,3.709-3.925,4.742-6.217
			c1.039-2.303,0.348-5.445,1.519-7.672c1.176-2.234,4.157-3.445,5.461-5.598c1.308-2.16,1.001-5.363,2.433-7.434
			c1.436-2.074,4.541-2.918,6.095-4.9c1.557-1.984,1.637-5.201,3.309-7.086c1.673-1.887,4.856-2.351,6.639-4.133
			c1.781-1.781,2.247-4.965,4.133-6.638c1.886-1.671,5.102-1.751,7.086-3.308c1.981-1.555,2.825-4.66,4.899-6.096
			c2.07-1.432,5.273-1.125,7.432-2.433c2.152-1.304,3.363-4.286,5.6-5.46c2.225-1.172,5.368-0.48,7.671-1.518
			c2.291-1.033,3.854-3.846,6.217-4.742c2.35-0.891,5.384,0.176,7.798-0.576c2.398-0.746,4.291-3.35,6.748-3.953
			c2.438-0.598,5.32,0.83,7.811,0.375c2.469-0.449,4.662-2.801,7.178-3.104c2.488-0.299,5.178,1.466,7.709,1.314
			c2.5-0.148,4.961-2.222,7.498-2.222c2.538,0,4.998,2.073,7.499,2.223c2.531,0.15,5.221-1.614,7.709-1.315
			c2.516,0.303,4.71,2.656,7.177,3.105c2.492,0.453,5.375-0.975,7.813-0.375c2.457,0.604,4.351,3.205,6.749,3.951
			c2.414,0.752,5.448-0.314,7.798,0.576c2.363,0.896,3.926,3.709,6.218,4.742c2.303,1.039,5.446,0.348,7.673,1.52
			c2.234,1.174,3.445,4.156,5.598,5.461c2.158,1.307,5.362,1.001,7.433,2.434c2.074,1.436,2.918,4.541,4.899,6.096
			c1.984,1.557,5.2,1.637,7.086,3.308c1.886,1.673,2.352,4.855,4.134,6.638c1.781,1.781,4.965,2.247,6.638,4.134
			c1.671,1.886,1.751,5.103,3.308,7.086c1.555,1.981,4.66,2.825,6.096,4.899c1.432,2.072,1.125,5.273,2.433,7.432
			c1.304,2.152,4.285,3.365,5.46,5.6c1.171,2.227,0.48,5.367,1.518,7.67c1.033,2.293,3.848,3.855,4.744,6.219
			c0.891,2.35-0.177,5.385,0.575,7.799c0.746,2.398,3.349,4.291,3.952,6.746c0.6,2.438-0.828,5.322-0.375,7.813
			c0.449,2.469,2.804,4.662,3.105,7.178c0.299,2.488-1.466,5.178-1.314,7.709C279.334,228.741,281.407,231.202,281.407,233.739z"/>
		<g>
			<path fill="#FFFFFF" d="M88.213,155.383c3.697-2.948,9.308-4.129,13.8,0.089c-1.555,1.241-2.932,2.341-4.487,3.581
				c-2.081-1.302-4.084-1.039-5.996,0.487c-2.678,2.136-2.829,5.554-0.469,8.512c2.096,2.626,5.66,3.536,8.383,1.406
				c1.938-1.547,2.721-3.757,1.679-6.056c1.53-1.22,2.933-2.339,4.486-3.581c3.366,5.578,0.95,10.761-2.849,13.792
				c-4.519,3.646-11.549,4.249-16.415-1.798C81.527,165.726,83.676,159.005,88.213,155.383z"/>
			<path fill="#FFFFFF" d="M114.476,165.083l-8.84-21.043c1.804-0.758,3.607-1.516,5.472-2.299l3.348,7.967l0.389-0.164
				c5.383-2.261,3.42-6.176,1.766-10.114c1.834-0.77,3.668-1.54,5.532-2.323c1.805,4.3,3.592,8.217,0.538,12.647l9.602,6.861
				l0.353,0.842l-5.982,2.513l-8.052-6.203c-0.671,0.424-1.333,0.701-2.024,0.992l3.372,8.026
				C118.083,163.567,116.278,164.325,114.476,165.083z"/>
			<path fill="#FFFFFF" d="M137.283,156.735l-2.072,0.254l-2.777-22.691c1.974-0.242,3.948-0.484,5.924-0.726l1.359,11.103
				l10.088-12.603l2.104-0.258l2.786,22.757c-1.976,0.241-3.98,0.487-5.988,0.732l-1.363-11.136L137.283,156.735z"/>
			<path fill="#FFFFFF" d="M161.331,157.629l-4.772-0.727l1.148-7.543l2.289,0.348l10.455-16.683l2.482,0.377l5.278,19.077
				l2.353,0.357l-1.146,7.546l-4.74-0.722l0.378-2.482l-13.348-2.031L161.331,157.629z M165.842,150.531l6.383,0.971l-2.015-8.652
				L165.842,150.531z"/>
			<path fill="#FFFFFF" d="M181.851,158.834l9.194-20.898c1.792,0.787,3.583,1.576,5.434,2.391l-3.48,7.911l0.388,0.171
				c5.344,2.352,6.836-1.768,8.557-5.679c1.821,0.801,3.644,1.602,5.494,2.417c-1.878,4.269-3.492,8.262-8.812,9.094l1.626,11.691
				l-0.368,0.836l-5.939-2.614l-1.039-10.113c-0.77-0.196-1.427-0.484-2.113-0.787l-3.506,7.972
				C185.434,160.411,183.642,159.623,181.851,158.834z"/>
			<path fill="#FFFFFF" d="M214.799,175.083l-6.956-5.711l-2.855,1.369l-4.41-3.621l0.537-0.655l22.075-10.696l1.94,1.594
				l-6.171,23.754l-0.537,0.655l-4.411-3.622L214.799,175.083z M218.269,163.713l-5.799,3.003l4.033,3.312L218.269,163.713z"/>
		</g>
		<g>
			<path fill="#FFFFFF" d="M77.088,299.063c-1.063-1.713-2.125-3.425-3.187-5.138l7.89-4.893l-3.761-6.064l-7.89,4.893
				c-1.062-1.713-2.142-3.453-3.186-5.139l19.653-12.187c1.044,1.685,2.124,3.425,3.186,5.138l-7.131,4.422l3.76,6.064l7.132-4.422
				c1.062,1.713,2.124,3.426,3.186,5.138L77.088,299.063z"/>
			<path fill="#FFFFFF" d="M96.204,313.93l-6.861-6.009l-2.935,1.294l-4.351-3.811l0.566-0.646l22.702-10.118l1.914,1.676
				l-7.018,23.858l-0.566,0.646l-4.35-3.81L96.204,313.93z M100.087,302.527l-5.971,2.853l3.978,3.484L100.087,302.527z"/>
			<path fill="#FFFFFF" d="M116.814,329.932l7.178-21.981c1.884,0.615,3.769,1.23,5.715,1.866l-2.717,8.321l0.408,0.134
				c5.621,1.835,6.713-2.465,8.056-6.579c1.916,0.626,3.831,1.251,5.778,1.887c-1.467,4.49-2.694,8.677-7.972,10.047l2.808,11.62
				l-0.287,0.879l-6.249-2.04l-2.057-10.09c-0.795-0.12-1.485-0.346-2.208-0.582l-2.738,8.385
				C120.583,331.162,118.698,330.547,116.814,329.932z"/>
			<path fill="#FFFFFF" d="M143.95,337.151c0.246-7.693,0.491-15.388,0.737-23.114c3.335,0.106,6.77,0.216,10.17,0.324
				c11.061,0.386,10.514,17.557-0.548,17.204l-4.26-0.137l-0.188,5.911C147.88,337.276,145.898,337.214,143.95,337.151z
				 M154.656,319.644c-1.386-0.077-2.873-0.092-4.227-0.135c-0.061,1.883-0.15,4.722-0.211,6.604l4.227,0.135
				C157.682,326.351,158.089,319.786,154.656,319.644z"/>
			<path fill="#FFFFFF" d="M181.287,315.827c-3.347,0.78-5.021,1.171-8.335,1.944l0.743,3.186l7.659-1.787
				c0.398,1.706,0.796,3.412,1.193,5.117l-7.658,1.787c0.308,1.319,0.607,2.606,0.923,3.958c3.314-0.773,5.246-1.224,8.625-2.012
				c0.39,1.673,0.795,3.411,1.193,5.116c-5.277,1.231-9.14,2.132-14.353,3.349c-1.757-7.53-3.514-15.061-5.255-22.526
				c5.213-1.217,8.785-2.05,14.063-3.281C180.477,312.352,180.882,314.089,181.287,315.827z"/>
			<path fill="#FFFFFF" d="M197.732,331.162l-4.297,2.333l-3.688-6.795l2.062-1.119l-1.764-19.87l2.236-1.214l15.934,12.178
				l2.119-1.15l3.688,6.795l-4.269,2.317l-1.214-2.236l-12.021,6.525L197.732,331.162z M197.032,322.67l5.75-3.121l-6.921-5.754
				L197.032,322.67z"/>
			<path fill="#FFFFFF" d="M220.567,313.436l-1.477,1.514l-16.579-16.173c1.407-1.443,2.814-2.886,4.223-4.328l8.112,7.913
				l-0.017-16.355l1.5-1.537l16.627,16.22c-1.408,1.442-2.838,2.909-4.269,4.375l-8.136-7.937L220.567,313.436z"/>
			<path fill="#FFFFFF" d="M222.104,285.357c-1.563-0.857-3.099-1.699-4.634-2.541l8.26-15.06c1.535,0.842,3.07,1.684,4.634,2.541
				l-2.716,4.952l15.639,8.578c-0.938,1.709-1.874,3.417-2.812,5.126l-15.639-8.577L222.104,285.357z"/>
		</g>
		<g>
			<path fill="#FFFFFF" d="M245.471,260.012l-3.531-4.388l-0.07-0.017l-0.606,5.433l-2.367-0.585l1.93-5.105l-0.07-0.018
				l-5.006,2.308l-0.712-2.503l5.393-0.882l0.018-0.07l-4.349-3.479l1.746-1.678l3.431,4.364l0.07,0.016l0.613-5.318l2.37,0.584
				l-1.932,4.957l0.07,0.018l5.059-2.221l0.694,2.426l-5.376,0.961l-0.018,0.07l4.349,3.332L245.471,260.012z"/>
			<path fill="#FFFFFF" d="M63.275,253.058l5.197,2.169l0.069-0.018l-2.056-5.059l2.36-0.614l0.737,5.405l0.068-0.02l3.303-4.413
				l1.814,1.861l-4.317,3.346l0.02,0.068l5.48,0.987l-0.737,2.302l-5.092-2.198l-0.07,0.018l1.995,4.967l-2.36,0.614l-0.665-5.274
				l-0.07,0.018l-3.387,4.364l-1.766-1.805l4.267-3.406l-0.02-0.068l-5.408-0.853L63.275,253.058z"/>
			<path fill="#FFFFFF" d="M61.426,228.271l4.442,3.461l0.07,0.004l-0.648-5.43l2.438,0.031l-0.712,5.408l0.072,0.002l4.347-3.391
				l1.265,2.276l-5.051,2.091v0.074l5.027,2.394l-1.313,2.027l-4.337-3.461h-0.07l0.613,5.314l-2.439-0.029l0.748-5.266h-0.072
				l-4.417,3.318l-1.229-2.204l5.016-2.162v-0.075l-4.996-2.246L61.426,228.271z"/>
			<path fill="#FFFFFF" d="M66.146,203.9l3.383,4.503l0.068,0.02l0.788-5.408l2.346,0.666l-2.098,5.035l0.07,0.02l5.078-2.139
				l0.628,2.526l-5.421,0.7l-0.02,0.07l4.233,3.621L73.4,215.13l-3.281-4.472l-0.068-0.018l-0.79,5.291l-2.348-0.665l2.092-4.887
				l-0.066-0.02l-5.131,2.052l-0.61-2.448l5.405-0.78l0.018-0.07l-4.235-3.473L66.146,203.9z"/>
			<path fill="#FFFFFF" d="M77.093,181.522l2.084,5.235l0.061,0.033l2.181-5.01l2.09,1.259l-3.35,4.308l0.064,0.037l5.464-0.729
				l-0.061,2.605l-5.413-0.749l-0.037,0.061l3.129,4.608l-2.161,1.087l-1.992-5.178l-0.061-0.039l-2.155,4.9l-2.09-1.259
				l3.307-4.165l-0.063-0.037l-5.489,0.631l0.051-2.524l5.421,0.667l0.039-0.061l-3.172-4.464L77.093,181.522z"/>
			<path fill="#FFFFFF" d="M240.669,194.53l-5.548-0.968l-0.063,0.033l3.123,4.481l-2.169,1.12l-1.912-5.107l-0.061,0.033
				l-2.247,5.035l-2.184-1.415l3.475-4.218l-0.031-0.063l-5.565,0.251l0.208-2.411l5.453,1.021l0.063-0.033l-3.041-4.401
				l2.165-1.122l1.816,4.997l0.063-0.033l2.341-5.005l2.119,1.368l-3.408,4.265l0.033,0.064l5.466-0.361L240.669,194.53z"/>
		</g>
		<g>
			<path fill="#FFFFFF" d="M147.793,196.148c0.688,0,1.283,0.251,1.786,0.752c0.5,0.502,0.751,1.097,0.751,1.785v6.673
				c0,0.69-0.234,1.332-0.704,1.927c-0.471,0.597-0.926,1.113-1.363,1.551l-13.722,14.475c2.819,0.376,5.372,1.065,7.66,2.067
				c2.286,1.003,4.243,2.303,5.874,3.9c1.628,1.598,2.881,3.493,3.759,5.687c0.877,2.193,1.316,4.638,1.316,7.33
				c0,3.259-0.644,6.156-1.927,8.694c-1.285,2.537-3.071,4.685-5.357,6.438c-2.288,1.755-4.981,3.102-8.083,4.042
				c-3.102,0.939-6.47,1.409-10.104,1.409c-4.387,0-8.192-0.517-11.419-1.551c-3.229-1.033-5.921-2.364-8.083-3.994
				c-2.162-1.629-3.807-3.478-4.935-5.545s-1.785-4.104-1.974-6.109c-0.063-0.752,0.172-1.362,0.705-1.833
				c0.531-0.47,1.143-0.704,1.833-0.704h7.425c0.625,0,1.143,0.204,1.551,0.61c0.406,0.408,0.829,0.987,1.269,1.739
				c0.376,0.752,0.877,1.456,1.504,2.114c0.626,0.658,1.457,1.254,2.49,1.786c1.034,0.533,2.334,0.956,3.9,1.269
				c1.565,0.314,3.478,0.47,5.733,0.47c3.821,0,6.908-0.767,9.258-2.303c2.35-1.534,3.524-3.712,3.524-6.532
				c0-2.819-1.175-4.84-3.524-6.062s-5.437-1.833-9.258-1.833h-7.801c-0.69,0-1.285-0.25-1.786-0.752
				c-0.502-0.501-0.751-1.096-0.751-1.785v-6.674c0-0.688,0.234-1.33,0.704-1.927c0.471-0.595,0.924-1.111,1.363-1.551
				l13.158-13.815h-25.94c-0.69,0-1.285-0.25-1.786-0.752c-0.502-0.501-0.752-1.096-0.752-1.786v-6.673
				c0-0.688,0.25-1.283,0.752-1.785c0.501-0.501,1.096-0.752,1.786-0.752H147.793z"/>
			<path fill="#FFFFFF" d="M162.924,198.686c0-0.688,0.25-1.283,0.752-1.785c0.501-0.501,1.096-0.752,1.785-0.752H200.8
				c0.689,0,1.284,0.251,1.786,0.752c0.501,0.502,0.752,1.097,0.752,1.785v6.673c0,0.69-0.251,1.285-0.752,1.786
				c-0.502,0.502-1.097,0.752-1.786,0.752h-26.41l-1.033,12.03c1.691-0.688,3.367-1.096,5.028-1.222
				c1.659-0.125,3.022-0.188,4.088-0.188c3.509,0,6.768,0.47,9.774,1.41c3.008,0.939,5.607,2.335,7.802,4.183
				c2.192,1.849,3.915,4.12,5.169,6.813c1.253,2.695,1.88,5.797,1.88,9.305c0,4.011-0.644,7.441-1.927,10.292
				c-1.285,2.852-3.04,5.201-5.264,7.049c-2.225,1.849-4.84,3.195-7.848,4.041s-6.203,1.269-9.587,1.269
				c-4.323,0-8.035-0.502-11.137-1.503c-3.102-1.002-5.672-2.365-7.707-4.089c-2.037-1.723-3.571-3.696-4.605-5.921
				c-1.034-2.224-1.614-4.559-1.739-7.002c-0.063-0.752,0.172-1.363,0.705-1.833c0.532-0.47,1.143-0.705,1.833-0.705h7.613
				c0.625,0,1.189,0.204,1.691,0.611c0.501,0.408,0.846,0.956,1.034,1.645c0.376,1.442,0.971,2.617,1.785,3.524
				c0.813,0.909,1.754,1.63,2.819,2.162c1.065,0.533,2.256,0.893,3.572,1.08c1.315,0.188,2.693,0.282,4.135,0.282
				c3.571,0,6.453-0.971,8.647-2.913c2.192-1.941,3.289-4.605,3.289-7.989c0-2.819-1.097-5.169-3.289-7.049
				c-2.194-1.88-5.076-2.851-8.647-2.914c-1.88,0-3.368,0.142-4.464,0.424c-1.098,0.281-1.99,0.61-2.679,0.986
				c-0.69,0.376-1.316,0.705-1.88,0.987c-0.563,0.281-1.285,0.423-2.162,0.423h-8.646c-0.69,0-1.285-0.25-1.785-0.752
				c-0.503-0.501-0.752-1.096-0.752-1.786L162.924,198.686z"/>
		</g>
		<g>
			<path fill="#FFFFFF" d="M237.804,218.471v3.26c0,1.573-0.581,2.764-1.745,3.573c-1.163,0.81-2.715,1.214-4.653,1.214
				c-1.939,0-3.496-0.404-4.672-1.214s-1.763-2.012-1.763-3.607v-3.191c0-1.595,0.6-2.798,1.8-3.607
				c1.199-0.809,2.738-1.214,4.617-1.214c1.878,0,3.417,0.411,4.616,1.231C237.204,215.736,237.804,216.921,237.804,218.471z
				 M247.329,213.721h3.054c0.582,0,0.873,0.268,0.873,0.802c0,0.146-0.049,0.278-0.146,0.398l-17.597,23.56
				c-0.339,0.459-0.775,0.688-1.309,0.688h-3.054c-0.582,0-0.872-0.262-0.872-0.784c0-0.145,0.048-0.277,0.146-0.398l17.596-23.577
				C246.359,213.95,246.796,213.721,247.329,213.721z M230.206,218.538v3.057c0,0.303,0.114,0.563,0.345,0.78
				s0.515,0.325,0.854,0.325c0.339,0,0.624-0.108,0.854-0.325s0.346-0.478,0.346-0.78v-3.057c0-0.304-0.115-0.558-0.346-0.765
				c-0.23-0.205-0.516-0.309-0.854-0.309c-0.34,0-0.624,0.108-0.854,0.325C230.32,218.008,230.206,218.256,230.206,218.538z
				 M254.527,230.771v3.418c0,1.648-0.582,2.896-1.745,3.744c-1.163,0.849-2.715,1.272-4.653,1.272
				c-1.939,0-3.496-0.424-4.672-1.272c-1.176-0.848-1.763-2.108-1.763-3.78v-3.345c0-1.673,0.6-2.933,1.799-3.781
				c1.2-0.849,2.739-1.272,4.617-1.272s3.418,0.431,4.617,1.291C253.928,227.905,254.527,229.147,254.527,230.771z M246.929,230.734
				v3.418c0,0.339,0.115,0.63,0.346,0.872s0.515,0.363,0.854,0.363c0.339,0,0.624-0.121,0.854-0.363
				c0.229-0.242,0.345-0.533,0.345-0.872v-3.418c0-0.339-0.115-0.624-0.345-0.854c-0.23-0.229-0.516-0.345-0.854-0.345
				c-0.34,0-0.624,0.121-0.854,0.363S246.929,230.42,246.929,230.734z"/>
		</g>
	</g>
	<path fill="#FCC236" d="M14.963,238.541c1.481,0.505,2.894,1.299,4.193,2.159c1.168,0.772,2.689,1.775,3.148,3.18
		c-0.213-0.651,0.023-1.809,0.023-2.503c0-0.739,0.209-1.789-0.023-2.503c-0.459-1.408-1.979-2.405-3.148-3.18
		c-1.3-0.86-2.712-1.654-4.193-2.158c0.09,0.029-0.025,2.291-0.025,2.502C14.938,236.268,14.788,238.48,14.963,238.541z"/>
	<path fill="#28ADC7" d="M59.941,156.371c3.511-0.88,8.839-1.404,11.68,1.333c-0.227-0.219,0.025-2.145,0.025-2.502
		c0-0.417,0.287-2.202-0.025-2.503c-2.841-2.738-8.169-2.214-11.68-1.334C59.514,151.471,60.3,156.281,59.941,156.371z"/>
	<path fill="#7DBE3C" d="M24.008,183.902c5.796-2.343,13.678-0.383,19.169,2.048c-1.777-0.786-2.735-3.467-4.543-4.267
		c-5.486-2.429-13.37-4.393-19.166-2.048C20.234,179.325,23.163,184.245,24.008,183.902z"/>
	<path fill="#AF0D1B" d="M5.063,213.737c1.723-0.913,3.645-1.518,5.535-1.965c1.695-0.4,3.903-0.925,5.567-0.145
		c-0.772-0.362-1.621-1.564-2.251-2.155c-0.67-0.631-1.444-1.715-2.291-2.111c-1.668-0.782-3.87-0.257-5.567,0.145
		c-1.889,0.448-3.813,1.052-5.533,1.965c0.104-0.055,2.057,1.978,2.248,2.157C2.979,211.823,4.859,213.845,5.063,213.737z"/>
	<g>
		
			<linearGradient id="SVGID_1_" gradientUnits="userSpaceOnUse" x1="-152.0786" y1="-1217.8516" x2="-160.0072" y2="-1214.696" gradientTransform="matrix(0.8858 -0.464 0.464 0.8858 764.9023 1186.3054)">
			<stop  offset="0.1279" style="stop-color:#97003B"/>
			<stop  offset="0.8829" style="stop-color:#DA003B"/>
		</linearGradient>
		<path fill="url(#SVGID_1_)" d="M63.28,175.277c-0.152-0.262-0.308-0.519-0.466-0.772c0.243,0.688,0.349,1.316,0.336,1.896
			c-0.061,2.529-2.327,4.146-4.89,5.496l2.893,5.521c4.072-2.145,5.659-4.37,4.137-8.216c-0.053-0.132-0.111-0.271-0.173-0.408
			c-0.081-0.183-0.158-0.364-0.252-0.554C64.353,177.199,63.831,176.218,63.28,175.277z"/>
		<path fill="#AF0D1B" d="M31.188,142.969c-3.612,2.354-0.434,9.405,2.24,14.229c0.04-0.037,0.074-0.076,0.13-0.105
			c0.079-0.041,0.267,0.565,0.342,0.557c-0.184-0.563-0.455-1.743-0.596-2.195c-0.72-2.31-1.627-5.4,0.775-6.965
			C34.281,148.355,31.063,143.051,31.188,142.969z"/>
		
			<linearGradient id="SVGID_2_" gradientUnits="userSpaceOnUse" x1="-170.521" y1="-1236.3735" x2="-152.3413" y2="-1236.3735" gradientTransform="matrix(0.8858 -0.464 0.464 0.8858 764.9023 1186.3054)">
			<stop  offset="0.2207" style="stop-color:#97003B"/>
			<stop  offset="0.8829" style="stop-color:#DA003B"/>
		</linearGradient>
		<path fill="url(#SVGID_2_)" d="M57.636,168.582c-6.14-4.953-13.887-4.38-20.256-8.263c-0.069-0.05-0.165-0.112-0.307-0.194
			c-0.24-0.174-0.72-0.554-1.236-0.942c-1.462-1.302-3.084-3.233-3.084-3.233l0.273,0.492c-0.01-0.003-0.009,0.014,0.026,0.08
			c0.229,0.435,1.104,1.969,1.104,1.969h0.005c0.042,0.072,0.082,0.144,0.123,0.213l0.023,0.041l0.001,0.002
			c0.476,0.813,0.904,1.521,1.228,2.062c3.153,5.263,7.57,6.247,13.205,7.747c5.29,1.41,10.65,3.79,14.408,7.847
			c0.013-0.58-0.093-1.208-0.336-1.896C61.448,172.313,59.854,170.371,57.636,168.582z"/>
	</g>
	<path fill="#28ADC7" d="M284.952,192.63c5.223,0.543,12.749,2.471,15.266,7.615c-0.202-0.41,1.099-2.913,1.276-3.4
		c0.207-0.568,1.484-2.86,1.209-3.426c-2.519-5.145-10.045-7.074-15.268-7.616C286.8,185.736,285.483,192.685,284.952,192.63z"/>
	<g>
		<path fill="#BF2561" d="M274.049,176.233c-0.927-2.823-2.812-5.574-3.533-8.488c-0.989,0.493-1.596,0.979-2.358,2.073
			c0.735-2.013,1.473-4.024,2.206-6.034c-1.205,1.947-1.921,4.337-2.358,6.478c-1.14,5.599,3.174,10.096,4.015,15.383
			c0.754-0.688,1.448-1.45,2.02-2.356C274.731,180.921,274.925,178.906,274.049,176.233z"/>
		<path fill="#BF2561" d="M273.686,184.417c0.105-0.317,0.201-0.624,0.293-0.927c0.031-0.082,0.063-0.164,0.094-0.247
			c-0.01,0.016-0.023,0.029-0.033,0.045c-0.571,0.906-1.266,1.668-2.02,2.356c-2.93,2.679-6.997,4.005-10.468,5.935
			c-1.629,0.905-0.919,5.956-2.485,6.826c3.772-2.096,9.122-3.518,11.783-7.148C272.266,189.327,272.942,186.647,273.686,184.417z"
			/>
		<path fill="#BF2561" d="M273.889,160.509c-1.326,0.576-2.362,1.563-3.191,2.755c-0.02,0.029-0.037,0.059-0.059,0.086v-0.002
			c0,0-1.707,2.243-2.604,6.773c0.763-1.093,1.492-1.883,2.481-2.376c0.266-0.133,0.555-0.266,0.89-0.41
			C272.968,166.656,272.398,161.155,273.889,160.509z"/>
	</g>
	<g>
		<path fill="#779324" d="M192.65,8.769c-103.514,0-78.57,104.015-78.57,104.015h82.125c-0.251-72.159,16.771-79.232,16.771-79.232
			c10.14-3.745,11.255,10.616,11.255,10.616h6.609C229.541,7.418,192.65,8.769,192.65,8.769z"/>
		<path fill="#637B1E" d="M211.289,25.381c0,0-22.288-1.649-30.929,33.521l0,0c0,0-9.982,41.511-68.044,43.068
			c0.769,6.648,1.764,10.813,1.764,10.813h53.343h28.782c-0.006-1.262-0.003-2.498,0.003-3.721c0.002-0.374,0.005-0.739,0.008-1.11
			c0.008-0.852,0.014-1.696,0.024-2.531c0.009-0.405,0.014-0.811,0.022-1.213c0.013-0.798,0.026-1.587,0.043-2.368
			c0.011-0.378,0.02-0.755,0.03-1.129c0.021-0.87,0.046-1.73,0.073-2.581c0.008-0.248,0.017-0.502,0.024-0.748
			c0.079-2.236,0.175-4.396,0.289-6.48c0.014-0.213,0.027-0.421,0.038-0.63c0.047-0.828,0.096-1.645,0.147-2.449
			c0.017-0.242,0.032-0.482,0.049-0.724c0.052-0.792,0.109-1.571,0.169-2.342c0.014-0.195,0.03-0.392,0.044-0.587
			c0.073-0.926,0.147-1.837,0.229-2.729c0-0.018,0.003-0.034,0.003-0.051c0.172-1.924,0.362-3.771,0.562-5.545
			c0.009-0.067,0.017-0.133,0.024-0.199c0.093-0.804,0.188-1.592,0.286-2.366c0.011-0.093,0.022-0.186,0.036-0.276
			c0.101-0.792,0.204-1.567,0.311-2.328c0.002-0.028,0.008-0.06,0.011-0.09c0.347-2.461,0.722-4.762,1.117-6.912
			c4.926-26.664,13.229-30.123,13.229-30.123c10.14-3.745,11.255,10.616,11.255,10.616h2.815
			C226.409,37.501,223.571,25.381,211.289,25.381z"/>
		<path fill="#AF0D1B" d="M212.977,80.009c-18.146-1.262-23.438,22.43-23.438,22.43c4.535-17.893-7.562-22.683-7.562-22.683
			c4.031,13.861-9.325,22.683-9.325,22.683c-5.04-11.341,1.513-22.179,1.513-22.179c-13.105,1.513-17.644,21.422-17.644,21.422
			c1.354-17.618-10.08-23.187-10.08-23.187c3.025,12.351-7.308,23.438-7.308,23.438c-6.553-7.309-4.536-23.438-4.536-23.438
			c-11.342,4.789-11.595,23.049-11.595,23.049c-6.804-20.551-25.2-17.756-25.2-17.756c12.098,6.05,11.124,30.793,11.124,30.793
			c0,2.606,20.702,4.719,46.245,4.719c25.538,0,46.441-2.121,46.24-4.719C199.421,89.176,212.977,80.009,212.977,80.009z"/>
		<circle fill="#FF910B" cx="227.212" cy="50.081" r="10.694"/>
		<path fill="#920B16" d="M168.476,119.102c19.105-0.584,33.102-2.392,32.936-4.521c-1.99-25.405,11.565-34.572,11.565-34.572
			c-18.146-1.262-23.438,22.43-23.438,22.43c4.535-17.893-7.562-22.683-7.562-22.683S193.28,96.575,168.476,119.102z"/>
	</g>
</g>
</svg>
