<?xml version="1.0" encoding="utf-8"?>
<!-- Generator: Adobe Illustrator 16.0.0, SVG Export Plug-In . SVG Version: 6.00 Build 0)  -->
<!DOCTYPE svg PUBLIC "-//W3C//DTD SVG 1.1//EN" "http://www.w3.org/Graphics/SVG/1.1/DTD/svg11.dtd">
<svg version="1.1" id="Слой_1" xmlns="http://www.w3.org/2000/svg" xmlns:xlink="http://www.w3.org/1999/xlink" x="0px" y="0px"
	 width="302.652px" height="359.471px" viewBox="0 0 302.652 359.471" enable-background="new 0 0 302.652 359.471"
	 xml:space="preserve">
<g>
	<path fill="#FCC236" d="M81.875,103.074c3.584,3.262,8.982,3.113,12.334,6.666c-0.238-0.25,0.023-2.117,0.023-2.5
		c0-0.445,0.293-2.162-0.023-2.5c-3.352-3.553-8.75-3.404-12.334-6.666c0.221,0.199-0.025,2.156-0.025,2.5
		C81.849,100.975,81.568,102.795,81.875,103.074z"/>
	<path fill="#BF2561" d="M38.625,112.906c2.064,0.021,4.258,0.357,6-1c0.246-0.191,0.025-2.164,0.025-2.5
		c0-0.33-0.27-2.309-0.025-2.5c-1.742,1.357-3.936,1.021-6,1V112.906z"/>
	<path fill="#FCC236" d="M49.455,142.574c-0.148-0.945-0.168-0.371-0.055,1.727c-0.135,2.031-0.129,2.668,0.018,1.906
		c0.076-0.131,0.082-0.33,0.15-0.475c0.131-0.271,0.322-0.506,0.566-0.686c0.543-0.4,1.27-0.477,1.924-0.422
		c1.445,0.121,2.932,0.91,3.646,2.199l0.018-0.732c0.008-0.59,0.008-1.18,0.008-1.768c0-0.59,0-1.18-0.008-1.768
		c-0.002-0.182,0.068-0.58-0.018-0.732c-0.889-1.602-3.318-2.74-5.1-2.031c-0.91,0.363-1.205,1.146-1.248,2.066
		c-0.086,1.844-0.225,3.883,0.098,5.715C49.171,145.965,49.742,144.197,49.455,142.574z"/>
	<path fill="#A9C03A" d="M212.806,107.486c4.555,2.1,7.738,7.787,9.334,12.332c-0.518-1.471,0.523-3.504,0-5
		c-1.594-4.543-4.777-10.23-9.334-12.332C213.41,102.764,212.142,107.18,212.806,107.486z"/>
	<path fill="#1E74A3" d="M208.101,45.738c-1.789-0.025-3.725,0.375-4.078,2.393c-0.279,1.586-0.15,3.602-0.018,5.199
		c0.361,4.346,5.688,4.977,7.096,8.742c-0.543-1.451,0.551-3.529,0-5c-1.387-3.709-6.566-4.334-7.086-8.527
		c0.004,1.553,0.008,3.105,0.012,4.658c0.041-2.09,2.475-2.486,4.074-2.465V45.738z"/>
	<path fill="#AF0D1B" d="M162.08,47.742c1.48,0.504,2.891,1.297,4.191,2.156c1.164,0.771,2.686,1.775,3.143,3.178
		c-0.213-0.652,0.025-1.809,0.025-2.5c0-0.74,0.207-1.789-0.025-2.5c-0.459-1.406-1.977-2.404-3.143-3.178
		c-1.301-0.857-2.711-1.652-4.191-2.156c0.09,0.029-0.025,2.289-0.025,2.5C162.054,45.471,161.906,47.682,162.08,47.742z"/>
	<path fill="#FCC236" d="M153.853,5c3.584,3.262,8.982,3.113,12.332,6.666c-0.236-0.252,0.025-2.117,0.025-2.5
		c0-0.445,0.293-2.162-0.025-2.5c-3.35-3.553-8.748-3.404-12.332-6.666c0.221,0.199-0.025,2.156-0.025,2.5
		C153.828,2.9,153.546,4.721,153.853,5z"/>
	<path fill="#BF2561" d="M122.535,11.613c2.064,0.02,4.258,0.355,6-1c0.246-0.193,0.025-2.166,0.025-2.5
		c0-0.332-0.27-2.311-0.025-2.5c-1.742,1.355-3.936,1.02-6,1V11.613z"/>
	<path fill="#28ADC7" d="M128.287,44.102c-0.15-0.945-0.168-0.369-0.055,1.727c-0.135,2.031-0.131,2.668,0.016,1.906
		c0.076-0.131,0.082-0.328,0.152-0.475c0.129-0.27,0.322-0.506,0.564-0.684c0.543-0.402,1.27-0.479,1.924-0.422
		c1.445,0.121,2.932,0.908,3.648,2.197l0.018-0.732c0.006-0.588,0.008-1.178,0.008-1.768s-0.002-1.18-0.008-1.768
		c-0.002-0.18,0.066-0.58-0.018-0.732c-0.891-1.602-3.32-2.738-5.102-2.029c-0.908,0.363-1.205,1.146-1.246,2.064
		c-0.086,1.844-0.227,3.883,0.098,5.715C128.001,47.492,128.572,45.723,128.287,44.102z"/>
	<path fill="#A9C03A" d="M197.808,32.084c0.342-0.926,0.836-2.189,1.869-2.539c1.109-0.373,2.16,0.58,2.881,1.289l0.018-0.732
		c0.006-0.59,0.008-1.178,0.008-1.768s-0.002-1.178-0.008-1.768c-0.002-0.131,0.064-0.652-0.018-0.732
		c-0.721-0.709-1.773-1.662-2.881-1.289c-1.035,0.35-1.527,1.613-1.869,2.539c-0.061,0.166-0.016,0.602-0.018,0.732
		c-0.006,0.59-0.008,1.178-0.008,1.768s0.002,1.178,0.008,1.768C197.792,31.545,197.873,31.912,197.808,32.084z"/>
	<path fill="#A9C03A" d="M43.695,41.129c5.787-2.342,13.66-0.383,19.145,2.045c-1.775-0.787-2.732-3.463-4.535-4.262
		c-5.482-2.428-13.355-4.387-19.146-2.045C39.925,36.557,42.849,41.471,43.695,41.129z"/>
	<path fill="#AF0D1B" d="M24.771,104.592c1.719-0.914,3.641-1.518,5.529-1.963c1.691-0.4,3.896-0.926,5.559-0.145
		c-0.771-0.363-1.617-1.564-2.246-2.154c-0.67-0.629-1.445-1.711-2.289-2.107c-1.666-0.783-3.865-0.258-5.561,0.145
		c-1.887,0.445-3.811,1.051-5.529,1.963c0.104-0.055,2.057,1.975,2.246,2.152C22.689,102.678,24.568,104.699,24.771,104.592z"/>
	<path fill="#28ADC7" d="M59.171,80.012c2.191-3.93,6.252-9.205,11.154-9.449c-0.393,0.02-1.924-1.85-2.248-2.154
		c-0.377-0.355-1.752-2.135-2.289-2.107c-4.9,0.246-8.963,5.52-11.154,9.449C54.369,76.229,59.394,79.611,59.171,80.012z"/>
	<g>
		<path fill="#BF2561" d="M12.435,58.406C9.9,58.182,7.097,58.738,4.56,58.322c0.053,0.943,0.232,1.586,0.836,2.555
			c-1.336-1.258-2.672-2.518-4.008-3.775c1.127,1.607,2.766,2.979,4.305,4.045c4.023,2.789,9.021,0.912,13.469,2.035
			c-0.287-0.828-0.652-1.631-1.174-2.387C16.357,59.451,14.837,58.617,12.435,58.406z"/>
		<path fill="#BF2561" d="M18.757,61.455c-0.215-0.189-0.424-0.369-0.631-0.543c-0.055-0.053-0.109-0.105-0.162-0.158
			c0.008,0.014,0.014,0.029,0.023,0.041c0.521,0.756,0.887,1.559,1.174,2.387c1.121,3.211,0.789,6.863,1.137,10.246
			c0.164,1.59,4.381,2.734,4.537,4.262c-0.377-3.678,0.309-8.367-1.65-11.691C22.144,64.232,20.263,62.793,18.757,61.455z"/>
		<path fill="#BF2561" d="M0,53.221c0.006,1.238,0.434,2.387,1.092,3.443c0.016,0.025,0.033,0.049,0.049,0.076H1.138
			c0,0,1.189,2.1,4.453,4.336c-0.604-0.969-0.979-1.811-1.031-2.754c-0.016-0.256-0.021-0.529-0.023-0.84
			C4.529,56.021,0.007,54.613,0,53.221z"/>
	</g>
	<g>
		<path fill="#AF0D1B" d="M92.324,26.574c-0.23-0.197-0.461-0.387-0.693-0.574c0.455,0.566,0.762,1.127,0.938,1.68
			c0.771,2.404-0.836,4.674-2.813,6.785l4.537,4.262c3.141-3.357,3.91-5.977,1.213-9.107c-0.094-0.107-0.195-0.219-0.297-0.328
			c-0.137-0.146-0.27-0.291-0.42-0.441C93.964,28.037,93.15,27.281,92.324,26.574z"/>
		<path fill="#AF0D1B" d="M51.458,6.598c-2.639,3.404,2.67,9.018,6.773,12.693c0.025-0.049,0.045-0.096,0.088-0.143
			c0.061-0.064,0.438,0.447,0.504,0.416c-0.357-0.473-0.998-1.498-1.279-1.879c-1.436-1.943-3.305-4.563-1.551-6.826
			C56.142,10.668,51.367,6.717,51.458,6.598z"/>
		<path fill="#AF0D1B" d="M84.804,22.105c-7.416-2.664-14.539,0.414-21.82-1.164c-0.082-0.023-0.193-0.051-0.354-0.082
			c-0.283-0.084-0.861-0.285-1.475-0.484c-1.807-0.75-3.969-2.041-3.969-2.041l0.418,0.375c-0.01,0-0.002,0.016,0.051,0.066
			c0.359,0.334,1.688,1.498,1.688,1.498l0.006-0.002c0.063,0.053,0.123,0.105,0.186,0.158l0.035,0.031l0.002,0.002
			c0.715,0.611,1.352,1.141,1.832,1.545c4.701,3.932,9.189,3.414,15,2.984c5.453-0.402,11.289,0.09,16.164,2.688
			c-0.176-0.553-0.482-1.113-0.938-1.68C89.623,24.377,87.482,23.066,84.804,22.105z"/>
	</g>
	<path fill="#FCC236" d="M14.558,145.596c-0.373,2.748,0.852,5.369-0.633,7.945c-0.072,0.125,2.059,1.979,2.246,2.154
		c0.178,0.168,2.338,2.023,2.289,2.107c1.484-2.574,0.262-5.199,0.633-7.945c0.049-0.355-1.959-1.883-2.246-2.152
		c-0.535-0.504-1.07-1.006-1.611-1.5C15.15,146.123,14.548,145.668,14.558,145.596z"/>
	<path fill="#28ADC7" d="M6.363,131.271c-0.549-1.1-1.275-2.625-0.709-3.859c0.605-1.324,2.367-1.467,3.623-1.516l-0.648-0.641
		c-0.529-0.508-1.063-1.012-1.598-1.514s-1.07-1.004-1.609-1.5c-0.119-0.109-0.537-0.613-0.68-0.607
		c-1.256,0.049-3.02,0.191-3.625,1.516c-0.564,1.236,0.162,2.76,0.709,3.859c0.1,0.197,0.533,0.527,0.65,0.641
		c0.529,0.508,1.063,1.01,1.598,1.514c0.535,0.502,1.07,1.002,1.609,1.5C5.861,130.826,6.261,131.066,6.363,131.271z"/>
	<path fill="#AF0D1B" d="M240.511,112.068c2.807,1.053,5.631,2.598,8.68,1.613c0.43-0.139,1.107-2.939,1.275-3.396
		c0.164-0.451,0.777-3.283,1.205-3.422c-3.049,0.984-5.873-0.561-8.678-1.613L240.511,112.068z"/>
	<path fill="#28ADC7" d="M254.056,143.361c2.574,0.977,4.777,3.836,4.523,6.666c0.023-0.252,0.32-0.813,0.387-0.99
		c0.303-0.801,0.596-1.604,0.889-2.408c0.381-1.049,1.105-2.299,1.207-3.42c0.254-2.83-1.951-5.689-4.525-6.666L254.056,143.361z"/>
	<path fill="#A9C03A" d="M279.052,121.363c-5.719,2.5-13.645,0.762-19.193-1.512c1.797,0.736,2.828,3.387,4.652,4.133
		c5.547,2.273,13.473,4.014,19.195,1.512C282.949,125.828,279.888,120.996,279.052,121.363z"/>
	<path fill="#AF0D1B" d="M117.304,92.15c-1.695,0.961-3.598,1.617-5.473,2.117c-1.682,0.447-3.871,1.031-5.555,0.299
		c0.781,0.34,1.662,1.518,2.307,2.09c0.688,0.611,1.492,1.67,2.346,2.043c1.688,0.736,3.871,0.148,5.555-0.299
		c1.875-0.498,3.779-1.156,5.473-2.115c-0.102,0.057-2.109-1.916-2.307-2.09C119.437,94.006,117.503,92.037,117.304,92.15z"/>
	<path fill="#28ADC7" d="M142.388,55.309c-3.578,7.02-10.379,16.455-19.102,16.965c0.697-0.041,3.586,3.258,4.188,3.793
		c0.705,0.627,3.303,3.77,4.26,3.715c8.723-0.514,15.523-9.949,19.104-16.967C151.273,61.959,142.025,56.023,142.388,55.309z"/>
	<path fill="#1E74A3" d="M175.166,88.783c1.004,0.643,0.482,0.15-1.563-1.479c-1.779-1.805-2.375-2.326-1.787-1.561
		c0.059,0.18,0.238,0.348,0.316,0.533c0.145,0.346,0.203,0.719,0.17,1.092c-0.076,0.838-0.605,1.578-1.197,2.141
		c-1.309,1.244-3.271,1.977-5.063,1.576l0.668,0.621c0.543,0.494,1.09,0.982,1.639,1.469c0.549,0.488,1.098,0.975,1.65,1.455
		c0.17,0.148,0.484,0.541,0.697,0.59c2.225,0.496,5.295-0.824,6.105-3.068c0.414-1.146-0.07-2.07-0.891-2.869
		c-1.646-1.604-3.428-3.42-5.398-4.633C172.246,85.717,173.419,87.709,175.166,88.783z"/>
	<g>
		<path fill="#1E74A3" d="M77.587,125.64c1.5-1.646,2.729-3.775,1.145-5.772c-0.512-0.644-1.158-1.276-1.838-1.89
			c-0.053,0.039-0.105,0.084-0.162,0.107c0.539,0.477,1.08,0.953,1.619,1.432c-1.168-0.805-2.375-1.07-3.605-1.078
			c-0.291,1.145-1.086,2.271-1.813,3.068L77.587,125.64z"/>
		<path fill="#1E74A3" d="M64.56,119.062c3.355,1.295,6.855-0.641,10.186-0.623c1.23,0.008,2.438,0.273,3.605,1.078
			c-0.027-0.024-0.053-0.049-0.08-0.072c0.209,0.168,0.344,0.279,0.344,0.279c-2.207-2.674-4.811-4.248-4.811-4.248
			c0.012,0.008,0.035,0.027,0.059,0.047c-4.334-3.194-9.305,1.201-13.957-0.594C61.703,115.622,62.732,118.356,64.56,119.062z"/>
	</g>
	<path fill="#FCC236" d="M241.675,45.686c6.014-0.471,10.48-5.496,16.561-5.508c-0.432,0-1.898-1.828-2.246-2.154
		c-0.404-0.379-1.713-2.109-2.289-2.107c-6.08,0.012-10.547,5.037-16.561,5.508c0.369-0.029,1.936,1.861,2.246,2.152
		C239.75,43.918,241.162,45.725,241.675,45.686z"/>
	<path fill="#AF0D1B" d="M229.042,67.215c1.779-1.855,3.951-3.561,4.207-6.297c0.035-0.387-1.943-1.867-2.246-2.154
		c-0.301-0.281-2.326-1.723-2.291-2.107c-0.254,2.736-2.428,4.441-4.207,6.297L229.042,67.215z"/>
	<path fill="#28ADC7" d="M250.707,73.414c1.641-1.699,4.641-2.471,6.783-1.313c-0.189-0.104-0.531-0.527-0.648-0.641
		c-0.529-0.508-1.063-1.012-1.598-1.514c-0.697-0.656-1.438-1.648-2.289-2.107c-2.145-1.158-5.143-0.387-6.785,1.313L250.707,73.414
		z"/>
	<path fill="#BF2561" d="M225.101,21.738c1.643-1.699,4.641-2.469,6.785-1.313c-0.189-0.102-0.531-0.527-0.648-0.639
		c-0.529-0.508-1.064-1.012-1.598-1.514c-0.699-0.656-1.439-1.648-2.291-2.109c-2.143-1.156-5.143-0.387-6.783,1.313L225.101,21.738
		z"/>
	<path fill="#1E74A3" d="M265.574,100.324c-0.986-0.67-0.479-0.164,1.52,1.521c1.729,1.854,2.309,2.391,1.744,1.609
		c-0.055-0.18-0.23-0.354-0.303-0.541c-0.135-0.35-0.184-0.725-0.139-1.096c0.1-0.836,0.648-1.561,1.256-2.107
		c1.344-1.207,3.324-1.885,5.104-1.436l-0.648-0.639c-0.529-0.51-1.063-1.012-1.598-1.514s-1.07-1.004-1.611-1.5
		c-0.164-0.152-0.469-0.555-0.678-0.609c-2.211-0.557-5.316,0.678-6.189,2.898c-0.445,1.135,0.014,2.07,0.811,2.891
		c1.6,1.65,3.332,3.516,5.268,4.783C268.408,103.473,267.289,101.447,265.574,100.324z"/>
	<g>
		<path fill="#BF2561" d="M290.251,65.967c-2.535-0.225-5.338,0.332-7.875-0.084c0.053,0.945,0.232,1.588,0.836,2.557
			c-1.336-1.26-2.672-2.518-4.008-3.775c1.127,1.607,2.768,2.979,4.307,4.045c4.021,2.789,9.02,0.912,13.469,2.035
			c-0.289-0.828-0.654-1.631-1.176-2.387C294.175,67.014,292.654,66.18,290.251,65.967z"/>
		<path fill="#BF2561" d="M296.574,69.018c-0.213-0.191-0.422-0.369-0.631-0.545c-0.055-0.051-0.107-0.104-0.162-0.156
			c0.01,0.014,0.014,0.027,0.023,0.041c0.521,0.756,0.887,1.559,1.176,2.387c1.119,3.211,0.789,6.861,1.137,10.246
			c0.162,1.588,4.379,2.734,4.535,4.262c-0.377-3.678,0.311-8.369-1.65-11.693C299.96,71.793,298.08,70.355,296.574,69.018z"/>
		<path fill="#BF2561" d="M277.818,60.781c0.004,1.238,0.432,2.389,1.09,3.443c0.016,0.025,0.033,0.051,0.049,0.076l0,0
			c0,0,1.189,2.102,4.453,4.338c-0.604-0.969-0.98-1.811-1.033-2.756c-0.016-0.256-0.021-0.527-0.023-0.84
			C282.347,63.584,277.824,62.174,277.818,60.781z"/>
	</g>
	<path fill="#FCC236" d="M175.388,44.189c-1.703,4.998,0.791,10.328-1.303,15.223c0.148-0.348,2.127-0.896,2.51-1.063
		c0.445-0.193,2.289-0.646,2.486-1.111c2.096-4.893-0.4-10.223,1.303-15.221c-0.104,0.307-2.166,0.912-2.508,1.061
		C177.476,43.252,175.535,43.762,175.388,44.189z"/>
	<path fill="#FCC236" d="M140.759,40.432c0.799,1.906,0.381,4.586-1.291,5.908c0.146-0.117,0.607-0.244,0.738-0.301
		c0.592-0.248,1.182-0.504,1.77-0.76c0.77-0.334,1.824-0.586,2.488-1.111c1.672-1.324,2.09-4.002,1.291-5.91L140.759,40.432z"/>
	<path fill="#BF2561" d="M203.878,85.313c0.799,1.908,0.381,4.586-1.293,5.91c0.148-0.117,0.609-0.246,0.74-0.301
		c0.592-0.25,1.18-0.506,1.77-0.762c0.77-0.334,1.824-0.586,2.486-1.111c1.674-1.322,2.092-4,1.293-5.908L203.878,85.313z"/>
	<g>
		<path fill="#BF2561" d="M101.267,72.727c1.059-1.961,1.582-4.406,2.793-6.303c-0.777-0.285-1.355-0.363-2.344-0.213
			c1.475-0.639,2.947-1.277,4.422-1.916c-1.682,0.35-3.352,1.195-4.742,2.063c-3.635,2.27-3.855,6.938-6.297,10.125
			c0.766,0.055,1.537,0.039,2.326-0.119C99.07,75.518,100.265,74.584,101.267,72.727z"/>
		<path fill="#BF2561" d="M96.626,76.754c0.229-0.105,0.445-0.211,0.656-0.318c0.061-0.025,0.121-0.051,0.182-0.076
			c-0.014,0.004-0.025,0.002-0.039,0.004c-0.789,0.158-1.561,0.174-2.326,0.119c-2.969-0.211-5.791-1.74-8.633-2.631
			c-1.334-0.42-3.713,2.574-4.996,2.172c3.088,0.969,6.623,3.146,9.973,2.719C93.222,78.518,95.031,77.502,96.626,76.754z"/>
		<path fill="#BF2561" d="M109.74,64.523c-0.998-0.426-2.07-0.479-3.146-0.314c-0.025,0.004-0.051,0.008-0.076,0.014v-0.002
			c0,0-2.102,0.229-5.029,2.08c0.988-0.15,1.795-0.162,2.572,0.123c0.211,0.076,0.432,0.164,0.684,0.271
			C105.919,67.195,108.619,64.047,109.74,64.523z"/>
	</g>
	<g>
		<path fill="#1E74A3" d="M156.054,89.309c-0.754-1.799-1.994-3.559-4.164-3.035c-0.697,0.168-1.439,0.449-2.176,0.764
			c0.012,0.057,0.029,0.115,0.025,0.168c0.578-0.254,1.156-0.506,1.732-0.76c-1.068,0.631-1.725,1.492-2.182,2.467
			c0.801,0.652,1.402,1.699,1.768,2.57L156.054,89.309z"/>
		<path fill="#1E74A3" d="M146.033,97.232c2.266-2.189,2.016-5.682,3.258-8.32c0.457-0.975,1.113-1.836,2.182-2.467
			c-0.029,0.014-0.057,0.025-0.086,0.039c0.209-0.105,0.348-0.172,0.348-0.172c-2.936,0.77-5.145,2.258-5.145,2.258
			c0.012-0.008,0.035-0.02,0.059-0.031c-4.133,2.266-2.473,7.832-5.611,10.865C142.25,98.232,144.8,98.424,146.033,97.232z"/>
	</g>
	<g>
		<g>
			<path fill="#9A70DB" d="M281.085,233.471c0,2.535-2.074,4.992-2.223,7.489c-0.15,2.528,1.615,5.216,1.316,7.7
				c-0.303,2.514-2.656,4.705-3.105,7.17c-0.453,2.488,0.976,5.368,0.377,7.803c-0.603,2.455-3.205,4.346-3.949,6.74
				c-0.752,2.412,0.316,5.444-0.574,7.791c-0.896,2.36-3.707,3.921-4.739,6.21c-1.037,2.3-0.345,5.44-1.515,7.663
				c-1.174,2.232-4.154,3.441-5.455,5.592c-1.307,2.156-0.998,5.355-2.43,7.424c-1.432,2.072-4.537,2.914-6.09,4.893
				c-1.555,1.982-1.633,5.196-3.303,7.079c-1.67,1.886-4.852,2.348-6.632,4.128c-1.78,1.779-2.243,4.961-4.127,6.633
				c-1.883,1.669-5.097,1.747-7.079,3.302c-1.979,1.553-2.82,4.657-4.893,6.09c-2.068,1.431-5.27,1.122-7.426,2.428
				c-2.149,1.303-3.358,4.282-5.59,5.456c-2.225,1.169-5.363,0.477-7.664,1.514c-2.289,1.033-3.85,3.844-6.211,4.74
				c-2.346,0.891-5.379-0.178-7.789,0.572c-2.395,0.746-4.285,3.348-6.74,3.951c-2.434,0.598-5.314-0.83-7.803-0.377
				c-2.465,0.449-4.656,2.802-7.168,3.104c-2.486,0.299-5.173-1.468-7.701-1.317c-2.498,0.149-4.955,2.223-7.49,2.223
				s-4.992-2.073-7.49-2.223c-2.527-0.15-5.215,1.615-7.699,1.316c-2.514-0.302-4.705-2.656-7.17-3.105
				c-2.488-0.453-5.369,0.977-7.803,0.377c-2.455-0.602-4.346-3.204-6.74-3.949c-2.412-0.751-5.444,0.317-7.791-0.573
				c-2.359-0.896-3.92-3.708-6.209-4.739c-2.301-1.037-5.441-0.346-7.664-1.516c-2.232-1.174-3.441-4.153-5.591-5.455
				c-2.156-1.307-5.356-0.998-7.425-2.429c-2.072-1.433-2.914-4.537-4.893-6.09c-1.982-1.555-5.195-1.633-7.08-3.303
				c-1.883-1.67-2.346-4.852-4.127-6.632c-1.779-1.78-4.961-2.242-6.633-4.128c-1.668-1.883-1.746-5.097-3.301-7.079
				c-1.553-1.979-4.656-2.82-6.09-4.893c-1.432-2.068-1.123-5.268-2.428-7.424c-1.303-2.15-4.283-3.359-5.457-5.592
				c-1.168-2.225-0.477-5.363-1.514-7.664c-1.031-2.289-3.844-3.85-4.738-6.21c-0.891-2.347,0.178-5.378-0.572-7.789
				c-0.746-2.396-3.348-4.286-3.951-6.739c-0.598-2.436,0.83-5.314,0.377-7.803c-0.448-2.465-2.801-4.656-3.104-7.169
				c-0.299-2.485,1.467-5.172,1.316-7.701c-0.148-2.497-2.223-4.954-2.223-7.489s2.072-4.992,2.223-7.489
				c0.15-2.528-1.615-5.215-1.316-7.7c0.301-2.514,2.654-4.705,3.104-7.17c0.453-2.488-0.975-5.367-0.377-7.803
				c0.604-2.455,3.205-4.346,3.949-6.741c0.752-2.411-0.316-5.443,0.573-7.79c0.896-2.36,3.708-3.921,4.739-6.21
				c1.037-2.301,0.346-5.44,1.516-7.665c1.174-2.232,4.152-3.441,5.455-5.592c1.307-2.156,0.998-5.355,2.43-7.424
				c1.434-2.072,4.537-2.914,6.09-4.893c1.555-1.982,1.633-5.196,3.303-7.079c1.67-1.885,4.852-2.348,6.632-4.128
				c1.78-1.779,2.243-4.961,4.127-6.632c1.884-1.67,5.098-1.747,7.079-3.303c1.979-1.552,2.82-4.656,4.895-6.089
				c2.068-1.431,5.268-1.122,7.424-2.428c2.15-1.303,3.358-4.282,5.591-5.456c2.224-1.169,5.362-0.478,7.663-1.515
				c2.289-1.031,3.85-3.844,6.211-4.738c2.346-0.891,5.377,0.178,7.789-0.572c2.395-0.746,4.285-3.348,6.74-3.951
				c2.434-0.598,5.314,0.83,7.803,0.377c2.463-0.447,4.656-2.802,7.168-3.104c2.486-0.299,5.172,1.467,7.701,1.316
				c2.496-0.149,4.954-2.223,7.488-2.223c2.535,0,4.992,2.074,7.49,2.223c2.527,0.15,5.215-1.615,7.699-1.316
				c2.514,0.302,4.705,2.656,7.17,3.104c2.488,0.453,5.369-0.975,7.803-0.377c2.455,0.604,4.346,3.205,6.74,3.951
				c2.412,0.751,5.445-0.317,7.791,0.573c2.361,0.896,3.922,3.708,6.211,4.739c2.301,1.037,5.439,0.345,7.664,1.515
				c2.232,1.174,3.439,4.153,5.59,5.456c2.156,1.307,5.355,0.998,7.424,2.429c2.074,1.433,2.915,4.536,4.895,6.089
				c1.982,1.555,5.195,1.633,7.078,3.303c1.885,1.67,2.348,4.852,4.129,6.632c1.779,1.78,4.961,2.245,6.633,4.128
				c1.668,1.883,1.746,5.098,3.301,7.079c1.553,1.979,4.656,2.821,6.09,4.894c1.432,2.068,1.123,5.268,2.43,7.424
				c1.303,2.15,4.281,3.359,5.455,5.592c1.17,2.223,0.478,5.362,1.514,7.663c1.032,2.289,3.844,3.85,4.74,6.21
				c0.89,2.347-0.178,5.379,0.572,7.79c0.746,2.396,3.347,4.286,3.949,6.74c0.599,2.435-0.83,5.315-0.377,7.804
				c0.449,2.465,2.803,4.655,3.104,7.168c0.299,2.485-1.465,5.172-1.314,7.7C279.011,228.479,281.085,230.936,281.085,233.471z"/>
			<g>
				<path fill="#FFFFFF" d="M88.117,155.209c3.691-2.945,9.295-4.123,13.78,0.091c-1.554,1.238-2.928,2.336-4.481,3.574
					c-2.078-1.3-4.079-1.038-5.989,0.485c-2.673,2.134-2.825,5.547-0.47,8.501c2.093,2.623,5.653,3.534,8.373,1.405
					c1.935-1.544,2.717-3.75,1.676-6.046c1.529-1.219,2.93-2.336,4.482-3.575c3.361,5.57,0.947,10.745-2.848,13.772
					c-4.512,3.642-11.534,4.242-16.394-1.799C81.437,165.537,83.583,158.824,88.117,155.209z"/>
				<path fill="#FFFFFF" d="M114.345,164.894l-8.828-21.023c1.802-0.758,3.604-1.515,5.466-2.296l3.343,7.959l0.39-0.164
					c5.376-2.258,3.417-6.169,1.764-10.104c1.833-0.77,3.664-1.539,5.526-2.321c1.804,4.296,3.589,8.21,0.536,12.636l9.592,6.854
					l0.353,0.842l-5.977,2.51l-8.042-6.197c-0.671,0.423-1.332,0.7-2.022,0.991l3.366,8.019
					C117.95,163.38,116.148,164.137,114.345,164.894z"/>
				<path fill="#FFFFFF" d="M137.126,156.553l-2.069,0.253l-2.778-22.658c1.973-0.243,3.943-0.484,5.915-0.726l1.359,11.087
					l10.073-12.587l2.101-0.258l2.785,22.726c-1.972,0.241-3.976,0.487-5.98,0.732l-1.362-11.12L137.126,156.553z"/>
				<path fill="#FFFFFF" d="M161.147,157.447l-4.767-0.723l1.145-7.537l2.285,0.347l10.44-16.67l2.48,0.377l5.277,19.058
					l2.352,0.356l-1.145,7.536l-4.733-0.719l0.376-2.48l-13.335-2.025L161.147,157.447z M165.651,150.355l6.378,0.969l-2.017-8.644
					L165.651,150.355z"/>
				<path fill="#FFFFFF" d="M181.64,158.65l9.184-20.867c1.789,0.787,3.577,1.574,5.427,2.388l-3.478,7.899l0.387,0.171
					c5.336,2.349,6.826-1.765,8.545-5.669c1.819,0.801,3.638,1.601,5.484,2.413c-1.875,4.264-3.487,8.251-8.8,9.081l1.623,11.674
					l-0.367,0.834l-5.933-2.609l-1.034-10.1c-0.768-0.195-1.425-0.483-2.109-0.786l-3.503,7.959
					C185.217,160.226,183.428,159.438,181.64,158.65z"/>
				<path fill="#FFFFFF" d="M214.55,174.878l-6.949-5.703l-2.85,1.368l-4.405-3.616l0.537-0.655l22.045-10.684l1.938,1.591
					l-6.161,23.724l-0.537,0.655l-4.404-3.616L214.55,174.878z M218.015,163.523l-5.791,2.998l4.028,3.307L218.015,163.523z"/>
			</g>
			<g>
				<path fill="#FFFFFF" d="M77,298.72c-1.062-1.711-2.122-3.422-3.184-5.133l7.881-4.888l-3.757-6.058l-7.881,4.888
					c-1.062-1.711-2.14-3.449-3.184-5.132l19.632-12.177c1.044,1.683,2.122,3.422,3.184,5.132l-7.124,4.419l3.758,6.058l7.123-4.418
					c1.062,1.711,2.123,3.421,3.184,5.132L77,298.72z"/>
				<path fill="#FFFFFF" d="M96.06,313.548l-6.848-6.006l-2.932,1.291l-4.343-3.808l0.566-0.645l22.677-10.092l1.91,1.675
					l-7.021,23.822l-0.565,0.645l-4.342-3.808L96.06,313.548z M99.944,302.162l-5.964,2.846l3.971,3.481L99.944,302.162z"/>
				<path fill="#FFFFFF" d="M116.681,329.553l7.167-21.961c1.883,0.614,3.765,1.229,5.71,1.863l-2.713,8.313l0.407,0.134
					c5.616,1.832,6.705-2.464,8.047-6.573c1.914,0.624,3.827,1.249,5.772,1.884c-1.464,4.486-2.69,8.668-7.962,10.037l2.807,11.608
					l-0.286,0.878l-6.243-2.037l-2.057-10.079c-0.794-0.12-1.484-0.345-2.206-0.581l-2.733,8.377
					C120.446,330.781,118.564,330.167,116.681,329.553z"/>
				<path fill="#FFFFFF" d="M143.786,336.764c0.241-7.687,0.483-15.374,0.726-23.093c3.332,0.104,6.763,0.213,10.161,0.319
					c11.051,0.381,10.511,17.535-0.541,17.188l-4.255-0.134l-0.187,5.905C147.71,336.887,145.732,336.824,143.786,336.764z
					 M154.473,319.268c-1.385-0.077-2.87-0.091-4.223-0.133c-0.059,1.88-0.148,4.718-0.207,6.598l4.223,0.133
					C157.499,325.967,157.903,319.408,154.473,319.268z"/>
				<path fill="#FFFFFF" d="M181.076,315.472c-3.342,0.779-5.014,1.169-8.323,1.94l0.742,3.182l7.647-1.783
					c0.397,1.703,0.795,3.406,1.191,5.109l-7.648,1.783c0.308,1.317,0.607,2.603,0.922,3.953c3.31-0.772,5.238-1.222,8.612-2.009
					c0.39,1.672,0.794,3.407,1.191,5.11c-5.271,1.229-9.127,2.127-14.332,3.341c-1.754-7.52-3.507-15.039-5.245-22.494
					c5.206-1.214,8.773-2.046,14.043-3.274C180.266,312.001,180.671,313.736,181.076,315.472z"/>
				<path fill="#FFFFFF" d="M197.505,330.782l-4.293,2.33l-3.685-6.787l2.06-1.118l-1.763-19.85l2.234-1.212l15.917,12.164
					l2.118-1.149l3.685,6.788l-4.265,2.314l-1.212-2.233l-12.009,6.52L197.505,330.782z M196.806,322.299l5.743-3.118l-6.913-5.748
					L196.806,322.299z"/>
				<path fill="#FFFFFF" d="M220.342,313.05l-1.475,1.513l-16.569-16.151c1.405-1.441,2.812-2.884,4.217-4.325l8.107,7.903
					l-0.022-16.34l1.498-1.536l16.616,16.197c-1.405,1.442-2.834,2.907-4.263,4.373l-8.131-7.926L220.342,313.05z"/>
				<path fill="#FFFFFF" d="M221.869,284.997c-1.562-0.856-3.095-1.697-4.629-2.539l8.252-15.043
					c1.534,0.841,3.067,1.682,4.629,2.539l-2.713,4.946l15.622,8.569c-0.937,1.707-1.872,3.414-2.809,5.121l-15.622-8.569
					L221.869,284.997z"/>
			</g>
			<g>
				<path fill="#FFFFFF" d="M245.189,259.713l-3.527-4.383l-0.07-0.016l-0.605,5.426l-2.365-0.584l1.928-5.1l-0.07-0.018l-5,2.305
					l-0.711-2.5l5.387-0.881l0.018-0.07l-4.344-3.475l1.744-1.676l3.426,4.359l0.07,0.016l0.613-5.313l2.367,0.584l-1.93,4.951
					l0.07,0.018l5.053-2.219l0.693,2.424l-5.369,0.959l-0.018,0.07l4.344,3.328L245.189,259.713z"/>
				<path fill="#FFFFFF" d="M63.203,252.768l5.191,2.166l0.068-0.018l-2.053-5.053l2.357-0.613l0.736,5.398l0.068-0.02l3.299-4.408
					l1.813,1.859l-4.313,3.342l0.02,0.068l5.475,0.986l-0.736,2.299l-5.086-2.195l-0.07,0.018l1.992,4.961l-2.357,0.613
					l-0.664-5.268l-0.07,0.018l-3.383,4.359l-1.764-1.803l4.262-3.402l-0.02-0.068l-5.402-0.852L63.203,252.768z"/>
				<path fill="#FFFFFF" d="M61.355,228.01l4.438,3.457l0.07,0.004l-0.648-5.424l2.436,0.031l-0.711,5.402l0.072,0.002l4.342-3.387
					l1.264,2.273l-5.045,2.088v0.074l5.021,2.391l-1.313,2.025l-4.332-3.457h-0.07l0.613,5.309l-2.438-0.029l0.748-5.26H65.73
					l-4.412,3.314l-1.229-2.201l5.01-2.16v-0.074l-4.99-2.244L61.355,228.01z"/>
				<path fill="#FFFFFF" d="M66.07,203.666l3.379,4.498l0.068,0.02l0.787-5.402l2.344,0.666l-2.096,5.029l0.07,0.02l5.072-2.137
					l0.627,2.523l-5.414,0.699l-0.02,0.07l4.229,3.617l-1.801,1.613l-3.277-4.467l-0.068-0.018l-0.789,5.285l-2.346-0.664
					l2.09-4.881l-0.066-0.02l-5.125,2.049l-0.609-2.445l5.398-0.779l0.018-0.07l-4.23-3.469L66.07,203.666z"/>
				<path fill="#FFFFFF" d="M77.003,181.314l2.082,5.229l0.061,0.033l2.178-5.004l2.088,1.258l-3.346,4.303l0.064,0.037l5.457-0.729
					l-0.061,2.602l-5.406-0.748l-0.037,0.061l3.125,4.604l-2.158,1.086l-1.99-5.172L79,188.834l-2.152,4.895l-2.088-1.258
					l3.303-4.16L78,188.273l-5.482,0.631l0.051-2.521l5.414,0.666l0.039-0.061l-3.168-4.459L77.003,181.314z"/>
				<path fill="#FFFFFF" d="M240.392,194.307l-5.541-0.967l-0.063,0.033l3.119,4.477l-2.166,1.119l-1.91-5.102l-0.061,0.033
					l-2.244,5.029l-2.182-1.414l3.471-4.213l-0.031-0.063l-5.559,0.25l0.207-2.408l5.447,1.02l0.063-0.033l-3.037-4.396l2.162-1.121
					l1.814,4.992l0.063-0.033l2.338-5l2.117,1.367l-3.404,4.26l0.033,0.064l5.459-0.361L240.392,194.307z"/>
			</g>
			<g>
				<path fill="#FFFFFF" d="M106.081,198.456c0-0.688,0.249-1.281,0.751-1.783c0.5-0.5,1.095-0.751,1.784-0.751h35.298
					c0.688,0,1.282,0.251,1.784,0.751c0.5,0.502,0.751,1.096,0.751,1.783v6.666c0,0.689-0.251,1.283-0.751,1.783
					c-0.502,0.502-1.097,0.751-1.784,0.751h-26.38l-1.032,12.017c1.689-0.688,3.363-1.094,5.022-1.22
					c1.657-0.125,3.019-0.188,4.083-0.188c3.505,0,6.76,0.47,9.764,1.408c3.004,0.939,5.601,2.332,7.792,4.178
					c2.19,1.847,3.91,4.116,5.163,6.807c1.251,2.691,1.878,5.789,1.878,9.294c0,4.006-0.643,7.433-1.925,10.279
					c-1.283,2.849-3.036,5.195-5.257,7.041c-2.223,1.847-4.835,3.191-7.839,4.037c-3.004,0.845-6.196,1.267-9.576,1.267
					c-4.318,0-8.026-0.501-11.124-1.502c-3.099-1-5.665-2.361-7.698-4.084c-2.034-1.72-3.567-3.691-4.6-5.914
					c-1.033-2.221-1.612-4.553-1.737-6.994c-0.063-0.751,0.172-1.36,0.704-1.83c0.531-0.47,1.142-0.704,1.831-0.704h7.604
					c0.625,0,1.188,0.204,1.69,0.61c0.5,0.407,0.845,0.955,1.032,1.643c0.376,1.44,0.97,2.614,1.784,3.521
					c0.813,0.908,1.751,1.628,2.816,2.159c1.063,0.532,2.253,0.892,3.567,1.079c1.313,0.188,2.689,0.282,4.13,0.282
					c3.567,0,6.445-0.97,8.637-2.91c2.19-1.939,3.286-4.601,3.286-7.979c0-2.816-1.096-5.164-3.286-7.041
					c-2.191-1.878-5.069-2.848-8.637-2.91c-1.877,0-3.364,0.141-4.459,0.422c-1.096,0.282-1.987,0.61-2.676,0.986
					c-0.689,0.375-1.313,0.704-1.877,0.985s-1.284,0.423-2.159,0.423h-8.637c-0.689,0-1.284-0.25-1.784-0.751
					c-0.502-0.501-0.751-1.095-0.751-1.784L106.081,198.456z"/>
				<path fill="#FFFFFF" d="M206.154,220.424c0.062,1.189,0.094,2.504,0.094,3.943c0,1.44,0,2.91,0,4.412s0,2.974,0,4.412
					c0,1.44-0.032,2.755-0.094,3.943c-0.188,3.63-0.736,6.993-1.643,10.092c-0.908,3.098-2.347,5.789-4.318,8.073
					c-1.972,2.285-4.538,4.069-7.698,5.352c-3.161,1.281-7.026,1.924-11.594,1.924c-4.633,0-8.513-0.643-11.641-1.924
					c-3.131-1.282-5.68-3.066-7.651-5.352c-1.972-2.284-3.412-4.976-4.318-8.073c-0.908-3.099-1.455-6.462-1.644-10.092
					c-0.126-2.378-0.188-5.084-0.188-8.121c0-3.034,0.062-5.741,0.188-8.12c0.188-3.629,0.735-7.024,1.644-10.186
					c0.906-3.16,2.347-5.898,4.318-8.215c1.972-2.314,4.521-4.146,7.651-5.492c3.128-1.345,7.008-2.018,11.641-2.018
					c4.567,0,8.433,0.643,11.594,1.924c3.16,1.284,5.727,3.067,7.698,5.352c1.972,2.285,3.41,4.976,4.318,8.073
					C205.417,213.43,205.966,216.795,206.154,220.424z M168.321,236.665c0.313,4.506,1.393,7.996,3.239,10.468
					c1.845,2.473,4.959,3.708,9.341,3.708c4.38,0,7.494-1.235,9.341-3.708c1.846-2.472,2.925-5.962,3.238-10.468
					c0.125-2.378,0.188-5.006,0.188-7.886c0-2.878-0.063-5.507-0.188-7.886c-0.313-4.506-1.393-7.994-3.238-10.468
					c-1.847-2.472-4.961-3.708-9.341-3.708c-4.382,0-7.496,1.236-9.341,3.708c-1.847,2.474-2.927,5.962-3.239,10.468
					c-0.126,2.379-0.188,5.008-0.188,7.886C168.133,231.659,168.195,234.287,168.321,236.665z"/>
			</g>
			<g>
				<path fill="#FFFFFF" d="M237.53,218.22v3.257c0,1.57-0.58,2.761-1.742,3.568c-1.162,0.809-2.712,1.213-4.648,1.213
					c-1.938,0-3.492-0.404-4.666-1.213c-1.175-0.808-1.762-2.009-1.762-3.603v-3.188c0-1.593,0.6-2.794,1.798-3.603
					c1.198-0.808,2.735-1.213,4.611-1.213s3.414,0.41,4.612,1.23C236.931,215.488,237.53,216.672,237.53,218.22z M247.044,213.475
					h3.05c0.581,0,0.872,0.268,0.872,0.802c0,0.146-0.049,0.278-0.146,0.398l-17.575,23.532c-0.34,0.458-0.775,0.688-1.308,0.688
					h-3.051c-0.581,0-0.871-0.261-0.871-0.783c0-0.145,0.048-0.277,0.146-0.398l17.575-23.55
					C246.076,213.705,246.511,213.475,247.044,213.475z M229.941,218.287v3.054c0,0.303,0.114,0.563,0.345,0.779
					c0.229,0.217,0.514,0.324,0.854,0.324c0.339,0,0.623-0.107,0.854-0.324c0.229-0.217,0.345-0.477,0.345-0.779v-3.054
					c0-0.303-0.115-0.557-0.345-0.763c-0.23-0.206-0.515-0.309-0.854-0.309c-0.34,0-0.624,0.107-0.854,0.324
					C230.055,217.757,229.941,218.006,229.941,218.287z M254.235,230.506v3.414c0,1.646-0.581,2.893-1.743,3.74
					s-2.712,1.271-4.648,1.271c-1.938,0-3.492-0.423-4.666-1.271c-1.175-0.848-1.762-2.106-1.762-3.777v-3.341
					c0-1.67,0.6-2.929,1.798-3.776c1.198-0.847,2.735-1.271,4.611-1.271s3.414,0.43,4.612,1.289S254.235,228.885,254.235,230.506z
					 M246.645,230.47v3.413c0,0.34,0.114,0.63,0.345,0.872c0.229,0.242,0.515,0.363,0.854,0.363s0.623-0.121,0.854-0.363
					c0.229-0.242,0.345-0.532,0.345-0.872v-3.413c0-0.339-0.115-0.623-0.345-0.854c-0.23-0.229-0.515-0.345-0.854-0.345
					s-0.624,0.121-0.854,0.363C246.759,229.877,246.645,230.155,246.645,230.47z"/>
			</g>
		</g>
		<g>
			<path fill="#7C0913" d="M101.193,108.012v2.879c0,3.695,24.129,6.691,53.893,6.691s53.893-2.996,53.893-6.691v-2.879H101.193z"/>
			<ellipse fill="#AF0D1B" cx="155.085" cy="108.012" rx="53.893" ry="6.691"/>
			<path fill="#AF0D1B" d="M114.574,21.021c0,0,10.479,53.184,10.363,84.434c0,2.283,13.498,4.133,30.146,4.133
				c16.652,0,30.148-1.85,30.148-4.133h0.002c-0.117-31.25,10.363-84.434,10.363-84.434H114.574z"/>
			<path fill="#920B16" d="M185.232,105.455h0.002c-0.117-31.25,10.363-84.434,10.363-84.434h-22.01
				c-0.217,19.455-3.328,61.805-24.744,88.479c2.014,0.057,4.1,0.088,6.24,0.088C171.736,109.588,185.232,107.738,185.232,105.455z"
				/>
			<g>
				<path fill="#05293D" d="M155.083,92.254c-14.113,0-26.146-1.219-30.801-2.932c0.426,5.725,0.672,11.203,0.654,16.133
					c0,2.283,13.498,4.133,30.146,4.133c16.652,0,30.148-1.85,30.148-4.133h0.002c-0.018-4.93,0.229-10.408,0.652-16.135
					C181.234,91.035,169.201,92.254,155.083,92.254z"/>
			</g>
			<path fill="#042233" d="M185.244,103.279c0.004-0.461,0.012-0.926,0.02-1.395c0.006-0.145,0.006-0.291,0.01-0.436
				c0.014-0.525,0.025-1.053,0.043-1.586c0.002-0.08,0.004-0.156,0.006-0.234c0.041-1.275,0.096-2.576,0.164-3.896
				c0.004-0.09,0.008-0.18,0.014-0.27c0.029-0.559,0.061-1.127,0.092-1.695c0.008-0.125,0.016-0.252,0.023-0.377
				c0.035-0.59,0.072-1.186,0.111-1.781c0.006-0.068,0.008-0.137,0.014-0.205c0.045-0.674,0.094-1.35,0.145-2.031
				c0-0.018,0-0.035,0.002-0.053c-4.158,1.533-14.234,2.67-26.412,2.891c-2.916,6.174-6.414,12.037-10.631,17.289
				c0.004,0,0.008,0,0.014,0c0.996,0.029,2.008,0.051,3.037,0.064c0.01,0,0.021,0,0.033,0c1.037,0.016,2.092,0.023,3.156,0.023
				c16.652,0,30.148-1.85,30.148-4.133h0.002c-0.004-0.572,0-1.152,0.006-1.736C185.242,103.572,185.242,103.426,185.244,103.279z"
				/>
			<ellipse fill="#7C0913" cx="155.084" cy="21.021" rx="40.511" ry="4.135"/>
			<g>
				<path fill="#FF910B" d="M164.531,112.961h-18.895c-4.738,0-8.594-3.855-8.594-8.596v-7.086c0-4.742,3.855-8.598,8.594-8.598
					h18.895c4.74,0,8.598,3.855,8.598,8.598v7.086C173.128,109.105,169.271,112.961,164.531,112.961z M145.636,93.75
					c-1.943,0-3.525,1.582-3.525,3.529v7.086c0,1.945,1.582,3.529,3.525,3.529h18.895c1.947,0,3.529-1.584,3.529-3.529v-7.086
					c0-1.947-1.582-3.529-3.529-3.529H145.636z"/>
			</g>
			<g>
				<path fill="#FFFFFF" d="M116.363,30.68c0.602,3.381,1.313,7.496,2.063,12.104c9.141,1.283,22.178,2.086,36.658,2.086
					c14.484,0,27.525-0.803,36.66-2.086c0.752-4.609,1.461-8.725,2.064-12.104c-9.467,1.398-23.297,2.281-38.725,2.281
					C139.664,32.961,125.832,32.078,116.363,30.68z"/>
				<path fill="#FFFFFF" d="M155.083,66.119c12.863,0,24.588-0.635,33.451-1.676c0.547-4.129,1.123-8.178,1.705-12.039
					c-9.225,1.117-21.566,1.805-35.156,1.805c-13.58,0-25.93-0.684-35.152-1.803c0.582,3.863,1.158,7.908,1.703,12.039
					C130.501,65.484,142.224,66.119,155.083,66.119z"/>
				<path fill="#FFFFFF" d="M155.083,87.367c11.744,0,22.537-0.529,31.072-1.412c0.334-3.934,0.744-7.957,1.203-11.977
					c-8.844,0.926-20.057,1.48-32.275,1.48c-12.211,0-23.43-0.553-32.271-1.479c0.459,4.02,0.867,8.041,1.203,11.973
					C132.552,86.838,143.343,87.367,155.083,87.367z"/>
			</g>
			<path fill="#D5D5D5" d="M186.156,85.955c0.334-3.934,0.744-7.957,1.203-11.977c-6.156,0.643-13.461,1.107-21.451,1.33
				c-1.221,4.045-2.629,8.068-4.254,12.002C170.841,87.154,179.24,86.672,186.156,85.955z"/>
			<path fill="#D5D5D5" d="M188.535,64.443c0.547-4.129,1.123-8.178,1.705-12.039c-5.504,0.668-12.123,1.18-19.447,1.484
				c-0.639,3.916-1.424,7.936-2.371,11.994C175.998,65.609,182.855,65.111,188.535,64.443z"/>
			<path fill="#D5D5D5" d="M191.744,42.783c0.752-4.609,1.461-8.725,2.064-12.104c-5.563,0.82-12.635,1.463-20.646,1.854
				c-0.229,3.691-0.566,7.705-1.059,11.945C179.662,44.121,186.38,43.535,191.744,42.783z"/>
		</g>
	</g>
	<path fill="#FCC236" d="M14.945,238.268c1.48,0.504,2.891,1.297,4.189,2.156c1.166,0.771,2.686,1.773,3.145,3.176
		c-0.213-0.65,0.023-1.807,0.023-2.5c0-0.738,0.209-1.787-0.023-2.5c-0.459-1.406-1.977-2.402-3.145-3.176
		c-1.299-0.859-2.709-1.652-4.189-2.156c0.09,0.029-0.025,2.289-0.025,2.5C14.919,235.996,14.771,238.207,14.945,238.268z"/>
	<path fill="#28ADC7" d="M59.873,156.191c3.506-0.879,8.828-1.402,11.666,1.332c-0.227-0.219,0.025-2.143,0.025-2.5
		c0-0.416,0.287-2.199-0.025-2.5c-2.838-2.734-8.16-2.211-11.666-1.332C59.445,151.297,60.23,156.102,59.873,156.191z"/>
	<path fill="#7DBE3C" d="M23.98,183.691c5.789-2.34,13.662-0.383,19.146,2.045c-1.775-0.785-2.732-3.463-4.537-4.262
		c-5.48-2.426-13.355-4.387-19.145-2.045C20.21,179.119,23.136,184.033,23.98,183.691z"/>
	<path fill="#AF0D1B" d="M5.056,213.492c1.721-0.912,3.641-1.516,5.529-1.963c1.693-0.4,3.898-0.924,5.561-0.145
		c-0.771-0.361-1.619-1.563-2.248-2.152c-0.67-0.631-1.443-1.713-2.289-2.109c-1.666-0.781-3.865-0.256-5.561,0.145
		c-1.887,0.447-3.809,1.051-5.527,1.963c0.104-0.055,2.055,1.975,2.246,2.154C2.974,211.58,4.853,213.6,5.056,213.492z"/>
	<g>
		
			<linearGradient id="SVGID_1_" gradientUnits="userSpaceOnUse" x1="-152.0771" y1="-1218.373" x2="-159.9972" y2="-1215.2209" gradientTransform="matrix(0.8858 -0.464 0.464 0.8858 765.0671 1186.5636)">
			<stop  offset="0.1279" style="stop-color:#97003B"/>
			<stop  offset="0.8829" style="stop-color:#DA003B"/>
		</linearGradient>
		<path fill="url(#SVGID_1_)" d="M63.208,175.076c-0.152-0.262-0.308-0.518-0.466-0.771c0.243,0.688,0.349,1.314,0.336,1.895
			c-0.061,2.526-2.324,4.141-4.884,5.489l2.889,5.515c4.067-2.143,5.653-4.365,4.132-8.207c-0.053-0.132-0.111-0.27-0.173-0.407
			c-0.08-0.183-0.157-0.364-0.251-0.554C64.278,176.996,63.757,176.016,63.208,175.076z"/>
		<path fill="#AF0D1B" d="M31.151,142.805c-3.607,2.352-0.433,9.395,2.238,14.213c0.04-0.037,0.074-0.076,0.13-0.105
			c0.078-0.041,0.266,0.565,0.341,0.557c-0.184-0.563-0.454-1.741-0.595-2.193c-0.719-2.307-1.625-5.394,0.774-6.957
			C34.242,148.186,31.026,142.887,31.151,142.805z"/>
		
			<linearGradient id="SVGID_2_" gradientUnits="userSpaceOnUse" x1="-170.4976" y1="-1236.8735" x2="-152.3385" y2="-1236.8735" gradientTransform="matrix(0.8858 -0.464 0.464 0.8858 765.0671 1186.5636)">
			<stop  offset="0.2207" style="stop-color:#97003B"/>
			<stop  offset="0.8829" style="stop-color:#DA003B"/>
		</linearGradient>
		<path fill="url(#SVGID_2_)" d="M57.569,168.389c-6.133-4.947-13.87-4.375-20.232-8.254c-0.069-0.049-0.165-0.111-0.307-0.193
			c-0.239-0.174-0.719-0.554-1.234-0.941c-1.46-1.301-3.08-3.229-3.08-3.229l0.272,0.491c-0.01-0.003-0.009,0.014,0.026,0.08
			c0.229,0.434,1.104,1.967,1.104,1.967h0.005c0.042,0.072,0.082,0.143,0.123,0.212l0.023,0.041l0.001,0.002
			c0.475,0.813,0.903,1.521,1.226,2.06c3.15,5.257,7.562,6.24,13.19,7.738c5.284,1.408,10.638,3.785,14.392,7.838
			c0.013-0.58-0.093-1.207-0.336-1.895C61.377,172.115,59.785,170.176,57.569,168.389z"/>
	</g>
	<path fill="#28ADC7" d="M284.625,192.408c5.217,0.543,12.734,2.469,15.248,7.607c-0.201-0.41,1.098-2.91,1.275-3.396
		c0.207-0.568,1.482-2.857,1.207-3.422c-2.516-5.139-10.033-7.066-15.25-7.607C286.47,185.523,285.156,192.463,284.625,192.408z"/>
	<g>
		<path fill="#BF2561" d="M273.734,176.031c-0.926-2.82-2.809-5.568-3.529-8.479c-0.988,0.492-1.594,0.979-2.355,2.07
			c0.734-2.01,1.471-4.02,2.203-6.027c-1.203,1.945-1.918,4.332-2.355,6.471c-1.139,5.592,3.17,10.084,4.01,15.365
			c0.754-0.688,1.447-1.449,2.018-2.354C274.416,180.713,274.609,178.701,273.734,176.031z"/>
		<path fill="#BF2561" d="M273.371,184.205c0.105-0.316,0.201-0.623,0.293-0.926c0.031-0.082,0.063-0.164,0.094-0.246
			c-0.01,0.016-0.023,0.029-0.033,0.045c-0.57,0.904-1.264,1.666-2.018,2.354c-2.926,2.676-6.988,4-10.455,5.928
			c-1.627,0.904-0.918,5.949-2.482,6.818c3.768-2.094,9.111-3.514,11.77-7.141C271.953,189.109,272.628,186.434,273.371,184.205z"/>
		<path fill="#BF2561" d="M273.574,160.324c-1.324,0.576-2.359,1.561-3.188,2.752c-0.02,0.029-0.037,0.059-0.059,0.086v-0.002
			c0,0-1.705,2.24-2.602,6.766c0.762-1.092,1.49-1.881,2.479-2.373c0.266-0.133,0.555-0.266,0.889-0.41
			C272.654,166.465,272.085,160.971,273.574,160.324z"/>
	</g>
</g>
</svg>
