<?xml version="1.0" encoding="utf-8"?>
<!-- Generator: Adobe Illustrator 16.0.0, SVG Export Plug-In . SVG Version: 6.00 Build 0)  -->
<!DOCTYPE svg PUBLIC "-//W3C//DTD SVG 1.1//EN" "http://www.w3.org/Graphics/SVG/1.1/DTD/svg11.dtd">
<svg version="1.1" id="Слой_1" xmlns="http://www.w3.org/2000/svg" xmlns:xlink="http://www.w3.org/1999/xlink" x="0px" y="0px"
	 width="303px" height="361.825px" viewBox="0 0 303 361.825" enable-background="new 0 0 303 361.825" xml:space="preserve">
<g>
	<path fill="#FCC236" d="M81.969,105.135c3.589,3.266,8.993,3.117,12.349,6.674c-0.238-0.25,0.023-2.119,0.023-2.503
		c0-0.445,0.293-2.164-0.023-2.503c-3.355-3.557-8.76-3.408-12.349-6.673c0.222,0.199-0.025,2.158-0.025,2.502
		C81.943,103.033,81.662,104.855,81.969,105.135z"/>
	<path fill="#BF2561" d="M38.669,114.979c2.067,0.021,4.263,0.357,6.007-1.001c0.247-0.191,0.026-2.167,0.026-2.503
		c0-0.331-0.271-2.312-0.026-2.503c-1.744,1.359-3.939,1.022-6.007,1.001V114.979z"/>
	<path fill="#FCC236" d="M49.512,144.681c-0.148-0.946-0.168-0.372-0.055,1.729c-0.135,2.033-0.129,2.671,0.018,1.908
		c0.076-0.131,0.082-0.33,0.15-0.475c0.131-0.272,0.323-0.507,0.567-0.687c0.544-0.401,1.271-0.478,1.926-0.423
		c1.447,0.121,2.936,0.911,3.651,2.202l0.018-0.733c0.008-0.591,0.008-1.181,0.008-1.77c0-0.591,0-1.181-0.008-1.77
		c-0.002-0.182,0.068-0.581-0.018-0.733c-0.891-1.604-3.322-2.743-5.105-2.033c-0.912,0.363-1.207,1.147-1.25,2.068
		c-0.086,1.846-0.225,3.888,0.098,5.722C49.229,148.075,49.799,146.306,49.512,144.681z"/>
	<path fill="#A9C03A" d="M213.051,109.553c4.561,2.102,7.747,7.796,9.345,12.346c-0.518-1.473,0.524-3.508,0-5.006
		c-1.596-4.548-4.782-10.242-9.345-12.346C213.655,104.824,212.387,109.245,213.051,109.553z"/>
	<path fill="#1E74A3" d="M208.341,47.733c-1.791-0.025-3.729,0.375-4.083,2.396c-0.279,1.588-0.15,3.605-0.018,5.205
		c0.361,4.351,5.694,4.982,7.104,8.752c-0.543-1.453,0.552-3.533,0-5.006c-1.388-3.713-6.573-4.339-7.094-8.537
		c0.004,1.555,0.008,3.109,0.012,4.664c0.041-2.093,2.478-2.489,4.079-2.468V47.733z"/>
	<path fill="#AF0D1B" d="M162.267,49.739c1.481,0.505,2.894,1.299,4.196,2.159c1.165,0.772,2.688,1.777,3.146,3.182
		c-0.213-0.653,0.025-1.812,0.025-2.503c0-0.741,0.208-1.791-0.025-2.503c-0.459-1.408-1.979-2.407-3.146-3.182
		c-1.303-0.858-2.715-1.654-4.196-2.159c0.09,0.029-0.025,2.292-0.025,2.503C162.241,47.466,162.092,49.679,162.267,49.739z"/>
	<path fill="#FCC236" d="M154.03,6.948c3.588,3.266,8.993,3.117,12.347,6.674c-0.237-0.252,0.025-2.12,0.025-2.503
		c0-0.446,0.293-2.165-0.025-2.503c-3.354-3.557-8.759-3.408-12.347-6.674c0.221,0.199-0.025,2.159-0.025,2.503
		C154.005,4.847,153.724,6.669,154.03,6.948z"/>
	<path fill="#BF2561" d="M122.676,13.569c2.067,0.02,4.263,0.355,6.007-1.001c0.247-0.194,0.025-2.169,0.025-2.503
		c0-0.333-0.27-2.313-0.025-2.503c-1.744,1.356-3.939,1.021-6.007,1.001V13.569z"/>
	<path fill="#28ADC7" d="M128.435,46.095c-0.15-0.946-0.168-0.369-0.055,1.729c-0.135,2.033-0.131,2.671,0.016,1.908
		c0.076-0.131,0.082-0.328,0.152-0.475c0.129-0.271,0.322-0.507,0.565-0.685c0.543-0.403,1.271-0.479,1.926-0.423
		c1.447,0.122,2.935,0.91,3.652,2.2l0.018-0.733c0.006-0.589,0.008-1.179,0.008-1.77s-0.002-1.181-0.008-1.77
		c-0.002-0.18,0.066-0.581-0.018-0.733c-0.892-1.604-3.324-2.741-5.107-2.031c-0.909,0.363-1.206,1.147-1.247,2.066
		c-0.086,1.846-0.228,3.888,0.098,5.722C128.149,49.489,128.72,47.718,128.435,46.095z"/>
	<path fill="#A9C03A" d="M198.036,34.063c0.342-0.927,0.837-2.192,1.871-2.542c1.11-0.374,2.162,0.581,2.884,1.29l0.018-0.732
		c0.006-0.591,0.008-1.18,0.008-1.771c0-0.59-0.002-1.179-0.008-1.77c-0.002-0.131,0.064-0.652-0.018-0.732
		c-0.722-0.71-1.775-1.664-2.884-1.291c-1.036,0.35-1.529,1.615-1.871,2.542c-0.061,0.166-0.016,0.603-0.018,0.733
		c-0.006,0.591-0.008,1.179-0.008,1.77s0.002,1.179,0.008,1.77C198.021,33.523,198.101,33.892,198.036,34.063z"/>
	<path fill="#A9C03A" d="M43.745,43.119c5.794-2.345,13.676-0.384,19.167,2.047c-1.777-0.788-2.735-3.467-4.54-4.267
		c-5.489-2.431-13.371-4.392-19.169-2.047C39.972,38.541,42.898,43.461,43.745,43.119z"/>
	<path fill="#AF0D1B" d="M24.8,106.654c1.721-0.915,3.645-1.52,5.536-1.965c1.693-0.401,3.9-0.927,5.564-0.145
		c-0.772-0.364-1.619-1.566-2.248-2.157c-0.671-0.63-1.447-1.713-2.292-2.109c-1.668-0.784-3.87-0.259-5.567,0.145
		c-1.889,0.445-3.814,1.052-5.535,1.965c0.104-0.055,2.059,1.978,2.248,2.155C22.716,104.738,24.597,106.762,24.8,106.654z"/>
	<path fill="#28ADC7" d="M59.24,82.046c2.193-3.934,6.259-9.216,11.167-9.46c-0.394,0.02-1.927-1.852-2.251-2.156
		c-0.377-0.356-1.754-2.138-2.292-2.11c-4.905,0.246-8.973,5.526-11.167,9.46C54.432,78.259,59.463,81.646,59.24,82.046z"/>
	<g>
		<path fill="#BF2561" d="M12.45,60.416c-2.538-0.225-5.345,0.332-7.885-0.084c0.053,0.944,0.233,1.588,0.837,2.558
			c-1.337-1.26-2.675-2.521-4.012-3.78c1.128,1.609,2.769,2.982,4.31,4.05c4.027,2.792,9.031,0.913,13.484,2.037
			c-0.288-0.828-0.653-1.632-1.176-2.389C16.376,61.462,14.854,60.627,12.45,60.416z"/>
		<path fill="#BF2561" d="M18.779,63.468c-0.215-0.189-0.424-0.369-0.632-0.543c-0.055-0.053-0.109-0.105-0.162-0.158
			c0.008,0.014,0.014,0.029,0.023,0.041c0.522,0.757,0.888,1.561,1.176,2.389c1.122,3.215,0.789,6.872,1.138,10.259
			c0.164,1.591,4.386,2.737,4.542,4.267c-0.377-3.683,0.31-8.377-1.652-11.705C22.17,66.249,20.287,64.808,18.779,63.468z"/>
		<path fill="#BF2561" d="M0,55.225c0.006,1.239,0.434,2.39,1.093,3.447c0.016,0.025,0.033,0.049,0.049,0.076H1.14
			c0,0,1.191,2.102,4.459,4.341c-0.604-0.97-0.98-1.813-1.033-2.757c-0.016-0.257-0.021-0.53-0.023-0.841
			C4.534,58.028,0.008,56.618,0,55.225z"/>
	</g>
	<g>
		<path fill="#AF0D1B" d="M92.431,28.547c-0.231-0.197-0.462-0.387-0.694-0.574c0.455,0.566,0.763,1.128,0.938,1.682
			c0.772,2.407-0.837,4.679-2.815,6.793l4.542,4.267c3.145-3.361,3.915-5.983,1.214-9.118c-0.094-0.107-0.195-0.219-0.297-0.328
			c-0.137-0.147-0.27-0.292-0.42-0.442C94.073,30.012,93.258,29.255,92.431,28.547z"/>
		<path fill="#AF0D1B" d="M51.519,8.548c-2.643,3.408,2.673,9.028,6.78,12.708c0.026-0.049,0.046-0.096,0.089-0.143
			c0.061-0.064,0.438,0.447,0.504,0.416c-0.357-0.473-0.999-1.5-1.28-1.881c-1.438-1.945-3.309-4.567-1.553-6.834
			C56.207,12.623,51.426,8.667,51.519,8.548z"/>
		<path fill="#AF0D1B" d="M84.902,24.073c-7.425-2.667-14.556,0.415-21.846-1.165c-0.082-0.023-0.193-0.051-0.354-0.082
			c-0.284-0.084-0.862-0.286-1.477-0.485c-1.809-0.751-3.974-2.043-3.974-2.043l0.419,0.375c-0.01,0-0.002,0.016,0.051,0.066
			c0.359,0.335,1.689,1.5,1.689,1.5l0.006-0.002c0.063,0.053,0.123,0.105,0.186,0.158l0.035,0.031l0.002,0.002
			c0.716,0.612,1.354,1.143,1.834,1.547c4.707,3.937,9.2,3.418,15.018,2.988c5.459-0.403,11.302,0.09,16.183,2.69
			c-0.176-0.554-0.483-1.115-0.938-1.682C89.726,26.348,87.583,25.035,84.902,24.073z"/>
	</g>
	<path fill="#FCC236" d="M14.575,147.705c-0.373,2.752,0.853,5.376-0.634,7.955c-0.072,0.125,2.062,1.98,2.249,2.156
		c0.178,0.168,2.341,2.026,2.292,2.11c1.485-2.577,0.262-5.205,0.633-7.955c0.049-0.355-1.961-1.885-2.248-2.154
		c-0.536-0.505-1.071-1.007-1.613-1.502C15.168,148.233,14.565,147.777,14.575,147.705z"/>
	<path fill="#28ADC7" d="M6.37,133.365c-0.549-1.102-1.276-2.629-0.709-3.864c0.605-1.326,2.369-1.469,3.627-1.518l-0.649-0.642
		c-0.529-0.508-1.063-1.013-1.6-1.515c-0.535-0.503-1.071-1.005-1.611-1.502c-0.119-0.109-0.537-0.614-0.68-0.608
		c-1.258,0.049-3.023,0.191-3.63,1.518c-0.564,1.237,0.163,2.763,0.71,3.864c0.1,0.197,0.534,0.527,0.651,0.641
		c0.53,0.509,1.063,1.011,1.6,1.516c0.535,0.503,1.071,1.003,1.611,1.502C5.868,132.919,6.269,133.159,6.37,133.365z"/>
	<path fill="#AF0D1B" d="M240.788,114.14c2.81,1.054,5.638,2.601,8.689,1.615c0.431-0.139,1.108-2.943,1.277-3.4
		c0.164-0.452,0.778-3.287,1.206-3.426c-3.053,0.985-5.88-0.562-8.688-1.615L240.788,114.14z"/>
	<path fill="#28ADC7" d="M254.349,145.469c2.577,0.978,4.782,3.84,4.528,6.674c0.023-0.253,0.321-0.813,0.388-0.992
		c0.303-0.801,0.596-1.604,0.89-2.41c0.381-1.051,1.106-2.302,1.208-3.424c0.254-2.834-1.953-5.696-4.53-6.674L254.349,145.469z"/>
	<path fill="#A9C03A" d="M279.373,123.445c-5.725,2.503-13.66,0.763-19.215-1.514c1.799,0.737,2.831,3.391,4.657,4.138
		c5.554,2.276,13.488,4.019,19.218,1.514C283.274,127.915,280.21,123.077,279.373,123.445z"/>
	<path fill="#AF0D1B" d="M117.439,94.199c-1.697,0.962-3.602,1.618-5.479,2.119c-1.684,0.448-3.876,1.032-5.562,0.299
		c0.782,0.341,1.664,1.52,2.31,2.093c0.688,0.612,1.494,1.672,2.348,2.045c1.689,0.737,3.876,0.148,5.562-0.299
		c1.877-0.499,3.783-1.157,5.479-2.118c-0.102,0.057-2.111-1.918-2.309-2.092C119.574,96.057,117.639,94.085,117.439,94.199z"/>
	<path fill="#28ADC7" d="M142.553,57.314c-3.583,7.027-10.392,16.475-19.124,16.984c0.698-0.041,3.59,3.262,4.192,3.798
		c0.706,0.627,3.307,3.773,4.265,3.719c8.732-0.515,15.541-9.961,19.125-16.986C151.447,63.973,142.188,58.03,142.553,57.314z"/>
	<path fill="#1E74A3" d="M175.367,90.828c1.005,0.643,0.483,0.15-1.564-1.48c-1.781-1.807-2.378-2.329-1.789-1.563
		c0.059,0.18,0.238,0.348,0.316,0.534c0.146,0.346,0.204,0.72,0.171,1.093c-0.076,0.839-0.606,1.58-1.199,2.143
		c-1.31,1.246-3.275,1.979-5.068,1.578l0.669,0.622c0.544,0.495,1.091,0.983,1.641,1.471c0.55,0.488,1.099,0.976,1.652,1.456
		c0.17,0.149,0.484,0.542,0.698,0.591c2.227,0.497,5.301-0.825,6.112-3.071c0.414-1.148-0.07-2.073-0.892-2.873
		c-1.648-1.605-3.432-3.424-5.404-4.638C172.444,87.758,173.619,89.752,175.367,90.828z"/>
	<g>
		<path fill="#1E74A3" d="M77.677,127.727c1.502-1.647,2.731-3.779,1.146-5.779c-0.513-0.645-1.16-1.277-1.841-1.892
			c-0.053,0.039-0.105,0.084-0.162,0.107c0.54,0.478,1.082,0.954,1.621,1.434c-1.169-0.806-2.378-1.072-3.609-1.08
			c-0.291,1.146-1.087,2.274-1.814,3.072L77.677,127.727z"/>
		<path fill="#1E74A3" d="M64.635,121.141c3.359,1.297,6.863-0.642,10.197-0.624c1.231,0.008,2.44,0.274,3.609,1.08
			c-0.027-0.024-0.053-0.049-0.08-0.072c0.209,0.168,0.344,0.279,0.344,0.279c-2.209-2.677-4.815-4.253-4.815-4.253
			c0.012,0.008,0.035,0.027,0.059,0.047c-4.339-3.198-9.315,1.202-13.974-0.595C61.774,117.697,62.805,120.435,64.635,121.141z"/>
	</g>
	<path fill="#FCC236" d="M241.953,47.681c6.021-0.472,10.493-5.503,16.58-5.515c-0.433,0-1.9-1.83-2.249-2.156
		c-0.404-0.38-1.715-2.112-2.292-2.11c-6.087,0.012-10.559,5.043-16.579,5.515c0.369-0.029,1.938,1.863,2.249,2.154
		C240.025,45.911,241.439,47.72,241.953,47.681z"/>
	<path fill="#AF0D1B" d="M229.306,69.234c1.782-1.857,3.956-3.564,4.212-6.304c0.035-0.388-1.945-1.869-2.248-2.157
		c-0.302-0.281-2.329-1.725-2.294-2.109c-0.254,2.739-2.431,4.446-4.212,6.304L229.306,69.234z"/>
	<path fill="#28ADC7" d="M250.995,75.441c1.643-1.701,4.646-2.474,6.791-1.314c-0.189-0.104-0.532-0.528-0.649-0.642
		c-0.529-0.508-1.063-1.013-1.6-1.516c-0.698-0.656-1.438-1.649-2.291-2.109c-2.147-1.159-5.148-0.388-6.793,1.313L250.995,75.441z"
		/>
	<path fill="#BF2561" d="M225.36,23.706c1.645-1.701,4.646-2.472,6.793-1.314c-0.189-0.102-0.532-0.527-0.649-0.64
		c-0.53-0.508-1.065-1.013-1.6-1.515c-0.7-0.657-1.441-1.65-2.294-2.112c-2.145-1.157-5.148-0.387-6.791,1.314L225.36,23.706z"/>
	<path fill="#1E74A3" d="M265.879,102.382c-0.987-0.671-0.479-0.164,1.521,1.523c1.73,1.855,2.312,2.394,1.746,1.611
		c-0.055-0.18-0.23-0.354-0.303-0.542c-0.135-0.35-0.184-0.726-0.139-1.097c0.1-0.837,0.648-1.563,1.257-2.11
		c1.346-1.208,3.328-1.887,5.109-1.437l-0.649-0.64c-0.529-0.511-1.063-1.013-1.599-1.516c-0.536-0.502-1.072-1.005-1.613-1.502
		c-0.165-0.152-0.47-0.555-0.679-0.609c-2.214-0.558-5.322,0.679-6.196,2.901c-0.446,1.136,0.014,2.073,0.812,2.895
		c1.601,1.651,3.335,3.52,5.273,4.788C268.717,105.534,267.596,103.506,265.879,102.382z"/>
	<g>
		<path fill="#BF2561" d="M290.585,67.985c-2.538-0.226-5.344,0.332-7.884-0.084c0.053,0.946,0.232,1.59,0.837,2.56
			c-1.337-1.262-2.675-2.521-4.013-3.78c1.129,1.609,2.771,2.982,4.313,4.05c4.025,2.792,9.029,0.913,13.483,2.037
			c-0.289-0.829-0.654-1.633-1.177-2.389C294.514,69.033,292.99,68.198,290.585,67.985z"/>
		<path fill="#BF2561" d="M296.915,71.039c-0.213-0.191-0.423-0.369-0.632-0.545c-0.055-0.051-0.107-0.104-0.162-0.156
			c0.01,0.014,0.014,0.027,0.023,0.041c0.522,0.756,0.888,1.56,1.177,2.389c1.121,3.215,0.79,6.869,1.139,10.258
			c0.162,1.59,4.384,2.738,4.54,4.267c-0.377-3.682,0.311-8.378-1.652-11.706C300.306,73.818,298.423,72.379,296.915,71.039z"/>
		<path fill="#BF2561" d="M278.138,62.794c0.004,1.239,0.432,2.391,1.091,3.447c0.016,0.025,0.033,0.051,0.049,0.076l0,0
			c0,0,1.191,2.104,4.458,4.343c-0.604-0.97-0.981-1.813-1.034-2.759c-0.016-0.257-0.021-0.528-0.023-0.841
			C282.672,65.6,278.144,64.188,278.138,62.794z"/>
	</g>
	<path fill="#FCC236" d="M175.59,46.183c-1.705,5.004,0.792,10.34-1.304,15.24c0.148-0.348,2.129-0.897,2.513-1.063
		c0.445-0.193,2.291-0.647,2.489-1.113c2.098-4.897-0.401-10.234,1.304-15.237c-0.104,0.307-2.168,0.913-2.511,1.062
		C177.681,45.244,175.736,45.755,175.59,46.183z"/>
	<path fill="#FCC236" d="M140.922,42.421c0.799,1.908,0.381,4.591-1.293,5.915c0.146-0.117,0.608-0.245,0.739-0.302
		c0.593-0.248,1.183-0.504,1.771-0.761c0.771-0.334,1.826-0.586,2.491-1.112c1.674-1.325,2.092-4.007,1.292-5.917L140.922,42.421z"
		/>
	<path fill="#BF2561" d="M204.113,87.354c0.8,1.91,0.381,4.591-1.295,5.916c0.148-0.117,0.61-0.246,0.741-0.301
		c0.593-0.25,1.182-0.506,1.771-0.763c0.771-0.334,1.826-0.586,2.489-1.112c1.676-1.324,2.095-4.005,1.295-5.915L204.113,87.354z"/>
	<g>
		<path fill="#BF2561" d="M101.384,74.753c1.06-1.964,1.584-4.411,2.796-6.311c-0.778-0.285-1.356-0.363-2.346-0.213
			c1.476-0.64,2.95-1.278,4.427-1.918c-1.684,0.35-3.355,1.196-4.748,2.064c-3.639,2.272-3.859,6.945-6.304,10.137
			c0.767,0.055,1.539,0.039,2.329-0.119C99.185,77.547,100.381,76.612,101.384,74.753z"/>
		<path fill="#BF2561" d="M96.738,78.784c0.229-0.105,0.445-0.211,0.656-0.318c0.061-0.025,0.122-0.051,0.183-0.076
			c-0.014,0.004-0.025,0.002-0.039,0.004c-0.79,0.158-1.563,0.174-2.329,0.119c-2.973-0.211-5.798-1.742-8.643-2.634
			c-1.336-0.42-3.718,2.577-5.002,2.175c3.091,0.97,6.631,3.149,9.984,2.722C93.33,80.551,95.141,79.533,96.738,78.784z"/>
		<path fill="#BF2561" d="M109.866,66.54c-0.999-0.426-2.072-0.479-3.15-0.314c-0.025,0.004-0.051,0.008-0.076,0.014v-0.002
			c0,0-2.104,0.229-5.035,2.082c0.99-0.15,1.797-0.162,2.575,0.123c0.212,0.076,0.433,0.164,0.685,0.272
			C106.042,69.215,108.744,66.063,109.866,66.54z"/>
	</g>
	<g>
		<path fill="#1E74A3" d="M156.234,91.354c-0.755-1.801-1.997-3.563-4.169-3.038c-0.698,0.168-1.441,0.449-2.179,0.765
			c0.012,0.057,0.029,0.115,0.025,0.168c0.579-0.255,1.158-0.507,1.734-0.761c-1.069,0.632-1.727,1.494-2.184,2.47
			c0.802,0.653,1.403,1.701,1.77,2.573L156.234,91.354z"/>
		<path fill="#1E74A3" d="M146.201,99.287c2.268-2.192,2.018-5.688,3.262-8.33c0.457-0.976,1.114-1.838,2.184-2.47
			c-0.029,0.014-0.057,0.025-0.086,0.039c0.209-0.105,0.348-0.172,0.348-0.172c-2.938,0.771-5.15,2.26-5.15,2.26
			c0.012-0.008,0.035-0.02,0.059-0.031c-4.137,2.269-2.475,7.842-5.617,10.878C142.413,100.288,144.967,100.479,146.201,99.287z"/>
	</g>
	<g>
		<path fill="#9A70DB" d="M281.407,235.682c0,2.538-2.073,4.999-2.223,7.499c-0.15,2.531,1.614,5.22,1.315,7.708
			c-0.303,2.517-2.657,4.711-3.106,7.18c-0.453,2.49,0.975,5.373,0.375,7.811c-0.604,2.458-3.206,4.352-3.952,6.75
			c-0.752,2.414,0.315,5.448-0.577,7.798c-0.896,2.363-3.709,3.926-4.742,6.219c-1.039,2.303-0.348,5.444-1.52,7.671
			c-1.175,2.234-4.156,3.447-5.46,5.6c-1.308,2.158-1.001,5.361-2.433,7.432c-1.436,2.074-4.541,2.918-6.096,4.898
			c-1.557,1.984-1.637,5.201-3.309,7.086c-1.672,1.887-4.855,2.352-6.639,4.133c-1.781,1.782-2.247,4.966-4.134,6.639
			c-1.885,1.671-5.102,1.752-7.085,3.309c-1.982,1.555-2.826,4.66-4.901,6.094c-2.07,1.432-5.273,1.125-7.432,2.434
			c-2.152,1.305-3.362,4.285-5.599,5.461c-2.225,1.17-5.368,0.479-7.671,1.518c-2.292,1.033-3.855,3.846-6.218,4.742
			c-2.35,0.891-5.384-0.177-7.798,0.574c-2.397,0.746-4.291,3.35-6.748,3.953c-2.438,0.598-5.319-0.83-7.812-0.377
			c-2.467,0.451-4.661,2.805-7.177,3.107c-2.488,0.299-5.178-1.467-7.709-1.315c-2.5,0.149-4.96,2.223-7.498,2.223
			s-4.998-2.073-7.498-2.224c-2.531-0.15-5.222,1.615-7.71,1.314c-2.516-0.303-4.71-2.656-7.177-3.105
			c-2.492-0.453-5.374,0.975-7.812,0.375c-2.459-0.604-4.352-3.205-6.75-3.951c-2.414-0.752-5.449,0.314-7.799-0.576
			c-2.362-0.896-3.926-3.711-6.218-4.744c-2.303-1.037-5.445-0.346-7.672-1.518c-2.234-1.174-3.446-4.156-5.599-5.459
			c-2.158-1.309-5.361-1.002-7.432-2.434c-2.074-1.436-2.918-4.541-4.899-6.094c-1.983-1.557-5.2-1.638-7.085-3.309
			c-1.887-1.673-2.352-4.856-4.134-6.639s-4.965-2.246-6.638-4.133c-1.671-1.885-1.751-5.103-3.307-7.087
			c-1.555-1.981-4.66-2.825-6.096-4.899c-1.432-2.07-1.125-5.273-2.433-7.432c-1.304-2.154-4.286-3.365-5.46-5.6
			c-1.172-2.227-0.48-5.369-1.518-7.672c-1.033-2.292-3.848-3.854-4.744-6.218c-0.891-2.349,0.177-5.384-0.574-7.798
			c-0.747-2.396-3.35-4.291-3.953-6.748c-0.598-2.436,0.83-5.32,0.375-7.811c-0.449-2.467-2.803-4.66-3.104-7.176
			c-0.299-2.488,1.466-5.179,1.315-7.71c-0.149-2.5-2.223-4.961-2.223-7.499s2.074-5,2.223-7.5c0.15-2.531-1.614-5.219-1.315-7.707
			c0.303-2.516,2.657-4.711,3.106-7.178c0.453-2.492-0.975-5.375-0.375-7.813c0.604-2.457,3.205-4.352,3.951-6.75
			c0.752-2.414-0.315-5.449,0.577-7.799c0.896-2.363,3.708-3.925,4.741-6.218c1.039-2.303,0.348-5.444,1.519-7.671
			c1.176-2.236,4.157-3.447,5.461-5.6c1.308-2.158,1.001-5.361,2.433-7.432c1.436-2.074,4.541-2.918,6.095-4.899
			c1.557-1.983,1.638-5.2,3.309-7.086c1.673-1.887,4.856-2.352,6.638-4.134c1.783-1.782,2.248-4.967,4.135-6.639
			c1.885-1.67,5.101-1.75,7.085-3.307c1.981-1.555,2.825-4.66,4.901-6.096c2.07-1.432,5.271-1.125,7.43-2.433
			c2.152-1.304,3.365-4.284,5.6-5.458c2.227-1.172,5.368-0.48,7.671-1.52c2.292-1.033,3.855-3.846,6.219-4.742
			c2.349-0.891,5.383,0.176,7.797-0.575c2.397-0.746,4.29-3.349,6.747-3.952c2.438-0.6,5.321,0.828,7.812,0.375
			c2.468-0.449,4.662-2.803,7.178-3.105c2.488-0.299,5.178,1.466,7.709,1.314c2.5-0.148,4.96-2.222,7.498-2.222
			s4.998,2.073,7.499,2.223c2.531,0.151,5.221-1.614,7.709-1.313c2.516,0.301,4.711,2.654,7.178,3.104
			c2.49,0.455,5.374-0.973,7.812-0.375c2.458,0.604,4.352,3.207,6.749,3.953c2.415,0.752,5.45-0.316,7.799,0.576
			c2.363,0.896,3.927,3.709,6.219,4.742c2.303,1.039,5.446,0.348,7.672,1.52c2.235,1.174,3.445,4.156,5.6,5.461
			c2.158,1.307,5.359,1,7.43,2.432c2.076,1.436,2.92,4.541,4.9,6.096c1.984,1.557,5.201,1.637,7.086,3.309
			c1.887,1.672,2.352,4.855,4.135,6.637c1.781,1.783,4.965,2.248,6.638,4.133c1.671,1.887,1.751,5.104,3.308,7.088
			c1.555,1.981,4.66,2.824,6.096,4.9c1.432,2.07,1.125,5.273,2.433,7.432c1.304,2.152,4.285,3.365,5.46,5.6
			c1.171,2.227,0.48,5.367,1.518,7.67c1.033,2.293,3.848,3.856,4.744,6.219c0.891,2.349-0.178,5.383,0.574,7.797
			c0.746,2.398,3.348,4.291,3.951,6.748c0.6,2.438-0.828,5.32-0.373,7.811c0.447,2.469,2.802,4.662,3.104,7.178
			c0.299,2.488-1.466,5.178-1.315,7.709C279.333,230.684,281.407,233.145,281.407,235.682z"/>
		<g>
			<path fill="#FFFFFF" d="M88.213,157.325c3.697-2.948,9.308-4.129,13.8,0.089c-1.555,1.241-2.932,2.341-4.487,3.581
				c-2.081-1.302-4.084-1.039-5.996,0.487c-2.678,2.136-2.829,5.554-0.469,8.512c2.096,2.626,5.66,3.536,8.383,1.406
				c1.938-1.547,2.721-3.757,1.679-6.056c1.53-1.22,2.933-2.339,4.486-3.581c3.366,5.578,0.95,10.761-2.849,13.792
				c-4.519,3.646-11.549,4.249-16.415-1.798C81.527,167.668,83.676,160.947,88.213,157.325z"/>
			<path fill="#FFFFFF" d="M114.476,167.025l-8.84-21.043c1.804-0.758,3.607-1.516,5.472-2.299l3.348,7.967l0.389-0.164
				c5.383-2.261,3.42-6.176,1.766-10.114c1.834-0.77,3.668-1.54,5.532-2.323c1.805,4.3,3.592,8.217,0.538,12.647l9.602,6.861
				l0.353,0.842l-5.982,2.513l-8.052-6.203c-0.671,0.424-1.333,0.701-2.024,0.992l3.372,8.026
				C118.083,165.51,116.278,166.268,114.476,167.025z"/>
			<path fill="#FFFFFF" d="M137.283,158.678l-2.072,0.254l-2.777-22.691c1.974-0.242,3.948-0.484,5.924-0.726l1.359,11.103
				l10.088-12.603l2.104-0.258l2.786,22.757c-1.976,0.241-3.98,0.487-5.988,0.732l-1.363-11.136L137.283,158.678z"/>
			<path fill="#FFFFFF" d="M161.331,159.571l-4.772-0.727l1.148-7.543l2.289,0.348l10.455-16.683l2.482,0.377l5.278,19.077
				l2.353,0.357l-1.146,7.546l-4.74-0.722l0.378-2.482l-13.348-2.031L161.331,159.571z M165.842,152.474l6.383,0.971l-2.015-8.652
				L165.842,152.474z"/>
			<path fill="#FFFFFF" d="M181.851,160.776l9.194-20.898c1.792,0.787,3.583,1.576,5.434,2.391l-3.48,7.911l0.388,0.171
				c5.344,2.352,6.836-1.768,8.557-5.679c1.821,0.801,3.644,1.602,5.494,2.417c-1.878,4.269-3.492,8.262-8.812,9.094l1.626,11.691
				l-0.368,0.836l-5.939-2.614l-1.039-10.113c-0.77-0.196-1.427-0.484-2.113-0.787l-3.506,7.972
				C185.434,162.354,183.642,161.565,181.851,160.776z"/>
			<path fill="#FFFFFF" d="M214.799,177.025l-6.956-5.711l-2.855,1.369l-4.41-3.621l0.537-0.655l22.075-10.696l1.94,1.594
				l-6.171,23.754l-0.537,0.655l-4.411-3.622L214.799,177.025z M218.269,165.655l-5.799,3.003l4.033,3.312L218.269,165.655z"/>
		</g>
		<g>
			<path fill="#FFFFFF" d="M77.088,301.005c-1.063-1.713-2.125-3.425-3.187-5.138l7.89-4.893l-3.761-6.064l-7.89,4.893
				c-1.062-1.713-2.142-3.453-3.186-5.139l19.653-12.187c1.044,1.685,2.124,3.425,3.186,5.138l-7.131,4.422l3.76,6.064l7.132-4.422
				c1.062,1.713,2.124,3.426,3.186,5.138L77.088,301.005z"/>
			<path fill="#FFFFFF" d="M96.204,315.872l-6.861-6.009l-2.935,1.294l-4.351-3.811l0.566-0.646l22.702-10.118l1.914,1.676
				l-7.018,23.858l-0.566,0.646l-4.35-3.81L96.204,315.872z M100.087,304.47l-5.971,2.853l3.978,3.484L100.087,304.47z"/>
			<path fill="#FFFFFF" d="M116.814,331.874l7.178-21.981c1.884,0.615,3.769,1.23,5.715,1.866l-2.717,8.321l0.408,0.134
				c5.621,1.835,6.713-2.465,8.056-6.579c1.916,0.626,3.831,1.251,5.778,1.887c-1.467,4.49-2.694,8.677-7.972,10.047l2.808,11.62
				l-0.287,0.879l-6.249-2.04l-2.057-10.09c-0.795-0.12-1.485-0.346-2.208-0.582l-2.738,8.385
				C120.583,333.104,118.698,332.489,116.814,331.874z"/>
			<path fill="#FFFFFF" d="M143.95,339.094c0.246-7.693,0.491-15.388,0.737-23.114c3.335,0.106,6.77,0.216,10.17,0.324
				c11.061,0.386,10.514,17.557-0.548,17.204l-4.26-0.137l-0.188,5.911C147.88,339.219,145.898,339.156,143.95,339.094z
				 M154.656,321.586c-1.386-0.077-2.873-0.092-4.227-0.135c-0.061,1.883-0.15,4.722-0.211,6.604l4.227,0.135
				C157.682,328.293,158.089,321.729,154.656,321.586z"/>
			<path fill="#FFFFFF" d="M181.287,317.77c-3.347,0.78-5.021,1.171-8.335,1.944l0.743,3.186l7.659-1.787
				c0.398,1.706,0.796,3.412,1.193,5.117l-7.658,1.787c0.308,1.319,0.607,2.606,0.923,3.958c3.314-0.773,5.246-1.224,8.625-2.012
				c0.39,1.673,0.795,3.411,1.193,5.116c-5.277,1.231-9.14,2.132-14.353,3.349c-1.757-7.53-3.514-15.061-5.255-22.526
				c5.213-1.217,8.785-2.05,14.063-3.281C180.477,314.294,180.882,316.031,181.287,317.77z"/>
			<path fill="#FFFFFF" d="M197.732,333.104l-4.297,2.333l-3.688-6.795l2.062-1.119l-1.764-19.87l2.236-1.214l15.934,12.178
				l2.119-1.15l3.688,6.795l-4.269,2.317l-1.214-2.236l-12.021,6.525L197.732,333.104z M197.032,324.612l5.75-3.121l-6.921-5.754
				L197.032,324.612z"/>
			<path fill="#FFFFFF" d="M220.567,315.378l-1.477,1.514l-16.579-16.173c1.407-1.443,2.814-2.886,4.223-4.328l8.112,7.913
				l-0.017-16.355l1.5-1.537l16.627,16.22c-1.408,1.442-2.838,2.909-4.269,4.375l-8.136-7.937L220.567,315.378z"/>
			<path fill="#FFFFFF" d="M222.104,287.3c-1.563-0.857-3.099-1.699-4.634-2.541l8.26-15.06c1.535,0.842,3.07,1.684,4.634,2.541
				l-2.716,4.952l15.639,8.578c-0.938,1.709-1.874,3.417-2.812,5.126l-15.639-8.577L222.104,287.3z"/>
		</g>
		<g>
			<path fill="#FFFFFF" d="M245.471,261.954l-3.531-4.388l-0.07-0.017l-0.606,5.433l-2.367-0.585l1.93-5.105l-0.07-0.018
				l-5.006,2.308l-0.712-2.503l5.393-0.882l0.018-0.07l-4.349-3.479l1.746-1.678l3.431,4.364l0.07,0.016l0.613-5.318l2.37,0.584
				l-1.932,4.957l0.07,0.018l5.059-2.221l0.694,2.426l-5.376,0.961l-0.018,0.07l4.349,3.332L245.471,261.954z"/>
			<path fill="#FFFFFF" d="M63.275,255l5.197,2.169l0.069-0.018l-2.056-5.059l2.36-0.614l0.737,5.405l0.068-0.02l3.303-4.413
				l1.814,1.861l-4.317,3.346l0.02,0.068l5.48,0.987l-0.737,2.302l-5.092-2.198l-0.07,0.018l1.995,4.967l-2.36,0.614l-0.665-5.274
				l-0.07,0.018l-3.387,4.364l-1.766-1.805l4.267-3.406l-0.02-0.068l-5.408-0.853L63.275,255z"/>
			<path fill="#FFFFFF" d="M61.426,230.214l4.442,3.461l0.07,0.004l-0.648-5.43l2.438,0.031l-0.712,5.408l0.072,0.002l4.347-3.391
				l1.265,2.276l-5.051,2.091v0.074l5.027,2.394l-1.313,2.027l-4.337-3.461h-0.07l0.613,5.314l-2.439-0.029l0.748-5.266h-0.072
				l-4.417,3.318l-1.229-2.204l5.016-2.162v-0.075l-4.996-2.246L61.426,230.214z"/>
			<path fill="#FFFFFF" d="M66.146,205.843l3.383,4.503l0.068,0.02l0.788-5.408l2.346,0.666l-2.098,5.035l0.07,0.02l5.078-2.139
				l0.628,2.526l-5.421,0.7l-0.02,0.07l4.233,3.621l-1.803,1.615l-3.281-4.472l-0.068-0.018l-0.79,5.291l-2.348-0.665l2.092-4.887
				l-0.066-0.02l-5.131,2.052l-0.61-2.448l5.405-0.78l0.018-0.07l-4.235-3.473L66.146,205.843z"/>
			<path fill="#FFFFFF" d="M77.093,183.465l2.084,5.235l0.061,0.033l2.181-5.01l2.09,1.259l-3.35,4.308l0.064,0.037l5.464-0.729
				l-0.061,2.605l-5.413-0.749l-0.037,0.061l3.129,4.608l-2.161,1.087l-1.992-5.178l-0.061-0.039l-2.155,4.9l-2.09-1.259
				l3.307-4.165l-0.063-0.037l-5.489,0.631l0.051-2.524l5.421,0.667l0.039-0.061l-3.172-4.464L77.093,183.465z"/>
			<path fill="#FFFFFF" d="M240.669,196.473l-5.548-0.968l-0.063,0.033l3.123,4.481l-2.169,1.12l-1.912-5.107l-0.061,0.033
				l-2.247,5.035l-2.184-1.415l3.475-4.218l-0.031-0.063l-5.565,0.251l0.208-2.411l5.453,1.021l0.063-0.033l-3.041-4.401
				l2.165-1.122l1.816,4.997l0.063-0.033l2.341-5.005l2.119,1.368l-3.408,4.265l0.033,0.064l5.466-0.361L240.669,196.473z"/>
		</g>
		<g>
			<path fill="#FFFFFF" d="M132.191,263.881c-0.689,0-1.284-0.25-1.785-0.752c-0.503-0.501-0.752-1.096-0.752-1.786v-11.372h-29.136
				c-0.69,0-1.285-0.249-1.786-0.752c-0.502-0.501-0.752-1.096-0.752-1.785v-6.674c0-0.876,0.203-1.645,0.611-2.302
				c0.406-0.658,0.893-1.363,1.457-2.115l28.76-35.902c1.252-1.565,2.537-2.35,3.854-2.35h7.143c0.688,0,1.283,0.251,1.786,0.752
				c0.5,0.502,0.751,1.097,0.751,1.785v37.595h8.083c0.689,0,1.284,0.251,1.786,0.752c0.501,0.502,0.752,1.097,0.752,1.785v6.674
				c0,0.689-0.251,1.284-0.752,1.785c-0.502,0.503-1.097,0.752-1.786,0.752h-8.083v11.372c0,0.69-0.251,1.285-0.751,1.786
				c-0.503,0.502-1.098,0.752-1.786,0.752H132.191z M129.654,238.223v-20.113l-16.072,20.113H129.654z"/>
			<path fill="#FFFFFF" d="M208.132,222.621c0.062,1.19,0.094,2.507,0.094,3.947c0,1.442,0,2.913,0,4.417s0,2.977,0,4.418
				s-0.032,2.758-0.094,3.947c-0.188,3.635-0.737,7.002-1.645,10.104c-0.909,3.102-2.35,5.796-4.323,8.083
				c-1.974,2.288-4.544,4.073-7.707,5.356c-3.165,1.284-7.034,1.927-11.607,1.927c-4.638,0-8.522-0.643-11.654-1.927
				c-3.134-1.283-5.687-3.068-7.66-5.356c-1.974-2.287-3.416-4.981-4.323-8.083c-0.909-3.102-1.457-6.469-1.645-10.104
				c-0.127-2.381-0.188-5.09-0.188-8.13c0-3.038,0.062-5.748,0.188-8.13c0.188-3.633,0.735-7.033,1.645-10.197
				c0.907-3.163,2.35-5.905,4.323-8.224c1.974-2.317,4.526-4.15,7.66-5.499c3.132-1.347,7.017-2.021,11.654-2.021
				c4.573,0,8.442,0.644,11.607,1.927c3.163,1.285,5.733,3.071,7.707,5.357c1.974,2.288,3.414,4.981,4.323,8.083
				C207.395,215.619,207.943,218.987,208.132,222.621z M170.255,238.881c0.313,4.511,1.395,8.005,3.243,10.479
				c1.848,2.476,4.965,3.712,9.352,3.712c4.385,0,7.503-1.236,9.352-3.712c1.848-2.475,2.928-5.969,3.242-10.479
				c0.125-2.381,0.188-5.013,0.188-7.896c0-2.881-0.063-5.513-0.188-7.895c-0.314-4.512-1.395-8.004-3.242-10.479
				c-1.849-2.475-4.967-3.713-9.352-3.713c-4.387,0-7.504,1.238-9.352,3.713c-1.849,2.476-2.93,5.968-3.243,10.479
				c-0.126,2.382-0.188,5.014-0.188,7.895C170.067,233.868,170.129,236.5,170.255,238.881z"/>
		</g>
		<g>
			<path fill="#FFFFFF" d="M237.804,220.413v3.26c0,1.573-0.581,2.764-1.745,3.573c-1.163,0.81-2.715,1.214-4.653,1.214
				c-1.939,0-3.496-0.404-4.672-1.214s-1.763-2.012-1.763-3.607v-3.191c0-1.595,0.6-2.798,1.8-3.607
				c1.199-0.809,2.738-1.214,4.617-1.214c1.878,0,3.417,0.411,4.616,1.231C237.204,217.679,237.804,218.863,237.804,220.413z
				 M247.329,215.663h3.054c0.582,0,0.873,0.268,0.873,0.802c0,0.146-0.049,0.278-0.146,0.398l-17.597,23.56
				c-0.339,0.459-0.775,0.688-1.309,0.688h-3.054c-0.582,0-0.872-0.262-0.872-0.784c0-0.145,0.048-0.277,0.146-0.398l17.596-23.577
				C246.359,215.893,246.796,215.663,247.329,215.663z M230.206,220.48v3.057c0,0.303,0.114,0.563,0.345,0.78
				s0.515,0.325,0.854,0.325c0.339,0,0.624-0.108,0.854-0.325s0.346-0.478,0.346-0.78v-3.057c0-0.304-0.115-0.558-0.346-0.765
				c-0.23-0.205-0.516-0.309-0.854-0.309c-0.34,0-0.624,0.108-0.854,0.325C230.32,219.95,230.206,220.198,230.206,220.48z
				 M254.527,232.713v3.418c0,1.648-0.582,2.896-1.745,3.744c-1.163,0.849-2.715,1.272-4.653,1.272
				c-1.939,0-3.496-0.424-4.672-1.272c-1.176-0.848-1.763-2.108-1.763-3.78v-3.345c0-1.673,0.6-2.933,1.799-3.781
				c1.2-0.849,2.739-1.272,4.617-1.272s3.418,0.431,4.617,1.291C253.928,229.848,254.527,231.09,254.527,232.713z M246.929,232.677
				v3.418c0,0.339,0.115,0.63,0.346,0.872s0.515,0.363,0.854,0.363c0.339,0,0.624-0.121,0.854-0.363
				c0.229-0.242,0.345-0.533,0.345-0.872v-3.418c0-0.339-0.115-0.624-0.345-0.854c-0.23-0.229-0.516-0.345-0.854-0.345
				c-0.34,0-0.624,0.121-0.854,0.363S246.929,232.362,246.929,232.677z"/>
		</g>
	</g>
	<path fill="#FCC236" d="M14.963,240.483c1.481,0.505,2.894,1.299,4.193,2.159c1.168,0.772,2.689,1.775,3.148,3.18
		c-0.213-0.651,0.023-1.809,0.023-2.503c0-0.739,0.209-1.789-0.023-2.503c-0.459-1.408-1.979-2.405-3.148-3.18
		c-1.3-0.86-2.712-1.654-4.193-2.158c0.09,0.029-0.025,2.291-0.025,2.502C14.938,238.21,14.788,240.423,14.963,240.483z"/>
	<path fill="#28ADC7" d="M59.941,158.313c3.511-0.88,8.839-1.404,11.68,1.333c-0.227-0.219,0.025-2.145,0.025-2.502
		c0-0.417,0.287-2.202-0.025-2.503c-2.841-2.738-8.169-2.214-11.68-1.334C59.514,153.413,60.3,158.224,59.941,158.313z"/>
	<path fill="#7DBE3C" d="M24.008,185.845c5.796-2.343,13.678-0.383,19.169,2.048c-1.777-0.786-2.735-3.467-4.543-4.267
		c-5.486-2.429-13.37-4.393-19.166-2.048C20.234,181.268,23.163,186.188,24.008,185.845z"/>
	<path fill="#AF0D1B" d="M5.063,215.68c1.723-0.913,3.645-1.518,5.535-1.965c1.695-0.4,3.903-0.925,5.567-0.145
		c-0.772-0.362-1.621-1.564-2.251-2.155c-0.67-0.631-1.444-1.715-2.291-2.111c-1.668-0.782-3.87-0.257-5.567,0.145
		c-1.889,0.448-3.813,1.052-5.533,1.965c0.104-0.055,2.057,1.978,2.248,2.157C2.979,213.766,4.859,215.787,5.063,215.68z"/>
	<g>
		
			<linearGradient id="SVGID_1_" gradientUnits="userSpaceOnUse" x1="-152.543" y1="-1216.0234" x2="-160.4716" y2="-1212.8679" gradientTransform="matrix(0.8858 -0.464 0.464 0.8858 764.4651 1186.4131)">
			<stop  offset="0.1279" style="stop-color:#97003B"/>
			<stop  offset="0.8829" style="stop-color:#DA003B"/>
		</linearGradient>
		<path fill="url(#SVGID_1_)" d="M63.28,177.22c-0.152-0.262-0.308-0.519-0.466-0.772c0.243,0.688,0.349,1.316,0.336,1.896
			c-0.061,2.529-2.327,4.146-4.89,5.496l2.893,5.521c4.072-2.145,5.659-4.37,4.137-8.216c-0.053-0.132-0.111-0.271-0.173-0.408
			c-0.081-0.183-0.158-0.364-0.252-0.554C64.353,179.142,63.831,178.16,63.28,177.22z"/>
		<path fill="#AF0D1B" d="M31.188,144.911c-3.612,2.354-0.434,9.405,2.24,14.229c0.04-0.037,0.074-0.076,0.13-0.105
			c0.079-0.041,0.267,0.565,0.342,0.557c-0.184-0.563-0.455-1.743-0.596-2.195c-0.72-2.31-1.627-5.4,0.775-6.965
			C34.281,150.298,31.063,144.993,31.188,144.911z"/>
		
			<linearGradient id="SVGID_2_" gradientUnits="userSpaceOnUse" x1="-170.9849" y1="-1234.5459" x2="-152.8051" y2="-1234.5459" gradientTransform="matrix(0.8858 -0.464 0.464 0.8858 764.4651 1186.4131)">
			<stop  offset="0.2207" style="stop-color:#97003B"/>
			<stop  offset="0.8829" style="stop-color:#DA003B"/>
		</linearGradient>
		<path fill="url(#SVGID_2_)" d="M57.636,170.524c-6.14-4.953-13.887-4.38-20.256-8.263c-0.069-0.05-0.165-0.112-0.307-0.194
			c-0.24-0.174-0.72-0.554-1.236-0.942c-1.462-1.302-3.084-3.233-3.084-3.233l0.273,0.492c-0.01-0.003-0.009,0.014,0.026,0.08
			c0.229,0.435,1.104,1.969,1.104,1.969h0.005c0.042,0.072,0.082,0.144,0.123,0.213l0.023,0.041l0.001,0.002
			c0.476,0.813,0.904,1.521,1.228,2.062c3.153,5.263,7.57,6.247,13.205,7.747c5.29,1.41,10.65,3.79,14.408,7.847
			c0.013-0.58-0.093-1.208-0.336-1.896C61.448,174.256,59.854,172.313,57.636,170.524z"/>
	</g>
	<path fill="#28ADC7" d="M284.952,194.572c5.223,0.543,12.749,2.471,15.266,7.615c-0.202-0.41,1.099-2.913,1.276-3.4
		c0.207-0.568,1.484-2.86,1.209-3.426c-2.519-5.145-10.045-7.074-15.268-7.616C286.8,187.679,285.483,194.627,284.952,194.572z"/>
	<g>
		<path fill="#BF2561" d="M274.049,178.176c-0.927-2.823-2.812-5.574-3.533-8.488c-0.989,0.493-1.596,0.979-2.358,2.073
			c0.735-2.013,1.473-4.024,2.206-6.034c-1.205,1.947-1.921,4.337-2.358,6.478c-1.14,5.599,3.174,10.096,4.015,15.383
			c0.754-0.688,1.448-1.45,2.02-2.356C274.731,182.863,274.925,180.849,274.049,178.176z"/>
		<path fill="#BF2561" d="M273.686,186.359c0.105-0.317,0.201-0.624,0.293-0.927c0.031-0.082,0.063-0.164,0.094-0.247
			c-0.01,0.016-0.023,0.029-0.033,0.045c-0.571,0.906-1.266,1.668-2.02,2.356c-2.93,2.679-6.997,4.005-10.468,5.935
			c-1.629,0.905-0.919,5.956-2.485,6.826c3.772-2.096,9.122-3.518,11.783-7.148C272.266,191.27,272.942,188.59,273.686,186.359z"/>
		<path fill="#BF2561" d="M273.889,162.451c-1.326,0.576-2.362,1.563-3.191,2.755c-0.02,0.029-0.037,0.059-0.059,0.086v-0.002
			c0,0-1.707,2.243-2.604,6.773c0.763-1.093,1.492-1.883,2.481-2.376c0.266-0.133,0.555-0.266,0.89-0.41
			C272.968,168.599,272.398,163.098,273.889,162.451z"/>
	</g>
	<g>
		<g>
			<path fill="#AF0D1B" d="M155.263,18.514c-22.871,0-41.412,18.54-41.412,41.414v32.938h82.824V59.928
				C196.675,37.054,178.134,18.514,155.263,18.514z"/>
			<rect x="113.851" y="71.891" fill="#05293D" width="82.824" height="20.975"/>
			<path fill="#920B16" d="M155.263,18.514c-2.695,0-5.328,0.266-7.879,0.758c19.1,3.682,33.531,20.479,33.531,40.656v32.938h15.76
				V59.928C196.675,37.054,178.134,18.514,155.263,18.514z"/>
			<rect x="180.915" y="71.891" fill="#042233" width="15.76" height="20.975"/>
			<circle fill="#FFFFFF" cx="155.263" cy="11.482" r="11.482"/>
			<path fill="#D5D5D5" d="M156.839,0.121c1.457,1.926,2.33,4.312,2.33,6.91c0,6.342-5.143,11.482-11.484,11.482
				c-0.535,0-1.061-0.051-1.576-0.121c2.094,2.771,5.41,4.571,9.152,4.571c6.344,0,11.484-5.142,11.484-11.481
				C166.745,5.677,162.435,0.891,156.839,0.121z"/>
		</g>
		<g>
			<path fill="#FF910B" d="M168.466,99.431h-26.408c-6.623,0-12.014-5.388-12.014-12.014V77.51c0-6.626,5.391-12.016,12.014-12.016
				h26.408c6.623,0,12.014,5.39,12.014,12.016v9.907C180.479,94.043,175.089,99.431,168.466,99.431z M142.058,72.579
				c-2.719,0-4.93,2.211-4.93,4.931v9.907c0,2.72,2.211,4.931,4.93,4.931h26.408c2.719,0,4.93-2.211,4.93-4.931V77.51
				c0-2.72-2.211-4.931-4.93-4.931H142.058z"/>
		</g>
		<path fill="#FFFFFF" d="M204.136,116.566c0,3.656-2.965,6.618-6.621,6.618h-84.504c-3.654,0-6.619-2.962-6.619-6.618V89.504
			c0-3.656,2.965-6.619,6.619-6.619h84.504c3.656,0,6.621,2.963,6.621,6.619V116.566z"/>
		<path fill="#D5D5D5" d="M197.515,82.885h-16.529c-1.701,7.344-12.592,38.404-74.504,34.727c0.502,3.16,3.23,5.573,6.529,5.573
			h84.504c3.656,0,6.621-2.962,6.621-6.618V89.504C204.136,85.848,201.171,82.885,197.515,82.885z"/>
	</g>
</g>
</svg>
