<?xml version="1.0" encoding="utf-8"?>
<!-- Generator: Adobe Illustrator 16.0.0, SVG Export Plug-In . SVG Version: 6.00 Build 0)  -->
<!DOCTYPE svg PUBLIC "-//W3C//DTD SVG 1.1//EN" "http://www.w3.org/Graphics/SVG/1.1/DTD/svg11.dtd">
<svg version="1.1" id="Слой_1" xmlns="http://www.w3.org/2000/svg" xmlns:xlink="http://www.w3.org/1999/xlink" x="0px" y="0px"
	 width="126.001px" height="153.195px" viewBox="0 0 126.001 153.195" enable-background="new 0 0 126.001 153.195"
	 xml:space="preserve">
<g>
	<g>
		<path fill="#E07C1D" d="M106.985,60.755c0,0,7.462,12.122,1.269,16.088c-6.192,3.961-11.1-3.12-11.1-3.12L106.985,60.755z"/>
	</g>
	<g>
		<path fill="#E07C1D" d="M106.07,72.183c0,0,7.354,1.927,8.621,4.062c1.264,2.13-0.845,9.393-2.546,9.843
			c-1.704,0.448-7.22-3.308-8.211-4.078C102.945,81.243,106.07,72.183,106.07,72.183z"/>
	</g>
	<g>
		<path fill="#E07C1D" d="M110.441,81.965c0,0,5.906,1.553,6.922,3.265c1.018,1.714-0.68,7.547-2.046,7.905
			c-1.364,0.359-5.796-2.66-6.591-3.275C107.927,89.244,110.441,81.965,110.441,81.965z"/>
	</g>
	<g>
		<path fill="#E07C1D" d="M125.965,96.688c0.728-1.653-9.772-7.865-12.188-6.474c-2.408,1.396-2.076,12.902-0.418,13.379
			c1.654,0.478,2.596-5.294,2.596-5.294s0.764,2.869,3.309,2.879c2.537,0.011-0.219-5.298-0.219-5.298
			S125.119,98.621,125.965,96.688z"/>
	</g>
	<g>
		<path fill="#E7B99B" d="M115.094,51.641c1.855,1.044-0.076,6.435-1.227,8.221c-1.154,1.794-3.027,2.997-4.955,3.896
			c-1.37,0.637-3.067,1.117-4.324,0.278c-2.805-1.872-2.516-5.501-0.888-8.114C105.899,52.406,112.053,49.933,115.094,51.641z"/>
	</g>
	<g>
		<path fill="#E07C1D" d="M43.298,60.755c0,0-7.462,12.122-1.271,16.088c6.192,3.961,11.102-3.12,11.102-3.12L43.298,60.755z"/>
	</g>
	<g>
		<path fill="#E07C1D" d="M44.213,72.183c0,0-7.35,1.927-8.617,4.062c-1.268,2.13,0.839,9.393,2.543,9.843
			c1.701,0.448,7.225-3.308,8.211-4.078C47.343,81.243,44.213,72.183,44.213,72.183z"/>
	</g>
	<g>
		<path fill="#E07C1D" d="M39.846,81.965c0,0-5.903,1.553-6.92,3.265c-1.018,1.714,0.674,7.547,2.044,7.905
			c1.364,0.359,5.796-2.66,6.594-3.275C42.354,89.244,39.846,81.965,39.846,81.965z"/>
	</g>
	<g>
		<path fill="#E07C1D" d="M24.319,96.688c-0.729-1.653,9.772-7.865,12.187-6.474c2.412,1.396,2.076,12.902,0.423,13.379
			c-1.659,0.478-2.601-5.294-2.601-5.294s-0.767,2.869-3.303,2.879c-2.542,0.011,0.214-5.298,0.214-5.298
			S25.164,98.621,24.319,96.688z"/>
	</g>
	<g>
		<path fill="#E7B99B" d="M48.981,74.932c2.456,2.896,5.886,4.893,9.548,5.893c2.595,0.714,5.34,0.959,7.77,2.126
			c2.426,1.166,4.528,3.649,4.122,6.305c2.339,0.632,4.704,0.802,7.103,0.434c1.064-4.116,3.216-4.625,7.787-5.636
			c4.223-0.938,8.664-1.15,12.662-2.916c3.693-1.629,6.301-5.412,7.953-8.961c6.429-13.802,5.973-32.603-4.992-44.036
			c-5.699-5.94-13.938-8.91-22.121-9.762c-6.801-0.707-13.991,0.007-19.846,3.543c-5.168,3.132-8.906,8.231-11.436,13.723
			c-2.917,6.325-4.342,13.327-4.225,20.291C43.42,62.902,44.33,69.462,48.981,74.932z"/>
	</g>
	<g>
		<path fill="#FFFFFF" d="M82.891,56.464c0,4.254-2.697,7.7-6.025,7.7c-3.335,0-6.038-3.446-6.038-7.7
			c0-4.25,2.703-7.696,6.038-7.696C80.193,48.768,82.891,52.214,82.891,56.464z"/>
	</g>
	<g>
		<path fill="#FFFFFF" d="M102.34,56.464c0,4.254-2.697,7.7-6.031,7.7c-3.328,0-6.031-3.446-6.031-7.7
			c0-4.25,2.703-7.696,6.031-7.696C99.643,48.768,102.34,52.214,102.34,56.464z"/>
	</g>
	<g>
		<path fill="#54250E" d="M74.616,51.009c-0.89,0-1.728,0.253-2.487,0.696c-0.809,1.306-1.302,2.959-1.302,4.759
			c0,4.254,2.703,7.7,6.038,7.7c0.888,0,1.723-0.251,2.482-0.69c0.814-1.31,1.301-2.965,1.301-4.763
			C80.648,54.457,77.945,51.009,74.616,51.009z"/>
	</g>
	<g>
		<path fill="#54250E" d="M94.066,51.009c-0.89,0-1.734,0.253-2.494,0.696c-0.809,1.306-1.295,2.959-1.295,4.759
			c0,4.254,2.703,7.7,6.031,7.7c0.888,0,1.729-0.251,2.488-0.69c0.814-1.31,1.3-2.965,1.3-4.763
			C100.097,54.457,97.396,51.009,94.066,51.009z"/>
	</g>
	<g>
		<path fill="#D98869" d="M88.414,70.485c-1.22,0-2.542-0.59-3.831-1.724c-0.37-0.32-0.408-0.877-0.086-1.248
			c0.32-0.363,0.877-0.401,1.245-0.079c0.707,0.621,2.072,1.601,3.26,1.188c1.014-0.348,1.488-1.697,1.307-2.734
			c-0.193-1.076-0.915-2.151-2.152-3.202c-0.367-0.31-0.416-0.866-0.1-1.24c0.314-0.371,0.87-0.419,1.247-0.103
			c1.55,1.322,2.478,2.745,2.739,4.232c0.32,1.789-0.513,4.037-2.463,4.717C89.207,70.421,88.82,70.485,88.414,70.485z"/>
	</g>
	<g>
		<path fill="#D98869" d="M68.762,65.48c0,1.563-1.484,2.833-3.318,2.833c-1.832,0-3.313-1.271-3.313-2.833
			c0-1.562,1.48-2.825,3.313-2.825C67.277,62.655,68.762,63.919,68.762,65.48z"/>
	</g>
	<g>
		<path fill="#D98869" d="M107.575,65.48c0,1.563-1.489,2.833-3.319,2.833s-3.314-1.271-3.314-2.833
			c0-1.562,1.484-2.825,3.314-2.825S107.575,63.919,107.575,65.48z"/>
	</g>
	<g>
		<path fill="#FFFFFF" d="M85.191,73.584c-3.071,0.327-6.225-1.799-7.074-4.764c0,0-3.811,4.229-0.525,7.193
			C80.697,78.817,85.191,73.584,85.191,73.584z"/>
	</g>
	<g>
		<polygon fill="#BC1506" points="62.356,105.386 63.152,104.583 65.315,105.562 63.442,111.685 61.365,111.685 59.904,111.485 
			60.457,110.492 		"/>
	</g>
	<g>
		<path fill="#6A924B" d="M77.523,89.688c0,0,4.779-1.965,6.555-1.611c1.773,0.357,11.074,9.606,11.428,11.368
			c0.357,1.754-5.314,11.146-7.311,11.047l-1.9-5.106l2.559-4.181l-5.775-5.957L77.523,89.688z"/>
	</g>
	<g>
		<polygon fill="#BC1506" points="85.876,104.074 89.099,111.23 86.074,111.685 85.021,112.166 83.078,104.957 		"/>
	</g>
	<g>
		<path fill="#54250E" d="M66.299,122.26c-1.754,6.401-0.945,23.735-0.945,23.735s-5.491,5.765-13.279,2.769
			c-7.787-3.003-1.285-10.534,1.511-7.6c0,0-1.494-4.57-6.294-0.928c-4.803,3.642-4.759,9.266,2.055,12.959h21.828
			c0,0-3.082-21.295-0.196-29.244L66.299,122.26z"/>
	</g>
	<g>
		<path fill="#54250E" d="M82.587,122.26c1.749,6.401,0.941,23.735,0.941,23.735s5.491,5.765,13.278,2.769
			c7.793-3.003,1.283-10.534-1.51-7.6c0,0,1.494-4.57,6.294-0.928c4.8,3.642,4.759,9.266-2.055,12.959H77.705
			c0,0,3.082-21.295,0.199-29.244L82.587,122.26z"/>
	</g>
	<g>
		<polygon fill="#6A924B" points="87.848,125.905 60.279,125.905 67.295,93.99 70.421,89.255 77.523,89.688 83.078,95.248 		"/>
	</g>
	<g>
		<polygon fill="#54250E" points="62.248,111.685 71.791,111.685 70.631,117.608 60.787,117.608 		"/>
	</g>
	<g>
		<polygon fill="#54250E" points="80.076,111.685 86.074,111.685 87.346,117.608 80.739,117.608 		"/>
	</g>
	<g>
		<polygon fill="#E07C1D" points="71.695,109.801 80.739,109.801 81.461,118.696 70.576,118.696 		"/>
	</g>
	<g>
		<polygon fill="#54250E" points="74.307,112.488 77.887,112.488 78.172,116.01 73.867,116.01 		"/>
	</g>
	<g>
		<path fill="#FFFFFF" d="M70.421,89.255c0,0,1.37,8.232,3.842,2.917c0,0,3.261,5.047,3.261-2.483L70.421,89.255z"/>
	</g>
	<g>
		<path fill="#6A924B" d="M70.421,89.255c0,0-4.071-1.531-5.845-1.178c-1.771,0.357-11.079,9.606-11.431,11.368
			c-0.354,1.754,5.319,11.146,7.312,11.047l1.899-5.106l-2.553-4.181l7.491-7.215L70.421,89.255z"/>
	</g>
	<g>
		<path fill="#6A924B" d="M92.813,15.114C91.41,8.552,85.92,3.291,79.54,1.199C73.162-0.894,66.086-0.09,59.85,2.397
			c-6.233,2.488-11.714,6.563-16.719,11.03c-5.432,4.85-10.504,10.286-16.945,13.695c-6.437,3.41-14.813,4.384-20.749,0.156
			c1.029,6.897,6.596,12.807,13.187,15.092c6.59,2.291,13.809,1.874,20.687,0.707c12.369-2.104,24.239-6.519,35.656-11.721
			c4.018-1.837,8.054-3.813,11.329-6.771C89.576,21.632,93.733,19.439,92.813,15.114z"/>
	</g>
	<g>
		<path fill="#E07C1D" d="M49.981,57.87c0,0-0.841,6.702,3.693,9.403v-16.44c0,0,25.56-0.985,33.767-15.173
			c0,0,8.996,15.578,22.553,17.623c0,0,3.992-21.091-10.031-32.074c0,0-26.176-13.021-44.801,0.787
			C36.531,35.811,41.602,54.729,41.602,54.729L49.981,57.87z"/>
	</g>
	<g>
		<path fill="#FFFFFF" d="M39.107,55.896l-6.059-6.541c0,0-0.061-19.945,22.113-31.961c22.172-12.021,44.398-4.025,49.276-1.961
			l-0.835,9.85c0,0-21.088-6.562-40.996,4.233C54.84,33.723,39.107,55.896,39.107,55.896z"/>
	</g>
	<g>
		<path fill="#E7B99B" d="M37.699,51.641c-1.856,1.044,0.074,6.435,1.226,8.221c1.151,1.794,3.023,2.997,4.955,3.896
			c1.37,0.637,3.067,1.117,4.319,0.278c2.81-1.872,2.521-5.501,0.889-8.114C46.893,52.406,40.738,49.933,37.699,51.641z"/>
	</g>
	<g>
		<path fill="#FFFFFF" d="M9.806,26.283c0,2.708-2.194,4.903-4.905,4.903c-2.707,0-4.9-2.195-4.9-4.903
			c0-2.707,2.193-4.902,4.9-4.902C7.611,21.381,9.806,23.576,9.806,26.283z"/>
	</g>
</g>
</svg>
