<?xml version="1.0" encoding="utf-8"?>
<!-- Generator: Adobe Illustrator 16.0.0, SVG Export Plug-In . SVG Version: 6.00 Build 0)  -->
<!DOCTYPE svg PUBLIC "-//W3C//DTD SVG 1.1//EN" "http://www.w3.org/Graphics/SVG/1.1/DTD/svg11.dtd">
<svg version="1.1" id="Слой_1" xmlns="http://www.w3.org/2000/svg" xmlns:xlink="http://www.w3.org/1999/xlink" x="0px" y="0px"
	 width="198px" height="197.918px" viewBox="0 0 198 197.918" enable-background="new 0 0 198 197.918" xml:space="preserve">
<g>
	<g>
		<g>
			<g>
				<defs>
					<path id="SVGID_1_" d="M114.359,113.917c9.495-7.512,39.431,2.563,45.872-3.664c-21.412,20.334,0.407,14.906,16.819,17.217
						c-6.443,8.911-18.298,15.611-14.081,17.177c4.623,1.727,25.776,6.614,31.207,1.448c-3.331,8.203-11.003,8.847-11.29,17.1
						c-0.476,13.754,8.866,17.846,15.114,27.844c-11.794-2.957-20.189-10.764-34.68-7.942c-5.785,1.125-7.552,11.58-12.852,14.822
						c2.644-6.43-5.829-19.768-4.406-28.771c0,0-9.601,7.656-16.453,18.771c2.134-6.081-14.532-21.734-13.487-29.963l-8.328,16.365
						c-10.177-15.087-13.041-26.493-7.005-45.501C103.061,121.666,102.324,123.436,114.359,113.917z"/>
				</defs>
				<clipPath id="SVGID_2_">
					<use xlink:href="#SVGID_1_"  overflow="visible"/>
				</clipPath>
				<g clip-path="url(#SVGID_2_)">
					<g id="XMLID_3364_">
						<path id="XMLID_3449_" fill="#7C9E29" d="M141.481,198.06c1.886-4.289,7.5-8.283,12.69-10.841
							c5.191-2.563,10.549-4.345,15.566-7.457c5.017-3.117,9.788-8.327,9.064-11.76c-0.229-1.086-0.986-1.947-0.617-3.262
							c0.772-2.743,5.377-4.977,7.959-7.688c3.425-3.595,2.692-7.345,5.087-11.141c0.676-1.073,1.612-2.162,2.042-3.218
							c0.456-1.122,0.293-2.08,0.123-2.994c-1.043-5.629-2.089-11.25-3.134-16.879c-0.358-1.93-0.759-3.932-2.346-5.037
							c-1.062-0.737-2.604-1.033-3.599-1.828c-3.621-2.902,1.265-10.396,1.016-15.399c-0.245-4.856-5.91-6.923-12.641-5.172
							c-6.73,1.745-14.008,6.861-18.452,12.476c-3.682-0.286-9.211,0.33-12.019,3.976c-1.094,1.42-1.319,2.841-2.062,4.276
							c-2.03,3.928-8.474,7.531-12.029,6.736c-1.078,1.696-2.154,3.392-3.232,5.09c-8.915,2.978-18.013,7.288-26.624,12.623
							c1.114,3.61,1,9.271-4.562,12.629c-1.74,1.048-3.636,1.564-5.341,2.679c-3.108,2.043-4.362,5.18-5.205,7.816
							c-1.159,3.634-2.318,7.274-3.48,10.91c-1.228,3.841-2.463,7.823-1.569,10.852c1.087,3.688,5.161,5.38,9.354,6.578
							c11.311,3.241,24.708,4.063,39.258,2.412c5.856-0.659,12.548-1.56,14.941,1.686"/>
						<path id="XMLID_3448_" fill="#769125" d="M108.606,158.422c6.75-6.39,13.988-12.219,21.545-17.354
							c1.979-1.346,4.049-2.706,5.553-4.612c0.817-1.034,1.569-2.304,2.713-2.771c0.636-0.264,1.256-0.202,1.859-0.185
							c4.355,0.143,9.407-2.029,13.231-5.683c-2.838-0.605-1.033-5.686,1.91-7.837c2.946-2.148,6.458-2.896,9.29-5.235
							c4.909-4.058,5.466-11.31,2.51-14.984c-2.957-3.674-8.254-4.642-13.384-5.205c-6.209-0.672-12.57-0.958-19.044-0.841
							c-8.399,0.153-17.411,1.111-25.85,5.951c-7.304,4.187-13.496,10.954-18.103,18.175c-5.099,7.994-8.542,17.268-6.951,24.747
							c2.41,11.331,14.823,14.733,23.546,21.017"/>
						<path id="XMLID_3447_" fill="#668221" d="M94.737,157.98c7.85-7.162,16.248-13.738,24.992-19.58
							c2.292-1.529,4.687-3.075,6.447-5.192c0.957-1.146,6.165-6.771,7.485-7.322c0.733-0.31-0.688,0.004,0,0
							c4.973-0.04,8.597,1.363,13.046-2.726c-3.232-0.529-1.06-6.063,2.352-8.502c3.413-2.438,7.443-3.393,10.729-6.03
							c5.694-4.567,6.488-12.384,3.188-16.208c-3.296-3.82-9.33-4.639-15.178-5.017c-7.079-0.461-14.342-0.492-21.744-0.092
							c-9.602,0.524-19.918,1.945-29.666,7.505c-8.437,4.812-15.659,12.351-21.08,20.31c-5.998,8.809-10.131,18.923-8.476,26.89
							c2.508,12.074,16.62,15.204,26.452,21.584"/>
						<g id="XMLID_3370_">
							<path id="XMLID_3446_" fill="#7BA52A" d="M165.161,198.09c9.008-2.909,18.18-6.442,26.586-11.48
								c14.309-8.567,25.156-20.867,31.181-32.657c6.021-11.793,7.665-23.164,7.639-33.809c-0.009-3.542-0.256-7.166-2.747-9.439
								c-2.489-2.267-6.905-2.892-11.307-3.225c-9.816-0.741-21.285-0.109-32.386,5.315c-11.1,5.424-20.413,17.02-16.114,22.917
								c1.342,1.838,3.835,3.181,5.812,4.687c-0.521,0.646-1.034,1.296-1.555,1.938c-0.73,0.904-1.632,1.876-2.638,2.052
								c-0.827,0.15-1.465-0.295-2.236-0.373c-1.757-0.177-3.729,1.554-5.085,3.255c-1.355,1.708-2.603,3.672-4.438,4.729
								c-1.875,1.077-4.314,1.21-5.493,3.07c-1.217,1.915,0.091,4.05-1.175,5.94c-0.944,1.417-2.708,1.82-4.176,2.562
								c-3.121,1.577-5.295,5.533-4.75,8.369c0.738,0.814,1.699,1.32,2.798,1.592c0.006,1.444-0.256,2.927-1.389,4.5
								c-4.032,5.615-13.552,6.374-20.777,9.751c-6.284,2.94-11.044,8.738-11.405,13.237
								C123.311,207.98,145.215,204.535,165.161,198.09z"/>
							<path id="XMLID_3372_" fill="#7BA52A" d="M111.879,203.657c-0.345-0.795-0.454-1.688-0.375-2.638
								c-0.749-0.44-1.462-0.917-2.125-1.443L111.879,203.657z"/>
							<path id="XMLID_3371_" fill="#7BA52A" d="M142.371,172.455c-0.053-0.162-0.059-0.345-0.093-0.516
								c-0.054-0.062-0.123-0.097-0.174-0.154L142.371,172.455z"/>
						</g>
						<g id="XMLID_3366_">
							<path id="XMLID_3369_" fill="#82B52E" d="M169.161,215.478c8.831-4.407,17.721-9.424,25.535-15.688
								c13.299-10.668,22.313-24.135,26.401-36.21c4.087-12.081,3.694-22.951,1.701-32.81c-0.663-3.287-1.589-6.604-4.601-8.235
								c-3.008-1.639-7.715-1.38-12.357-0.856c-10.347,1.175-22.16,3.936-32.705,11.071c-10.546,7.139-18.085,19.665-12.527,24.314
								c1.737,1.45,4.574,2.227,6.911,3.256c-0.425,0.688-0.838,1.395-1.263,2.084c-0.592,0.979-1.346,2.056-2.362,2.409
								c-0.833,0.296-1.577,0-2.396,0.075c-1.859,0.171-3.593,2.141-4.687,3.983c-1.099,1.845-2.029,3.901-3.744,5.227
								c-1.752,1.359-4.264,1.94-5.147,3.888c-0.911,2.008,0.842,3.742-0.125,5.737c-0.722,1.492-2.482,2.203-3.873,3.168
								c-2.953,2.052-4.486,6.138-3.392,8.666c0.916,0.615,2.009,0.897,3.205,0.945c0.273,1.346,0.272,2.76-0.615,4.438
								c-3.158,5.973-12.918,8.483-19.811,12.99c-5.995,3.916-9.873,10.196-9.421,14.438
								C127.458,232.591,149.605,225.243,169.161,215.478z"/>
							<path id="XMLID_3368_" fill="#82B52E" d="M114.771,230.747c-0.506-0.672-0.782-1.484-0.881-2.378
								c-0.856-0.269-1.685-0.578-2.474-0.935L114.771,230.747z"/>
							<path id="XMLID_3367_" fill="#82B52E" d="M140.723,196.014c-0.085-0.136-0.126-0.306-0.19-0.455
								c-0.068-0.044-0.148-0.065-0.212-0.115L140.723,196.014z"/>
						</g>
						<path id="XMLID_3365_" fill="#668221" d="M209.939,149.364c-0.193-2.858-0.402-5.771-1.573-8.115
							c-1.173-2.339-3.507-4.031-6.488-3.626c-1.382,0.183-2.807,0.805-4.197,1.035c-1.391,0.242-2.861-0.027-3.268-1.198
							c-0.406-1.174,0.172-3.187-1.075-3.41c-0.396-0.071-0.879,0.088-1.241-0.047c-0.584-0.211-0.571-1.033-0.655-1.693
							c-0.221-1.713-1.625-2.881-3.413-2.831c-0.543,0.018-1.144,0.125-1.571-0.105c-0.457-0.24-0.604-0.809-0.732-1.338
							c-0.505-2.061-1.136-4.052-1.887-5.962c-0.974-2.481-2.585-5.061-5.554-4.738c-1.893,0.208-3.793,1.563-5.686,2.502
							c-1.893,0.938-4.259,1.375-5.121-0.034c-0.451-0.735-0.398-1.863-1.08-2.374c-0.772-0.584-2.088-0.112-3.23,0.17
							c-4.428,1.084-8.387-1.496-8.541-5.733c-0.15-4.239,3.678-9.503,8.113-10.989c4.558-1.522,8.297,0.742,11.465,2.942
							c4.601,3.207,9.203,6.408,13.803,9.605c3.157,2.199,6.336,4.419,8.79,7.369c2.72,3.274,9.397,5.907,11.08,9.985
							c1.229,2.973-2.43,7.505,0.09,9.318c1.263,0.916,2.877,1.561,3.391,3.114c0.676,2.056,4.945,1.723,3.519,4.068"/>
					</g>
					<path id="XMLID_3363_" fill="#476D1F" d="M120.255,116.486c-2.632,0.741-5.273,2.033-7.701,3.759
						c-0.611,0.434-1.233,0.924-1.651,1.553c-0.381,0.575-3.598,2.729-3.779,3.347c-1.859,6.364-2.201,11.077-5.548,17.235
						c-1.042-2.444-0.682-5.621,0.047-8.69c0.729-3.068-0.573-6.321-0.186-9.349c0.48-3.75,2.322-7.352,4.257-11.052
						c0.486-0.928,1.144-1.846,2.008-2.475c0.988-0.717,2.115-0.972,3.187-1.2c2.378-0.509,4.755-1.02,7.134-1.528
						c3.078-0.656,7.511-3.638,10.344-3.304c2.364,0.278,3.581,1.874,6.126,1.506c1.961-0.29,4.087-1.587,6.067-2.016
						c1.309-0.286,2.083,1.649,3.338,1.652c4.971,0.017,13.759-1.631,18.039-0.055c-6.481,0.167-16.765,2.086-23.491,3.699
						c-3.214,0.767-8.215,1.212-11.06,0.625c-3.423-0.707-5.849,3.065-8.031,3.797c-1.342,0.445-2.855,0.482-4.042,1.454"/>
					<path id="XMLID_3362_" fill="#476D1F" d="M201.913,133.486c-0.385-2.121-1.456-3.923-3.039-5.112
						c-1.017-0.769-2.223-1.278-3.324-1.934c-2.933-1.743-5.061-4.435-7.522-6.74c-0.98-0.91-2.022-1.771-3.204-2.448
						c-1.345-0.76-2.859-1.276-4.368-1.794c-2.01-0.686-4.02-1.373-6.029-2.063c-1.902-0.646-3.829-1.302-5.995-1.353
						c-2.137-0.05-4.498,0.482-6.396-0.122c-1.436-0.452-2.473-1.52-3.859-2.063c-4.258-1.659-10.478,1.974-15.125,1.036
						c-2.498-0.506-4.316-2.402-4.751-4.961c7.811-5.343,16.79-7.62,24.566-6.937c7.775,0.686,14.372,4.181,19.311,9.237
						c2.601,2.657,4.759,5.734,7.165,8.578c2.828,3.344,5.995,6.374,9.466,9.048c0.788,0.604,1.606,1.21,2.042,2.133
						c0.438,0.925,0.411,2.25-0.387,3.329"/>
					<path id="XMLID_3358_" opacity="0.66" fill="#94C442" d="M110.404,168.07c2.373,5.095,5.201,9.932,9.301,13.252
						c12.283,20.517,39.999,19.45,66.522,11.385c5.828-0.962,11.768-2.946,17.7-6.393c1.689-0.985,2.447-2.376,2.5-3.592
						c0.517,0,1.031,0.016,1.536,0.063c4.028,0.388,5.931-6.474,1.942-6.861c-7.053-0.681-14.244,2.567-21.564,5.913
						c-9.651,4.409-17.24,6.78-22.643-0.417c-1.699-2.257-3.054-4.596-5.73-5.833c-2.844-1.311-5.27,0.123-8.157-0.067
						c-3.871-0.265-1.353-5.394-1.026-8.856c0.269-2.846,0.129-5.562-1.217-7.664c-2.046-3.198-6.515-4.266-9.909,0.584
						c-1.587,2.273-0.912,4.115-1.894,6.27c-0.048,0.459-0.099,0.912-0.146,1.367c-1.62,0.085-2.586-0.503-2.902-1.761
						c-0.804-0.922-1.011-2.396-1.872-3.33c-0.756-0.822-1.641-1.4-2.669-1.74c-1.859-1.387-4.129-1.665-6.938-1
						c-1.207,0.289-2.15,1.099-2.739,2.073c-1.872-0.101-3.262-0.856-4.634-2.365c-1.333-1.464-2.445-3.208-3.385-5.114
						c-0.758-1.899-1.49-3.817-2.161-5.774c-0.033-0.088-0.081-0.225-0.135-0.377c-1.545-5.633-2.056-11.953-2.002-17.629
						c0.02-2.399-2.763-3.463-5.029-1.436c-1.068,0.959-1.825,1.917-2.356,2.883c-2.086,0.337-4.612,2.685-4.105,5.184
						C99.092,148.657,103.796,159.193,110.404,168.07z M158.662,190.896c0.474,0.114,0.95,0.227,1.428,0.34
						c-0.549,0.022-1.093,0.036-1.636,0.046C158.525,191.153,158.596,191.025,158.662,190.896z M144.159,165.264
						c0.397,1.6,0.118,3.776-0.25,6.073c-0.019-0.085-0.046-0.152-0.063-0.238c-0.092-0.446-0.327-0.805-0.643-1.077
						c0.041-0.085,0.091-0.17,0.129-0.258C143.795,168.736,143.928,166.918,144.159,165.264z"/>
				</g>
				<g opacity="0.43" clip-path="url(#SVGID_2_)">
					<path id="XMLID_3357_" fill="#476D1F" d="M104.449,121.074c3.806,0.408,7.717,0.849,10.74,2.805
						c2.828,1.827,5.336,4.532,7.897,6.711c12.95,11.013,27.59,25.51,43.293,34.693c3.851,2.257,4.383,5.762,7.569,8.87
						c1.887-3.527,0.521-7.311-1.846-9.325c-2.363-2.015-5.554-2.882-8.16-4.578c-4.541-2.963-7.045-8.27-10.811-12.18
						c-4.84-5.027-11.658-7.658-16.754-12.4c-2.377-2.212-4.355-4.862-6.706-7.109c-6.289-6.005-15.295-8.894-24.941-8.013"/>
					<path id="XMLID_694_" fill="#476D1F" d="M158.861,157.524c-1.594,7.338-2.685,14.672-3.257,21.908
						c-1.372-1.485-1.338-4.079-0.741-6.475c0.593-2.399,0.62-4.575,1.184-6.975c0.894-3.8,1.455-7.762-0.294-10.508
						c-4.817,2.933-6.16,9.406-7.678,14.773c-1.177,4.156-2.896,8.283-5.092,12.211c-0.101-4.479,0.858-9.257,2.772-13.825
						c2.537-6.05,6.856-12.734,5.083-17.952c-0.823-2.426-2.871-3.936-5.051-4.996c-0.761-0.374-1.618-0.706-2.561-0.422
						c-1.1,0.334-2.011,1.401-2.727,2.448c-6.014,8.778-4.854,19.13-6.879,28.899c-1.544-0.59-2.022-2.533-2.086-4.385
						c-0.357-10.248,7.673-21.572,7.372-31.839c-2.896,0.628-5.7-0.173-7.399-2.124c-5.624,8.83-14.353,21.411-12.194,32.488
						c-3.361-4.667,0.793-17.312,3.793-23.891c1.833-4.02,3.676-8.196,3.902-12.248c0.226-4.058-1.613-7.969-5.254-8.446
						c-1.938,6.25-7.901,18.948-8.233,27.763c-2.527-5.506,5.74-23.083,3.912-29.031c5.582,0.354,11.646,0.959,14.645,5.319
						c1.167,1.703,1.761,3.843,2.71,5.72c5.084,10.029,19.342,10.917,24.62,20.807"/>
					<path id="XMLID_693_" fill="#476D1F" d="M166.52,163.244c3.713-2.161,7.809-3.113,11.441-2.664
						c0.509-1.18-0.119-2.341-1.091-2.688c-0.971-0.35-2.169-0.092-3.306,0.238c-2.618,0.751-5.268,1.842-7.842,2.025
						c-2.573,0.179-5.154-0.799-5.802-3.226c4.913-1.291,9.827-3.223,14.589-5.727c-0.521-1.476-2.711-0.918-4.344-0.194
						c-4.097,1.809-8.194,3.62-12.291,5.433c-1.941-1.941-3.45-4.344-4.439-7.077c4.984-3.345,10.418-5.271,15.759-7.15
						c2.917-1.026,6.635-1.781,7.675,0.74c0.611-2.08-1.336-3.46-3.286-3.231c-1.948,0.228-3.894,1.455-5.854,2.185
						c-3.933,1.465-7.956,0.929-11.814,2.849c-1.301,0.653-2.559,1.57-3.892,1.953c-3.644,1.048-6.035-2.144-7.673-5.039
						c6.701-4.629,14.089-7.711,21.305-8.905c-0.198-1.957-2.931-1.536-4.891-0.727c-6.429,2.662-12.823,5.553-19.167,8.673
						c-1.577-1.539-2.877-3.382-3.851-5.458c4.726-3.038,12.425-8.55,21.437-9.605c0.424-1.08-8.081,0.069-9.11,0.446
						c-5.717,2.083-11.378,4.72-16.884,7.853c-1.193-1.861-2.383-3.724-3.576-5.586c4.992-2.491,10.135-4.337,15.25-5.479
						c0.696-0.747-0.486-1.345-1.369-1.172c-6.75,1.309-13.534,3.072-20.291,5.279c0.452,3.024,2.542,5.07,4.549,6.959
						c2.609,2.454,5.215,4.913,7.822,7.365c3.334,3.138,6.675,6.281,10.464,8.848c6.553,4.438,14.597,7.32,18.717,14.315"/>
				</g>
			</g>
		</g>
		<g>
			<g>
				<defs>
					<path id="SVGID_3_" d="M97.935,130.738c4.461,11.254-13.801,37.024-9.694,44.99c-13.311-26.364-14.396-3.906-21.328,11.143
						c-6.68-8.73-9.681-22.009-12.4-18.423c-2.981,3.931-13.753,22.782-10.368,29.47c-6.898-5.553-5.306-13.085-13.123-15.729
						c-13.037-4.422-19.647,3.351-31.022,6.455c6.229-10.445,16.124-16.239,17.591-30.925c0.586-5.867-8.918-10.566-10.492-16.575
						c5.391,4.381,20.604,0.107,28.814,4.054c0,0-4.568-11.393-13.238-21.149c5.207,3.789,24.999-7.667,32.574-4.299l-13.276-12.685
						c17.384-5.403,29.126-4.866,45.597,6.386C93.769,117.688,92.279,116.472,97.935,130.738z"/>
				</defs>
				<clipPath id="SVGID_4_">
					<use xlink:href="#SVGID_3_"  overflow="visible"/>
				</clipPath>
				<g clip-path="url(#SVGID_4_)">
					<g id="XMLID_653_">
						<path id="XMLID_666_" fill="#7C9E29" d="M9.545,132.493c3.564,3.046,5.769,9.568,6.731,15.274
							c0.958,5.709,1.122,11.355,2.661,17.055c1.54,5.702,5.159,11.769,8.655,12.064c1.106,0.096,2.149-0.381,3.301,0.35
							c2.402,1.53,3.219,6.581,5.073,9.836c2.456,4.31,6.258,4.694,9.205,8.072c0.834,0.958,1.601,2.168,2.494,2.888
							c0.943,0.759,1.908,0.878,2.833,0.977c5.686,0.622,11.375,1.236,17.061,1.858c1.957,0.211,3.987,0.409,5.499-0.795
							c1.016-0.806,1.74-2.199,2.79-2.927c3.821-2.63,9.591,4.208,14.455,5.408c4.724,1.169,8.33-3.667,8.593-10.615
							c0.263-6.949-2.541-15.389-6.639-21.261c1.335-3.447,2.335-8.919-0.35-12.657c-1.047-1.454-2.338-2.08-3.5-3.205
							c-3.177-3.075-4.776-10.284-2.985-13.459c-1.317-1.519-2.634-3.044-3.953-4.563c-0.279-9.391-1.791-19.345-4.421-29.129
							c-3.782,0.026-9.168-1.709-10.779-8.001c-0.505-1.967-0.451-3.932-1.032-5.886c-1.062-3.566-3.707-5.67-5.987-7.234
							c-3.148-2.16-6.298-4.316-9.446-6.474c-3.329-2.281-6.787-4.612-9.942-4.626c-3.844-0.021-6.636,3.396-8.991,7.062
							c-6.361,9.905-11.005,22.494-13.612,36.903c-1.049,5.802-2.117,12.47-5.916,13.827"/>
						<path id="XMLID_665_" fill="#769125" d="M56.968,112.418c4.177,8.306,7.679,16.915,10.42,25.629
							c0.716,2.284,1.422,4.656,2.813,6.647c0.755,1.081,1.757,2.162,1.876,3.396c0.066,0.684-0.166,1.261-0.356,1.832
							c-1.389,4.133-0.762,9.591,1.634,14.309c1.393-2.546,5.741,0.646,6.954,4.085c1.21,3.439,0.913,7.018,2.338,10.406
							c2.475,5.862,9.262,8.483,13.629,6.713c4.369-1.774,6.823-6.57,8.836-11.317c2.434-5.754,4.533-11.767,6.286-17.996
							c2.272-8.089,3.948-17,1.744-26.472c-1.909-8.198-6.609-16.079-12.198-22.568C94.757,99.9,86.867,93.934,79.25,93.304
							c-11.549-0.955-18.38,9.955-26.91,16.5"/>
						<path id="XMLID_664_" fill="#668221" d="M61.383,99.265c4.598,9.581,8.479,19.512,11.555,29.568
							c0.809,2.637,1.601,5.373,3.116,7.671c0.824,1.243,4.714,7.851,4.863,9.277c0.083,0.789,0.194-0.662,0,0
							c-1.396,4.773-3.781,7.839-1.145,13.275c1.436-2.943,6.114,0.732,7.465,4.698c1.352,3.973,1.103,8.103,2.683,12.01
							c2.739,6.771,9.999,9.781,14.607,7.723c4.608-2.061,7.127-7.6,9.174-13.092c2.481-6.648,4.601-13.595,6.345-20.801
							c2.26-9.346,3.872-19.632,1.353-30.566c-2.182-9.469-7.325-18.554-13.386-26.035c-6.709-8.282-15.208-15.152-23.313-15.858
							c-12.289-1.073-19.341,11.542-28.284,19.118"/>
						<g id="XMLID_660_">
							<path id="XMLID_663_" fill="#7BA52A" d="M2.702,155.166c0.194,9.465,0.938,19.261,3.341,28.763
								c4.092,16.166,12.747,30.101,22.303,39.262c9.555,9.162,19.981,14.009,30.175,17.044c3.399,1.014,6.94,1.822,9.833,0.088
								c2.888-1.729,4.761-5.781,6.345-9.903c3.534-9.188,6.23-20.352,4.231-32.542c-2-12.194-10.429-24.451-17.31-22.027
								c-2.148,0.755-4.151,2.758-6.164,4.219c-0.466-0.687-0.939-1.367-1.405-2.047c-0.656-0.966-1.331-2.106-1.212-3.119
								c0.097-0.839,0.709-1.319,1.004-2.037c0.676-1.634-0.411-4.018-1.655-5.8c-1.244-1.795-2.765-3.553-3.249-5.615
								c-0.493-2.107,0.084-4.483-1.357-6.144c-1.485-1.722-3.908-1.079-5.356-2.836c-1.081-1.312-0.962-3.12-1.247-4.738
								c-0.608-3.441-3.776-6.664-6.647-6.958c-0.993,0.475-1.752,1.249-2.332,2.229c-1.388-0.415-2.726-1.088-3.912-2.632
								c-4.218-5.476-2.202-14.814-3.358-22.703c-1.005-6.865-5.189-13.09-9.392-14.733C5.275,112.238,2.271,134.206,2.702,155.166z
								"/>
							<path id="XMLID_662_" fill="#7BA52A" d="M12.704,102.535c0.859-0.103,1.749,0.05,2.636,0.4
								c0.637-0.587,1.296-1.135,1.994-1.621L12.704,102.535z"/>
							<path id="XMLID_661_" fill="#7BA52A" d="M33.813,140.719c0.17-0.008,0.347,0.04,0.521,0.056
								c0.071-0.036,0.125-0.09,0.199-0.124L33.813,140.719z"/>
						</g>
						<g id="XMLID_655_">
							<path id="XMLID_659_" fill="#82B52E" d="M-15.104,153.987c1.679,9.732,3.925,19.684,7.678,28.972
								c6.384,15.809,16.688,28.315,27.078,35.707c10.392,7.389,20.914,10.138,30.933,11.073c3.339,0.309,6.781,0.378,9.212-2.036
								c2.43-2.412,3.54-6.99,4.373-11.589c1.854-10.246,2.609-22.357-1.191-34.511c-3.8-12.147-13.625-22.979-19.68-18.995
								c-1.89,1.248-3.449,3.742-5.102,5.687c-0.544-0.604-1.094-1.21-1.638-1.808c-0.765-0.851-1.577-1.884-1.626-2.961
								c-0.041-0.884,0.454-1.51,0.619-2.313c0.372-1.833-1.021-4.06-2.47-5.635c-1.446-1.578-3.147-3.066-3.925-5.092
								c-0.797-2.066-0.632-4.644-2.243-6.047c-1.66-1.454-3.825-0.268-5.46-1.77c-1.218-1.119-1.392-3.013-1.917-4.62
								c-1.115-3.423-4.587-6.063-7.323-5.747c-0.853,0.708-1.44,1.672-1.828,2.797c-1.363-0.119-2.723-0.529-4.074-1.862
								c-4.812-4.74-4.406-14.814-6.734-22.712c-2.03-6.865-6.929-12.391-11.121-13.177
								C-19.488,109.124-18.822,132.451-15.104,153.987z"/>
							<path id="XMLID_658_" fill="#82B52E" d="M-14.07,97.508c0.789-0.292,1.645-0.324,2.528-0.161
								c0.503-0.744,1.037-1.451,1.609-2.1L-14.07,97.508z"/>
							<path id="XMLID_656_" fill="#82B52E" d="M11.722,132.354c0.157-0.036,0.329-0.03,0.492-0.051
								c0.063-0.047,0.105-0.114,0.17-0.167L11.722,132.354z"/>
						</g>
						<path id="XMLID_654_" fill="#668221" d="M36.474,212.069c2.794,0.64,5.65,1.278,8.228,0.833
							c2.576-0.453,4.87-2.199,5.343-5.17c0.215-1.381,0.034-2.923,0.211-4.319c0.173-1.399,0.853-2.735,2.093-2.784
							c1.239-0.05,2.995,1.081,3.576-0.05c0.181-0.354,0.168-0.864,0.397-1.173c0.374-0.502,1.156-0.252,1.811-0.143
							c1.708,0.282,3.228-0.729,3.696-2.447c0.143-0.53,0.208-1.135,0.547-1.482c0.367-0.367,0.955-0.344,1.501-0.318
							c2.116,0.111,4.206,0.081,6.255-0.089c2.651-0.217,5.589-1.016,6.131-3.949c0.347-1.875-0.408-4.086-0.759-6.169
							c-0.352-2.08-0.09-4.475,1.504-4.897c0.834-0.217,1.903,0.16,2.59-0.346c0.778-0.578,0.703-1.973,0.765-3.146
							c0.234-4.55,3.844-7.602,7.946-6.528c4.106,1.074,8.045,6.257,8.189,10.93c0.151,4.807-3.098,7.736-6.123,10.137
							c-4.389,3.483-8.778,6.969-13.168,10.45c-3.013,2.394-6.051,4.802-9.586,6.301c-3.915,1.662-8.36,7.297-12.75,7.736
							c-3.204,0.322-6.487-4.49-8.954-2.599c-1.235,0.949-2.318,2.308-3.955,2.351c-2.163,0.061-3.076,4.244-4.907,2.205"/>
					</g>
					<path id="XMLID_652_" fill="#476D1F" d="M93.779,135.647c0.044-2.735-0.432-5.641-1.387-8.455
						c-0.241-0.718-0.529-1.453-1.009-2.033c-0.442-0.531-1.581-4.227-2.121-4.581c-5.557-3.61-9.976-5.296-14.903-10.276
						c2.633-0.298,5.574,0.962,8.303,2.547c2.732,1.583,6.223,1.27,9.01,2.515c3.449,1.532,6.375,4.336,9.36,7.259
						c0.751,0.729,1.439,1.625,1.792,2.638c0.402,1.148,0.319,2.297,0.232,3.391c-0.199,2.428-0.396,4.846-0.591,7.273
						c-0.257,3.137,1.323,8.242,0.188,10.859c-0.946,2.179-2.828,2.889-3.203,5.43c-0.291,1.963,0.343,4.368,0.182,6.392
						c-0.109,1.335-2.178,1.519-2.545,2.721c-1.444,4.759-2.394,13.646-5.139,17.289c1.706-6.25,2.829-16.653,3.222-23.563
						c0.188-3.295,1.204-8.21,2.587-10.766c1.662-3.073-1.254-6.485-1.326-8.782c-0.043-1.417,0.357-2.873-0.231-4.292"/>
					<path id="XMLID_651_" fill="#476D1F" d="M53.994,208.956c2.141,0.238,4.173-0.269,5.771-1.44
						c1.023-0.751,1.864-1.758,2.807-2.627c2.512-2.306,5.705-3.572,8.618-5.269c1.16-0.67,2.282-1.421,3.266-2.359
						c1.122-1.069,2.055-2.371,2.981-3.671c1.235-1.726,2.469-3.448,3.706-5.175c1.169-1.635,2.35-3.294,3.023-5.356
						c0.664-2.03,0.833-4.442,1.956-6.09c0.848-1.24,2.172-1.927,3.088-3.1c2.815-3.603,1.126-10.604,3.361-14.781
						c1.201-2.25,3.542-3.445,6.12-3.123c2.868,9.017,2.464,18.271-0.428,25.523c-2.892,7.245-8.142,12.562-14.404,15.831
						c-3.29,1.728-6.86,2.912-10.276,4.398c-4.017,1.739-7.829,3.904-11.387,6.457c-0.809,0.581-1.626,1.186-2.634,1.343
						c-1.009,0.152-2.274-0.256-3.078-1.332"/>
					<path id="XMLID_647_" opacity="0.66" fill="#94C442" d="M47.21,111.367c-5.563,0.803-11.009,2.122-15.372,5.091
						C8.66,122.317,1.706,149.167,1.791,176.883c-0.753,5.863-0.56,12.127,1.033,18.799c0.454,1.896,1.563,3.024,2.719,3.426
						c-0.15,0.492-0.312,0.985-0.504,1.45c-1.535,3.749,4.493,7.542,6.01,3.838c2.682-6.56,1.642-14.376,0.543-22.356
						c-1.444-10.509-1.529-18.459,6.913-21.561c2.655-0.979,5.289-1.599,7.239-3.807c2.077-2.353,1.397-5.085,2.415-7.793
						c1.364-3.634,5.551,0.254,8.773,1.566c2.647,1.07,5.291,1.72,7.693,1.04c3.65-1.04,5.959-5.017,2.289-9.663
						c-1.719-2.175-3.681-2.056-5.459-3.613c-0.42-0.179-0.841-0.359-1.263-0.536c0.384-1.576,1.225-2.335,2.52-2.277
						c1.114-0.5,2.583-0.275,3.727-0.825c1.007-0.494,1.811-1.172,2.437-2.056c1.863-1.388,2.78-3.481,2.953-6.364
						c0.073-1.236-0.432-2.371-1.196-3.214c0.638-1.764,1.761-2.879,3.599-3.759c1.788-0.856,3.772-1.42,5.87-1.768
						c2.039-0.181,4.085-0.33,6.152-0.408c0.099-0.007,0.237-0.014,0.401-0.024c5.839,0.143,12.038,1.472,17.462,3.157
						c2.291,0.715,4.111-1.651,2.818-4.403c-0.612-1.299-1.309-2.299-2.08-3.087c0.279-2.093-1.246-5.186-3.782-5.42
						C69.061,106.117,57.612,107.592,47.21,111.367z M11.46,151.009c-0.245,0.422-0.491,0.843-0.734,1.271
						c0.136-0.53,0.278-1.057,0.423-1.583C11.253,150.805,11.355,150.91,11.46,151.009z M40.182,144.498
						c-1.644-0.078-3.647-0.974-5.744-1.989c0.085,0.011,0.163,0.004,0.247,0.011c0.457,0.041,0.865-0.082,1.215-0.309
						c0.072,0.07,0.14,0.139,0.212,0.204C36.967,143.148,38.666,143.798,40.182,144.498z"/>
				</g>
				<g opacity="0.43" clip-path="url(#SVGID_4_)">
					<path id="XMLID_646_" fill="#476D1F" d="M93.933,119.184c-1.485,3.535-3.033,7.147-5.778,9.482
						c-2.564,2.18-5.879,3.803-8.699,5.629c-14.275,9.237-32.372,19.083-45.691,31.479c-3.267,3.038-6.774,2.542-10.669,4.697
						c2.835,2.82,6.852,2.6,9.462,0.917c2.613-1.686,4.355-4.493,6.736-6.498c4.143-3.497,9.944-4.371,14.772-6.849
						c6.208-3.188,10.687-8.962,16.696-12.48c2.806-1.639,5.914-2.764,8.738-4.373c7.559-4.296,12.922-12.086,14.855-21.578"/>
					<path id="XMLID_645_" fill="#476D1F" d="M43.367,160.805c-6.573-3.638-13.278-6.79-20.046-9.421
						c1.815-0.892,4.29-0.106,6.414,1.148c2.124,1.265,4.204,1.914,6.335,3.143c3.383,1.948,7.02,3.63,10.152,2.747
						c-1.421-5.462-7.236-8.609-11.941-11.605c-3.642-2.325-7.099-5.16-10.229-8.396c4.316,1.192,8.619,3.486,12.442,6.634
						c5.067,4.174,10.227,10.236,15.733,10.036c2.558-0.092,4.592-1.62,6.238-3.402c0.572-0.618,1.139-1.345,1.139-2.327
						c0.001-1.145-0.761-2.328-1.557-3.317c-6.677-8.29-16.927-10.154-25.699-14.906c1.006-1.306,3.008-1.206,4.801-0.733
						c9.919,2.606,18.449,13.56,28.369,16.221c0.229-2.956,1.806-5.407,4.165-6.471c-6.834-7.93-16.375-19.909-27.605-21.032
						c5.441-1.875,16.349,5.741,21.787,10.506c3.324,2.913,6.792,5.88,10.611,7.263c3.816,1.386,8.094,0.751,9.6-2.597
						c-5.431-3.656-15.875-13.024-24.223-15.878c6.003-0.84,20.455,12.14,26.677,12.099c-1.946,5.247-4.269,10.875-9.309,12.494
						c-1.964,0.632-4.187,0.58-6.257,0.954c-11.069,1.98-16.021,15.379-27.009,17.588"/>
					<path id="XMLID_643_" fill="#476D1F" d="M35.679,166.491c1.002,4.183,0.739,8.377-0.736,11.728
						c0.98,0.827,2.274,0.558,2.887-0.272c0.613-0.825,0.707-2.052,0.722-3.232c0.036-2.729-0.25-5.576,0.318-8.095
						c0.568-2.511,2.25-4.707,4.762-4.626c-0.179,5.078,0.255,10.34,1.285,15.621c1.557-0.082,1.655-2.335,1.434-4.106
						c-0.554-4.445-1.109-8.891-1.666-13.333c2.414-1.3,5.154-2.055,8.052-2.212c1.774,5.733,2.053,11.493,2.314,17.149
						c0.143,3.082-0.203,6.862-2.917,7.134c1.817,1.186,3.696-0.281,4.039-2.212c0.344-1.935-0.271-4.154-0.404-6.241
						c-0.27-4.19,1.396-7.884,0.666-12.132c-0.244-1.435-0.761-2.903-0.744-4.29c0.044-3.79,3.788-5.158,7.032-5.893
						c2.503,7.741,3.334,15.708,2.396,22.961c1.936,0.375,2.319-2.361,2.107-4.473c-0.7-6.919-1.631-13.885-2.79-20.854
						c1.927-1.063,4.066-1.778,6.331-2.114c1.551,5.4,4.612,14.355,3.03,23.295c0.914,0.716,2.258-7.761,2.197-8.857
						c-0.354-6.074-1.246-12.257-2.664-18.427c2.125-0.606,4.251-1.211,6.378-1.816c0.949,5.496,1.241,10.95,0.863,16.182
						c0.51,0.88,1.426-0.078,1.516-0.976c0.687-6.845,0.948-13.846,0.785-20.952c-3.027-0.436-5.59,0.976-7.979,2.354
						c-3.101,1.792-6.2,3.579-9.303,5.37c-3.961,2.291-7.937,4.585-11.484,7.478c-6.14,4.995-11.212,11.874-19.099,13.802"/>
				</g>
			</g>
		</g>
		<g>
			<g>
				<defs>
					<path id="SVGID_5_" d="M86.518,111.163c-11.282-4.387-17.739-35.306-26.365-37.716c28.373,8.181,12.653-7.895,6.342-23.212
						c10.947,1.047,22.72,7.885,21.942,3.453c-0.853-4.856-7.331-25.578-14.538-27.649c8.762-1.28,13.195,5.015,20.458,1.088
						C106.463,20.579,105.269,10.448,110.733,0c3.414,11.671,0.925,22.863,10.69,33.935c3.898,4.422,13.811,0.66,19.288,3.593
						c-6.883,0.968-14.103,15.021-22.586,18.352c0,0,11.459,4.405,24.511,4.695c-6.323,1.233-11.396,23.534-19.021,26.791
						l18.331-1.094c-7.87,16.411-16.258,24.649-35.708,29.06C98.918,116.995,100.82,116.73,86.518,111.163z"/>
				</defs>
				<clipPath id="SVGID_6_">
					<use xlink:href="#SVGID_5_"  overflow="visible"/>
				</clipPath>
				<g clip-path="url(#SVGID_6_)">
					<g id="XMLID_678_">
						<path id="XMLID_692_" fill="#7C9E29" d="M145.381,45.205c-4.653,0.542-10.936-2.284-15.773-5.465
							c-4.836-3.181-9.082-6.902-14.305-9.656c-5.226-2.748-12.135-4.227-14.732-1.866c-0.821,0.745-1.182,1.84-2.503,2.178
							c-2.755,0.725-7.011-2.117-10.658-2.973c-4.833-1.135-7.695,1.397-12.181,1.248c-1.271-0.041-2.679-0.298-3.81-0.135
							c-1.2,0.176-1.94,0.801-2.644,1.411c-4.323,3.748-8.648,7.493-12.973,11.242c-1.485,1.288-3.008,2.64-3.159,4.571
							c-0.1,1.288,0.426,2.766,0.244,4.031c-0.67,4.591-9.608,4.167-13.796,6.913c-4.068,2.667-2.98,8.599,1.931,13.523
							c4.911,4.918,13.003,8.609,20.096,9.601c1.616,3.324,4.945,7.779,9.513,8.357c1.778,0.224,3.116-0.296,4.729-0.384
							c4.414-0.238,10.786,3.497,11.893,6.97c2.011,0.071,4.021,0.141,6.033,0.207c7.069,6.187,15.396,11.855,24.354,16.586
							c2.552-2.792,7.491-5.558,13.197-2.454c1.786,0.968,3.188,2.345,5.017,3.249c3.334,1.652,6.675,1.141,9.374,0.533
							c3.725-0.835,7.449-1.674,11.171-2.511c3.936-0.889,7.997-1.838,10.155-4.139c2.631-2.804,2.029-7.171,0.945-11.396
							c-2.928-11.4-8.995-23.369-17.78-35.083c-3.536-4.717-7.692-10.038-6.103-13.745"/>
						<path id="XMLID_690_" fill="#769125" d="M127.82,93.612c-8.928-2.587-17.619-5.879-25.871-9.802
							c-2.161-1.027-4.381-2.127-6.786-2.464c-1.303-0.177-2.782-0.183-3.764-0.934c-0.547-0.415-0.813-0.979-1.102-1.509
							c-2.083-3.828-6.51-7.09-11.596-8.538c0.915,2.754-4.379,3.767-7.723,2.311c-3.346-1.451-5.766-4.103-9.217-5.363
							c-5.983-2.178-12.522,1.009-14.194,5.418c-1.672,4.407,0.17,9.468,2.285,14.175c2.555,5.7,5.529,11.328,8.907,16.854
							c4.379,7.171,9.766,14.458,18.208,19.289c7.307,4.183,16.278,6.1,24.837,6.424c9.474,0.352,19.213-1.371,24.859-6.523
							c8.558-7.814,5.21-20.243,6.223-30.949"/>
						<path id="XMLID_689_" fill="#668221" d="M134.454,105.8c-10.148-3.147-20.069-7.063-29.531-11.651
							c-2.481-1.202-5.027-2.488-7.739-2.937c-1.475-0.247-8.962-1.892-10.109-2.749c-0.634-0.479,0.354,0.591,0,0
							c-2.545-4.273-3.17-8.106-8.949-9.877c1.179,3.056-4.695,3.984-8.524,2.273c-3.828-1.713-6.687-4.707-10.625-6.206
							c-6.825-2.604-13.971,0.669-15.597,5.444c-1.627,4.781,0.719,10.393,3.352,15.634c3.185,6.342,6.831,12.623,10.921,18.802
							c5.307,8.018,11.751,16.201,21.481,21.792c8.419,4.847,18.578,7.259,28.182,7.911c10.634,0.717,21.448-0.835,27.485-6.295
							c9.149-8.271,4.706-22.023,5.239-33.73"/>
						<g id="XMLID_685_">
							<path id="XMLID_688_" fill="#7BA52A" d="M133.428,24.763c-7.069-6.294-14.755-12.426-23.352-17.125
								C95.445-0.37,79.347-3.507,66.131-2.739C52.916-1.971,42.27,2.368,33.107,7.776c-3.056,1.802-6.057,3.843-6.757,7.144
								c-0.696,3.294,0.998,7.419,2.938,11.386c4.325,8.842,10.675,18.417,20.968,25.249c10.294,6.831,25.01,8.993,27.918,2.307
								c0.909-2.09,0.808-4.918,1.107-7.384c0.818,0.125,1.637,0.237,2.456,0.362c1.149,0.169,2.444,0.452,3.107,1.23
								c0.547,0.64,0.482,1.415,0.805,2.122c0.739,1.604,3.226,2.434,5.384,2.739c2.158,0.306,4.482,0.389,6.321,1.434
								c1.881,1.075,3.228,3.114,5.428,3.189c2.267,0.082,3.446-2.128,5.722-1.995c1.697,0.102,2.938,1.419,4.319,2.31
								c2.934,1.895,7.451,1.768,9.621-0.138c0.329-1.047,0.277-2.135-0.042-3.219c1.246-0.741,2.651-1.258,4.585-1.079
								c6.884,0.64,12.354,8.463,18.924,12.991c5.712,3.936,13.125,5.104,17.187,3.141C163.128,55.86,149.078,38.707,133.428,24.763
								z"/>
							<path id="XMLID_687_" fill="#7BA52A" d="M165.185,67.905c-0.514,0.7-1.23,1.246-2.087,1.659
								c-0.003,0.869-0.053,1.726-0.17,2.562L165.185,67.905z"/>
							<path id="XMLID_686_" fill="#7BA52A" d="M122.841,57.389c-0.112,0.129-0.265,0.226-0.396,0.341
								c-0.024,0.077-0.019,0.157-0.047,0.23L122.841,57.389z"/>
						</g>
						<g id="XMLID_680_">
							<path id="XMLID_683_" fill="#82B52E" d="M146.403,12.514c-8.27-5.391-17.095-10.515-26.451-14.087
								c-15.926-6.077-32.103-7.038-44.59-4.455C62.875-3.446,53.699,2.392,46.199,9.101c-2.502,2.237-4.891,4.712-4.779,8.134
								c0.112,3.422,2.716,7.354,5.518,11.089c6.249,8.333,14.606,17.127,26.097,22.615c11.491,5.482,26.109,5.652,27.311-1.496
								c0.372-2.233-0.396-5.071-0.693-7.606c0.814,0.018,1.628,0.018,2.44,0.031c1.142,0.018,2.451,0.124,3.273,0.819
								c0.674,0.571,0.798,1.363,1.275,2.029c1.086,1.52,3.667,2.015,5.81,2.029c2.142,0.014,4.389-0.225,6.401,0.585
								c2.057,0.821,3.831,2.697,5.958,2.474c2.195-0.232,2.801-2.625,5.013-2.797c1.65-0.133,3.153,1.031,4.69,1.736
								c3.263,1.51,7.563,0.768,9.19-1.454c0.068-1.103-0.24-2.189-0.806-3.243c1.019-0.918,2.243-1.631,4.14-1.717
								c6.751-0.298,13.854,6.853,21.224,10.519c6.413,3.191,13.794,3.358,17.222,0.822
								C182.259,39.832,164.717,24.443,146.403,12.514z"/>
							<path id="XMLID_682_" fill="#82B52E" d="M187.089,51.711c-0.323,0.771-0.884,1.423-1.607,1.959
								c0.204,0.874,0.36,1.747,0.446,2.607L187.089,51.711z"/>
							<path id="XMLID_681_" fill="#82B52E" d="M144.001,46.895c-0.078,0.142-0.2,0.261-0.299,0.394
								c-0.005,0.081,0.019,0.159,0.01,0.237L144.001,46.895z"/>
						</g>
						<path id="XMLID_679_" fill="#668221" d="M68.747,10.788c-2.369,1.61-4.78,3.265-6.206,5.457
							c-1.425,2.195-1.707,5.071,0.151,7.437c0.862,1.095,2.118,2.013,3.022,3.092c0.908,1.081,1.421,2.485,0.615,3.431
							c-0.806,0.94-2.832,1.461-2.398,2.653c0.137,0.375,0.518,0.711,0.59,1.091c0.112,0.608-0.604,1.016-1.129,1.418
							c-1.369,1.06-1.665,2.861-0.719,4.376c0.288,0.466,0.688,0.925,0.709,1.412c0.022,0.513-0.395,0.934-0.789,1.312
							c-1.519,1.479-2.917,3.028-4.189,4.646c-1.647,2.09-3.057,4.786-1.274,7.185c1.137,1.523,3.267,2.478,5.033,3.636
							c1.766,1.16,3.34,2.978,2.565,4.433c-0.408,0.764-1.409,1.292-1.506,2.135c-0.11,0.963,0.963,1.854,1.782,2.701
							c3.176,3.273,2.954,7.99-0.625,10.268C60.8,79.746,54.324,79.104,50.8,76.028c-3.624-3.153-3.559-7.532-3.261-11.379
							c0.435-5.587,0.868-11.175,1.303-16.762c0.296-3.84,0.602-7.701,1.907-11.311c1.446-4.004,0.34-11.096,3.008-14.608
							c1.944-2.568,7.701-1.698,7.994-4.795c0.146-1.552-0.113-3.269,0.97-4.496c1.429-1.624-1.014-5.139,1.728-5.095"/>
					</g>
					<path id="XMLID_676_" fill="#476D1F" d="M85.751,104.779c1.971,1.897,4.421,3.522,7.139,4.742
						c0.688,0.309,1.42,0.595,2.173,0.642c0.689,0.035,4.177,1.72,4.802,1.564c6.427-1.614,10.668-3.704,17.669-3.93
						c-1.575,2.129-4.5,3.427-7.516,4.351c-3.021,0.924-5.166,3.694-7.974,4.892c-3.474,1.483-7.516,1.715-11.689,1.92
						c-1.045,0.05-2.17-0.056-3.147-0.483c-1.118-0.489-1.907-1.333-2.649-2.142c-1.64-1.794-3.282-3.589-4.923-5.379
						c-2.126-2.321-6.942-4.639-8.085-7.25c-0.955-2.178-0.195-4.041-1.801-6.05c-1.241-1.542-3.436-2.718-4.806-4.21
						c-0.908-0.989,0.367-2.635-0.265-3.714c-2.5-4.295-8.368-11.046-9.17-15.533c3.419,5.503,10.278,13.406,15.072,18.391
						c2.291,2.383,5.199,6.474,6.132,9.227c1.122,3.307,5.603,3.491,7.338,5.006c1.065,0.932,1.862,2.217,3.297,2.751"/>
					<path id="XMLID_675_" fill="#476D1F" d="M59.106,25.742c-1.632,1.407-2.644,3.241-2.87,5.21
						c-0.147,1.26,0.02,2.562,0.014,3.844c-0.019,3.408-1.265,6.605-2.005,9.896c-0.293,1.312-0.508,2.643-0.491,4.004
						c0.021,1.55,0.34,3.113,0.657,4.677c0.425,2.081,0.85,4.161,1.273,6.239c0.405,1.971,0.815,3.964,1.866,5.86
						c1.036,1.868,2.691,3.637,3.132,5.577c0.334,1.472-0.063,2.905,0.172,4.374c0.723,4.514,7,8.041,8.544,12.525
						c0.829,2.409,0.112,4.934-1.876,6.61c-8.559-4.039-15.066-10.631-18.41-17.685c-3.344-7.052-3.664-14.515-1.801-21.333
						c0.979-3.582,2.537-7.004,3.775-10.519c1.455-4.133,2.464-8.395,3.013-12.741c0.125-0.987,0.237-1.999,0.811-2.843
						c0.574-0.843,1.733-1.496,3.067-1.349"/>
					<path id="XMLID_671_" opacity="0.66" fill="#94C442" d="M135.233,87.181c3.194-4.621,5.937-9.508,6.729-14.726
						c11.479-20.973-3.462-44.341-23.834-63.143c-3.78-4.541-8.501-8.657-14.473-12.031c-1.701-0.959-3.283-0.912-4.36-0.34
						c-0.264-0.449-0.507-0.897-0.721-1.359C96.872-8.09,89.99-6.26,91.674-2.621c2.979,6.424,9.419,10.989,16.01,15.611
						c8.685,6.09,14.566,11.439,11.096,19.738c-1.091,2.607-2.426,4.963-2.138,7.892c0.31,3.12,2.773,4.485,4.067,7.076
						c1.735,3.473-3.965,3.895-7.117,5.364c-2.588,1.206-4.864,2.701-5.997,4.928c-1.724,3.382-0.384,7.779,5.519,8.25
						c2.763,0.218,4.014-1.298,6.365-1.542c0.418-0.183,0.836-0.37,1.252-0.558c0.893,1.353,0.876,2.481-0.049,3.392
						c-0.391,1.16-1.556,2.084-1.927,3.298c-0.33,1.071-0.374,2.124-0.153,3.188c-0.255,2.305,0.656,4.397,2.65,6.487
						c0.856,0.894,2.035,1.299,3.171,1.315c0.86,1.665,0.913,3.244,0.304,5.19c-0.589,1.895-1.527,3.735-2.698,5.506
						c-1.256,1.621-2.541,3.219-3.887,4.789c-0.064,0.075-0.153,0.181-0.259,0.306c-4.077,4.182-9.268,7.821-14.195,10.646
						c-2.081,1.196-1.59,4.139,1.307,5.06c1.37,0.439,2.578,0.605,3.677,0.576c1.346,1.631,4.651,2.623,6.55,0.92
						C124.207,106.762,130.92,97.372,135.233,87.181z M130.51,34.006c-0.142-0.465-0.283-0.934-0.429-1.399
						c0.297,0.458,0.584,0.917,0.87,1.383C130.805,33.994,130.657,34,130.51,34.006z M115.738,59.483
						c1.176-1.148,3.195-2.009,5.363-2.855c-0.061,0.055-0.111,0.115-0.173,0.177c-0.34,0.306-0.53,0.686-0.602,1.095
						c-0.097,0.012-0.197,0.012-0.292,0.02C118.913,58.046,117.278,58.851,115.738,59.483z"/>
				</g>
				<g opacity="0.43" clip-path="url(#SVGID_6_)">
					<path id="XMLID_669_" fill="#476D1F" d="M97.705,116.095c-1.574-3.492-3.171-7.087-3.015-10.686
						c0.148-3.362,1.213-6.896,1.798-10.204c2.946-16.745,8.044-36.7,8.027-54.898c-0.003-4.462,2.748-6.694,3.817-11.018
						c-3.994,0.16-6.566,3.255-7.11,6.315c-0.544,3.056,0.326,6.243,0.179,9.353c-0.26,5.418-3.565,10.261-5.035,15.484
						c-1.89,6.719-0.707,13.928-2.219,20.729c-0.709,3.17-1.995,6.216-2.742,9.377c-1.994,8.462,0.064,17.693,5.705,25.571"/>
					<path id="XMLID_668_" fill="#476D1F" d="M101.62,50.717c7.14-2.341,14.016-5.107,20.544-8.271
						c-0.584,1.935-2.838,3.216-5.207,3.916c-2.369,0.697-4.26,1.778-6.614,2.505c-3.729,1.148-7.436,2.671-8.919,5.57
						c4.966,2.674,11.23,0.554,16.631-0.85c4.182-1.091,8.612-1.691,13.109-1.788c-3.81,2.356-8.419,3.942-13.327,4.607
						c-6.505,0.873-14.456,0.529-18.06,4.696c-1.674,1.938-1.939,4.466-1.752,6.886c0.064,0.842,0.211,1.75,0.93,2.418
						c0.841,0.783,2.226,1.027,3.49,1.116c10.616,0.747,18.961-5.492,28.411-8.688c0.275,1.629-1.163,3.024-2.728,4.021
						c-8.66,5.488-22.489,4.293-31.191,9.744c2.01,2.182,2.731,5.006,1.906,7.46c10.461,0.384,25.733,1.55,34.195-5.917
						c-2.328,5.26-15.331,8.072-22.524,8.812c-4.396,0.452-8.93,0.976-12.543,2.834c-3.611,1.853-6.055,5.422-4.629,8.802
						c6.376-1.491,20.344-2.77,28.119-6.943c-3.472,4.965-22.815,6.726-27.021,11.315c-2.518-4.997-5.064-10.533-2.821-15.325
						c0.875-1.87,2.425-3.467,3.562-5.235c6.078-9.455-0.368-22.203,5.49-31.756"/>
					<path id="XMLID_667_" fill="#476D1F" d="M102.684,41.219c-3.746-2.11-6.641-5.159-8.091-8.524
						c-1.272,0.163-1.957,1.289-1.766,2.301c0.19,1.016,1.019,1.917,1.878,2.73c1.973,1.882,4.256,3.616,5.713,5.743
						c1.458,2.128,1.918,4.85,0.152,6.638c-3.6-3.586-7.749-6.849-12.319-9.689c-1.004,1.196,0.581,2.8,2.031,3.843
						c3.633,2.621,7.27,5.237,10.903,7.854c-0.69,2.654-2.002,5.175-3.856,7.409c-5.41-2.607-9.818-6.322-14.14-9.98
						c-2.359-1.991-4.893-4.818-3.246-6.989c-2.101,0.525-2.307,2.897-1.125,4.467c1.183,1.563,3.226,2.625,4.843,3.943
						c3.256,2.655,4.829,6.396,8.439,8.749c1.218,0.795,2.645,1.413,3.649,2.371c2.746,2.61,1.205,6.288-0.465,9.167
						c-7.378-3.437-13.782-8.249-18.457-13.873c-1.593,1.165,0.155,3.309,1.843,4.588c5.55,4.197,11.281,8.25,17.179,12.149
						c-0.53,2.135-1.463,4.188-2.758,6.077c-5.013-2.539-13.659-6.396-19.131-13.631c-1.149,0.178,4.148,6.936,4.995,7.635
						c4.69,3.876,9.825,7.427,15.315,10.588c-1.002,1.97-2.005,3.938-3.011,5.911c-4.673-3.043-8.87-6.544-12.442-10.377
						c-0.993-0.228-0.915,1.099-0.319,1.771c4.547,5.16,9.502,10.114,14.817,14.833c2.381-1.921,3.09-4.759,3.705-7.447
						c0.798-3.491,1.598-6.98,2.394-10.471c1.021-4.463,2.042-8.936,2.34-13.5c0.515-7.902-1.07-16.299,2.882-23.389"/>
				</g>
			</g>
		</g>
	</g>
	<g>
		<polygon fill="#BF2C54" points="140.567,84.002 140.567,129.499 101.614,150.84 101.614,101.077 		"/>
		<g>
			<g>
				<g>
					<polygon fill="#ECD052" points="108.493,98.143 107.435,100.578 104.896,101.88 106.795,102.741 106.432,105.133 
						108.651,103.189 110.893,103.343 110.406,101.326 112.122,99.101 109.667,99.721 					"/>
					<polygon fill="#ECD052" points="124.388,92.186 123.471,94.427 121.273,95.577 122.917,96.426 122.602,98.643 124.525,96.89 
						126.47,97.089 126.048,95.199 127.54,93.165 125.407,93.684 					"/>
					<polygon fill="#ECD052" points="140.567,88.604 139.693,89.856 140.063,91.638 138.359,91.402 136.679,92.989 136.956,90.921 
						135.512,90.091 137.435,89.075 138.241,86.992 139.131,88.421 140.567,88.084 					"/>
				</g>
				<g>
					<polygon fill="#ECD052" points="103.244,117.026 103.957,119.562 101.614,119.067 101.614,114.373 102.462,115.422 
						104.731,115.06 					"/>
					<polygon fill="#ECD052" points="118.087,106.633 117.115,109.002 114.786,110.339 116.528,111.098 116.194,113.402 
						118.232,111.465 120.292,111.534 119.846,109.617 121.423,107.423 119.166,108.105 					"/>
					<polygon fill="#ECD052" points="132.734,100.346 131.885,102.533 129.856,103.716 131.375,104.474 131.083,106.614 
						132.86,104.863 134.659,104.984 134.269,103.182 135.647,101.172 133.675,101.749 					"/>
				</g>
			</g>
			<g>
				<g>
					<polygon fill="#ECD052" points="109.277,123.247 108.226,125.789 105.705,127.36 107.59,128.013 107.229,130.437 
						109.433,128.26 111.66,128.17 111.177,126.213 112.881,123.809 110.443,124.692 					"/>
					<polygon fill="#ECD052" points="125.068,115.589 124.156,117.923 121.972,119.308 123.606,119.976 123.293,122.22 
						125.204,120.264 127.138,120.252 126.718,118.413 128.2,116.225 126.08,116.974 					"/>
					<polygon fill="#ECD052" points="140.567,111.172 140.281,111.608 140.567,112.945 140.567,113.338 138.955,113.297 
						137.283,115.06 137.552,112.969 136.125,112.298 138.04,111.071 138.837,108.914 139.72,110.24 140.567,109.945 					"/>
				</g>
				<g>
					<polygon fill="#ECD052" points="104.066,142.635 104.579,144.615 102.21,144.233 101.614,144.847 101.614,140.761 
						102.051,139.71 103.285,141.113 105.881,140.021 					"/>
					<polygon fill="#ECD052" points="118.809,130.671 117.842,133.139 115.528,134.723 117.258,135.29 116.926,137.624 
						118.952,135.474 120.998,135.319 120.553,133.457 122.122,131.098 119.879,132.021 					"/>
					<polygon fill="#ECD052" points="133.362,122.822 132.519,125.094 130.502,126.494 132.009,127.084 131.722,129.25 
						133.488,127.311 135.276,127.238 134.887,125.484 136.258,123.331 134.298,124.12 					"/>
				</g>
			</g>
		</g>
		<polygon fill="#A7284A" points="101.614,101.077 101.614,150.84 49.121,140.09 49.121,90.326 		"/>
		<polygon fill="#BF2C54" points="45.551,89.592 101.614,101.077 101.614,85.686 45.551,74.2 		"/>
		<polygon fill="#D9A138" points="68.228,94.238 68.228,144.001 79.777,146.366 79.777,96.604 		"/>
		<polygon fill="#EDBC42" points="68.228,78.847 68.228,94.238 79.777,96.604 79.777,81.213 		"/>
		<polygon fill="#CC4469" points="142.977,82.943 101.614,101.077 101.614,85.686 142.977,68.951 		"/>
		<polygon fill="#EDBC42" points="127.187,89.867 127.187,136.831 118.672,141.496 118.672,93.599 		"/>
		<polygon fill="#ECD052" points="127.187,75.339 127.187,89.867 118.672,93.599 118.672,78.784 		"/>
		<polygon fill="#DF6386" points="142.977,68.951 127.188,75.343 127.18,75.343 118.672,78.787 118.663,78.787 101.614,85.682 
			79.785,81.214 79.777,81.214 68.228,78.845 45.551,74.2 67.38,67.12 76.047,64.307 92.795,58.872 104.377,61.199 116.716,63.677 
					"/>
		<polygon fill="#F0D652" points="127.18,75.343 118.672,78.787 118.663,78.787 95.836,73.586 95.827,73.586 84.346,70.975 
			67.38,67.12 76.047,64.307 91.274,67.59 103.1,70.145 		"/>
		<polygon fill="#F0D652" points="116.716,63.677 103.1,70.145 95.836,73.586 79.785,81.214 79.777,81.214 68.228,78.845 
			84.346,70.975 91.274,67.59 104.377,61.199 		"/>
		<g>
			<g>
				<g>
					<polygon fill="#ECD052" points="94.061,102.218 95.073,104.381 97.341,105.121 95.699,106.354 96.086,108.602 94.061,107.194 
						92.04,107.838 92.425,105.743 90.793,103.903 93.05,104.005 					"/>
					<polygon fill="#ECD052" points="78.755,99.396 79.748,101.535 81.97,102.262 80.361,103.485 80.74,105.71 78.755,104.321 
						76.775,104.962 77.153,102.887 75.555,101.069 77.764,101.167 					"/>
					<polygon fill="#ECD052" points="63.759,96.63 64.732,98.747 66.91,99.462 65.334,100.677 65.706,102.876 63.759,101.506 
						61.82,102.145 62.191,100.089 60.625,98.293 62.79,98.385 					"/>
					<polygon fill="#ECD052" points="50.608,97.927 50.969,100.103 49.121,98.792 49.121,94.046 50.02,96.012 52.153,96.717 					
						"/>
				</g>
				<g>
					<polygon fill="#ECD052" points="85.395,112.828 86.396,114.986 88.639,115.737 87.015,116.952 87.398,119.188 85.395,117.775 
						83.398,118.402 83.779,116.32 82.166,114.479 84.396,114.598 					"/>
					<polygon fill="#ECD052" points="70.266,109.913 71.247,112.047 73.443,112.786 71.854,113.993 72.228,116.205 70.266,114.811 
						68.309,115.435 68.682,113.373 67.102,111.554 69.287,111.668 					"/>
					<polygon fill="#ECD052" points="55.441,107.059 56.403,109.169 58.555,109.896 56.997,111.093 57.364,113.283 55.441,111.905 
						53.523,112.527 53.89,110.486 52.34,108.689 54.481,108.797 					"/>
				</g>
			</g>
			<g>
				<g>
					<polygon fill="#ECD052" points="94.061,127.037 95.073,129.217 97.341,129.994 95.699,131.2 96.086,133.453 94.061,132.013 
						92.04,132.625 92.425,130.534 90.793,128.667 93.05,128.808 					"/>
					<polygon fill="#ECD052" points="78.755,123.96 79.748,126.117 81.97,126.88 80.361,128.078 80.74,130.308 78.755,128.887 
						76.775,129.494 77.153,127.425 75.555,125.582 77.764,125.716 					"/>
					<polygon fill="#ECD052" points="63.759,120.946 64.732,123.078 66.91,123.83 65.334,125.019 65.706,127.225 63.759,125.821 
						61.82,126.429 62.191,124.379 60.625,122.557 62.79,122.687 					"/>
					<polygon fill="#ECD052" points="50.608,122.024 50.969,124.207 49.121,122.863 49.121,118.117 50.02,120.101 52.153,120.839 
											"/>
				</g>
				<g>
					<polygon fill="#ECD052" points="85.395,137.502 86.396,139.678 88.639,140.465 87.015,141.652 87.398,143.896 85.395,142.45 
						83.398,143.043 83.779,140.968 82.166,139.101 84.396,139.257 					"/>
					<polygon fill="#ECD052" points="70.266,134.338 71.247,136.488 73.443,137.263 71.854,138.442 72.228,140.662 70.266,139.235 
						68.309,139.826 68.682,137.771 67.102,135.926 69.287,136.075 					"/>
					<polygon fill="#ECD052" points="55.441,131.235 56.403,133.363 58.555,134.125 56.997,135.297 57.364,137.492 55.441,136.084 
						53.523,136.674 53.89,134.639 52.34,132.815 54.481,132.958 					"/>
				</g>
			</g>
		</g>
		<polygon fill="#ECD052" points="101.614,114.373 100.913,115.589 98.55,115.681 100.083,117.125 99.653,119.875 101.614,119.067 
					"/>
		<polygon fill="#ECD052" points="102.051,139.71 101.385,141.496 99.39,140.978 100.72,142.869 100.387,146.366 101.596,144.812 
			102.278,143.896 		"/>
		<polygon fill="#DCDCDC" points="140.57,84.001 140.57,90.543 101.616,107.618 101.616,101.076 		"/>
		<polygon fill="#DCDCDC" points="101.616,101.076 101.616,107.534 49.123,96.784 49.123,90.326 		"/>
		<g>
			<g>
				<g>
					<path fill="#D9A138" d="M95.691,69.762c0,0,1.994-18.373,10.918-16.063s0,11.443,0,11.443s1.575-7.138-1.575-7.453
						C101.884,57.373,97.265,63.881,95.691,69.762z"/>
					<g>
						<path fill="#D9A138" d="M113.433,71.336l-5.359,3.78c0,0-7.975-1.576-12.383-5.354l4.935-2.273
							C100.625,67.489,107.234,71.058,113.433,71.336z"/>
						<path fill="#EDBC42" d="M95.691,69.762c0,0,19.526-12.599,23.097-6.09c3.568,6.509,0.63,8.819-1.47,9.554
							c-2.101,0.735-9.244,1.891-9.244,1.891s3.338-7.217-0.388-8.969c-0.84-0.395-1.822-0.348-2.686-0.012L95.691,69.762z"/>
					</g>
				</g>
				<g>
					<g>
						<path fill="#EDBC42" d="M77.949,71.336l5.357,3.78c0,0,7.975-1.576,12.385-5.354l-4.935-2.273
							C90.756,67.489,84.147,71.058,77.949,71.336z"/>
					</g>
					<path fill="#EDBC42" d="M95.691,69.762c0,0-1.994-18.373-10.919-16.063c-8.924,2.31,0,11.443,0,11.443
						s-1.575-7.138,1.575-7.453C89.496,57.373,94.116,63.881,95.691,69.762z"/>
				</g>
			</g>
			<path fill="#D9A138" d="M95.691,69.762c0,0-19.528-12.599-23.097-6.09c-3.569,6.509-0.63,8.819,1.47,9.554
				c2.099,0.735,9.242,1.891,9.242,1.891s-3.338-7.217,0.389-8.969c0.839-0.395,1.822-0.348,2.686-0.012L95.691,69.762z"/>
		</g>
	</g>
</g>
</svg>
