<?xml version="1.0" encoding="utf-8"?>
<!-- Generator: Adobe Illustrator 16.0.0, SVG Export Plug-In . SVG Version: 6.00 Build 0)  -->
<!DOCTYPE svg PUBLIC "-//W3C//DTD SVG 1.1//EN" "http://www.w3.org/Graphics/SVG/1.1/DTD/svg11.dtd">
<svg version="1.1" id="Слой_1" xmlns="http://www.w3.org/2000/svg" xmlns:xlink="http://www.w3.org/1999/xlink" x="0px" y="0px"
	 width="162px" height="187.153px" viewBox="0 0 162 187.153" enable-background="new 0 0 162 187.153" xml:space="preserve">
<g>
	<g>
		<g>
			<path fill-rule="evenodd" clip-rule="evenodd" fill="#9F3632" d="M92.569,117.706l21.25-10.004
				c4.871,2.896,6.823,7.286,6.134,13.029l-21.078,9.92C88.961,135.159,82.389,122.493,92.569,117.706z"/>
			<path fill-rule="evenodd" clip-rule="evenodd" fill="#4E4E4E" d="M121.404,103.694c4.086-3.373,7.888-3.635,6.45,1.303
				c1.93-1.208,6.793-2.428,8.239,0.794c2.857,6.372-4.274,10.81-12.273,11.518C119.138,117.724,114.26,109.591,121.404,103.694z"/>
			<path fill-rule="evenodd" clip-rule="evenodd" fill="#FFFFFF" d="M119.331,120.913c-0.737-4.348-3.747-10.303-6.061-12.857
				c-0.713-0.786,0.029-1.544,0.618-1.844c1.768-0.899,3.673-1.697,4.872-0.459c3.124,3.23,5.459,8.244,5.853,12.511
				c0.149,1.624-1.784,2.625-3.466,3.368C120.367,121.976,119.475,121.765,119.331,120.913z"/>
		</g>
		<g>
			<path fill-rule="evenodd" clip-rule="evenodd" fill="#4E4E4E" d="M30.331,158.571c-1.3,0.734-4.419-0.879-6.881,1.296
				c-2.461,2.175-3.995,5.47,2.982,11.797c6.476,5.872,10.942,3.192,13.942-1.376C43.375,165.717,34.576,156.171,30.331,158.571z"/>
			
				<rect x="33.676" y="140.537" transform="matrix(0.765 -0.644 0.644 0.765 -82.9441 69.4841)" fill-rule="evenodd" clip-rule="evenodd" fill="#9F3632" width="40.144" height="15.743"/>
			<path fill-rule="evenodd" clip-rule="evenodd" fill="#FFFFFF" d="M45.462,165.531c-3.982-2.717-8.523-8.429-10.002-11.894
				c-0.456-1.068-1.548-0.677-2.116-0.228c-0.354,0.279-0.707,0.567-1.036,0.862c-1.689,1.356-3.247,2.875-2.625,4.592
				c1.657,4.571,5.589,9.159,9.754,11.527c1.538,0.875,3.449-0.598,4.997-1.959c0.314-0.249,0.62-0.51,0.91-0.768
				C46.043,167.047,46.242,166.064,45.462,165.531z"/>
		</g>
		<g>
			<path fill-rule="evenodd" clip-rule="evenodd" fill="#4E4E4E" d="M78.9,176.434c-0.15,1.486,2.58,3.691,1.579,6.82
				c-1,3.128-3.4,5.857-11.998,2.015c-7.98-3.568-7.324-8.735-4.348-13.32C67.112,167.365,79.389,171.583,78.9,176.434z"/>
			
				<rect x="58.717" y="143.036" transform="matrix(0.2821 -0.9594 0.9594 0.2821 -88.2132 183.9314)" fill-rule="evenodd" clip-rule="evenodd" fill="#9F3632" width="40.145" height="15.741"/>
			<path fill-rule="evenodd" clip-rule="evenodd" fill="#FFFFFF" d="M66.442,165.379c4.091,2.554,11.146,4.413,14.914,4.375
				c1.16-0.013,1.24,1.146,1.058,1.846c-0.113,0.436-0.235,0.874-0.373,1.296c-0.563,2.09-1.325,4.128-3.147,4.248
				c-4.854,0.32-10.634-1.435-14.477-4.295c-1.42-1.058-0.841-3.397-0.217-5.364c0.102-0.387,0.219-0.771,0.337-1.14
				C64.822,165.456,65.641,164.878,66.442,165.379z"/>
		</g>
		<g>
			<path fill-rule="evenodd" clip-rule="evenodd" fill="#9F3632" d="M42.371,117.829l-19.516-13.069
				c-5.247,2.134-7.834,6.184-8.012,11.964l19.355,12.963C43.326,135.625,51.718,124.084,42.371,117.829z"/>
			<path fill-rule="evenodd" clip-rule="evenodd" fill="#4E4E4E" d="M15.956,99.662c-3.536-3.945-7.255-4.774-6.573,0.323
				c-1.728-1.483-6.353-3.418-8.265-0.447c-3.778,5.872,2.609,11.327,10.413,13.224C16.096,113.873,22.136,106.561,15.956,99.662z"
				/>
			<path fill-rule="evenodd" clip-rule="evenodd" fill="#FFFFFF" d="M15.43,116.998c1.378-4.19,5.245-9.629,7.915-11.808
				c0.824-0.671,0.202-1.53-0.336-1.916c-1.612-1.153-3.377-2.226-4.747-1.181c-3.573,2.727-6.632,7.334-7.657,11.493
				c-0.391,1.584,1.369,2.863,2.92,3.849C14.247,117.893,15.161,117.819,15.43,116.998z"/>
		</g>
		<g>
			<path fill-rule="evenodd" clip-rule="evenodd" fill="#BE4945" d="M72.9,160.376c20.411,0,37.058-14.37,37.058-31.989
				c0-17.621-16.646-31.991-37.058-31.991c-20.41,0-37.058,14.37-37.058,31.991C35.842,146.006,52.49,160.376,72.9,160.376z"/>
			<path fill-rule="evenodd" clip-rule="evenodd" fill="#4E4E4E" d="M99.651,150.523c-15.91,6.982-37.455,6.96-53.673-0.154
				c-3.048-2.783-5.524-6.035-7.267-9.62c19.229,12.219,49.148,12.219,68.376,0C105.314,144.401,102.779,147.708,99.651,150.523z"/>
			<path fill="#E49234" d="M72.9,147.248h3.656c0.893,0,1.704,0.365,2.293,0.954l0.005,0.005c0.588,0.589,0.953,1.4,0.953,2.292
				v4.593c0,0.891-0.365,1.702-0.953,2.291l-0.005,0.005c-0.589,0.589-1.4,0.955-2.293,0.955H72.9v-2.786h3.656
				c0.13,0,0.247-0.051,0.331-0.134l0.003-0.003c0.082-0.085,0.133-0.2,0.133-0.328v-4.593c0-0.129-0.051-0.246-0.133-0.33
				l-0.003-0.001c-0.084-0.084-0.201-0.135-0.331-0.135H72.9V147.248z M69.243,147.248H72.9v2.785h-3.657
				c-0.128,0-0.244,0.051-0.328,0.135l-0.003,0.001c-0.083,0.084-0.134,0.201-0.134,0.33v4.593c0,0.128,0.051,0.243,0.134,0.328
				l0.003,0.003c0.084,0.083,0.2,0.134,0.328,0.134H72.9v2.786h-3.657c-0.891,0-1.702-0.366-2.29-0.955l-0.007-0.005
				c-0.588-0.589-0.954-1.4-0.954-2.291v-4.593c0-0.892,0.366-1.703,0.954-2.292l0.007-0.005
				C67.541,147.613,68.352,147.248,69.243,147.248z"/>
		</g>
		<g>
			
				<ellipse transform="matrix(-0.2637 -0.9646 0.9646 -0.2637 -8.3218 183.512)" fill-rule="evenodd" clip-rule="evenodd" fill="#FFFFFF" cx="65.879" cy="94.932" rx="25.584" ry="42.449"/>
			
				<ellipse transform="matrix(-0.2637 -0.9646 0.9646 -0.2637 -46.5794 168.9668)" fill-rule="evenodd" clip-rule="evenodd" fill="#FFFFFF" cx="41.198" cy="102.261" rx="15.443" ry="16.693"/>
			
				<ellipse transform="matrix(-0.2637 -0.9646 0.9646 -0.2637 -6.2083 178.2951)" fill-rule="evenodd" clip-rule="evenodd" fill="#EAC7B3" cx="64.947" cy="91.517" rx="25.961" ry="29.95"/>
			<g>
				
					<ellipse transform="matrix(-0.2637 -0.9646 0.9646 -0.2637 -34.293 188.8931)" fill-rule="evenodd" clip-rule="evenodd" fill="#FFFFFF" cx="54.948" cy="107.535" rx="15.442" ry="17.709"/>
				
					<ellipse transform="matrix(-0.2636 -0.9646 0.9646 -0.2636 6.5673 205.4566)" fill-rule="evenodd" clip-rule="evenodd" fill="#FFFFFF" cx="81.703" cy="100.222" rx="15.442" ry="17.709"/>
			</g>
			
				<ellipse transform="matrix(-0.2637 -0.9646 0.9646 -0.2637 -56.332 195.5202)" fill-rule="evenodd" clip-rule="evenodd" fill="#FFFFFF" cx="46.455" cy="119.259" rx="16.779" ry="16.693"/>
			
				<ellipse transform="matrix(-0.2637 -0.9646 0.9646 -0.2637 12.1353 231.0677)" fill-rule="evenodd" clip-rule="evenodd" fill="#FFFFFF" cx="94.257" cy="110.902" rx="16.778" ry="16.693"/>
			
				<ellipse transform="matrix(-0.2637 -0.9646 0.9646 -0.2637 -28.4246 233.0297)" fill-rule="evenodd" clip-rule="evenodd" fill="#FFFFFF" cx="74.729" cy="127.364" rx="16.778" ry="16.694"/>
			<path fill="#4E4E4E" d="M47.312,88.521c-0.042,0.349-0.36,0.596-0.708,0.554c-0.35-0.045-0.596-0.361-0.554-0.71
				c0.072-0.563,0.346-1.106,0.769-1.606c0.738-0.874,1.961-1.647,3.313-2.155c1.346-0.506,2.841-0.759,4.136-0.594
				c0.863,0.109,1.645,0.397,2.254,0.916c0.27,0.225,0.305,0.627,0.078,0.896c-0.227,0.27-0.628,0.303-0.896,0.077
				c-0.412-0.349-0.966-0.548-1.591-0.627c-1.088-0.137-2.367,0.085-3.534,0.522c-1.16,0.436-2.188,1.077-2.786,1.784
				C47.524,87.897,47.352,88.218,47.312,88.521z"/>
			<circle fill-rule="evenodd" clip-rule="evenodd" fill="#DFA9A0" cx="64.796" cy="90.966" r="8.16"/>
			<path fill-rule="evenodd" clip-rule="evenodd" fill="#FFFFFF" d="M73.432,71.916c-4.264-0.072-7.749,1.506-7.782,3.526
				c-0.034,2.021,3.708,0.032,7.972,0.105c4.264,0.072,7.435,2.179,7.468,0.158C81.125,73.686,77.697,71.989,73.432,71.916z"/>
			<path fill-rule="evenodd" clip-rule="evenodd" fill="#FFFFFF" d="M48.132,78.832c3.634-2.23,7.437-2.645,8.495-0.923
				c1.057,1.722-3.177,1.913-6.811,4.146c-3.635,2.23-5.293,5.655-6.35,3.936C42.411,84.268,44.5,81.064,48.132,78.832z"/>
			<path fill="#DFA9A0" d="M59.871,102.243c-0.259-0.236-0.276-0.64-0.038-0.898c0.237-0.259,0.64-0.276,0.898-0.038
				c0.431,0.396,1.029,0.686,1.733,0.876c1.526,0.412,3.5,0.35,5.378-0.118c1.869-0.466,3.623-1.327,4.717-2.52
				c0.475-0.517,0.822-1.095,0.993-1.725c0.091-0.339,0.44-0.54,0.778-0.448c0.339,0.092,0.539,0.44,0.448,0.779
				c-0.227,0.839-0.675,1.593-1.282,2.255c-1.271,1.382-3.253,2.37-5.343,2.891c-2.08,0.519-4.288,0.579-6.021,0.113
				C61.237,103.167,60.457,102.782,59.871,102.243z"/>
			<path fill-rule="evenodd" clip-rule="evenodd" fill="#BE4945" d="M80.323,56.027c-7.945-18.628-22.17-31.868-41.825-14.26
				C18.842,59.374,12.32,67.704,34.875,63.292C57.235,58.919,65.248,60.554,80.323,56.027z"/>
			<path fill-rule="evenodd" clip-rule="evenodd" fill="#9F3632" d="M40.118,61.79c-1.387-4.083,3.01-15.692,11.665-17.652
				C60.44,42.176,42.774,45.789,40.118,61.79z"/>
			<circle fill-rule="evenodd" clip-rule="evenodd" fill="#FFFFFF" cx="19.912" cy="60.305" r="12.195"/>
			<path fill-rule="evenodd" clip-rule="evenodd" fill="#FFFFFF" d="M53.854,50.935c17.865-4.885,35.781,3.71,40.015,19.196
				c0.978,3.579,1.139,7.214,0.589,10.747c-7.555-9.187-21.318-13.399-35.055-9.645c-13.737,3.754-23.444,14.383-25.273,26.135
				c-2.271-2.762-3.983-5.972-4.962-9.551C24.936,72.332,35.989,55.818,53.854,50.935z"/>
			<circle fill-rule="evenodd" clip-rule="evenodd" fill="#EBC1B8" cx="61.134" cy="88.143" r="2.215"/>
			<path fill="#4E4E4E" d="M80.074,79.065c0.214,0.277,0.162,0.678-0.116,0.892c-0.277,0.214-0.677,0.161-0.892-0.115
				c-0.187-0.241-0.498-0.432-0.892-0.568c-0.875-0.305-2.086-0.335-3.306-0.119c-1.229,0.216-2.443,0.677-3.31,1.348
				c-0.498,0.386-0.873,0.839-1.052,1.35c-0.116,0.331-0.479,0.506-0.81,0.391c-0.333-0.117-0.507-0.48-0.391-0.812
				c0.265-0.756,0.789-1.404,1.476-1.936c1.032-0.801,2.448-1.343,3.862-1.592c1.425-0.252,2.87-0.207,3.95,0.169
				C79.212,78.289,79.727,78.617,80.074,79.065z"/>
		</g>
		<g>
			<g>
				<path fill-rule="evenodd" clip-rule="evenodd" fill="#BE4945" d="M148.747,78.039c1.043-0.805,5.939-1.7,6.793-1.283
					c0.854,0.418,0.313,5.401-0.694,5.792c-1.01,0.391-5.69-1.401-6.52-2.192C147.499,79.563,147.858,78.721,148.747,78.039z"/>
				<path fill-rule="evenodd" clip-rule="evenodd" fill="#9F3632" d="M148.194,79c0.206-0.956,2.997-1.591,3.061-0.778
					c0.063,0.814-2.486-0.001-2.549,0.761c-0.064,0.765,1.656,0.72,1.244,1.469C149.573,81.136,147.987,79.954,148.194,79z"/>
				<path fill-rule="evenodd" clip-rule="evenodd" fill="#BE4945" d="M145.702,76.182c0.173-1.284-1.556-5.832-2.362-6.33
					s-4.921,2.517-4.747,3.56s4.162,4.028,5.285,4.312C145.002,78.007,145.556,77.275,145.702,76.182z"/>
				<path fill-rule="evenodd" clip-rule="evenodd" fill="#9F3632" d="M145.139,77.138c0.735-0.663-0.14-3.32-0.889-2.954
					c-0.75,0.365,1.279,2.073,0.64,2.519s-1.485-1.013-1.935-0.283C142.546,77.086,144.405,77.802,145.139,77.138z"/>
				<path fill-rule="evenodd" clip-rule="evenodd" fill="#9F3632" d="M147.52,77.151c1.11,0.729,1.68,0.958,1.007,2.041
					c-0.669,1.083-0.532,1.474-2.573,0.434c-2.041-1.043-2.181-1.514-1.382-2.367C145.374,76.404,145.746,75.987,147.52,77.151z"/>
				<path fill-rule="evenodd" clip-rule="evenodd" fill="#BE4945" d="M147.422,77.248c1,0.643,1.508,0.85,0.945,1.745
					c-0.563,0.894-0.432,1.228-2.264,0.299c-1.832-0.93-1.969-1.33-1.285-2.028C145.502,76.563,145.821,76.222,147.422,77.248z"/>
			</g>
			<g>
				
					<rect x="122.445" y="78.339" transform="matrix(0.8708 0.4916 -0.4916 0.8708 63.6573 -55.8047)" fill-rule="evenodd" clip-rule="evenodd" fill="#ECB368" width="31.157" height="29.794"/>
				
					<rect x="127.711" y="83.033" transform="matrix(0.8708 0.4916 -0.4916 0.8708 59.7574 -59.5999)" fill-rule="evenodd" clip-rule="evenodd" fill="#D69544" width="31.155" height="1.753"/>
				
					<rect x="127.145" y="78.046" transform="matrix(0.8708 0.4916 -0.4916 0.8708 58.4392 -60.8728)" fill-rule="evenodd" clip-rule="evenodd" fill="#ECB368" width="35.83" height="5.452"/>
			</g>
			
				<rect x="136.644" y="76.336" transform="matrix(0.8706 0.492 -0.492 0.8706 63.347 -56.2241)" fill-rule="evenodd" clip-rule="evenodd" fill="#BE4945" width="3.813" height="31.937"/>
		</g>
		<g>
			<g>
				<path fill-rule="evenodd" clip-rule="evenodd" fill="#BE4945" d="M126.54,39.665c0.142-1.31,2.881-5.466,3.773-5.793
					c0.891-0.327,4.117,3.51,3.701,4.509c-0.415,0.999-4.948,3.14-6.092,3.19C126.778,41.621,126.419,40.78,126.54,39.665z"/>
				<path fill-rule="evenodd" clip-rule="evenodd" fill="#9F3632" d="M126.853,40.73c-0.548-0.81,0.923-3.265,1.556-2.748
					c0.631,0.518-1.722,1.793-1.215,2.367c0.508,0.572,1.665-0.699,1.922,0.117C129.35,41.212,127.398,41.539,126.853,40.73z"/>
				<path fill-rule="evenodd" clip-rule="evenodd" fill="#BE4945" d="M123.094,40.58c-0.809-1.013-5.287-2.91-6.206-2.673
					c-0.917,0.239-1.587,5.295-0.712,5.892c0.872,0.596,5.787-0.221,6.77-0.836C123.928,42.348,123.782,41.442,123.094,40.58z"/>
				<path fill-rule="evenodd" clip-rule="evenodd" fill="#9F3632" d="M123.395,41.647c0.03-0.989-2.494-2.194-2.748-1.401
					c-0.255,0.796,2.383,0.511,2.262,1.281c-0.121,0.769-1.759,0.37-1.542,1.199C121.565,43.483,123.366,42.636,123.395,41.647z"/>
				<path fill-rule="evenodd" clip-rule="evenodd" fill="#9F3632" d="M125.05,39.937c1.295-0.298,1.854-0.549,2.172,0.685
					c0.319,1.233,0.696,1.405-1.468,2.158c-2.165,0.753-2.602,0.529-2.665-0.64C123.027,40.971,122.983,40.414,125.05,39.937z"/>
				<path fill-rule="evenodd" clip-rule="evenodd" fill="#BE4945" d="M125.053,40.075c1.154-0.278,1.658-0.501,1.914,0.524
					s0.588,1.161-1.351,1.841c-1.938,0.68-2.321,0.503-2.354-0.476C123.232,40.988,123.206,40.521,125.053,40.075z"/>
			</g>
			<g>
				
					<rect x="114.521" y="43.024" transform="matrix(0.9574 -0.2889 0.2889 0.9574 -11.1863 40.0589)" fill-rule="evenodd" clip-rule="evenodd" fill="#D2E9F4" width="31.157" height="29.793"/>
				
					<rect x="111.427" y="46.791" transform="matrix(0.9574 -0.2889 0.2889 0.9574 -8.3557 38.7266)" fill-rule="evenodd" clip-rule="evenodd" fill="#C0DCEA" width="31.158" height="1.753"/>
				
					<rect x="108.05" y="41.492" transform="matrix(0.9574 -0.2889 0.2889 0.9574 -7.4036 38.2755)" fill-rule="evenodd" clip-rule="evenodd" fill="#D2E9F4" width="35.828" height="5.453"/>
			</g>
			
				<rect x="127.883" y="40.928" transform="matrix(0.9574 -0.2889 0.2889 0.9574 -10.9029 39.922)" fill-rule="evenodd" clip-rule="evenodd" fill="#BE4945" width="3.813" height="31.936"/>
		</g>
		<g>
			<g>
				<path fill-rule="evenodd" clip-rule="evenodd" fill="#BE4945" d="M143.275,5.585c0.667-1.134,4.878-3.791,5.825-3.721
					c0.948,0.069,2.305,4.895,1.514,5.634c-0.791,0.738-5.803,0.82-6.866,0.394S142.705,6.551,143.275,5.585z"/>
				<path fill-rule="evenodd" clip-rule="evenodd" fill="#9F3632" d="M143.12,6.685c-0.165-0.962,2.188-2.593,2.55-1.861
					c0.363,0.731-2.307,0.924-2.081,1.656c0.226,0.731,1.805,0.05,1.701,0.898C145.196,8.155,143.282,7.647,143.12,6.685z"/>
				<path fill-rule="evenodd" clip-rule="evenodd" fill="#BE4945" d="M139.757,4.999c-0.318-1.256-3.617-4.832-4.552-4.994
					c-0.935-0.16-3.628,4.17-3.078,5.072c0.551,0.903,5.363,2.188,6.512,2.032S140.03,6.066,139.757,4.999z"/>
				<path fill-rule="evenodd" clip-rule="evenodd" fill="#9F3632" d="M139.592,6.096c0.434-0.89-1.366-3.029-1.926-2.411
					c-0.561,0.619,1.959,1.448,1.532,2.099c-0.427,0.651-1.757-0.387-1.901,0.457C137.167,7.013,139.158,6.985,139.592,6.096z"/>
				<path fill-rule="evenodd" clip-rule="evenodd" fill="#9F3632" d="M141.806,5.22c1.302,0.261,1.914,0.264,1.695,1.519
					c-0.22,1.256,0.055,1.568-2.228,1.361c-2.283-0.207-2.588-0.593-2.164-1.683C139.535,5.327,139.725,4.801,141.806,5.22z"/>
				<path fill-rule="evenodd" clip-rule="evenodd" fill="#BE4945" d="M141.75,5.347c1.168,0.222,1.717,0.227,1.528,1.267
					c-0.189,1.041,0.056,1.3-1.99,1.12c-2.046-0.181-2.323-0.5-1.947-1.403C139.715,5.426,139.884,4.991,141.75,5.347z"/>
			</g>
			<g>
				
					<rect x="123.409" y="8.789" transform="matrix(0.9913 0.1317 -0.1317 0.9913 4.3291 -18.0951)" fill-rule="evenodd" clip-rule="evenodd" fill="#ECB368" width="31.156" height="29.793"/>
				
					<rect x="124.819" y="12.192" transform="matrix(0.9913 0.1317 -0.1317 0.9913 2.9434 -18.3733)" fill-rule="evenodd" clip-rule="evenodd" fill="#D69544" width="31.156" height="1.753"/>
				
					<rect x="122.957" y="6.772" transform="matrix(0.9913 0.1316 -0.1316 0.9913 2.4763 -18.4626)" fill-rule="evenodd" clip-rule="evenodd" fill="#ECB368" width="35.829" height="5.452"/>
			</g>
			
				<rect x="137.223" y="6.656" transform="matrix(0.9913 0.1314 -0.1314 0.9913 4.1794 -18.0866)" fill-rule="evenodd" clip-rule="evenodd" fill="#BE4945" width="3.812" height="31.934"/>
		</g>
	</g>
</g>
</svg>
